<svg xmlns="http://www.w3.org/2000/svg">

    <symbol id="webmoney" viewBox="0 0 25.25 25">
        <path fill="#006cb5"
              d="M23.780,14.535 L22.416,13.081 L23.878,11.725 L25.242,13.178 L23.780,14.535 ZM20.467,8.624 L21.929,7.267 L23.293,8.818 L21.831,10.078 L20.467,8.624 ZM18.517,4.167 L20.077,2.810 L21.441,4.360 L19.979,5.717 L18.517,4.167 ZM15.983,0.969 L12.962,3.585 L11.305,1.647 L5.750,6.589 L9.259,10.368 L7.894,11.628 L11.403,15.504 L10.038,16.667 L15.009,22.190 L17.933,19.477 L20.388,22.280 C18.242,23.979 15.529,25.000 12.572,25.000 C5.629,25.000 0.000,19.404 0.000,12.500 C0.000,5.597 5.629,-0.000 12.572,-0.000 C14.867,-0.000 17.011,0.621 18.862,1.688 L17.738,2.713 L15.983,0.969 ZM19.589,16.667 L17.543,14.438 L19.882,12.403 L21.929,14.729 L19.589,16.667 ZM19.979,9.981 L17.640,12.016 L15.593,9.690 L17.933,7.655 L19.979,9.981 ZM17.835,5.523 L15.593,7.461 L13.547,5.232 L15.886,3.198 L17.835,5.523 ZM11.110,3.973 L13.839,6.977 L10.818,9.690 L7.992,6.686 L11.110,3.973 ZM18.030,17.248 L15.106,19.864 L12.377,16.957 L15.399,14.244 L18.030,17.248 ZM13.254,9.012 L15.983,12.112 L12.962,14.729 L10.233,11.822 L13.254,9.012 ZM21.734,16.957 L23.780,19.186 L21.636,21.221 L19.589,18.895 L21.734,16.957 Z"/>
    </symbol>

    <symbol id="yandexmoney" viewBox="0 0 20 24">
        <path fill="#f58220"
              d="M12.925,0.289 L1.256,7.283 C1.256,7.283 0.052,8.138 0.016,9.303 C-0.021,10.469 0.016,22.125 0.016,22.125 C0.016,22.125 0.563,23.971 2.131,23.990 C3.699,24.010 18.250,23.990 18.250,23.990 C18.250,23.990 20.000,23.990 20.000,22.203 C20.000,20.416 20.000,9.692 20.000,9.692 C20.000,9.692 19.727,8.215 18.541,8.215 C17.356,8.215 17.010,8.215 17.010,8.215 L17.010,16.064 C17.010,16.064 17.210,17.909 14.895,18.628 C12.579,19.347 3.881,21.892 3.881,21.892 C3.881,21.892 2.860,22.164 2.933,21.348 C3.006,20.532 3.189,20.707 4.757,20.027 C6.325,19.347 13.436,16.375 13.436,16.375 C13.436,16.375 15.113,15.675 15.113,13.422 C15.113,11.168 15.113,11.032 15.113,11.168 C15.113,11.304 15.113,1.610 15.113,1.610 C15.113,1.610 15.460,-0.819 12.925,0.289 ZM11.102,6.972 C11.102,6.972 11.868,6.836 11.904,8.060 C11.941,9.284 10.519,10.022 10.300,10.080 C10.081,10.139 9.151,10.391 9.206,9.070 C9.260,7.749 10.519,6.836 11.102,6.972 Z"/>
    </symbol>

    <symbol id="privatbank" viewBox="0 0 670 510">
        <polygon fill="#444" points="114.2,585.6 337.6,585.6 337.6,362.2 114.2,362.2 114.2,585.6 "/>
        <path fill="#5b9b21"
              d="M114.4,14.3v278h59.1c155.4,0,234.3,78.9,234.3,234.3v59.1h278V14.3H114.4L114.4,14.3z M567.7,132.5L567.7,132.5c0,75.9,0,259.2,0,335.1c-21.3,0-25,0-45.6,0c-19.6-165.7-123.9-269.8-289.6-289.5c0-20.7,0-24.3,0-45.6 C308.5,132.5,491.8,132.5,567.7,132.5L567.7,132.5z"/>
    </symbol>

    <symbol id="qiwi" viewBox="0 0 1000 1000">
        <g>
            <path fill="#ff8c00"
                  d="M967.9,984.1c-1.4-6.1-3.1-12.3-5.6-17.9c-15.4-34.4-38.8-62.7-67.3-87c-29.9-25.7-62.4-47.5-99.4-61.6c-37.9-14.3-77.8-19.8-117.5-25.6c-23.7-3.4-47.2-7.1-69-17.2c-31.6-14.5-61.8-31.3-83.4-59.8c-7.1-9.4-13.7-19.2-21-29.5c-3.8,23.1,0.2,44.7,6.8,66.8c-4.3,0-8,0.4-11.6-0.1c-18.8-2.7-37.7-4.5-56.1-8.8c-34.2-7.8-67-19.8-98-36.4c-44.8-24-84.9-54.2-115-95.4c-54.6-74.8-79.4-159.1-72.7-252c3.2-45.5,15.1-88.6,37.5-128.3c40.9-72.3,100.6-118.3,184.5-130c32.8-4.7,65.5-2.8,97.6,4.2c36.2,7.9,70.4,21.4,102.4,40.2c64.4,37.9,114.5,89.5,150.7,154.7c38.5,69.6,56.6,143.8,47.5,223.5c-2.1,18.1-6.6,36-10.2,54.9c-43.7-30.7-90.8-28.6-105.9-19.7c63.5-4,133.8,53.3,148.6,128.8c2.1-2.5,3.7-4.2,5.1-6c48-63.1,77.5-134,88-212.7c5.5-42.1,4.8-84.3-3.1-126.1C884,254.3,843,178.7,775.8,117.8C700.3,49.4,610.4,15.4,509.3,10.5c-41.9-2-83.1,2.6-123.9,12.3c-46,11.1-89.2,28.7-129.7,53c-58.1,34.8-106.8,79.7-145.2,135.9C64.3,278.7,38,352.8,32.9,434.1c-3.5,54.8,3.8,108.3,22.1,160.3c26.3,74.7,70.6,135.4,136,180.5c52.1,35.8,109.5,58.9,170.8,72.6c33.4,7.5,67.3,11.7,101.6,12.1c35.6,0.4,71-2.1,105.7-11.1c19-4.8,38.2-9.4,57.5-12.1c45.3-6.3,90.3-1.5,134.4,9.5c43.1,10.8,83.1,29.2,118.8,55.8c31.6,23.6,61.5,49.2,80.1,85.2c0.9,1.5,3.6,2.1,5.4,3.1C966.2,988,968.3,985.8,967.9,984.1z M670.1,718.2c-0.1,17.4,14.3,33.1,30.6,33.2c11.9,0.1,21.4-9.6,21.4-22.1c0.2-17.5-14.2-33.3-30.3-33.4C679.1,695.8,670.2,704.9,670.1,718.2z M768,667.1c-2.1,1-4.2,6.6-3.4,9.2c3.1,10.4,7,20.6,11.7,30.4c1.5,3.3,6.7,8.6,9.9,7.3c5.5-2,5.5-5.9,5.5-9.9c-2-14.3-4.3-26-14-34.4C775.4,667.6,770.4,666,768,667.1z"/>
        </g>
    </symbol>


    <symbol id="bitcoin" viewBox="0 0 64 64">
        <g>
            <path fill="#f7931a"
                  d="m63.033,39.744c-4.274,17.143-21.637,27.576-38.782,23.301-17.138-4.274-27.571-21.638-23.295-38.78,4.272-17.145,21.635-27.579,38.775-23.305,17.144,4.274,27.576,21.64,23.302,38.784z"/>
            <path fill="#FFF"
                  d="m46.103,27.444c0.637-4.258-2.605-6.547-7.038-8.074l1.438-5.768-3.511-0.875-1.4,5.616c-0.923-0.23-1.871-0.447-2.813-0.662l1.41-5.653-3.509-0.875-1.439,5.766c-0.764-0.174-1.514-0.346-2.242-0.527l0.004-0.018-4.842-1.209-0.934,3.75s2.605,0.597,2.55,0.634c1.422,0.355,1.679,1.296,1.636,2.042l-1.638,6.571c0.098,0.025,0.225,0.061,0.365,0.117-0.117-0.029-0.242-0.061-0.371-0.092l-2.296,9.205c-0.174,0.432-0.615,1.08-1.609,0.834,0.035,0.051-2.552-0.637-2.552-0.637l-1.743,4.019,4.569,1.139c0.85,0.213,1.683,0.436,2.503,0.646l-1.453,5.834,3.507,0.875,1.439-5.772c0.958,0.26,1.888,0.5,2.798,0.726l-1.434,5.745,3.511,0.875,1.453-5.823c5.987,1.133,10.489,0.676,12.384-4.739,1.527-4.36-0.076-6.875-3.226-8.515,2.294-0.529,4.022-2.038,4.483-5.155zm-8.022,11.249c-1.085,4.36-8.426,2.003-10.806,1.412l1.928-7.729c2.38,0.594,10.012,1.77,8.878,6.317zm1.086-11.312c-0.99,3.966-7.1,1.951-9.082,1.457l1.748-7.01c1.982,0.494,8.365,1.416,7.334,5.553z"/>
        </g>
    </symbol>

    <symbol id="mastercard" viewBox="0 0 160 100">
        <g>
            <path d="M149,1.01146687e-06 C141,1.76644588e-06 56.3007812,-1.60318373e-06 9,1.01146687e-06 C5,1.23257532e-06 1,4.00000101 1,8.00000101 L1,88.000001 C0.999999537,96.000001 5,100.000001 13,100.000001 C57.6232096,100.000001 141,100.000002 149,100.000001 C157,100.000001 161,96.000001 161,88.000001 L161,12.000001 C161,4.00000101 157,1.01146687e-06 149,1.01146687e-06 Z M149,1.01146687e-06"
                  fill="#265697" id="Rectangle-1"/>
            <path d="M150.545235,50.5 C150.551812,73.7377654 131.919597,92.5792737 108.92953,92.5854469 C85.9389933,92.5911453 67.2987919,73.7591341 67.2926846,50.5213687 L67.2926846,50.5 C67.2865772,27.2627095 85.9187919,8.4202514 108.907919,8.41407821 C131.898456,8.40790503 150.539128,27.2408659 150.545235,50.4786313 L150.545235,50.5 C150.545235,50.5 150.545235,50.4924022 150.545235,50.5 L150.545235,50.5 L150.545235,50.5 Z M150.545235,50.5"
                  fill="#DFAC16" id="path2268"/>
            <path d="M52.8125503,8.425 C29.9587248,8.57173184 11.4542953,27.3652793 11.4542953,50.5 C11.4542953,73.7249441 30.102953,92.5745251 53.0808054,92.5745251 C63.8650336,92.5745251 73.6951007,88.4204469 81.0920805,81.6118994 C81.0916107,81.6118994 81.0906711,81.6109497 81.0887919,81.61 L81.0977181,81.61 C82.612349,80.2148603 84.0250336,78.7095531 85.323557,77.1045251 L76.795302,77.1045251 C75.6565101,75.7141341 74.6215436,74.2653352 73.6918121,72.7704749 L88.4002685,72.7704749 C89.2947651,71.3235754 90.104698,69.8211173 90.8234899,68.265 L71.2634228,68.265 C70.5967785,66.8204749 70.0179866,65.3431844 69.5237584,63.8445251 L92.5650336,63.8445251 C93.9537584,59.6505587 94.7073154,55.1636034 94.7073154,50.4995251 C94.7073154,47.4072346 94.3756376,44.3923464 93.7479866,41.4895251 L68.3018121,41.4895251 C68.617047,39.9956145 69.0149664,38.5197486 69.4894631,37.0695251 L92.5391946,37.0695251 C92.0238255,35.5262291 91.425302,34.0223464 90.7445638,32.5645251 L71.2610738,32.5645251 C71.9638926,31.0468715 72.7602013,29.5705307 73.6495302,28.145 L88.3471812,28.145 C87.3690604,26.5698883 86.2866443,25.0650559 85.1163758,23.6395251 L76.9216779,23.6395251 C78.1887248,22.1323184 79.583557,20.7129609 81.0977181,19.3895251 C73.7002685,12.5800279 63.8673826,8.425 53.0808054,8.425 C52.9910738,8.425 52.9022819,8.42452514 52.8125503,8.425 C52.8125503,8.425 52.9022819,8.42452514 52.8125503,8.425 L52.8125503,8.425 L52.8125503,8.425 Z M52.8125503,8.425"
                  fill="#BF3126" id="path1350"/>
            <path d="M68.0495302,61.2123743 L68.6043624,57.4044693 C68.3013423,57.4044693 67.8555034,57.5355307 67.4622819,57.5355307 C65.9194631,57.5355307 65.749396,56.7064246 65.8475839,56.0933799 L67.0939597,48.3237151 L69.4387248,48.3237151 L70.0048322,44.1117039 L67.7939597,44.1117039 L68.2440268,41.4923743 L63.8119463,41.4923743 C63.7142282,41.5911453 61.1956376,56.2239665 61.1956376,58.0056425 C61.1956376,60.6434916 62.6609396,61.8182961 64.7271141,61.7993017 C66.3451007,61.7855307 67.6051007,61.3329888 68.0495302,61.2123743 C68.0495302,61.2123743 67.6051007,61.3329888 68.0495302,61.2123743 L68.0495302,61.2123743 L68.0495302,61.2123743 Z M68.0495302,61.2123743"
                  fill="#FFFFFF" id="path4157"/>
            <path d="M69.4537584,53.9522346 C69.4537584,60.2830726 73.5879866,61.7874302 77.1100671,61.7874302 C80.3610738,61.7874302 81.7916107,61.0528212 81.7916107,61.0528212 L82.5724161,56.732067 C82.5724161,56.732067 80.099396,57.8332682 77.8659732,57.8332682 C73.1069128,57.8332682 73.9403356,54.246648 73.9403356,54.246648 L82.9473154,54.246648 C82.9473154,54.246648 83.5289262,51.3438268 83.5289262,50.1609497 C83.5289262,47.2092179 82.0753691,43.6126257 77.2091946,43.6126257 C72.7526846,43.6135754 69.4537584,48.4671229 69.4537584,53.9522346 C69.4537584,53.9522346 69.4537584,48.4671229 69.4537584,53.9522346 L69.4537584,53.9522346 L69.4537584,53.9522346 Z M77.2261074,47.6247207 C79.7273154,47.6247207 79.2659732,50.4658101 79.2659732,50.6956425 L74.345302,50.6956425 C74.345302,50.4021788 74.8104027,47.6247207 77.2261074,47.6247207 C77.2261074,47.6247207 74.8104027,47.6247207 77.2261074,47.6247207 L77.2261074,47.6247207 L77.2261074,47.6247207 Z M77.2261074,47.6247207"
                  fill="#FFFFFF" id="path4155"/>
            <path d="M105.291879,61.2104749 L106.084899,56.3265363 C106.084899,56.3265363 103.910201,57.4286872 102.417651,57.4286872 C99.2737584,57.4286872 98.0128188,55.0021508 98.0128188,52.3951676 C98.0128188,47.106648 100.717919,44.1971788 103.729329,44.1971788 C105.987651,44.1971788 107.800134,45.4788268 107.800134,45.4788268 L108.523624,40.7335475 C108.523624,40.7335475 105.835906,39.6342458 103.532013,39.6342458 C98.4154362,39.6342458 93.4379195,44.1207263 93.4379195,52.546648 C93.4379195,58.1338547 96.1256376,61.8239944 101.414631,61.8239944 C102.91,61.8244693 105.291879,61.2104749 105.291879,61.2104749 L105.291879,61.2104749 L105.291879,61.2104749 L105.291879,61.2104749 Z M105.291879,61.2104749"
                  fill="#FFFFFF" id="path4151"/>
            <path d="M43.6730872,43.6824302 C40.6339597,43.6824302 38.3042282,44.6696648 38.3042282,44.6696648 L37.6610738,48.5288547 C37.6610738,48.5288547 39.5839597,47.739162 42.490604,47.739162 C44.1410067,47.739162 45.3483893,47.9267318 45.3483893,49.2824581 C45.3483893,50.1058659 45.2004027,50.4097765 45.2004027,50.4097765 C45.2004027,50.4097765 43.8985906,50.2996089 43.2958389,50.2996089 C39.4627517,50.2996089 35.4361074,51.9530726 35.4361074,56.9381564 C35.4361074,60.8662011 38.0777852,61.767486 39.7150336,61.767486 C42.8420134,61.767486 44.1898658,59.7165642 44.261745,59.7103911 L44.1156376,61.4222626 L48.018255,61.4222626 L49.7593289,49.0849162 C49.7593289,43.8510056 45.2422148,43.6824302 43.6730872,43.6824302 L43.6730872,43.6824302 L43.6730872,43.6824302 L43.6730872,43.6824302 Z M44.6225503,53.7276257 C44.7071141,54.4812291 44.1551007,58.0137151 41.4866443,58.0137151 C40.1101342,58.0137151 39.7521477,56.9509777 39.7521477,56.3222626 C39.7521477,55.0961732 40.4112752,53.6241061 43.6589933,53.6241061 C44.4144295,53.6250559 44.4952349,53.7067318 44.6225503,53.7276257 C44.6225503,53.7276257 44.4952349,53.7067318 44.6225503,53.7276257 L44.6225503,53.7276257 L44.6225503,53.7276257 Z M44.6225503,53.7276257"
                  fill="#FFFFFF" id="path4149"/>
            <path d="M53.9071812,61.6772626 C54.9055034,61.6772626 60.6126174,61.9336872 60.6126174,55.9813128 C60.6126174,50.4164246 55.3297315,51.5157263 55.3297315,49.2800838 C55.3297315,48.1670112 56.1908725,47.8165642 57.764698,47.8165642 C58.3895302,47.8165642 60.7934899,48.0174302 60.7934899,48.0174302 L61.3525503,44.0618436 C61.3525503,44.0623184 59.7965772,43.7099721 57.2634228,43.7099721 C53.984698,43.7099721 50.6566443,45.032933 50.6566443,49.5593017 C50.6566443,54.6882682 56.205906,54.1735196 56.205906,56.3341341 C56.205906,57.7762849 54.6555705,57.8935754 53.4608725,57.8935754 C51.3932886,57.8935754 49.5314765,57.1765363 49.5248993,57.2107263 L48.9338926,61.1264246 C49.0410067,61.1596648 50.1891946,61.6772626 53.9071812,61.6772626 C53.9071812,61.6772626 50.1891946,61.6772626 53.9071812,61.6772626 L53.9071812,61.6772626 L53.9071812,61.6772626 Z M53.9071812,61.6772626"
                  fill="#FFFFFF" id="path4145"/>
            <path d="M142.004295,40.1328492 L141.048255,46.1289106 C141.048255,46.1289106 139.38,43.7997207 136.768389,43.7997207 C132.70745,43.7997207 129.32255,48.7487151 129.32255,54.4351676 C129.32255,58.105838 131.127987,61.7024302 134.818725,61.7024302 C137.473557,61.7024302 138.945436,59.8314804 138.945436,59.8314804 L138.75047,61.4293855 L143.061342,61.4293855 L146.447181,40.1257263 L142.004295,40.1328492 L142.004295,40.1328492 L142.004295,40.1328492 L142.004295,40.1328492 Z M139.946107,51.8239106 C139.946107,54.1901397 138.787114,57.3508101 136.384094,57.3508101 C134.789128,57.3508101 134.041678,55.9974581 134.041678,53.8734078 C134.041678,50.4002793 135.584966,48.1086034 137.532282,48.1086034 C139.127718,48.1081285 139.946107,49.2159777 139.946107,51.8239106 C139.946107,51.8239106 139.946107,49.2159777 139.946107,51.8239106 L139.946107,51.8239106 L139.946107,51.8239106 Z M139.946107,51.8239106"
                  fill="#FFFFFF" id="path4139"/>
            <path d="M19.675302,61.447905 L22.3733557,45.3643855 L22.769396,61.447905 L25.8230872,61.447905 L31.519396,45.3643855 L28.9961074,61.447905 L33.5334228,61.447905 L37.0277852,40.1157542 L30.0113423,40.1157542 L25.641745,53.2043296 L25.4143624,40.1157542 L18.9466443,40.1157542 L15.4020134,61.447905 L19.675302,61.447905 L19.675302,61.447905 L19.675302,61.447905 L19.675302,61.447905 Z M19.675302,61.447905"
                  fill="#FFFFFF" id="path4133"/>
            <path d="M87.9614765,61.4773464 C89.2515436,54.0619274 89.4906711,48.0406983 92.5692617,49.1428492 C93.1081208,46.2727933 93.6281879,45.1625698 94.2163758,43.9478771 C94.2163758,43.9478771 93.940604,43.8894693 93.3618121,43.8894693 C91.3769128,43.8894693 89.906443,46.6303631 89.906443,46.6303631 L90.3015436,44.1131285 L86.1748322,44.1131285 L83.4100671,61.4773464 L87.9614765,61.4773464 L87.9614765,61.4773464 L87.9614765,61.4773464 L87.9614765,61.4773464 Z M87.9614765,61.4773464"
                  fill="#FFFFFF" id="path4131"/>
            <path d="M115.51855,43.6824302 C112.479423,43.6824302 110.149691,44.6696648 110.149691,44.6696648 L109.507007,48.5288547 C109.507007,48.5288547 111.429893,47.739162 114.336537,47.739162 C115.98694,47.739162 117.193383,47.9267318 117.193383,49.2824581 C117.193383,50.1058659 117.046336,50.4097765 117.046336,50.4097765 C117.046336,50.4097765 115.744523,50.2996089 115.141302,50.2996089 C111.308685,50.2996089 107.28204,51.9530726 107.28204,56.9381564 C107.28204,60.8662011 109.923248,61.767486 111.560497,61.767486 C114.687477,61.767486 116.035329,59.7165642 116.106738,59.7103911 L115.96157,61.4222626 L119.864188,61.4222626 L121.604792,49.0849162 C121.605262,43.8510056 117.087678,43.6824302 115.51855,43.6824302 L115.51855,43.6824302 L115.51855,43.6824302 L115.51855,43.6824302 Z M116.469423,53.7276257 C116.553987,54.4812291 116.001503,58.0137151 113.332107,58.0137151 C111.955597,58.0137151 111.59855,56.9509777 111.59855,56.3222626 C111.59855,55.0961732 112.257678,53.6241061 115.504926,53.6241061 C116.260362,53.6250559 116.340698,53.7067318 116.469423,53.7276257 C116.469423,53.7276257 116.340698,53.7067318 116.469423,53.7276257 L116.469423,53.7276257 L116.469423,53.7276257 Z M116.469423,53.7276257"
                  fill="#FFFFFF" id="path4149_1_"/>
            <path d="M125.171738,61.4773464 C126.462275,54.0619274 126.701403,48.0406983 129.779054,49.1428492 C130.318852,46.2727933 130.839389,45.1625698 131.427107,43.9478771 C131.427107,43.9478771 131.151336,43.8894693 130.572544,43.8894693 C128.587644,43.8894693 127.117174,46.6303631 127.117174,46.6303631 L127.512275,44.1131285 L123.385564,44.1131285 L120.620799,61.4773464 L125.171738,61.4773464 L125.171738,61.4773464 L125.171738,61.4773464 L125.171738,61.4773464 Z M125.171738,61.4773464"
                  fill="#FFFFFF" id="path4131_1_"/>
        </g>
    </symbol>


    <symbol id="visa" viewBox="0 0 160 100">
        <g>
            <rect d="M0,9 L0,89 L160,89 L160,9 L0,9 Z M0,9" fill="#F6F6F6" height="80" id="Rectangle-20" width="160"
                  x="0" y="9"/>
            <path d="M148,1.01146687e-06 C140,1.76644588e-06 55.3007812,-1.60318373e-06 8,1.01146687e-06 C4,1.23257532e-06 -1.27897692e-13,4.00000101 7.10542736e-14,8.00000101 L7.10542736e-14,20.000001 L160,20.000001 C160,20.000001 159.999998,38.5719411 160,12.000001 C160,4.00000101 156,1.01146687e-06 148,1.01146687e-06 Z M148,1.01146687e-06"
                  fill="#265697" id="Rectangle-1"/>
            <path d="M0,80 C0,80 9.66373104e-07,80.000001 0,88.0000005 C-4.6283987e-07,95.9999999 4,99.9999997 12,99.9999997 C56.6232096,99.9999997 140,100 148,99.9999997 C156,99.9999997 160,95.9999999 160,88.0000005 L160,80 L0,80 Z M0,80"
                  fill="#D97B16" id="Rectangle-1"/>
            <path d="M111.614545,29.7821084 C109.372,28.9224828 105.858424,28 101.470273,28 C90.2863939,28 82.4084242,33.7551133 82.3411818,42.0028374 C82.2781818,48.0997635 87.9653636,51.5007685 92.258697,53.5306207 C96.6644545,55.6103251 98.1454848,56.9368276 98.1242727,58.793931 C98.0964848,61.6381084 94.6060303,62.9375172 91.3529394,62.9375172 C86.8226667,62.9375172 84.4159394,62.2944236 80.6987273,60.7102069 L79.2401818,60.0359015 L77.6516061,69.5344828 C80.2950606,70.718798 85.1838182,71.7451034 90.2596667,71.7982069 C102.157333,71.7982069 109.881091,66.109202 109.968909,57.3016158 C110.011545,52.4746207 106.995818,48.8013793 100.466091,45.7731823 C96.5098182,43.8103054 94.0869697,42.5004926 94.1126364,40.5129064 C94.1126364,38.7492217 96.1634242,36.8632906 100.594424,36.8632906 C104.295727,36.8045517 106.976727,37.6292808 109.065909,38.4889064 L110.080061,38.9785419 L111.614545,29.7821084"
                  fill="#265697" id="Shape"/>
            <path d="M140.638455,28.7779113 L131.892485,28.7779113 C129.183273,28.7779113 127.155606,29.5334975 125.965818,32.2966108 L109.156061,71.1819901 L121.041424,71.1819901 C121.041424,71.1819901 122.984667,65.9535764 123.424182,64.8056749 C124.723,64.8056749 136.269182,64.8238818 137.919697,64.8238818 C138.258455,66.3092611 139.296788,71.1819901 139.296788,71.1819901 L149.799333,71.1819901 L140.638455,28.7779113 L140.638455,28.7779113 Z M126.681515,56.1268374 C127.617606,53.6821281 131.191,44.2654778 131.191,44.2654778 C131.124182,44.3784039 132.120091,41.8088473 132.691758,40.2157438 L133.456667,43.8740296 C133.456667,43.8740296 135.623909,54.0024828 136.077,56.1264039 L126.681515,56.1268374 L126.681515,56.1268374 L126.681515,56.1268374 L126.681515,56.1268374 Z M126.681515,56.1268374"
                  fill="#265697" id="Shape"/>
            <path d="M59.2498788,71.1685517 L66.3264545,28.7373793 L77.6450303,28.7373793 L70.5635758,71.1685517 L59.2498788,71.1685517 Z M59.2498788,71.1685517"
                  fill="#265697" id="Shape"/>
            <path d="M49.7568182,28.7683744 L38.6756061,57.7032512 L37.4949394,51.8230739 C35.4320606,45.0446897 29.0047879,37.7005911 21.8193939,34.0238818 L31.9517879,71.1319212 L43.9270909,71.1180493 L61.7461212,28.7683744 L49.7568182,28.7683744"
                  fill="#265697" id="Shape"/>
            <path d="M28.3955758,28.7421478 L10.1444545,28.7421478 L10,29.6249655 C24.1991818,33.1371626 33.5946667,41.6248276 37.4947273,51.8230739 L33.5261515,32.3243547 C32.841,29.6375369 30.8538485,28.8357833 28.3955758,28.7421478"
                  fill="#D97B16" id="Shape"/>
        </g>
    </symbol>

    <symbol id="applepay" viewBox="0 0 512 210.2">
        <path id="XMLID_34_" d="M93.6,27.1C87.6,34.2,78,39.8,68.4,39c-1.2-9.6,3.5-19.8,9-26.1c6-7.3,16.5-12.5,25-12.9
	C103.4,10,99.5,19.8,93.6,27.1 M102.3,40.9c-13.9-0.8-25.8,7.9-32.4,7.9c-6.7,0-16.8-7.5-27.8-7.3c-14.3,0.2-27.6,8.3-34.9,21.2
	c-15,25.8-3.9,64,10.6,85c7.1,10.4,15.6,21.8,26.8,21.4c10.6-0.4,14.8-6.9,27.6-6.9c12.9,0,16.6,6.9,27.8,6.7
	c11.6-0.2,18.9-10.4,26-20.8c8.1-11.8,11.4-23.3,11.6-23.9c-0.2-0.2-22.4-8.7-22.6-34.3c-0.2-21.4,17.5-31.6,18.3-32.2
	C123.3,42.9,107.7,41.3,102.3,40.9 M182.6,11.9v155.9h24.2v-53.3h33.5c30.6,0,52.1-21,52.1-51.4c0-30.4-21.1-51.2-51.3-51.2H182.6z
	 M206.8,32.3h27.9c21,0,33,11.2,33,30.9c0,19.7-12,31-33.1,31h-27.8V32.3z M336.6,169c15.2,0,29.3-7.7,35.7-19.9h0.5v18.7h22.4V90.2
	c0-22.5-18-37-45.7-37c-25.7,0-44.7,14.7-45.4,34.9h21.8c1.8-9.6,10.7-15.9,22.9-15.9c14.8,0,23.1,6.9,23.1,19.6v8.6l-30.2,1.8
	c-28.1,1.7-43.3,13.2-43.3,33.2C298.4,155.6,314.1,169,336.6,169z M343.1,150.5c-12.9,0-21.1-6.2-21.1-15.7c0-9.8,7.9-15.5,23-16.4
	l26.9-1.7v8.8C371.9,140.1,359.5,150.5,343.1,150.5z M425.1,210.2c23.6,0,34.7-9,44.4-36.3L512,54.7h-24.6l-28.5,92.1h-0.5
	l-28.5-92.1h-25.3l41,113.5l-2.2,6.9c-3.7,11.7-9.7,16.2-20.4,16.2c-1.9,0-5.6-0.2-7.1-0.4v18.7C417.3,210,423.3,210.2,425.1,210.2z
	"/>
    </symbol>

    <symbol id="paypal" viewBox="0 0 124 33">
        <path fill="#253B80"
              d="M46.211 6.749h-6.839a.95.95 0 0 0-.939.802l-2.766 17.537a.57.57 0 0 0 .564.658h3.265a.95.95 0 0 0 .939-.803l.746-4.73a.95.95 0 0 1 .938-.803h2.165c4.505 0 7.105-2.18 7.784-6.5.306-1.89.013-3.375-.872-4.415-.972-1.142-2.696-1.746-4.985-1.746zM47 13.154c-.374 2.454-2.249 2.454-4.062 2.454h-1.032l.724-4.583a.57.57 0 0 1 .563-.481h.473c1.235 0 2.4 0 3.002.704.359.42.469 1.044.332 1.906zM66.654 13.075h-3.275a.57.57 0 0 0-.563.481l-.145.916-.229-.332c-.709-1.029-2.29-1.373-3.868-1.373-3.619 0-6.71 2.741-7.312 6.586-.313 1.918.132 3.752 1.22 5.031.998 1.176 2.426 1.666 4.125 1.666 2.916 0 4.533-1.875 4.533-1.875l-.146.91a.57.57 0 0 0 .562.66h2.95a.95.95 0 0 0 .939-.803l1.77-11.209a.568.568 0 0 0-.561-.658zm-4.565 6.374c-.316 1.871-1.801 3.127-3.695 3.127-.951 0-1.711-.305-2.199-.883-.484-.574-.668-1.391-.514-2.301.295-1.855 1.805-3.152 3.67-3.152.93 0 1.686.309 2.184.892.499.589.697 1.411.554 2.317zM84.096 13.075h-3.291a.954.954 0 0 0-.787.417l-4.539 6.686-1.924-6.425a.953.953 0 0 0-.912-.678h-3.234a.57.57 0 0 0-.541.754l3.625 10.638-3.408 4.811a.57.57 0 0 0 .465.9h3.287a.949.949 0 0 0 .781-.408l10.946-15.8a.57.57 0 0 0-.468-.895z"/>
        <path fill="#179BD7"
              d="M94.992 6.749h-6.84a.95.95 0 0 0-.938.802l-2.766 17.537a.569.569 0 0 0 .562.658h3.51a.665.665 0 0 0 .656-.562l.785-4.971a.95.95 0 0 1 .938-.803h2.164c4.506 0 7.105-2.18 7.785-6.5.307-1.89.012-3.375-.873-4.415-.971-1.142-2.694-1.746-4.983-1.746zm.789 6.405c-.373 2.454-2.248 2.454-4.062 2.454h-1.031l.725-4.583a.568.568 0 0 1 .562-.481h.473c1.234 0 2.4 0 3.002.704.359.42.468 1.044.331 1.906zM115.434 13.075h-3.273a.567.567 0 0 0-.562.481l-.145.916-.23-.332c-.709-1.029-2.289-1.373-3.867-1.373-3.619 0-6.709 2.741-7.311 6.586-.312 1.918.131 3.752 1.219 5.031 1 1.176 2.426 1.666 4.125 1.666 2.916 0 4.533-1.875 4.533-1.875l-.146.91a.57.57 0 0 0 .564.66h2.949a.95.95 0 0 0 .938-.803l1.771-11.209a.571.571 0 0 0-.565-.658zm-4.565 6.374c-.314 1.871-1.801 3.127-3.695 3.127-.949 0-1.711-.305-2.199-.883-.484-.574-.666-1.391-.514-2.301.297-1.855 1.805-3.152 3.67-3.152.93 0 1.686.309 2.184.892.501.589.699 1.411.554 2.317zM119.295 7.23l-2.807 17.858a.569.569 0 0 0 .562.658h2.822c.469 0 .867-.34.939-.803l2.768-17.536a.57.57 0 0 0-.562-.659h-3.16a.571.571 0 0 0-.562.482z"/>
        <path fill="#253B80"
              d="M7.266 29.154l.523-3.322-1.165-.027H1.061L4.927 1.292a.316.316 0 0 1 .314-.268h9.38c3.114 0 5.263.648 6.385 1.927.526.6.861 1.227 1.023 1.917.17.724.173 1.589.007 2.644l-.012.077v.676l.526.298a3.69 3.69 0 0 1 1.065.812c.45.513.741 1.165.864 1.938.127.795.085 1.741-.123 2.812-.24 1.232-.628 2.305-1.152 3.183a6.547 6.547 0 0 1-1.825 2c-.696.494-1.523.869-2.458 1.109-.906.236-1.939.355-3.072.355h-.73c-.522 0-1.029.188-1.427.525a2.21 2.21 0 0 0-.744 1.328l-.055.299-.924 5.855-.042.215c-.011.068-.03.102-.058.125a.155.155 0 0 1-.096.035H7.266z"/>
        <path fill="#179BD7"
              d="M23.048 7.667c-.028.179-.06.362-.096.55-1.237 6.351-5.469 8.545-10.874 8.545H9.326c-.661 0-1.218.48-1.321 1.132L6.596 26.83l-.399 2.533a.704.704 0 0 0 .695.814h4.881c.578 0 1.069-.42 1.16-.99l.048-.248.919-5.832.059-.32c.09-.572.582-.992 1.16-.992h.73c4.729 0 8.431-1.92 9.513-7.476.452-2.321.218-4.259-.978-5.622a4.667 4.667 0 0 0-1.336-1.03z"/>
        <path fill="#222D65"
              d="M21.754 7.151a9.757 9.757 0 0 0-1.203-.267 15.284 15.284 0 0 0-2.426-.177h-7.352a1.172 1.172 0 0 0-1.159.992L8.05 17.605l-.045.289a1.336 1.336 0 0 1 1.321-1.132h2.752c5.405 0 9.637-2.195 10.874-8.545.037-.188.068-.371.096-.55a6.594 6.594 0 0 0-1.017-.429 9.045 9.045 0 0 0-.277-.087z"/>
        <path fill="#253B80"
              d="M9.614 7.699a1.169 1.169 0 0 1 1.159-.991h7.352c.871 0 1.684.057 2.426.177a9.757 9.757 0 0 1 1.481.353c.365.121.704.264 1.017.429.368-2.347-.003-3.945-1.272-5.392C20.378.682 17.853 0 14.622 0h-9.38c-.66 0-1.223.48-1.325 1.133L.01 25.898a.806.806 0 0 0 .795.932h5.791l1.454-9.225 1.564-9.906z"/>
    </symbol>


    <symbol id="wechat" viewBox="0 0 300 300">
        <path fill="#2DC100"
              d="M300 255c0 24.854-20.147 45-45 45H45c-24.854 0-45-20.146-45-45V45C0 20.147 20.147 0 45 0h210c24.853 0 45 20.147 45 45v210z"/>
        <g fill="#FFF">
            <path d="M200.803 111.88c-24.213 1.265-45.268 8.605-62.362 25.188-17.271 16.754-25.155 37.284-23 62.734-9.464-1.172-18.084-2.462-26.753-3.192-2.994-.252-6.547.106-9.083 1.537-8.418 4.75-16.488 10.113-26.053 16.092 1.755-7.938 2.891-14.889 4.902-21.575 1.479-4.914.794-7.649-3.733-10.849-29.066-20.521-41.318-51.232-32.149-82.85 8.483-29.25 29.315-46.989 57.621-56.236 38.635-12.62 82.054.253 105.547 30.927 8.485 11.08 13.688 23.516 15.063 38.224zm-111.437-9.852c.223-5.783-4.788-10.993-10.74-11.167-6.094-.179-11.106 4.478-11.284 10.483-.18 6.086 4.475 10.963 10.613 11.119 6.085.154 11.186-4.509 11.411-10.435zm58.141-11.171c-5.974.11-11.022 5.198-10.916 11.004.109 6.018 5.061 10.726 11.204 10.652 6.159-.074 10.83-4.832 10.772-10.977-.051-6.032-4.981-10.79-11.06-10.679z"/>
            <path d="M255.201 262.83c-7.667-3.414-14.7-8.536-22.188-9.318-7.459-.779-15.3 3.524-23.104 4.322-23.771 2.432-45.067-4.193-62.627-20.432-33.397-30.89-28.625-78.254 10.014-103.568 34.341-22.498 84.704-14.998 108.916 16.219 21.129 27.24 18.646 63.4-7.148 86.284-7.464 6.623-10.15 12.073-5.361 20.804.884 1.612.985 3.653 1.498 5.689zm-87.274-84.499c4.881.005 8.9-3.815 9.085-8.636.195-5.104-3.91-9.385-9.021-9.406-5.06-.023-9.299 4.318-9.123 9.346.166 4.804 4.213 8.69 9.059 8.696zm56.261-18.022c-4.736-.033-8.76 3.844-8.953 8.629-.205 5.117 3.772 9.319 8.836 9.332 4.898.016 8.768-3.688 8.946-8.562.19-5.129-3.789-9.364-8.829-9.399z"/>
        </g>
    </symbol>

    <symbol id="alipay" viewBox="0 0 855 300">
        <path d="m48.508 0c-26.814 0-48.508 21.511-48.508 48.068v203.87c0 26.536 21.694 48.059 48.508 48.059h205.81c26.793 0 48.496-21.522 48.496-48.059v-2.0859c-0.90184-0.37259-78.698-32.52-118.24-51.357-26.677 32.524-61.086 52.256-96.812 52.256-60.412 0-80.927-52.38-52.322-86.861 6.2372-7.516 16.847-14.697 33.314-18.717 25.76-6.2703 66.756 3.9151 105.18 16.477 6.9115-12.614 12.726-26.506 17.057-41.297h-118.41v-11.881h61.057v-21.303h-73.951v-11.891h73.951v-30.389s2e-5 -5.1191 5.2363-5.1191h29.848v35.508h73.107v11.891h-73.107v21.303h59.674c-5.7104 23.176-14.38 44.509-25.264 63.236 18.111 6.4901 34.368 12.646 46.484 16.666 40.413 13.397 51.739 15.034 53.201 15.205v-155.51c0-26.557-21.704-48.068-48.496-48.068h-205.81zm33.207 162.54c-2.5931 0.02976-5.1979 0.16964-7.8223 0.42578-7.5647 0.75369-21.768 4.0611-29.533 10.865-23.274 20.109-9.344 56.871 37.762 56.871 27.383 0 54.743-17.344 76.236-45.115-27.709-13.395-51.576-23.335-76.643-23.047z"
              fill="#00a1e9"/>
        <path d="m829.48 208.55-13.517 29.164-13.718-29.164h-13.402l20.871 40.322v28.127h12.295v-28.127l0.0738-0.15702 20.787-40.165zm-98.969 17.644 9.5349 28.389h-19.407zm12.464 37.015 4.5936 13.786h12.885l-25.37-68.45h-9.851l-25.286 68.45h12.896l4.7938-13.786zm-96.164-21.937h-13.686v-23.417h13.686c6.8799 0 10.989 5.9772 10.989 11.755 0 5.6527-3.8456 11.661-10.989 11.661m0.69536-32.723h-26.772v68.45h12.39v-26.316h14.381c13.359 0 22.694-8.6674 22.694-21.072s-9.3347-21.061-22.694-21.061m-89.406 68.45h12.401v-68.45h-12.401zm-87.163-68.449v68.45h41.711v-9.3269h-29.321v-59.123zm-70.587 17.644 9.5244 28.389h-19.396zm12.464 37.015 4.5936 13.786h12.875l-25.37-68.45h-9.8405l-25.286 68.45h12.885l4.7938-13.786zm87.23-188.47h-53.153v-18.926h61.635v-11.787h-61.635v-23.982h-27.477c-3.0132 0-5.447 2.5123-5.447 5.6003v18.382h-61.203v11.787h61.203v18.926h-51.657v11.776h102.89s-5.6999 22.119-33.925 45.891c-25.286-19.02-33.736-34.167-33.736-34.167h-27.604c11.168 19.23 27.035 34.628 44.124 46.844-15.698 10.133-36.054 19.9-62.372 27.719v14.111s40.605-7.6102 79.851-30.587c39.309 22.799 78.787 30.587 78.787 30.587v-13.357c-25.265-9.1385-45.283-19.188-61.002-28.881 22.768-16.759 42.723-39.506 50.719-69.936m172.66-52.334h-27.667v28.724h-68.198v11.567h68.198v103.27c-0.24233 2.3658-2.1177 4.2081-4.4672 4.3337h-14.065v11.965h35.864c5.6788-0.23029 10.209-4.9094 10.336-10.709v-108.86h11.231v-11.567h-11.231zm-58.348 59.777c-1.0114-2.0517-3.0765-3.4649-5.4786-3.4858h-23.052l17.964 56.192h27.267zm-68.092-61.137-31.734 74.584h24.348v88.747h26.624v-117.72h-9.6508l20.05-45.609zm308.73 159.26-9.7246-32.639c-0.65322-2.0831-2.5497-3.5905-4.8043-3.5905h-25.781l7.4804 25.071h-30.312v-48.571h59.517v-11.557h-59.517v-22.862h59.517v-11.557h-148.52v11.557h59.506v22.862h-59.506v11.557h59.506v48.571h-59.506v11.557h152.15l-0.12643-0.39778zm-121.2-133.28h86.678v17.052h30.965v-20.203c-0.0105-0.04187-0.0105-0.06281-0.0105-0.11515 0-4.5431-3.5822-8.2173-8.0178-8.2906h-50.108v-15.901h-32.398v15.901h-58.063v28.609h30.954z"
              fill="#3f3b3a"/>
    </symbol>

    <symbol id="unionpay" viewBox="0 0 256 160">
        <g>
            <path d="M50.041631,0.000667563305 L113.820211,0.000667563305 C122.723127,0.000667563305 128.260438,7.25731345 126.183558,16.1897657 L96.4900715,143.675416 C94.3945365,152.576777 85.480739,159.839641 76.571605,159.839641 L12.7992433,159.839641 C3.908764,159.839641 -1.64098444,152.576777 0.435896208,143.675416 L30.1418186,16.1897657 C32.2186993,7.25731345 41.1278333,0.000667563305 50.041631,0.000667563305"
                  fill="#E21836"/>
            <path d="M108.513283,0.000667563305 L181.857018,0.000667563305 C190.758378,0.000667563305 186.744527,7.25731345 184.650546,16.1897657 L154.961724,143.675416 C152.878625,152.576777 153.528427,159.839641 144.608411,159.839641 L71.2646775,159.839641 C62.3446615,159.839641 56.8244495,152.576777 58.919985,143.675416 L88.6072525,16.1897657 C90.715224,7.25731345 99.6057035,0.000667563305 108.513283,0.000667563305"
                  fill="#00447C"/>
            <path d="M178.94783,0.000667563305 L242.726409,0.000667563305 C251.641762,0.000667563305 257.179074,7.25731345 255.085093,16.1897657 L225.396271,143.675416 C223.300736,152.576777 214.380719,159.839641 205.466922,159.839641 L141.717879,159.839641 C132.797863,159.839641 127.265215,152.576777 129.354532,143.675416 L159.048017,16.1897657 C161.124899,7.25731345 170.027814,0.000667563305 178.94783,0.000667563305"
                  fill="#007B84"/>
            <path d="M66.698338,40.8561434 C60.139686,40.9229891 58.202715,40.8561434 57.5840035,40.7100156 C57.346157,41.8401744 52.920349,62.256098 52.9079125,62.273198 C51.9549725,66.403641 51.261643,69.347961 48.9064975,71.2491775 C47.5695833,72.3544635 46.0088137,72.8876745 44.1993159,72.8876745 C41.2907503,72.8876745 39.5962892,71.4434965 39.3118063,68.704377 L39.2573971,67.7638735 C39.2573971,67.7638735 40.1434913,62.231225 40.1434913,62.200134 C40.1434913,62.200134 44.7884909,43.5952629 45.6201759,41.1359627 C45.6637033,40.9960531 45.6761397,40.9229891 45.6870215,40.8561434 C36.6457507,40.9354255 35.0430082,40.8561434 34.9326351,40.7100156 C34.8720075,40.9105527 34.6481522,42.0640298 34.6481522,42.0640298 L29.9052159,63.0333735 L29.4979234,64.8117805 L28.7097659,70.6289115 C28.7097659,72.3544635 29.0486581,73.762887 29.7233334,74.9536735 C31.8841598,78.729679 38.0479561,79.2955355 41.5348148,79.2955355 C46.0274683,79.2955355 50.241857,78.341041 53.089795,76.598389 C58.0332685,73.677387 59.3266555,69.1116695 60.4801325,65.0542905 L61.014898,62.972746 C61.014898,62.972746 65.7998075,43.6496723 66.6128375,41.1359627 C66.643929,40.9960531 66.656365,40.9229891 66.698338,40.8561434 Z M82.9786885,56.444252 C81.825211,56.444252 79.7172395,56.724071 77.823796,57.6521385 C77.1366845,58.0050215 76.486882,58.412314 75.8013245,58.818052 L76.420036,56.5841615 L76.081144,56.20796 C72.0657375,57.0209905 71.167207,57.129809 67.4580475,57.6521385 L67.147137,57.8588935 C66.7165265,61.4296985 66.3341065,64.1144085 64.7375825,71.133208 C64.129753,73.7199815 63.498605,76.331628 62.8659025,78.912183 L63.036903,79.2401935 C66.8377815,79.0396565 67.9912585,79.0396565 71.29468,79.0940655 L71.562063,78.8033645 C71.981792,76.65342 72.036201,76.1497455 72.965823,71.795447 C73.402652,69.7310025 74.313619,65.1948215 74.7628845,63.579643 C75.588351,63.197223 76.402936,62.8210215 77.1802115,62.8210215 C79.0316825,62.8210215 78.8062725,64.4362005 78.734763,65.079785 C78.655481,66.160198 77.9808055,69.68903 77.2890305,72.7188505 L76.8273285,74.674476 C76.5055365,76.1186545 76.152653,77.522414 75.830861,78.954156 L75.9707705,79.2401935 C79.7172395,79.0396565 80.859835,79.0396565 84.0591015,79.0940655 L84.435303,78.8033645 C85.013596,75.4455335 85.183042,74.547003 86.209046,69.6579385 L86.725157,67.411612 C87.727843,63.0153405 88.2315175,60.786114 87.4728965,58.970398 C86.670748,56.93549 84.7462135,56.444252 82.9786885,56.444252 Z M101.165696,61.047123 C99.1743155,61.429543 97.904247,61.684489 96.6419515,61.8492715 C95.3905375,62.049809 94.1702145,62.2316915 92.24568,62.499074 L92.093334,62.637429 L91.9534245,62.7478025 C91.7528875,64.181099 91.6129775,65.420076 91.3471495,66.876691 C91.1217395,68.383051 90.7750745,70.094612 90.2107725,72.5539125 C89.7739435,74.436474 89.5485335,75.092495 89.299805,75.754734 C89.057295,76.4169725 88.7899125,77.060557 88.298674,78.9120275 L88.413711,79.0830285 L88.510093,79.240038 C90.308709,79.1545375 91.4855045,79.09391 92.6949455,79.0830285 C93.902832,79.039501 95.1542455,79.0830285 97.0912165,79.09391 L97.260663,78.955555 L97.4425455,78.803209 C97.7223645,77.133621 97.7643375,76.6843555 97.935338,75.8697705 C98.104784,74.9961125 98.39704,73.786672 99.113688,70.556314 C99.4525805,69.039072 99.8303365,67.5264935 100.181665,65.97816 C100.546985,64.436045 100.929404,62.9172485 101.293169,61.4000065 L101.23876,61.2165695 L101.165696,61.047123 Z M101.208135,54.841043 C99.3986375,53.7730665 96.222689,54.1119585 94.0851805,55.587228 C91.953891,57.0329605 91.711381,59.0849685 93.5146605,60.166936 C95.293067,61.2053765 98.481452,60.896021 100.600305,59.408315 C102.726932,57.9314915 102.99276,55.898138 101.208135,54.841043 Z M112.151399,79.574733 C115.812368,79.574733 119.565055,78.565829 122.389675,75.571763 C124.562938,73.143554 125.559405,69.5307765 125.904516,68.043071 C127.028457,63.112034 126.153244,60.809743 125.054176,59.407538 C123.384588,57.2700295 120.43405,56.5844725 117.373138,56.5844725 C115.532549,56.5844725 111.148714,56.766355 107.724038,59.923649 C105.264737,62.2010665 104.12836,65.291515 103.442803,68.2544895 C102.751028,71.2734285 101.955097,76.70814 106.95298,78.7306115 C108.495095,79.3928505 110.718104,79.574733 112.151399,79.574733 Z M111.865362,68.4798995 C112.709484,64.7458675 113.705951,61.6118915 116.249197,61.6118915 C118.242132,61.6118915 118.386705,63.943719 117.500611,67.6901875 C117.342047,68.5218725 116.614517,71.6138755 115.630486,72.9305805 C114.943374,73.902175 114.130344,74.49135 113.231813,74.49135 C112.96443,74.49135 111.374124,74.49135 111.349251,72.1299865 C111.336815,70.964073 111.574661,69.7732865 111.865362,68.4798995 Z M135.05616,79.094532 L135.342197,78.803831 C135.747935,76.6538865 135.814781,76.148657 136.713312,71.7959135 C137.162577,69.731469 138.092198,65.195288 138.529028,63.580109 C139.356049,63.196135 140.156643,62.8199335 140.958791,62.8199335 C142.797825,62.8199335 142.57397,64.4351125 142.500907,65.0786965 C142.43406,66.1606645 141.759386,69.6879415 141.055173,72.717762 L140.618345,74.673388 C140.284116,76.1191205 139.920351,77.521326 139.598559,78.9546225 L139.738469,79.24066 C143.497374,79.0401225 144.596441,79.0401225 147.814363,79.094532 L148.203001,78.803831 C148.767303,75.4444455 148.919649,74.5459145 149.976744,69.658405 L150.480419,67.410524 C151.487768,63.0142525 151.99766,60.7865805 151.251476,58.9708645 C150.426009,56.9359565 148.489038,56.4447185 146.746386,56.4447185 C145.591354,56.4447185 143.472501,56.722983 141.589939,57.652605 C140.916819,58.005488 140.242143,58.411226 139.579904,58.8185185 L140.156643,56.584628 L139.847287,56.206872 C135.833436,57.021457 134.91625,57.1302755 131.211754,57.652605 L130.927271,57.85936 C130.478006,61.4301645 130.112686,64.1133205 128.516162,71.1336745 C127.908333,73.720448 127.277185,76.332094 126.646037,78.9126495 L126.815483,79.24066 C130.622579,79.0401225 131.758957,79.0401225 135.05616,79.094532 Z M162.673542,79.2398825 C162.909834,78.0864055 164.313594,71.2494885 164.32603,71.2494885 C164.32603,71.2494885 165.52148,66.232951 165.594545,66.0510685 C165.594545,66.0510685 165.970746,65.5287395 166.346947,65.321984 L166.900367,65.321984 C172.122106,65.321984 178.018519,65.321984 182.6402,61.92218 C185.785058,59.590353 187.935002,56.1470215 188.89416,51.9621695 C189.142889,50.9361655 189.326326,49.7158426 189.326326,48.4955199 C189.326326,46.8927774 189.004534,45.3071349 188.074912,44.0681575 C185.718212,40.770954 181.025022,40.7103265 175.60741,40.6854536 C175.59031,40.6854536 172.93669,40.7103265 172.93669,40.7103265 C166.001837,40.7958268 163.220744,40.770954 162.078149,40.6310444 C161.981767,41.1362735 161.799884,42.0348043 161.799884,42.0348043 C161.799884,42.0348043 159.315711,53.547812 159.315711,53.5664665 C159.315711,53.5664665 153.371107,78.0444325 153.091287,79.1979095 C159.146265,79.124846 161.628884,79.124846 162.673542,79.2398825 Z M167.276569,58.7882045 C167.276569,58.7882045 169.917752,47.2985153 169.905316,47.3420427 L169.990815,46.7528678 L170.028125,46.3036024 L171.083665,46.4124209 C171.083665,46.4124209 176.530813,46.8803409 176.658287,46.8927774 C178.808231,47.7244624 179.694325,49.8681887 179.075614,52.666381 C178.511312,55.223618 176.852606,57.373563 174.721316,58.412003 C172.966227,59.291879 170.816282,59.364943 168.601047,59.364943 L167.167751,59.364943 L167.276569,58.7882045 Z M183.721236,68.692718 C183.023242,71.668129 182.221093,77.102841 187.194103,79.039812 C188.779745,79.714487 190.200605,79.915024 191.644784,79.8419605 C193.169799,79.759569 194.582886,78.99473 195.891818,77.8941075 C195.773673,78.346482 195.655527,78.7988565 195.537381,79.2527855 L195.76279,79.5434865 C199.339813,79.392695 200.449763,79.392695 204.325259,79.4222315 L204.676588,79.1548485 C205.242445,75.8281085 205.775656,72.597751 207.246262,66.2334175 C207.962909,63.184942 208.678003,60.1660035 209.413306,57.1299645 L209.29827,56.795736 C205.296854,57.537257 204.227323,57.6958215 200.378253,58.241469 L200.085998,58.479315 C200.047134,58.788671 200.006716,59.08559 199.969406,59.3825095 C199.370904,58.4155785 198.503465,57.590112 197.164996,57.0755555 C195.453434,56.4024345 191.433365,57.269874 187.977597,60.416286 C185.549388,62.662613 184.383475,65.7406245 183.721236,68.692718 Z M192.12514,68.8746005 C192.981698,65.2074135 193.965729,62.104529 196.515194,62.104529 C198.127263,62.104529 198.976048,63.5922345 198.803493,66.1292625 C198.666693,66.761965 198.51901,67.4288675 198.343345,68.182825 C198.0884,69.2725655 197.811689,70.3529785 197.542752,71.4349465 C197.26915,72.174913 196.950468,72.8729065 196.600694,73.3377175 C195.944673,74.267339 194.383904,74.8440775 193.485373,74.8440775 C193.230426,74.8440775 191.65722,74.8440775 191.602811,72.524687 C191.590374,71.3696555 191.828221,70.1804235 192.12514,68.8746005 Z M236.010903,56.766044 L235.701548,56.413161 C231.742105,57.2153095 231.025456,57.3427825 227.387807,57.834021 L227.120423,58.1014035 C227.107988,58.144931 227.097105,58.211777 227.078451,58.2724045 L227.066014,58.211777 C224.357986,64.459519 224.437268,63.111723 222.232914,68.0303235 C222.220477,67.806468 222.220477,67.6665585 222.208042,67.428712 L221.656175,56.766044 L221.30951,56.413161 C217.161968,57.2153095 217.064031,57.3427825 213.233616,57.834021 L212.935143,58.1014035 C212.893169,58.228877 212.893169,58.3687865 212.868297,58.5211325 L212.893169,58.575542 C213.371971,61.022406 213.256934,60.4767585 213.737291,64.338264 C213.961146,66.233262 214.25962,68.139142 214.483475,70.010822 C214.861232,73.143243 215.072651,74.685358 215.534352,79.4656035 C212.947578,83.7344015 212.335085,85.3495805 209.844694,89.0960495 L209.861794,89.1333585 L208.10826,91.906678 C207.907723,92.198934 207.725841,92.399471 207.470894,92.4849715 C207.191075,92.6233265 206.82731,92.648199 206.32208,92.648199 L205.350486,92.648199 L203.906308,97.451763 L208.860663,97.5372635 C211.769228,97.524827 213.597381,96.1645945 214.581412,94.336442 L217.696733,88.9981125 L217.646987,88.9981125 L217.974998,88.621911 C220.070533,84.110603 236.010903,56.766044 236.010903,56.766044 Z M183.72108,119.853625 L181.619326,119.853625 L189.398302,94.1242455 L191.978857,94.1242455 L192.798105,91.4737355 L192.877387,94.421165 C192.781005,96.243099 194.214302,97.858278 197.979425,97.5908955 L202.333723,97.5908955 L203.832311,92.63654 L202.193814,92.63654 C201.251756,92.63654 200.814927,92.3986935 200.869337,91.888801 L200.790054,88.890071 L192.726596,88.890071 L192.726596,88.9056165 C190.119614,88.960026 182.33442,89.1558995 180.758105,89.5756285 C178.850671,90.0668665 176.840635,91.5125995 176.840635,91.5125995 L177.630347,88.85898 L170.087664,88.85898 L168.516013,94.1242455 L160.632883,120.246927 L159.103204,120.246927 L157.603062,125.165528 L172.626247,125.165528 L172.122572,126.805579 L179.525345,126.805579 L180.016584,125.165528 L182.093465,125.165528 L183.72108,119.853625 Z M177.557284,99.352202 C176.349398,99.6864305 174.101516,100.699998 174.101516,100.699998 L176.100669,94.1242455 L182.093465,94.1242455 L180.647732,98.915373 C180.647732,98.915373 178.796261,99.0241915 177.557284,99.352202 Z M177.672321,108.746356 C177.672321,108.746356 175.789759,108.982648 174.550781,109.262467 C173.330458,109.632451 171.042159,110.798364 171.042159,110.798364 L173.106603,103.955229 L179.13049,103.955229 L177.672321,108.746356 Z M174.31449,119.914253 L168.30304,119.914253 L170.045692,114.139095 L176.038487,114.139095 L174.31449,119.914253 Z M188.791404,103.955229 L197.456474,103.955229 L196.211278,107.987735 L187.431173,107.987735 L186.112912,112.396443 L193.795505,112.396443 L187.978375,120.587374 C187.571082,121.188986 187.205762,121.401959 186.800025,121.571405 C186.392732,121.77816 185.857967,122.02067 185.239255,122.02067 L183.107965,122.02067 L181.643577,126.849107 L187.218198,126.849107 C190.115882,126.849107 191.827443,125.530847 193.091294,123.800631 L197.080273,118.341047 L197.936831,123.884578 C198.118713,124.923017 198.864898,125.530847 199.370127,125.767139 C199.928211,126.046958 200.50495,126.527315 201.319535,126.598824 C202.193192,126.636133 202.82434,126.66567 203.244069,126.66567 L205.983189,126.66567 L207.627904,121.262049 L206.547491,121.262049 C205.927224,121.262049 204.859248,121.157894 204.677366,120.963575 C204.495483,120.727283 204.495483,120.363518 204.397546,119.810098 L203.528552,114.254131 L199.970183,114.254131 L201.530954,112.396443 L210.293959,112.396443 L211.641755,107.987735 L203.528552,107.987735 L204.792402,103.955229 L212.880733,103.955229 L214.380875,98.982219 L190.266674,98.982219 L188.791404,103.955229 Z M115.605924,121.037106 L117.628395,114.309008 L125.940582,114.309008 L127.459378,109.304907 L119.139419,109.304907 L120.409488,105.163582 L128.539791,105.163582 L130.046152,100.318045 L109.703292,100.318045 L108.228023,105.163582 L112.849704,105.163582 L111.616945,109.304907 L106.982827,109.304907 L105.446931,114.394508 L110.067057,114.394508 L107.371465,123.295869 C107.0077,124.474219 107.542466,124.923484 107.881358,125.470686 C108.228023,126.003897 108.579352,126.35678 109.369064,126.557317 C110.183649,126.7392 110.741733,126.848018 111.500354,126.848018 L120.87119,126.848018 L122.540778,121.304488 L118.387016,121.875009 C117.584868,121.875009 115.363414,121.778627 115.605924,121.037106 Z M116.55933,88.8286665 L114.452913,92.635763 C114.002093,93.4674475 113.596355,93.983559 113.231036,94.221405 C112.909244,94.4219425 112.271878,94.505888 111.348474,94.505888 L110.249406,94.505888 L108.780355,99.3762975 L112.430442,99.3762975 C114.18553,99.3762975 115.533326,98.7327135 116.176911,98.410921 C116.868686,98.040938 117.050568,98.252357 117.585334,97.736246 L118.818094,96.668269 L130.216064,96.668269 L131.728643,91.5973225 L123.385365,91.5973225 L124.84198,88.8286665 L116.55933,88.8286665 Z M133.386416,121.134887 C133.192097,120.855067 133.332007,120.362275 133.628926,119.336271 L136.744247,109.024932 L147.826644,109.024932 C149.441823,109.001614 150.607736,108.982959 151.366357,108.92855 C152.180942,108.843049 153.067037,108.552348 154.032413,108.030019 C155.028881,107.482817 155.538773,106.906078 155.969384,106.243839 C156.44974,105.583155 157.220798,104.137422 157.883037,101.908196 L161.798952,88.859291 L150.298381,88.926137 C150.298381,88.926137 146.757113,89.448466 145.197898,90.0252045 C143.624692,90.668789 141.37681,92.4658505 141.37681,92.4658505 L142.415251,88.8888275 L135.31095,88.8888275 L125.364931,121.874854 C125.012048,123.155803 124.775756,124.085425 124.721347,124.643509 C124.702692,125.245121 125.479968,125.840514 125.983643,126.289779 C126.579036,126.739045 127.458911,126.665981 128.303033,126.739045 C129.190682,126.805891 130.452978,126.847863 132.195629,126.847863 L137.655214,126.847863 L139.33102,121.189296 L134.443511,121.650998 C133.921182,121.650998 133.543426,121.371178 133.386416,121.134887 Z M138.754282,102.060541 L150.394763,102.060541 L149.654797,104.379932 C149.550642,104.434341 149.301913,104.264895 148.117345,104.404805 L138.037634,104.404805 L138.754282,102.060541 Z M141.086109,94.2815665 L152.824526,94.2815665 L151.980405,97.075095 C151.980405,97.075095 146.447757,97.020686 145.561663,97.1839135 C141.662847,97.858589 139.38543,99.941688 139.38543,99.941688 L141.086109,94.2815665 Z M149.915339,112.146937 C149.818957,112.493602 149.666611,112.705021 149.453638,112.863585 C149.217345,113.015931 148.834926,113.07034 148.264406,113.07034 L146.605699,113.07034 L146.703636,110.245721 L139.804537,110.245721 L139.524718,124.054801 C139.513836,125.051268 139.610218,125.628007 140.339303,126.089709 C141.068387,126.666447 143.314714,126.739511 146.338316,126.739511 L150.661524,126.739511 L152.222294,121.570628 L148.458724,121.777383 L147.207311,121.850447 C147.03631,121.777383 146.873082,121.710537 146.6912,121.528655 C146.532635,121.371645 146.265253,121.468028 146.30878,120.47156 L146.338316,116.931847 L150.285323,116.768619 C152.416613,116.768619 153.32758,116.075288 154.104855,115.414604 C154.846376,114.781902 155.088886,114.054372 155.368706,113.07034 L156.030945,109.936365 L150.607114,109.936365 L149.915339,112.146937 Z"
                  fill="#FEFEFE"/>
        </g>
    </symbol>

    <symbol id="weibo" viewBox="0 0 512 512">
        <path style="fill:#EA533B;" d="M403.51,247.992c12.189-23.721,13.499-45.899,3.546-63.137
	c-10.316-17.868-31.605-28.033-59.944-28.622c-20.81-0.427-44.439,4.311-68.131,13.528c8.166-27.851,5.532-49.961-7.876-63.369
	c-16.113-16.113-44.899-16.666-81.056-1.558c-33.715,14.088-70.764,40.33-104.325,73.889
	c-49.982,49.983-83.19,107.958-84.779,147.93C0.318,330.616,0,334.579,0,338.441c0,35.793,25.09,69.017,70.648,93.547
	c43.858,23.617,101.979,36.622,163.656,36.622s119.798-13.005,163.656-36.622c45.558-24.53,70.648-57.754,70.648-93.547
	C468.609,304.067,445.576,272.184,403.51,247.992z"/>
        <path style="fill:#D93C1C;" d="M260.338,459.932c-61.677,0-119.798-13.005-163.656-36.622
	c-45.558-24.53-70.648-57.754-70.648-93.547c0-3.863,0.318-7.825,0.945-11.787c1.589-39.973,34.797-97.947,84.78-147.93
	c33.227-33.226,69.87-59.27,103.314-73.458c-7.854,1.823-16.218,4.566-25.023,8.245c-33.715,14.088-70.764,40.33-104.325,73.889
	C35.742,228.707,2.534,286.682,0.945,326.654C0.318,330.616,0,334.579,0,338.441c0,35.793,25.09,69.017,70.648,93.547
	c43.858,23.617,101.979,36.622,163.656,36.622c48.616,0,95.016-8.086,133.969-23.074
	C335.352,454.941,298.529,459.932,260.338,459.932z"/>
        <path style="fill:#FFFFFF;" d="M364.19,312.032c-2.568-29.565-22.081-55.61-54.944-73.338
	c-31.681-17.091-72.302-24.49-114.382-20.835c-42.079,3.656-80.818,17.949-109.076,40.247
	c-29.314,23.131-44.045,52.151-41.476,81.715c2.569,29.565,22.082,55.61,54.946,73.338c26.389,14.236,58.976,21.748,93.447,21.747
	c6.913,0,13.905-0.302,20.934-0.913c42.079-3.654,80.817-17.948,109.075-40.246C352.029,370.616,366.758,341.596,364.19,312.032z"/>
        <path style="fill:#E5E5E5;" d="M230.36,425.319c-7.029,0.611-14.021,0.913-20.934,0.913c-34.471,0.001-67.059-7.511-93.447-21.747
	c-32.863-17.729-52.378-43.774-54.946-73.338c-2.569-29.564,12.161-58.584,41.476-81.715c5.799-4.575,12.046-8.808,18.665-12.687
	c-12.993,5.932-24.911,13.095-35.388,21.361c-29.314,23.131-44.045,52.151-41.476,81.715c2.569,29.565,22.082,55.61,54.946,73.338
	c26.389,14.236,58.976,21.748,93.447,21.747c6.913,0,13.905-0.302,20.934-0.913c33.445-2.905,64.771-12.535,90.41-27.559
	C281.994,416.503,256.841,423.019,230.36,425.319z"/>
        <path style="fill:#333333;" d="M286.65,312.533c-9.507-39.544-55.55-62.508-102.638-51.189
	c-47.088,11.32-77.661,52.703-68.156,92.249c4.682,19.473,18.156,35.492,37.943,45.105c12.283,5.967,26.102,9.003,40.355,9.003
	c8.042,0,16.221-0.967,24.339-2.918C265.582,393.462,296.157,352.08,286.65,312.533z"/>
        <circle style="fill:#FFFFFF;" cx="177.898" cy="351.457" r="30.373"/>
        <g>
            <path style="fill:#FFA929;" d="M373.152,117.153c-7.189,0-13.017,5.828-13.017,13.017c0,7.189,5.828,13.017,13.017,13.017
		c26.318,0,47.729,21.411,47.729,47.729c0,7.189,5.828,13.017,13.017,13.017s13.017-5.828,13.017-13.017
		C446.914,150.243,413.824,117.153,373.152,117.153z"/>
            <path style="fill:#FFA929;" d="M364.475,43.39c-3.261,0-6.564,0.108-9.817,0.322c-9.564,0.629-16.808,8.893-16.18,18.458
		c0.629,9.564,8.9,16.804,18.458,16.18c2.498-0.164,5.035-0.248,7.539-0.248c62.206,0,112.813,50.608,112.813,112.813
		c0,7.606-0.759,15.204-2.257,22.581c-1.396,6.875,1.691,14.209,7.576,18.025c5.99,3.884,14.111,3.587,19.829-0.675
		c3.388-2.525,5.774-6.307,6.614-10.445c1.958-9.646,2.95-19.566,2.95-29.487C512,109.571,445.82,43.39,364.475,43.39z"/>
        </g>
        <circle style="fill:#FFFFFF;" cx="234.305" cy="321.085" r="17.356"/>
    </symbol>

    <symbol id="google" viewBox="0 0 48 48">
        <path fill="#FFC107" d="M43.611,20.083H42V20H24v8h11.303c-1.649,4.657-6.08,8-11.303,8c-6.627,0-12-5.373-12-12c0-6.627,5.373-12,12-12c3.059,0,5.842,1.154,7.961,3.039l5.657-5.657C34.046,6.053,29.268,4,24,4C12.955,4,4,12.955,4,24c0,11.045,8.955,20,20,20c11.045,0,20-8.955,20-20C44,22.659,43.862,21.35,43.611,20.083z"/><path fill="#FF3D00" d="M6.306,14.691l6.571,4.819C14.655,15.108,18.961,12,24,12c3.059,0,5.842,1.154,7.961,3.039l5.657-5.657C34.046,6.053,29.268,4,24,4C16.318,4,9.656,8.337,6.306,14.691z"/><path fill="#4CAF50" d="M24,44c5.166,0,9.86-1.977,13.409-5.192l-6.19-5.238C29.211,35.091,26.715,36,24,36c-5.202,0-9.619-3.317-11.283-7.946l-6.522,5.025C9.505,39.556,16.227,44,24,44z"/><path fill="#1976D2" d="M43.611,20.083H42V20H24v8h11.303c-0.792,2.237-2.231,4.166-4.087,5.571c0.001-0.001,0.002-0.001,0.003-0.002l6.19,5.238C36.971,39.205,44,34,44,24C44,22.659,43.862,21.35,43.611,20.083z"/>
    </symbol>

    <symbol id="github" viewBox="0 0 438.549 438.549">
        <path d="M409.132,114.573c-19.608-33.596-46.205-60.194-79.798-79.8C295.736,15.166,259.057,5.365,219.271,5.365
		c-39.781,0-76.472,9.804-110.063,29.408c-33.596,19.605-60.192,46.204-79.8,79.8C9.803,148.168,0,184.854,0,224.63
		c0,47.78,13.94,90.745,41.827,128.906c27.884,38.164,63.906,64.572,108.063,79.227c5.14,0.954,8.945,0.283,11.419-1.996
		c2.475-2.282,3.711-5.14,3.711-8.562c0-0.571-0.049-5.708-0.144-15.417c-0.098-9.709-0.144-18.179-0.144-25.406l-6.567,1.136
		c-4.187,0.767-9.469,1.092-15.846,1c-6.374-0.089-12.991-0.757-19.842-1.999c-6.854-1.231-13.229-4.086-19.13-8.559
		c-5.898-4.473-10.085-10.328-12.56-17.556l-2.855-6.57c-1.903-4.374-4.899-9.233-8.992-14.559
		c-4.093-5.331-8.232-8.945-12.419-10.848l-1.999-1.431c-1.332-0.951-2.568-2.098-3.711-3.429c-1.142-1.331-1.997-2.663-2.568-3.997
		c-0.572-1.335-0.098-2.43,1.427-3.289c1.525-0.859,4.281-1.276,8.28-1.276l5.708,0.853c3.807,0.763,8.516,3.042,14.133,6.851
		c5.614,3.806,10.229,8.754,13.846,14.842c4.38,7.806,9.657,13.754,15.846,17.847c6.184,4.093,12.419,6.136,18.699,6.136
		c6.28,0,11.704-0.476,16.274-1.423c4.565-0.952,8.848-2.383,12.847-4.285c1.713-12.758,6.377-22.559,13.988-29.41
		c-10.848-1.14-20.601-2.857-29.264-5.14c-8.658-2.286-17.605-5.996-26.835-11.14c-9.235-5.137-16.896-11.516-22.985-19.126
		c-6.09-7.614-11.088-17.61-14.987-29.979c-3.901-12.374-5.852-26.648-5.852-42.826c0-23.035,7.52-42.637,22.557-58.817
		c-7.044-17.318-6.379-36.732,1.997-58.24c5.52-1.715,13.706-0.428,24.554,3.853c10.85,4.283,18.794,7.952,23.84,10.994
		c5.046,3.041,9.089,5.618,12.135,7.708c17.705-4.947,35.976-7.421,54.818-7.421s37.117,2.474,54.823,7.421l10.849-6.849
		c7.419-4.57,16.18-8.758,26.262-12.565c10.088-3.805,17.802-4.853,23.134-3.138c8.562,21.509,9.325,40.922,2.279,58.24
		c15.036,16.18,22.559,35.787,22.559,58.817c0,16.178-1.958,30.497-5.853,42.966c-3.9,12.471-8.941,22.457-15.125,29.979
		c-6.191,7.521-13.901,13.85-23.131,18.986c-9.232,5.14-18.182,8.85-26.84,11.136c-8.662,2.286-18.415,4.004-29.263,5.146
		c9.894,8.562,14.842,22.077,14.842,40.539v60.237c0,3.422,1.19,6.279,3.572,8.562c2.379,2.279,6.136,2.95,11.276,1.995
		c44.163-14.653,80.185-41.062,108.068-79.226c27.88-38.161,41.825-81.126,41.825-128.906
		C438.536,184.851,428.728,148.168,409.132,114.573z"/>
    </symbol>

    <symbol id="facebook" viewBox="0 0 14222 14222">
        <path fill="#1977F3" d="M14222 7111c0,-3927 -3184,-7111 -7111,-7111 -3927,0 -7111,3184 -7111,7111 0,3549 2600,6491 6000,7025l0 -4969 -1806 0 0 -2056 1806 0 0 -1567c0,-1782 1062,-2767 2686,-2767 778,0 1592,139 1592,139l0 1750 -897 0c-883,0 -1159,548 -1159,1111l0 1334 1972 0 -315 2056 -1657 0 0 4969c3400,-533 6000,-3475 6000,-7025z"/>
        <path fill="#FEFEFE" d="M9879 9167l315 -2056 -1972 0 0 -1334c0,-562 275,-1111 1159,-1111l897 0 0 -1750c0,0 -814,-139 -1592,-139 -1624,0 -2686,984 -2686,2767l0 1567 -1806 0 0 2056 1806 0 0 4969c362,57 733,86 1111,86 378,0 749,-30 1111,-86l0 -4969 1657 0z"/>
    </symbol>
</svg>
