<svg viewBox="0 0 512 512" xmlns="http://www.w3.org/2000/svg"><path d="m419.5 61.617h-47.387c-14.109-29.868-35.396-50.081-59.599-53.575l-17.846 17.846v478.61h209.83v-302.88c0-77.32-38.056-140-85-140z" fill="#0caf7b"/><path d="m312.51 8.042c-2.475-0.358-4.981-0.542-7.513-0.542-46.944 0-85 62.68-85 140v110.88l46.547 36.622h74.037c-34.931-89.868-45.483-188.97-28.071-286.96z" fill="#009d6b"/><ellipse cx="279.76" cy="165.24" rx="29.355" ry="23.377" fill="#ff8e9e"/><ellipse cx="438.87" cy="165.24" rx="29.355" ry="23.377" fill="#ff8e9e"/><path d="m359.31 140.4c-11.646 0-22.017-7.826-28.539 1.825-6.617 9.79 8.202 24.97 28.539 24.97s35.156-15.18 28.539-24.97c-6.522-9.65-16.893-1.825-28.539-1.825z" fill="#4c5699"/><path d="m219.968 150.217c-13.706 0-26.612 7.178-37.922 19.83-18.485-39.526-44.206-64.047-72.654-64.047-.384 0-.765.022-1.148.031l-13.004 13.004v201.182h205.589c-.001-93.888-36.203-170-80.861-170z" fill="#0caf7b"/><path d="m108.24 106.03c-55.744 1.295-100.74 96.684-100.74 214.19v184.28l172.76-108.54c-58.481-83.29-85.069-186.47-72.016-289.93z" fill="#009d6b"/><path d="m381.77 290.15h-80.942v-42.214h-54.641l-32.063 32.062v224.5h290.38c0-91.347-49.298-171.17-122.73-214.35z" fill="#70dcba"/><path d="m214.124 382.271c0-55.025 34.771-104.043 86.704-122.229-14.542-2.649-29.522-4.042-44.828-4.042-37.497 0-73.052 8.309-104.93 23.181-7.935 3.702-13.017 11.658-13.017 20.414v20.417l-26.503.205c-8.225.082-16.311 6.773-16.311 14.999v30.149h-13.386c-8.284 0-15 6.716-15 15v29.847l-10.562.147c-8.202.114-14.791 6.796-14.791 14.999v20.208h-10.405c-11.1 0-20.522 8.26-21.836 19.282-1.16 9.722-1.759 29.617-1.759 39.652h293.328c-51.933-18.186-86.704-67.204-86.704-122.229z" fill="#30cd9c"/><path d="m299 235h-70c-8.284 0-15 6.716-15 15v30h27.5c0-12.427 10.074-22.5 22.5-22.5s22.5 10.073 22.5 22.5l13.448 10 14.052-10v-30c0-8.284-6.716-15-15-15z" fill="#e8b5b1"/><path d="m376.5 280h-90c-8.284 0-15 6.716-15 15v30l19.693 10 17.807-10c0-12.427 10.074-22.5 22.5-22.5s22.5 10.073 22.5 22.5h37.5v-30c0-8.284-6.716-15-15-15z" fill="#f2d4d3"/><path d="m309 325h-90c-8.284 0-15 6.716-15 15v30l17.588 10 19.912-10c0-12.427 10.074-22.5 22.5-22.5s22.5 10.073 22.5 22.5l18.561 10 18.939-10v-30c0-8.284-6.716-15-15-15z" fill="#e8b5b1"/><path d="m405.83 370h-210c-8.284 0-15 6.716-15 15v30h37.5c0-12.427 10.074-22.5 22.5-22.5s22.5 10.073 22.5 22.5h157.5v-30c0-8.284-6.716-15-15-15z" fill="#f2d4d3"/><path d="m420.83 415h-240.22c-8.238 0-14.917 6.678-14.917 14.917 0 8.238 6.678 14.917 14.917 14.917h240.22c8.238 0 14.917-6.678 14.917-14.917s-6.679-14.917-14.917-14.917z" fill="#e8b5b1"/><path d="m304.165 130.291c-3.868 4.44-10.739 4.435-14.604 0-2.723-3.123-7.46-3.448-10.582-.726-3.123 2.721-3.448 7.459-.727 10.582 9.848 11.299 27.382 11.288 37.221 0 2.722-3.123 2.396-7.86-.727-10.582-3.122-2.722-7.859-2.397-10.581.726z"/><path d="m429.062 130.291c-3.868 4.44-10.739 4.435-14.604 0-2.723-3.123-7.46-3.448-10.582-.726-3.123 2.721-3.448 7.459-.727 10.582 9.848 11.299 27.382 11.288 37.221 0 2.722-3.123 2.396-7.86-.727-10.582-3.122-2.722-7.859-2.397-10.581.726z"/><path d="m368.61 131.456c-8.423 1.928-10.17 1.929-18.597 0-7.246-1.659-18.196-4.167-25.455 6.573-3.672 5.433-3.846 12.188-.477 18.531 5.672 10.68 20.159 18.138 35.23 18.138 15.07 0 29.558-7.458 35.229-18.138 3.369-6.344 3.195-13.098-.477-18.531-7.255-10.74-18.209-8.232-25.453-6.573zm12.684 18.068c-2.619 4.932-11.213 10.174-21.981 10.174s-19.363-5.242-21.982-10.174c-1.072-2.018-.543-2.801-.344-3.095 1.191-1.763 1.827-2.148 9.68-.351 10.655 2.44 14.629 2.442 25.292 0 7.856-1.798 8.489-1.411 9.68.351.198.294.727 1.077-.345 3.095z"/><path d="m489.267 104.373c-1.987-3.634-6.545-4.971-10.179-2.983-3.635 1.987-4.97 6.544-2.983 10.178 13.474 24.647 20.895 56.627 20.895 90.049v216.307c-18.156-50.651-52.124-94.894-98.203-125.901-1.462-11.004-10.9-19.523-22.297-19.523h-55v-22.5c0-12.407-10.094-22.5-22.5-22.5h-3.409c-14.642-48.909-39.518-79.515-68.03-84.145.624-34.478 8.985-66.645 23.746-90.958 14.641-24.116 33.711-37.397 53.693-37.397 33.212 0 53.256 34.841 60.332 49.82 1.239 2.623 3.88 4.296 6.781 4.296h47.387c14.184 0 28.133 6.806 40.339 19.682 2.853 3.007 7.599 3.132 10.604.283 3.006-2.85 3.133-7.597.283-10.603-15.109-15.938-32.823-24.363-51.226-24.363h-42.724c-9.834-19.137-33.106-54.115-71.776-54.115-25.426 0-49.048 15.844-66.515 44.613-16.152 26.604-25.284 61.521-25.923 98.71-9.878 1.597-19.497 6.369-28.411 14.108-20.11-38.105-46.405-58.931-74.76-58.931-.33 0-.658.01-.986.021l-.336.011c-21.427.499-41.961 13.099-59.38 36.438-2.478 3.319-1.795 8.019 1.524 10.497 3.32 2.478 8.02 1.796 10.497-1.525 14.561-19.509 31.058-30.026 47.705-30.414l.52-.016c.151-.005.304-.012.456-.012 33.323 0 55.107 37.206 69.436 67.21 1.784 3.736 6.257 5.322 10 3.536 3.737-1.785 5.32-6.262 3.535-10l-1.321-2.766c35.444-34.921 71.239 1.074 88.844 56.02h-50.885c-12.406 0-22.5 10.093-22.5 22.5v3.318c-20.259 3.966-39.945 10.362-58.601 19.066-10.538 4.916-17.347 15.597-17.347 27.211v12.975l-19.078.147c-12.865.128-23.735 10.432-23.735 22.499v22.649h-5.886c-12.406 0-22.5 10.093-22.5 22.5v22.45l-3.167.044c-12.233.171-22.186 10.264-22.186 22.499v12.707c-3.654 0-10.952-.46-19 4.768v-122.616c.001-57.23 11.246-112.561 30.853-151.804 1.852-3.706.349-8.21-3.356-10.062-3.707-1.85-8.21-.348-10.062 3.357-20.915 41.863-32.434 98.155-32.435 158.509v184.283c0 4.142 3.357 7.5 7.5 7.5h497c4.143 0 7.5-3.358 7.5-7.5v-302.883c0-35.894-8.073-70.429-22.733-97.244zm-112.767 183.127c4.136 0 7.5 3.364 7.5 7.5v22.5h-23.449c-3.339-12.925-15.098-22.5-29.051-22.5s-25.712 9.575-29.051 22.5h-23.449v-22.5c0-4.136 3.364-7.5 7.5-7.5zm44.328 135c4.09 0 7.417 3.327 7.417 7.417s-3.327 7.417-7.417 7.417h-240.22c-4.089 0-7.416-3.327-7.416-7.417 0-4.089 3.327-7.417 7.416-7.417zm-192.97-15c5.797-9.986 20.138-9.996 25.941 0zm185.47 0h-143.449c-3.339-12.925-15.098-22.5-29.051-22.5s-25.712 9.575-29.051 22.5h-23.449v-22.5c0-4.136 3.364-7.5 7.5-7.5h210c4.136 0 7.5 3.364 7.5 7.5zm-162.298-45c5.797-9.986 20.138-9.996 25.941 0zm65.47 0h-23.449c-3.339-12.925-15.098-22.5-29.051-22.5s-25.712 9.575-29.051 22.5h-23.449v-22.5c0-4.136 3.364-7.5 7.5-7.5h90c4.136 0 7.5 3.364 7.5 7.5zm-95-112.5c0-4.136 3.364-7.5 7.5-7.5h70c4.136 0 7.5 3.364 7.5 7.5v22.5h-13.449c-3.339-12.925-15.098-22.5-29.051-22.5s-25.712 9.575-29.051 22.5h-13.449zm-206.418 247c.433-22.551 1.624-31.264 1.624-31.264.862-7.223 7.047-12.67 14.389-12.67h10.405c4.143 0 7.5-3.358 7.5-7.5v-20.207c0-4.079 3.317-7.443 7.396-7.5l10.562-.147c4.101-.057 7.396-3.398 7.396-7.5v-29.847c0-4.136 3.364-7.5 7.5-7.5h13.386c4.143 0 7.5-3.358 7.5-7.5v-30.149c0-3.74 4.401-7.455 8.868-7.5l26.503-.205c4.12-.032 7.442-3.38 7.442-7.5v-20.417c0-5.81 3.41-11.155 8.688-13.617 16.667-7.776 34.209-13.597 52.259-17.36v11.383c0 4.142 3.357 7.5 7.5 7.5h27.5c4.143 0 7.5-3.358 7.5-7.5 0-16.301 22.538-20.849 28.844-5.766-8.122 3.398-13.844 11.425-13.844 20.766v22.5h-45c-12.406 0-22.5 10.093-22.5 22.5v22.5h-.672c-12.406 0-22.5 10.093-22.5 22.5v23.72c-8.796 3.03-15.136 11.384-15.136 21.196 0 12.361 10.056 22.417 22.416 22.417h240.22c12.36 0 22.417-10.056 22.417-22.417 0-9.73-6.234-18.029-14.917-21.122v-23.794c0-12.407-10.094-22.5-22.5-22.5h-74.328v-22.5c0-9.341-5.722-17.368-13.844-20.766 6.306-15.085 28.844-10.535 28.844 5.766 0 4.142 3.357 7.5 7.5 7.5h37.5c4.143 0 7.5-3.358 7.5-7.5v-14.481c59.611 43.942 95.607 112.296 97.885 186.481z"/></svg>