<svg xmlns="http://www.w3.org/2000/svg" height="682.667" viewBox="0 -68 512.15 512" width="682.667"><path d="M503.543 209.14c1.254 36.375-12.652 71.64-38.402 97.367-41.043 40.703-113.492 60.5-209.066 60.5-4.352 0-8.617 0-12.8-.172-89.258-1.703-157.098-21.504-196.266-60.328a131.24 131.24 0 0 1-38.398-97.367zm0 0" fill="#f57c00"/><path d="M477.94 209.14a131.24 131.24 0 0 1-38.398 97.367c-39.168 38.824-107.008 58.625-196.27 60.328-89.258-1.703-157.098-21.504-196.266-60.328a131.24 131.24 0 0 1-38.398-97.367zm0 0" fill="#ff9801"/><path d="M503.543 209.14c0 6.06-5.977 11.863-16.984 17.066-14.637 6.496-29.988 11.25-45.738 14.168a656.73 656.73 0 0 1-66.473 9.984c-39.3 3.922-78.777 5.832-118.273 5.715-39.496.117-78.973-1.793-118.273-5.715-50.77-5.207-90.88-13.742-112.21-24.152-5.3-2.215-10.07-5.53-13.996-9.727-1.824-2.02-2.883-4.617-2.984-7.34 0-18.602 56.832-34.645 139.348-42.238l7.254-.598h201.727l7.254.598c82.52 7.594 139.352 23.637 139.352 42.238zm0 0" fill="#ff5722"/><g fill="#d84315"><path d="M440.82 240.375a656.73 656.73 0 0 1-66.473 9.984c-39.3 3.922-78.777 5.832-118.273 5.715-39.496.117-78.973-1.793-118.273-5.715-50.77-5.207-90.88-13.742-112.21-24.152-5.3-2.215-10.07-5.53-13.996-9.727 25.316-5.098 50.902-8.773 76.63-11.008l7.254-.598h201.73l7.25.598c71.426 6.57 123.648 19.457 136.363 34.902zm0 0"/><path d="M503.543 209.14c0 6.06-5.977 11.863-16.984 17.066-22.78-11.008-66.73-20.05-122.367-25.172H147.957C92.32 206.156 48.375 215.2 25.6 226.207 14.582 221.004 8.61 215.2 8.61 209.14c0-18.602 56.832-34.645 139.348-42.238l7.254-.598h201.727l7.254.598c82.52 7.594 139.352 23.637 139.352 42.238zm0 0"/></g><path d="M146.848 321.953l-17.578 12.543c-3.172 2.313-7.52 2.137-10.496-.426L69.96 292.34c-.914-.902-2.07-1.523-3.328-1.8 4.27-3.672 8.793-7.68 13.313-12.035a8.32 8.32 0 0 1 11.352-.254l20.3 17.324 28.5 24.402a8.49 8.49 0 0 0 6.742 1.965zM251.8 335.605l-10.582 12.3a8.54 8.54 0 0 1-6.484 2.988c-2.496 0-4.863-1.094-6.484-2.988l-39.598-46.25a8.6 8.6 0 0 0-7.68-2.902L198.56 286.2a8.54 8.54 0 0 1 11.438 1.363l39.594 46.25a7.24 7.24 0 0 0 2.22 1.793zm113.15-13.738L350.7 334.07c-2.977 2.563-7.324 2.738-10.496.426l-47.957-34.22c-.258-.172-.43-.34-.684-.34l10.582-12.375c2.883-3.344 7.844-3.937 11.434-1.363l47.957 34.22a8.66 8.66 0 0 0 3.414 1.45zm66.474 9.64a138.96 138.96 0 0 0 12.375-10.922c-11.477-8.727-22.473-18.07-32.937-27.988a7.73 7.73 0 0 0-4.184-2.219l14.164-12.117a8.32 8.32 0 0 1 11.352.254c10.465 9.922 21.46 19.266 32.938 27.992-10.04 9.836-21.38 18.246-33.707 25zm0 0" fill="#c52828"/><path d="M180.895 298.742l-5.63 4.094-1.367-.168 3.328-2.39a8.09 8.09 0 0 1 3.668-1.535zm0 0" fill="#e64c3c"/><path d="M443.81 320.586c-3.906 3.883-8.04 7.53-12.375 10.922-.086 0-.168.086-.254.172-42.328 23.723-101.973 35.328-175.105 35.328-95.574 0-168.02-19.797-209.066-60.5 5.375-4.098 12.203-9.56 19.625-15.957 1.258.266 2.414.887 3.328 1.79l48.813 41.73c2.977 2.563 7.324 2.738 10.496.426l17.578-12.543a8.43 8.43 0 0 0 3.754-1.535l24.664-17.582 5.63-4.094h.086a8.6 8.6 0 0 1 7.68 2.902l2.563 2.984 37.035 43.266c1.62 1.895 3.988 2.988 6.484 2.988a8.54 8.54 0 0 0 6.484-2.988l10.582-12.29a8.43 8.43 0 0 0 10.75-1.793l16.555-19.285 12.46-14.6c.254 0 .426.168.684.34l47.957 34.22c3.172 2.313 7.52 2.137 10.496-.426l14.25-12.203a8.28 8.28 0 0 0 7.082-1.879l34.56-29.61h.086a7.73 7.73 0 0 1 4.184 2.219c10.465 9.918 21.46 19.262 32.938 27.988zm0 0" fill="#f44335"/><path d="M291.574 299.938l-12.46 14.6-8.445-.937 10.152-11.945c2.68-3.137 7.238-3.86 10.754-1.707zm115.028-9.558l-34.56 29.6a8.28 8.28 0 0 1-7.082 1.879l34.56-29.527c1.9-1.75 4.543-2.48 7.082-1.96zm0 0" fill="#e64c3c"/><path d="M374.348 250.36c-39.3 3.922-78.777 5.832-118.273 5.715-3.668 0-7.254 0-10.836-.086h-5.12c-36.863-.426-71.594-2.387-102.316-5.63l10.156-49.324h.086l24.32-117.418 1.707-8.19c7-34.027 34.31-60.184 68.605-65.707 4.426-.758 8.9-1.13 13.398-1.11 39.746-.062 74.035 27.875 82.004 66.816l1.707 8.19 18.262 88.063 6.06 29.355h.086zm0 0" fill="#ffb301"/><path d="M347.55 250.36c-30.72 3.242-65.45 5.203-102.312 5.63h-5.12c-36.863-.426-71.594-2.387-102.316-5.63l10.156-49.324h.086l24.32-117.418 1.707-8.19c7-34.027 34.31-60.184 68.605-65.707 34.324 5.47 61.66 31.648 68.61 65.707l1.707 8.19 18.262 88.063 6.06 29.355h.086zm0 0" fill="#fec108"/><path d="M244.215 93.77c-3.758.172-7.766.172-11.863.172-20.508.348-41.008-1.082-61.27-4.266l1.28-6.06c10.4 4.352 31.145 9.387 71.852 10.152zm107.605 48.043l-26.453-13.227-8.023-38.9a103.57 103.57 0 0 0 22.441-6.059zm0 0" fill="#2e7d32"/><path d="M325.367 128.586l-13.145-6.57a8.31 8.31 0 0 0-9.215 1.109l-41.473 34.563a8.54 8.54 0 0 1-10.922 0l-6.398-5.293-35.074-29.27a8.31 8.31 0 0 0-9.215-1.109l-39.594 19.797 10.75-52.137c20.262 3.184 40.762 4.613 61.27 4.266l11.863-.172c3.754.172 7.766.172 11.86.172 20.508.348 41.008-1.082 61.27-4.266zm0 0" fill="#4caf50"/><path d="M317.344 89.676c-20.262 3.184-40.762 4.613-61.27 4.266-4.094 0-8.105 0-11.86-.172 40.703-.766 61.438-5.8 71.848-10.152zm10.754 52.137l-29.7-14.848 4.6-3.84a8.31 8.31 0 0 1 9.215-1.109l13.145 6.57zm0 0" fill="#2e7d32"/><path d="M358.047 171.68a76.44 76.44 0 0 1-19.199 7.426 404.02 404.02 0 0 1-82.773 8.703s-75.008 0-101.973-16.13l4.61-22.27 1.535-7.598h.086l39.594-19.797a8.31 8.31 0 0 1 9.215 1.109l41.473 34.563a8.54 8.54 0 0 0 10.922 0l41.473-34.562a8.31 8.31 0 0 1 9.215-1.109l39.598 19.797h.082zm0 0" fill="#c52828"/><path d="M338.848 179.105a404.02 404.02 0 0 1-82.773 8.703s-75.008 0-101.973-16.13l4.61-22.27 23.723-11.863c2.984-1.535 11.348-20.223 13.906-18.004l51.203 34.133c3.156 2.645-3.16 11.18 0 8.53l37.973-23.55a8.31 8.31 0 0 1 9.215-1.109l39.594 19.797h.086zm0 0" fill="#f44335"/><path d="M364.797 158.387l-.852-.07-17.527-84.633C337.453 30.898 299.8.2 256.074.074c-43.715.137-81.38 30.824-90.344 73.6l-17.527 84.64-.996.078C80.074 164.582.074 178.422.074 209.14c-1.266 38.66 13.57 76.113 40.96 103.426 42.102 41.785 114.465 62.977 215.04 62.977s172.938-21.2 215.04-62.96c27.398-27.316 42.23-64.773 40.96-103.44 0-30.72-80-44.56-147.277-50.754zm99.37 136.53c-7.262-5.742-16.426-13.43-26.07-22.648-6.328-6.047-16.223-6.293-22.844-.562L366.53 313.52l-47.94-34.234a16.98 16.98 0 0 0-22.88 2.773l-39.637 46.234-39.645-46.25c-5.734-6.75-15.7-7.957-22.87-2.773l-47.937 34.242L96.895 271.7a16.97 16.97 0 0 0-22.844.57c-9.645 9.22-18.773 16.906-26.07 22.64a118.43 118.43 0 0 1-29.012-62.574c.953.504 1.86 1.016 2.9 1.492 22.035 10.762 62.898 19.63 115.074 24.977 39.6 3.953 79.355 5.9 119.14 5.805 39.785.102 79.55-1.82 119.145-5.762 52.18-5.352 93.012-14.215 114.984-24.926 1.06-.496 2.008-1.023 2.988-1.543-3.254 23.273-13.355 45.055-29.023 62.574zm-208.094 63.56c-88.926 0-156.305-17.758-195.863-51.45 7.313-5.855 16.2-13.4 25.598-22.324l48.727 41.813a17.07 17.07 0 0 0 21.027.934l47.938-34.246 39.637 46.242c3.242 3.785 7.98 5.965 12.965 5.965a17.06 17.06 0 0 0 12.96-5.965l39.637-46.242 47.94 34.246a17.07 17.07 0 0 0 21.027-.934l48.637-41.812c9.387 8.977 18.313 16.53 25.602 22.383-39.508 33.633-106.898 51.4-195.832 51.4zm-77.31-263.684c25.332 5.88 51.32 8.46 77.313 7.684a302.25 302.25 0 0 0 77.313-7.723l6.527 31.57-23.84-11.902a17.07 17.07 0 0 0-18.543 2.16l-41.457 34.53-41.453-34.56a17.07 17.07 0 0 0-18.543-2.16L172.235 126.3zm77.313 152.75c-37.7 0-74.684-1.707-107.98-4.832l7.988-38.816a8.17 8.17 0 0 0 .316-1.137l3.914-18.902c33.137 12.3 92.938 12.484 95.762 12.484s62.867-.195 95.77-12.45l3.9 18.867c.078.38.184.754.313 1.117l7.988 38.828c-33.3 3.133-70.27 4.84-107.98 4.84zm92.262-80.574c-23.63 9.992-73.6 12.305-92.262 12.305s-68.344-2.3-92.254-12.336l4.012-19.37 35.84-17.922 41.445 34.535c6.332 5.273 15.523 5.273 21.855 0l41.453-34.535 35.84 17.922zm32.793 74.027l-6.246-30.328c29.484 2.648 58.684 7.848 87.273 15.54-26.543 7.22-53.648 12.164-81.027 14.8zm-250.1 0a485.29 485.29 0 0 1-81.016-14.79 511.06 511.06 0 0 1 87.262-15.582zm363.988-31.855c0 .855-1.707 3.78-8.78 7.68-23.516-10.238-63.648-18.5-115.02-23.586l-3.6-17.414c104.55 10.05 127.4 29.055 127.4 33.32zm-238.934-192c35.63.1 66.324 25.125 73.625 60l.188.9a270.42 270.42 0 0 1-73.812 7.359 270.52 270.52 0 0 1-73.848-7.359l.188-.9c7.305-34.887 38.02-59.906 73.66-60zM144.55 175.8l-3.598 17.383c-51.055 5.043-91.387 13.34-115.03 23.637-7.074-3.883-8.78-6.824-8.78-7.68 0-4.266 22.887-23.285 127.4-33.34zm77.118-107.62h.273a8.69 8.69 0 0 0 8.535-8.133c.094-1.47 1.363-8.78 17.066-8.78 4.7 0 8.53-3.82 8.53-8.53a8.54 8.54 0 0 0-8.53-8.535c-27 0-34.137 16.742-34.137 25.602a8.4 8.4 0 0 0 8.262 8.379zm0 0"/></svg>