<svg xmlns="http://www.w3.org/2000/svg" height="682.667" viewBox="-55 0 512 512.002" width="682.667"><path d="M394.863 310.77c0 90.902-62.652 167.176-147.117 188.016a194.64 194.64 0 0 1-46.52 5.621c-106.94 0-193.633-86.69-193.633-193.637 0-60.12 27.402-113.84 70.398-149.352h246.473c42.996 35.512 70.398 89.23 70.398 149.352zm0 0" fill="#7c4635"/><path d="M394.863 310.77c0 90.902-62.652 167.176-147.117 188.016-84.473-20.832-147.125-97.102-147.125-188.016 0-60.12 27.402-113.84 70.398-149.352h153.445c42.996 35.512 70.398 89.23 70.398 149.352zm0 0" fill="#996652"/><path d="M168.063 117.137l-48.19-75.262L34.074 78.98c-7.695 3.32-16.64-.215-19.97-7.922-3.332-7.695.21-16.637 7.918-19.97l97.648-42.227a15.19 15.19 0 0 1 18.824 5.754l65.648 102.52-33.125 44.28" fill="#f7583e"/><path d="M360.688 145.043v4.477c0 15.4-12.488 27.898-27.898 27.898H69.668c-15.414 0-27.9-12.488-27.9-27.898v-4.477c0-15.414 12.496-27.906 27.9-27.906h263.12c15.4 0 27.898 12.492 27.898 27.906zm0 0" fill="#edac29"/><path d="M360.688 145.043v4.477c0 15.4-12.488 27.898-27.898 27.898H148.844c-15.4 0-27.906-12.488-27.906-27.898v-4.477c0-15.414 12.496-27.906 27.906-27.906H332.79c15.4 0 27.898 12.492 27.898 27.906zm0 0" fill="#fcc854"/><path d="M353.012 178.664c9.223-6.422 15.273-17.1 15.273-29.148v-4.473c0-19.574-15.926-35.5-35.5-35.5h-63.902a7.6 7.6 0 0 0-7.598 7.594 7.6 7.6 0 0 0 7.598 7.598h63.902c11.2 0 20.3 9.1 20.3 20.3v4.473c0 11.2-9.1 20.3-20.3 20.3H69.664c-11.2 0-20.3-9.1-20.3-20.3v-4.473c0-11.2 9.1-20.3 20.3-20.3H238.5c4.195 0 7.594-3.402 7.594-7.598s-3.398-7.594-7.594-7.594h-30.2L144.9 10.52a22.69 22.69 0 0 0-28.234-8.625L19.008 44.12A22.66 22.66 0 0 0 6.863 56.64a22.63 22.63 0 0 0 .27 17.434C12.117 85.602 25.55 90.93 37.086 85.95L116.96 51.4l37.223 58.133h-84.52c-19.574 0-35.5 15.926-35.5 35.5v4.473c0 12.066 6.055 22.738 15.28 29.156C17.488 215.305 0 261.816 0 310.773c0 46.086 15.98 91.12 44.992 126.813 1.5 1.844 3.7 2.8 5.898 2.8a7.55 7.55 0 0 0 4.785-1.7 7.59 7.59 0 0 0 1.102-10.684c-8.547-10.52-15.867-21.918-21.88-33.94l72.55-72.555 88.4 88.4a7.56 7.56 0 0 0 10.738 0l88.4-88.406 72.547 72.547c-30.6 60.88-93.664 102.754-166.324 102.754-46.012 0-90.168-16.926-124.332-47.66a7.6 7.6 0 0 0-10.727.566 7.6 7.6 0 0 0 .566 10.727c36.957 33.246 84.723 51.56 134.492 51.56 110.957 0 201.23-90.273 201.23-201.23 0-48.96-17.488-95.477-49.45-132.1zM126.27 37.78a7.6 7.6 0 0 0-9.414-2.875L31.063 72.008c-3.848 1.656-8.328-.117-9.988-3.965a7.58 7.58 0 0 1-.1-5.805c.736-1.883 2.188-3.37 4.05-4.176l97.648-42.227a7.57 7.57 0 0 1 9.414 2.875l58.164 90.832h-18.04zm261 272.988a187.33 187.33 0 0 1-.738 16.496c-6.04-3.062-10.16-9.336-10.16-16.496s4.13-13.44 10.168-16.5a189.58 189.58 0 0 1 .73 16.5zM69.664 185.016h263.12c1.758 0 3.488-.133 5.18-.383 11.973 12.96 21.906 27.363 29.648 42.8l-72.605 72.6-88.4-88.4c-2.965-2.965-7.773-2.965-10.738 0l-88.4 88.4-72.605-72.605c7.746-15.43 17.68-29.832 29.652-42.8 1.688.246 3.4.38 5.168.38zM15.2 310.77c0-5.164.223-10.297.64-15.4 5 3.344 8.266 9.06 8.266 15.4s-3.262 12.04-8.262 15.387a185.13 185.13 0 0 1-.645-15.387zm13.074 68.44a186.98 186.98 0 0 1-10.395-37.078c12.613-4.965 21.418-17.336 21.418-31.363 0-14.05-8.828-26.434-21.465-31.383 2.16-12.762 5.648-25.2 10.375-37.13l68.508 68.512zm172.96 14.598l-83.035-83.04 83.035-83.04 83.04 83.04zm104.52-83.04l68.516-68.512c4.64 11.727 8.086 23.934 10.254 36.46-13.578 4.387-23.332 17.18-23.332 32.05s9.746 27.652 23.316 32.047a184.47 184.47 0 0 1-10.285 36.422zm-138.197.002c0 18.57 15.105 33.676 33.676 33.676S234.9 329.34 234.9 310.77s-15.105-33.676-33.676-33.676-33.676 15.105-33.676 33.676zm52.164 0c0 10.195-8.293 18.488-18.488 18.488s-18.488-8.293-18.488-18.488 8.293-18.488 18.488-18.488 18.488 8.293 18.488 18.488zm0 0"/></svg>