
<svg id="Layer_1" enable-background="new 0 0 512.02 512.02" height="512" viewBox="0 0 512.02 512.02" width="512" xmlns="http://www.w3.org/2000/svg"><g><g><path d="m323.865 10.01c-20.292 4.35-39.606 14.404-55.373 30.17-6.893 6.892-18.067 6.892-24.96 0-15.767-15.767-35.081-25.82-55.372-30.17l-3.341 9.226v270.167l8.667 8.333h125.25l10.25-10v-271.75z" fill="#dbedff"/><path d="m184.819 214.046v75.357l8.666 8.333h75.024z" fill="#b5dcff"/><path d="m85.834 40.181c-43.547 43.547-43.547 114.15 0 157.698l93.794 93.793 1.732 1.502h5.875l.925-1.502v-281.661c-35.754-7.665-74.545 2.389-102.326 30.17z" fill="#5291d9"/><path d="m144.819 174.046c-45.1-45.101-46.072-117.865-2.933-164.168-20.539 4.268-40.109 14.361-56.051 30.303-43.547 43.547-43.547 114.15 0 157.698l93.794 93.793 1.732 1.502h5.875l.925-1.502v-74.284z" fill="#2e82d4"/><path d="m426.19 40.181c-27.78-27.781-66.572-37.835-102.325-30.171v281.662l.496 1.439h6.844l1.192-1.439 93.793-93.793c43.547-43.548 43.547-114.152 0-157.698z" fill="#f87c68"/><path d="m334.197 291.672h-156.37c-6.137 0-11.113 4.975-11.113 11.113v6.024c0 6.138 4.976 11.113 11.113 11.113h156.37c6.138 0 11.113-4.975 11.113-11.113v-6.024c0-6.138-4.975-11.113-11.113-11.113z" fill="#85afe4"/><path d="m250.381 308.809v-6.024c0-6.138 4.976-11.113 11.113-11.113h-83.667c-6.137 0-11.113 4.975-11.113 11.113v6.024c0 6.138 4.976 11.113 11.113 11.113h83.667c-6.137 0-11.113-4.975-11.113-11.113z" fill="#5291d9"/><path d="m312.152 421.57h-113.202l-2.035 3.698v68.141c0 6.138 4.976 11.113 11.113 11.113h95.968c6.138 0 11.113-4.975 11.113-11.113v-68.141z" fill="#dd8858"/><path d="m256.197 493.408v-68.141l2.035-3.698h-59.282l-2.035 3.698v68.141c0 6.138 4.976 11.113 11.113 11.113h59.282c-6.137 0-11.113-4.975-11.113-11.113z" fill="#cb6c35"/><path d="m315.109 397.017h-118.194c-6.137 0-11.113 4.975-11.113 11.113v6.024c0 6.138 4.976 11.113 11.113 11.113h118.194c6.138 0 11.113-4.975 11.113-11.113v-6.024c0-6.137-4.975-11.113-11.113-11.113z" fill="#e39b74"/><path d="m245.085 414.155v-6.024c0-6.138 4.976-11.113 11.113-11.113h-59.282c-6.137 0-11.113 4.975-11.113 11.113v6.024c0 6.138 4.976 11.113 11.113 11.113h59.282c-6.138 0-11.113-4.976-11.113-11.113z" fill="#dd8858"/></g><path d="m80.529 203.181 85.35 85.349c-4.07 3.417-6.666 8.536-6.666 14.254v6.024c0 10.263 8.35 18.613 18.612 18.613h4.523l13.496 62.15c-9.765.559-17.544 8.656-17.544 18.559v6.024c0 7.594 4.577 14.13 11.113 17.021v62.232c0 10.263 8.35 18.613 18.612 18.613h95.969c10.263 0 18.612-8.35 18.612-18.613v-11.014c0-4.142-3.357-7.5-7.5-7.5s-7.5 3.358-7.5 7.5v11.014c0 1.992-1.62 3.613-3.612 3.613h-95.969c-1.992 0-3.612-1.621-3.612-3.613v-60.641h103.193v14.627c0 4.142 3.357 7.5 7.5 7.5s7.5-3.358 7.5-7.5v-16.219c6.535-2.891 11.112-9.427 11.112-17.021v-6.024c0-9.902-7.779-18-17.544-18.559l13.497-62.15h4.522c10.264 0 18.613-8.35 18.613-18.613v-6.024c0-5.718-2.596-10.837-6.666-14.254l42.561-42.561c2.929-2.929 2.929-7.677 0-10.606s-7.678-2.93-10.606 0l-46.733 46.733v-265.848c32.803-5.1 65.888 5.601 89.521 29.236 40.554 40.553 40.554 106.538.002 147.09l-18.04 18.04c-2.93 2.929-2.93 7.677-.001 10.606 2.93 2.929 7.679 2.929 10.606 0l18.04-18.039c46.401-46.402 46.401-121.903 0-168.304-46.892-46.893-122.196-46.109-168.305 0-3.959 3.957-10.398 3.957-14.354 0-46.093-46.093-121.395-46.91-168.305 0-46.399 46.402-46.399 121.903.003 168.305zm238.19 204.949v6.024c0 1.992-1.62 3.613-3.612 3.613h-118.193c-1.992 0-3.613-1.621-3.613-3.613v-6.024c0-1.992 1.621-3.613 3.613-3.613h118.193c1.992 0 3.612 1.621 3.612 3.613zm-121.021-80.709h27.842l4.69 62.096h-19.048zm42.884 0h30.856l-4.689 62.096h-21.478zm41.209 62.096 4.69-62.096h27.842l-13.485 62.096zm-86.133-369.796c16.008 4.979 30.583 13.776 42.569 25.763 9.806 9.806 25.761 9.804 35.566 0 11.985-11.985 26.561-20.783 42.569-25.763v264.451h-120.704zm138.537 279.45c1.992 0 3.613 1.621 3.613 3.613v6.024c0 1.992-1.621 3.613-3.613 3.613h-156.37c-1.992 0-3.612-1.621-3.612-3.613v-6.024c0-1.992 1.62-3.613 3.612-3.613zm-243.059-253.688c23.593-23.594 56.657-34.345 89.521-29.235v265.848l-89.521-89.521c-40.554-40.554-40.554-106.538 0-147.092z"/></g></svg>