<?xml version="1.0" encoding="utf-8"?>
<!-- Generator: Adobe Illustrator 16.0.0, SVG Export Plug-In . SVG Version: 6.00 Build 0)  -->
<!DOCTYPE svg PUBLIC "-//W3C//DTD SVG 1.1//EN" "http://www.w3.org/Graphics/SVG/1.1/DTD/svg11.dtd">
<svg version="1.1" id="Layer_1" xmlns="http://www.w3.org/2000/svg" xmlns:xlink="http://www.w3.org/1999/xlink" x="0px" y="0px"
	 width="318.5px" height="270.7px" viewBox="0 0 318.5 270.7" enable-background="new 0 0 318.5 270.7" xml:space="preserve">
<polygon fill="#FFFFFF" stroke="#BE1E2D" stroke-linecap="round" stroke-linejoin="round" stroke-miterlimit="10" points="
	75.7,131.9 74.1,128.1 77.3,129.5 78.4,127.3 80.5,129.1 81.6,126.4 84.1,128.8 85.7,125.8 87.7,128.2 89.2,125.2 90.8,127.7 
	92.6,124.9 93.8,127.3 95.7,124.3 95,129.2 "/>
<path fill="#FFFFFF" stroke="#BE1E2D" stroke-linecap="round" stroke-linejoin="round" stroke-miterlimit="10" d="M86.4,151.1
	l-3.4,2.699c0,0,3.7,0.701,6.7,0.301c3.4-0.4,6.2-2.2,6.2-2.2l-3.9-1.7c0,0-1.7,1.1-2.6,1.2S86.4,151.1,86.4,151.1z"/>
<path fill="#FFFFFF" stroke="#BE1E2D" stroke-linecap="round" stroke-linejoin="round" stroke-miterlimit="10" d="M75.9,136.9
	c0,0-2.2-1-3.4-1c-1.3-0.1-2.3,2.3-2.2,3.5c0.1,1.2,0.3,1.8,1.9,2.2c1.6,0.4,5.8,0.9,5.8,0.9l1,1.799c0,0-2.9-0.799-4.8-0.699
	c-1.9,0-5.3-0.301-6.3-3c-1.1-2.6,1-5.5,3.2-6.9c2.2-1.4,4.6,0.7,4.6,0.7L75.9,136.9z"/>
<path fill="#FFFFFF" stroke="#BE1E2D" stroke-linecap="round" stroke-linejoin="round" stroke-miterlimit="10" d="M95.8,133.8
	c0,0,1.5-1.5,2.5-1.9s2.4,1.7,2.7,2.8c0.2,1.1,0.2,1.8-1,2.599c-1.2,0.801-4.4,2.4-4.4,2.4l-0.4,2c0,0,2.1-1.5,3.7-2
	s4.2-1.699,4.3-4.5c0.2-2.8-2.3-5.1-4.4-5.8c-2.1-0.8-3.6,1.9-3.6,1.9L95.8,133.8z"/>
<polygon fill="#FFFFFF" stroke="#BE1E2D" stroke-linecap="round" stroke-linejoin="round" stroke-miterlimit="10" points="
	95.3,171.4 90.3,174.1 92.5,160.299 103.3,166.7 99.5,169.1 103.1,175.299 98.7,177.6 "/>
<polyline fill="#FFFFFF" stroke="#BE1E2D" stroke-linecap="round" stroke-linejoin="round" stroke-miterlimit="10" points="
	117.9,104.4 113.6,116.2 110.5,112.8 105,117.5 102,113.5 107.5,109.1 104,104.6 117.9,104.4 "/>
<polyline fill="#FFFFFF" stroke="#BE1E2D" stroke-linecap="round" stroke-linejoin="round" stroke-miterlimit="10" points="
	222.6,125.4 210,124.7 212.4,120.8 206.4,116.8 209.2,112.8 215.1,116.8 218.3,112.1 222.6,125.4 "/>
<polyline fill="#FFFFFF" stroke="#BE1E2D" stroke-linecap="round" stroke-linejoin="round" stroke-miterlimit="10" points="
	225.5,177.9 222.8,165.6 227.2,166.9 229.4,160 234.1,161.7 231.8,168.4 237.1,170.299 225.5,177.9 "/>
<polyline fill="#FFFFFF" stroke="#BE1E2D" stroke-linecap="round" stroke-linejoin="round" stroke-miterlimit="10" points="
	152.7,206.6 164.3,201.9 163.9,206.4 171,207.299 170.2,212.2 163.2,211.1 162.3,216.799 152.7,206.6 "/>
<path fill="#FFFFFF" stroke="#BE1E2D" stroke-linecap="round" stroke-linejoin="round" stroke-miterlimit="10" d="M167.5,92.4
	c0,0,5.2-1.4,4.5-6.4c-1.1-7.8-16.4-3.7-16.4-3.7l3.2,21.9l5.601-0.8L163,94l9.1,8.3l6-0.7L167.5,92.4z M161.8,90l-0.7-5.1
	c0,0,4.4-0.8,4.801,1.7C166.2,89,161.8,90,161.8,90z"/>
<polygon fill="#FFFFFF" stroke="#BE1E2D" stroke-linecap="round" stroke-linejoin="round" stroke-miterlimit="10" points="
	109.4,186 110,189.799 114.5,189.1 113.9,185.299 "/>
<path fill="none" stroke="#BE1E2D" stroke-linecap="round" stroke-linejoin="round" stroke-miterlimit="10" d="M118,185
	c0,0,0.8-2.301,2.4-2c1.6,0.299,1.5,1.699,2.6,1.399s3.3-3.101,4.2-3.3c0.9-0.1,1.5,1.3,2.1,1.199c0.6-0.1,2.3-1.299,2.3-1.299"/>
<path fill="none" stroke="#BE1E2D" stroke-linecap="round" stroke-linejoin="round" stroke-miterlimit="10" d="M108.6,185.5
	l3.3,2.199c0,0,2.4-6.699,4.4-7.8"/>
<polygon fill="#FFFFFF" stroke="#BE1E2D" stroke-linecap="round" stroke-linejoin="round" stroke-miterlimit="10" points="
	112,195.1 113,198.6 117.4,197.4 116.3,193.9 "/>
<path fill="none" stroke="#BE1E2D" stroke-linecap="round" stroke-linejoin="round" stroke-miterlimit="10" d="M122.6,195
	c0,0-0.5-2.5,1.1-3.101c1.5-0.601,2.3,2.2,3.4,1.8s3.3-3.699,4.2-3.9c0.9-0.199,1.3,1.5,1.9,1.301c0.6-0.2,2.2-1.5,2.2-1.5"/>
<path fill="none" stroke="#BE1E2D" stroke-linecap="round" stroke-linejoin="round" stroke-miterlimit="10" d="M111.1,194.7l3.6,1.6
	c0,0,1.7-6.6,3.5-8"/>
<polygon fill="#FFFFFF" stroke="#BE1E2D" stroke-linecap="round" stroke-linejoin="round" stroke-miterlimit="10" points="
	113.9,205 114.9,208.6 119.4,207.299 118.3,203.799 "/>
<path fill="none" stroke="#BE1E2D" stroke-linecap="round" stroke-linejoin="round" stroke-miterlimit="10" d="M113,204.7l3.6,1.6
	c0,0,1.7-6.6,3.5-8"/>
<path fill="none" stroke="#BE1E2D" stroke-linecap="round" stroke-linejoin="round" stroke-miterlimit="10" d="M124.6,203.6
	c0,0,1.8-1.801,2.5-2.5c0.8-0.7,1.6-0.4,1.9,0c0.3,0.3,0.7,1.4,1.8,1.3c1.1-0.2,3.2-2.399,3.8-3.101c0.7-0.699,1.3-1.6,1.6-1.1
	c0.3,0.5,0.8,1.4,0.8,1.4"/>
<path fill="#FFFFFF" stroke="#BE1E2D" stroke-linecap="round" stroke-linejoin="round" stroke-miterlimit="10" d="M75.7,132.2
	l19.7-2.8c0,0,4.4,15.3-7.2,17.2C74.7,148.799,75.7,132.2,75.7,132.2z"/>
<path fill="#FFFFFF" stroke="#BE1E2D" stroke-linecap="round" stroke-linejoin="round" stroke-miterlimit="10" d="M190.9,189.5
	l-0.5,12.899l10.6,0.7c0,0,0.1-10.1,0.7-11.5c0.6-1.301,1.1-2.9,1.1-2.9L190.9,189.5z"/>
<path fill="none" stroke="#BE1E2D" stroke-linecap="round" stroke-linejoin="round" stroke-miterlimit="10" d="M192,191.299
	c0,0,0.6,0.601,1.4,0.101c0.8-0.5,1.8-1.399,2.399-1.2c0.5,0.2,0.3,1.301,0.9,1.301c0.6,0,2.2-1.4,2.8-1.5"/>
<path fill="none" stroke="#BE1E2D" stroke-linecap="round" stroke-linejoin="round" stroke-miterlimit="10" d="M192.5,196.7
	c0,0,1.6-0.699,2.3-0.8s1,0.101,2.101,0.3c1,0.2,2.3-0.1,2.899-0.3"/>
<path fill="none" stroke="#BE1E2D" stroke-linecap="round" stroke-linejoin="round" stroke-miterlimit="10" d="M193.5,201.1
	c0,0,0.2-0.7,1.2-0.801c1.1-0.1,1.899,0,3,0.101c1.1,0.101,1,0.101,1,0.101"/>
<path fill="none" stroke="#BE1E2D" stroke-linecap="round" stroke-linejoin="round" stroke-miterlimit="10" d="M190.8,198
	c0,0,1.5,0,3.9,0.399c2.399,0.399,4.6,0.101,5.2-0.2c0.6-0.3,1.3-0.699,1.3-0.699"/>
<path fill="none" stroke="#BE1E2D" stroke-linecap="round" stroke-linejoin="round" stroke-miterlimit="10" d="M190.9,194.2
	c0,0,2,0.301,4.1,0.2s6.6-1.101,6.6-1.101"/>
<path fill="#FFFFFF" stroke="#BE1E2D" stroke-linecap="round" stroke-linejoin="round" stroke-miterlimit="10" d="M208.8,185.799
	l3.7,14.801c0,0,2.4-0.6,4.1-0.801c1.7-0.199,3.5-1.1,4.2-1.699c0.8-0.6,1-1,1.7-0.801c0.7,0.201,1.9,0,1.9,0
	S220.1,187.1,219.1,185.6s-1.699-1.801-1.699-1.801L208.8,185.799z"/>
<path fill="none" stroke="#BE1E2D" stroke-linecap="round" stroke-linejoin="round" stroke-miterlimit="10" d="M210,190
	c0,0,4.8-2.101,6.6-3c1.801-0.9,2.5-1,2.5-1"/>
<path fill="none" stroke="#BE1E2D" stroke-linecap="round" stroke-linejoin="round" stroke-miterlimit="10" d="M211.3,195.5
	c0,0,5-1.9,6.3-2.5c1.301-0.601,4-1.801,4-1.801"/>
<path fill="none" stroke="#BE1E2D" stroke-linecap="round" stroke-linejoin="round" stroke-miterlimit="10" d="M213.7,196.4
	c0,0,0.7,0,1.399-0.5c0.801-0.5,1.5-1.5,2.301-1.399c0.8,0,1.399,0.399,1.899,0.299c0.5-0.1,0.8-0.1,0.8-0.1"/>
<path fill="none" stroke="#BE1E2D" stroke-linecap="round" stroke-linejoin="round" stroke-miterlimit="10" d="M215.8,197.9
	c0,0,0.3-0.8,1.9-1c1.6-0.2,2.2-0.5,2.2-0.5"/>
<path fill="none" stroke="#BE1E2D" stroke-linecap="round" stroke-linejoin="round" stroke-miterlimit="10" d="M212.1,191.7
	c0,0,1.7-1.8,2.101-2.199c0.399-0.4,0.899-0.801,1.1-0.201c0.2,0.601,0.2,1.101,1,0.801c0.8-0.301,1.7-1.301,1.7-1.301"/>
<path fill="none" stroke="#BE1E2D" stroke-linecap="round" stroke-linejoin="round" stroke-miterlimit="10" d="M212.4,193.799
	c0,0,2.3-2.299,2.899-2.399c0.601-0.101,1,0.2,0.9,0.601c0,0.399,0.399,0.399,1.2-0.301c0.8-0.699,1.399-1.3,1.399-1.3"/>
<path fill="none" stroke="#BE1E2D" stroke-linecap="round" stroke-linejoin="round" stroke-miterlimit="10" d="M211.1,186.9
	c0,0,0.301,0.8,1.4,0.3s1.8-1.4,2.7-1.4c0.899,0,1.5,0.101,1.5,0.101"/>
<path fill="#FFFFFF" stroke="#BE1E2D" stroke-linecap="round" stroke-linejoin="round" stroke-miterlimit="10" d="M207.8,204.5
	l-3.6,13.399L215.8,221c0,0,3.101-7.9,3.601-9.101s1.8-3.5,1.8-3.5s-5.101-2-6.5-2.3C213.1,205.7,207.8,204.5,207.8,204.5z"/>
<path fill="none" stroke="#BE1E2D" stroke-linecap="round" stroke-linejoin="round" stroke-miterlimit="10" d="M206.8,209.299
	c0,0,3.101,1,5.2,1.301c2.1,0.3,3.1,0.1,3.8,0.6s2.7,1.6,2.7,1.6"/>
<path fill="none" stroke="#BE1E2D" stroke-linecap="round" stroke-linejoin="round" stroke-miterlimit="10" d="M205.4,213.2
	c0,0,4.399,2.1,6.199,2.5c1.801,0.301,5.4,1.5,5.4,1.5"/>
<path fill="none" stroke="#BE1E2D" stroke-linecap="round" stroke-linejoin="round" stroke-miterlimit="10" d="M209,207.6
	c0,0,2.3-0.5,3.3-0.301c1,0.201,1.9,1.301,2.4,1.4s1.8-0.6,2.6-0.199c0.7,0.399,0.7,0.399,0.7,0.399"/>
<path fill="none" stroke="#BE1E2D" stroke-linecap="round" stroke-linejoin="round" stroke-miterlimit="10" d="M208.4,212.6
	c0,0,0.6-0.801,1.6-0.6c1,0.199,1.9,2.199,2.8,2c0.9-0.101,2.9-0.801,2.9-0.801"/>
<path fill="none" stroke="#BE1E2D" stroke-linecap="round" stroke-linejoin="round" stroke-miterlimit="10" d="M206.9,215.6
	c0,0,2.699,1,4,1.199c1.3,0.201,3.199,0.801,3.199,0.801"/>
<path fill="#FFFFFF" stroke="#BE1E2D" stroke-linecap="round" stroke-linejoin="round" stroke-miterlimit="10" d="M236.7,133
	c1.399-0.6,2-0.4,2.6,0.1c0.601,0.5-0.3,0.4,0.7,0.1c1-0.3,1.2-0.4,1.7,0.1s0.5,1.4,0.5,1.4s0.5-0.2,1.2,0.7
	c0.6,0.899,0.699,1.7,0.399,2.5s-0.5,2-1.7,2.899c-1.3,0.9-2.199,0.701-2.199,0.701s-0.7,0.299-1.7,0.6c-1,0.3-2,0.5-2.3-0.301
	C235.6,141,235.4,140,235.4,140s-0.801-0.301-1.301-0.9s-0.1-1.4-0.1-1.4s-0.2-0.3-0.2-1.1c0-0.8,0.3-1.1,0.3-1.1
	s-0.6,0.2,0.101-0.9C234.8,133.6,236.7,133,236.7,133z"/>
<path fill="#FFFFFF" stroke="#BE1E2D" stroke-linecap="round" stroke-linejoin="round" stroke-miterlimit="10" d="M188.7,103.6
	c0,0,0.399-1.3,1.399-1.5c0.9-0.2,1.801-0.1,1.801-0.1s0.399-0.6,0.699,0.2c0.301,0.8-0.399,1.6-0.399,1.6s0.3-0.2,1.1,0.2
	c0.8,0.3,1.5,1.1,1.5,1.1s1,0.1,0.9,1c-0.101,0.9-1.101,2.6-1.9,2.6s-1.1,0-1.1,0s-0.7,1.8-1.7,1.4s-2-1.9-2-1.9s-0.3,0.2-1.3-0.4
	c-1-0.6-1.101-1.7-0.5-2.3c0.6-0.6,1.3-0.8,1.3-0.8s-0.5-0.4-0.2-0.7C188.5,103.9,188.7,103.6,188.7,103.6z"/>
<path fill="#FFFFFF" stroke="#BE1E2D" stroke-linecap="round" stroke-linejoin="round" stroke-miterlimit="10" d="M184.3,86
	c0,0-1.1-0.4,0.4-1.5c1.399-1.1,2.399-0.7,2.399-0.3c0,0.4-0.199,1.1-0.199,1.1s0.399-0.6,1.1-0.4c0.8,0.2,0.9,0.8,0.9,0.8
	s0.3-0.8,0.8,0.4c0.6,1.2,0.6,1.9,0.6,1.9s0.7,0.1,1.101,1.4c0.399,1.3-1,2.1-1,2.1s-1.4,1.4-2,1.2c-0.7-0.2-0.601-1.7-0.601-1.7
	s-1.1,1.2-2.1,0.7s-1.5-1.4-1.5-1.4s0.399,0.5-0.7-0.3s-1.5-1.9-1-2.4c0.4-0.5,1.2-0.1,1.2-0.1s-1.101-0.6-0.5-0.9
	C183.9,86.2,184.3,86,184.3,86z"/>
<path fill="#FFFFFF" stroke="#BE1E2D" stroke-linecap="round" stroke-linejoin="round" stroke-miterlimit="10" d="M179.2,71.7
	c0,0-0.8-1,0.2-1.5s2.199-0.9,2.1-0.4s-0.2,1.3-0.2,1.3s0.2-0.5,1.101,0c0.899,0.4,0.899,0.8,0.899,0.8s0.2-0.7,1,0.1s2.4,2.3,2,3.2
	c-0.3,0.9-0.5,1.4-0.5,1.4s0.7,1.1-0.7,1.3c-1.399,0.2-1.899,0-1.899,0s-1.101,1-2,0.3c-0.9-0.8-0.7-1.6-0.7-1.6s-0.5,0.8-1.4-0.5
	c-0.899-1.3,0.301-1.8,0.301-1.8s-0.601,0.8-1.5-0.4c-0.9-1.2-0.5-1.9,0.199-2C178.8,71.7,179.2,71.7,179.2,71.7z"/>
<path fill="#FFFFFF" stroke="#BE1E2D" stroke-linecap="round" stroke-linejoin="round" stroke-miterlimit="10" d="M86.5,146.7
	c0,0,0.9,0.801,0.5,2.2s-1.2,2.399-1.2,2.399s2.5,0.201,3.9-0.1C91.3,150.9,92,150,92,150s-1.3-1.201-1.5-1.9
	c-0.2-0.7-0.3-2.1-0.3-2.1L86.5,146.7z"/>
<polygon fill="#FFFFFF" stroke="#BE1E2D" stroke-linecap="round" stroke-linejoin="round" stroke-miterlimit="10" points="
	79.4,134.4 78.6,137 80.8,138.299 81.4,136 "/>
<polygon fill="#FFFFFF" stroke="#BE1E2D" stroke-linecap="round" stroke-linejoin="round" stroke-miterlimit="10" points="84,133.6 
	83,136 84.8,138.1 85.9,135.6 "/>
<polygon fill="#FFFFFF" stroke="#BE1E2D" stroke-linecap="round" stroke-linejoin="round" stroke-miterlimit="10" points="
	92.6,132.2 94.2,134.5 92.6,136.299 91.3,134.3 "/>
<polygon fill="#FFFFFF" stroke="#BE1E2D" stroke-linecap="round" stroke-linejoin="round" stroke-miterlimit="10" points="
	88.3,132.9 89.9,134.9 88.9,137.4 87.2,135.3 "/>
<polygon fill="#FFFFFF" stroke="#BE1E2D" stroke-linecap="round" stroke-linejoin="round" stroke-miterlimit="10" points="
	82.4,142.5 81.8,144.4 83.4,145.299 83.8,143.6 "/>
<polygon fill="#FFFFFF" stroke="#BE1E2D" stroke-linecap="round" stroke-linejoin="round" stroke-miterlimit="10" points="
	85.7,141.9 85,143.7 86.3,145.2 87.1,143.4 "/>
<polygon fill="#FFFFFF" stroke="#BE1E2D" stroke-linecap="round" stroke-linejoin="round" stroke-miterlimit="10" points="92,140.9 
	93.1,142.5 92,143.9 91.1,142.4 "/>
<polygon fill="#FFFFFF" stroke="#BE1E2D" stroke-linecap="round" stroke-linejoin="round" stroke-miterlimit="10" points="
	88.9,141.4 90,142.799 89.3,144.7 88,143.2 "/>
<path fill="none" stroke="#BE1E2D" stroke-linecap="round" stroke-linejoin="round" stroke-miterlimit="10" d="M78.8,141.6
	c0,0,0.8-1.5,1.6-1.301c0.8,0.101,2.2,1,2.9,0.701c0.7-0.301,1.1-1.4,1.8-1.4c0.7,0,1.8,0.8,2.6,0.5c0.8-0.301,1.7-1.9,2.3-1.9
	c0.7,0,1.7,1.6,2.5,1s1.8-1.699,1.8-1.699"/>
<path fill="#FFFFFF" stroke="#BE1E2D" stroke-linecap="round" stroke-linejoin="round" stroke-miterlimit="10" d="M165,115.1
	c0,0-0.8-1.5,0.6-1.9c1.4-0.5,1.9-0.4,1.9-0.4s0.2-1.1,1-0.6c0.8,0.6,0.4,1.6,0.4,1.6s1-1.1,1.699-0.3c0.7,0.8,0.4,1.7,0.4,1.7
	s0.5-0.7,0.8,0.7s-0.6,1.9-0.6,1.9s0.899,0.2-0.5,1.2c-1.4,1-1.9,0.8-1.9,0.8s-0.7,1-2.1,0.7c-1.4-0.3-1.2-1.2-1.2-1.2
	s-0.9,1.1-1.6,0.2c-0.7-0.9,0.8-2.4,0.8-2.4s-1.7,0.7-1.4-0.3C163.6,116,165,115.1,165,115.1z"/>
<path fill="#FFFFFF" stroke="#BE1E2D" stroke-linecap="round" stroke-linejoin="round" stroke-miterlimit="10" d="M147.9,103.5
	c0,0,0.1-1.9,1.5-1.4s1.3,1.8,1.3,1.8s-0.1-1,0.4,0.1s-0.1,1.4-0.1,1.4s0.3-0.8,1.2,0.4c0.9,1.2,0.1,2,0.1,2s1.6,0,0.2,1.6
	s-3.1,0.7-3.1,0.7s-0.1,0.8-1.4,0.5c-1.3-0.3-1.1-0.8-1.1-0.8s-0.2,1.2-1.5-0.1c-1.3-1.3,0.3-2.2,0.3-2.2s-1.5,0.8-1.9-0.4
	c-0.4-1.2,2.3-1.9,2.3-1.9s-1.9,0.5-1.2-0.8C145.7,102.9,147.9,103.5,147.9,103.5z"/>
<path fill="#FFFFFF" stroke="#BE1E2D" stroke-linecap="round" stroke-linejoin="round" stroke-miterlimit="10" d="M143.1,91
	c0,0-1.3-1.7,0.3-2.1c1.6-0.5,1.8,0.5,1.8,0.5s0.7-0.9,1.2-0.5s0.4,0.8,0.4,0.8s1-1.4,1.4,0.1c0.4,1.5-0.8,2.6-0.8,2.6
	s0.5-0.7,0.4,0.5c-0.1,1.3-1,1.2-1,1.2s1.4,1.1-0.6,1.8c-2,0.7-2.5-0.1-2.5-0.1s0.1,1.5-1.2,0.1c-1.4-1.4-0.4-1.8-0.4-1.8
	s-1,0.3-0.9-1.5C141.3,90.7,143.1,91,143.1,91z"/>
<path fill="#FFFFFF" stroke="#BE1E2D" stroke-linecap="round" stroke-linejoin="round" stroke-miterlimit="10" d="M135.1,75.4
	c0,0,0.1-2,1.2-1.9c1,0.2,1.3,1.2,1.3,1.2s0.5-0.5,1,0.2C139,75.6,139,76,139,76s0.6-1.1,1.3,0.4c0.7,1.5,0.1,2.1,0.1,2.1
	s0.9-0.1,0.7,1c-0.2,1.1-0.9,1.4-0.9,1.4s1.1,1-0.5,1.5c-1.6,0.5-2.7-0.8-2.7-0.8s0.4,0.9-1.1,0.2c-1.5-0.7-1.4-1.1-1.4-1.1
	s0,1.2-1.4-0.1c-1.4-1.2-0.1-1.6-0.1-1.6s-1,0.4-1.2-1c-0.1-1.4,1-1.4,1-1.4s-1.1-1.7,0.3-1.8C134.4,74.7,135.1,75.4,135.1,75.4z"/>
<path fill="#FFFFFF" stroke="#BE1E2D" stroke-linecap="round" stroke-linejoin="round" stroke-miterlimit="10" d="M154.1,68.6
	c0,0,0.4-1.2,1.5-1c1.2,0.2,1.1,1,1.1,1s0.1-0.6,1.2-0.3c1.2,0.4,0.8,1,0.8,1s2.6-0.1,2.399,1.2c-0.199,1.3-1,1.7-1,1.7
	s0.601,0.3-0.199,0.6c-0.9,0.3-1.4,0-1.4,0s-1.1,0.8-1.8,0.7c-0.6-0.2-0.7-0.6-0.7-0.6s-0.7,1.3-1.6,0.2c-0.8-1.1,0-1.6,0-1.6
	s-1.1,0.4-1.5-1C152.6,68.9,154.1,68.6,154.1,68.6z"/>
<path fill="#FFFFFF" stroke="#BE1E2D" stroke-linecap="round" stroke-linejoin="round" stroke-miterlimit="10" d="M168.4,59.7
	c0,0,0.5-2.3,1.5-1.7s1.1,0.9,1.1,0.9s0.4-1.1,0.8-0.3c0.4,0.8,0.4,0.8,0.4,0.8s1.1-0.3,1.1,1c-0.1,1.4-0.5,1.6-0.5,1.6
	s1.2,0.4,0.3,1.1c-0.899,0.7-0.899,0.7-0.899,0.7S172,65,170.8,65c-1.3,0-1.3-0.6-1.3-0.6s-1.3,1.2-2.1,0.1
	c-0.7-1.1,0.3-1.8,0.3-1.8s-1.101,1.4-1.4-0.1c-0.2-1.6,0.7-1.5,0.7-1.5s-2,0-0.8-1.1S168.4,59.7,168.4,59.7z"/>
<g>
	<path fill="#444444" d="M131.604,30.214c-0.221,0.168-0.499,0.286-0.836,0.352c-0.338,0.066-0.697,0.099-1.078,0.099
		c-0.462,0-0.895-0.079-1.298-0.236s-0.756-0.398-1.057-0.721c-0.301-0.322-0.539-0.735-0.715-1.237s-0.264-1.098-0.264-1.788
		c0-0.719,0.097-1.329,0.291-1.832c0.194-0.502,0.451-0.913,0.771-1.232c0.318-0.319,0.676-0.552,1.072-0.698
		c0.396-0.147,0.799-0.22,1.21-0.22c0.44,0,0.799,0.024,1.078,0.071c0.278,0.048,0.517,0.112,0.715,0.193l-0.22,0.814
		c-0.353-0.176-0.854-0.264-1.507-0.264c-0.301,0-0.599,0.055-0.892,0.165s-0.556,0.29-0.786,0.539
		c-0.231,0.25-0.416,0.576-0.556,0.979s-0.209,0.898-0.209,1.485c0,0.528,0.066,0.99,0.198,1.386s0.313,0.726,0.544,0.99
		c0.231,0.264,0.503,0.462,0.814,0.594c0.312,0.132,0.65,0.198,1.018,0.198c0.33,0,0.617-0.033,0.863-0.099
		c0.246-0.066,0.453-0.15,0.621-0.253L131.604,30.214z"/>
	<path fill="#444444" d="M136.499,30.093c-0.221,0.176-0.497,0.315-0.831,0.418s-0.688,0.154-1.062,0.154
		c-0.418,0-0.78-0.068-1.089-0.203c-0.308-0.136-0.561-0.33-0.759-0.583c-0.198-0.253-0.345-0.556-0.44-0.908
		c-0.095-0.352-0.143-0.748-0.143-1.188c0-0.938,0.209-1.654,0.627-2.145s1.016-0.737,1.793-0.737c0.249,0,0.499,0.027,0.748,0.083
		c0.249,0.055,0.473,0.159,0.671,0.313c0.198,0.154,0.359,0.372,0.484,0.654c0.124,0.282,0.187,0.655,0.187,1.117
		c0,0.242-0.021,0.51-0.065,0.803h-3.531c0,0.323,0.033,0.609,0.099,0.858c0.066,0.25,0.169,0.46,0.309,0.633
		c0.139,0.172,0.32,0.304,0.544,0.396s0.497,0.137,0.819,0.137c0.25,0,0.499-0.044,0.748-0.132c0.25-0.088,0.437-0.19,0.562-0.308
		L136.499,30.093z M134.606,25.671c-0.433,0-0.779,0.114-1.039,0.341c-0.261,0.228-0.416,0.616-0.468,1.166h2.729
		c0-0.557-0.106-0.948-0.319-1.171S134.995,25.671,134.606,25.671z"/>
	<path fill="#444444" d="M138.071,25.033h0.605l0.165,0.66h0.044c0.169-0.257,0.387-0.453,0.654-0.589
		c0.268-0.135,0.574-0.203,0.919-0.203c0.732,0,1.279,0.216,1.639,0.649s0.539,1.14,0.539,2.123c0,0.462-0.061,0.878-0.182,1.249
		c-0.121,0.37-0.291,0.684-0.512,0.94c-0.22,0.257-0.485,0.455-0.797,0.594c-0.312,0.139-0.658,0.209-1.04,0.209
		c-0.271,0-0.485-0.016-0.644-0.049c-0.157-0.033-0.328-0.09-0.512-0.17v2.288h-0.88V25.033z M140.294,25.671
		c-0.374,0-0.67,0.097-0.886,0.292c-0.217,0.194-0.368,0.489-0.457,0.885v2.728c0.133,0.103,0.282,0.182,0.451,0.236
		c0.169,0.055,0.393,0.083,0.671,0.083c0.507,0,0.908-0.188,1.205-0.566c0.297-0.377,0.445-0.933,0.445-1.667
		c0-0.3-0.025-0.574-0.077-0.819c-0.051-0.246-0.134-0.455-0.247-0.627c-0.114-0.172-0.261-0.306-0.44-0.402
		C140.779,25.718,140.558,25.671,140.294,25.671z"/>
	<path fill="#444444" d="M144.022,23.361c0-0.169,0.057-0.313,0.171-0.435c0.113-0.121,0.259-0.182,0.435-0.182
		s0.326,0.061,0.451,0.182c0.124,0.121,0.187,0.266,0.187,0.435c0,0.168-0.062,0.308-0.187,0.418
		c-0.125,0.11-0.275,0.165-0.451,0.165s-0.321-0.055-0.435-0.165C144.079,23.669,144.022,23.529,144.022,23.361z M144.21,25.033
		h0.88v5.5h-0.88V25.033z"/>
	<path fill="#444444" d="M149.71,28.256l-0.847,0.132l-1.452,2.145h-1.067l1.32-1.881l0.44-0.407
		c-0.382-0.059-0.706-0.212-0.974-0.462c-0.269-0.249-0.401-0.586-0.401-1.012c0-0.33,0.057-0.612,0.17-0.847
		s0.276-0.429,0.489-0.583c0.213-0.154,0.466-0.266,0.76-0.335c0.293-0.07,0.623-0.104,0.989-0.104c0.271,0,0.524,0.018,0.76,0.055
		c0.234,0.037,0.465,0.077,0.692,0.121v5.456h-0.88V28.256z M149.71,25.781c-0.096-0.037-0.202-0.064-0.319-0.083
		c-0.117-0.018-0.22-0.027-0.308-0.027c-0.47,0-0.827,0.084-1.072,0.253c-0.246,0.168-0.369,0.436-0.369,0.803
		c0,0.33,0.131,0.585,0.391,0.765c0.261,0.18,0.604,0.27,1.028,0.27c0.008,0,0.019,0,0.033,0s0.044,0,0.088,0
		s0.106-0.002,0.188-0.005c0.08-0.004,0.194-0.009,0.341-0.017V25.781z"/>
	<path fill="#444444" d="M158.498,28.102h-2.486v2.431h-0.88v-5.5h0.88v2.299h2.486v-2.299h0.88v5.5h-0.88V28.102z"/>
	<path fill="#444444" d="M165.087,30.093c-0.221,0.176-0.497,0.315-0.831,0.418s-0.688,0.154-1.062,0.154
		c-0.418,0-0.78-0.068-1.089-0.203c-0.308-0.136-0.561-0.33-0.759-0.583c-0.198-0.253-0.345-0.556-0.44-0.908
		c-0.095-0.352-0.143-0.748-0.143-1.188c0-0.938,0.209-1.654,0.627-2.145s1.016-0.737,1.793-0.737c0.249,0,0.499,0.027,0.748,0.083
		c0.249,0.055,0.473,0.159,0.671,0.313c0.198,0.154,0.359,0.372,0.484,0.654c0.124,0.282,0.187,0.655,0.187,1.117
		c0,0.242-0.021,0.51-0.065,0.803h-3.531c0,0.323,0.033,0.609,0.099,0.858c0.066,0.25,0.169,0.46,0.309,0.633
		c0.139,0.172,0.32,0.304,0.544,0.396s0.497,0.137,0.819,0.137c0.25,0,0.499-0.044,0.748-0.132c0.25-0.088,0.437-0.19,0.562-0.308
		L165.087,30.093z M163.194,25.671c-0.433,0-0.779,0.114-1.039,0.341c-0.261,0.228-0.416,0.616-0.468,1.166h2.729
		c0-0.557-0.106-0.948-0.319-1.171S163.583,25.671,163.194,25.671z"/>
	<path fill="#444444" d="M166.659,25.044c0.257-0.015,0.526-0.033,0.809-0.055s0.633-0.033,1.051-0.033
		c0.726,0,1.246,0.112,1.562,0.335c0.315,0.224,0.474,0.563,0.474,1.018c0,0.257-0.075,0.508-0.226,0.753
		c-0.15,0.246-0.398,0.427-0.742,0.545v0.044c0.433,0.081,0.736,0.231,0.912,0.451c0.177,0.22,0.265,0.514,0.265,0.88
		c0,0.572-0.206,0.986-0.616,1.243c-0.411,0.257-1.026,0.385-1.848,0.385c-0.309,0-0.595-0.009-0.858-0.028
		c-0.264-0.018-0.524-0.038-0.781-0.061V25.044z M168.617,27.354c0.132,0,0.261-0.022,0.386-0.066
		c0.124-0.044,0.236-0.104,0.335-0.181c0.099-0.077,0.18-0.167,0.242-0.27c0.062-0.103,0.094-0.213,0.094-0.33
		c0-0.293-0.088-0.497-0.265-0.611c-0.176-0.113-0.483-0.17-0.924-0.17c-0.234,0-0.42,0.004-0.556,0.011s-0.266,0.015-0.391,0.022
		v1.595H168.617z M167.539,29.796c0.14,0.015,0.277,0.025,0.413,0.033s0.295,0.011,0.479,0.011c0.491,0,0.855-0.07,1.095-0.209
		c0.238-0.139,0.357-0.378,0.357-0.715c0-0.264-0.102-0.479-0.303-0.644c-0.202-0.165-0.56-0.247-1.072-0.247h-0.969V29.796z"/>
	<path fill="#444444" d="M176.164,30.093c-0.221,0.176-0.497,0.315-0.831,0.418s-0.688,0.154-1.062,0.154
		c-0.418,0-0.78-0.068-1.089-0.203c-0.308-0.136-0.561-0.33-0.759-0.583c-0.198-0.253-0.345-0.556-0.44-0.908
		c-0.095-0.352-0.143-0.748-0.143-1.188c0-0.938,0.209-1.654,0.627-2.145s1.016-0.737,1.793-0.737c0.249,0,0.499,0.027,0.748,0.083
		c0.249,0.055,0.473,0.159,0.671,0.313c0.198,0.154,0.359,0.372,0.484,0.654c0.124,0.282,0.187,0.655,0.187,1.117
		c0,0.242-0.021,0.51-0.065,0.803h-3.531c0,0.323,0.033,0.609,0.099,0.858c0.066,0.25,0.169,0.46,0.309,0.633
		c0.139,0.172,0.32,0.304,0.544,0.396s0.497,0.137,0.819,0.137c0.25,0,0.499-0.044,0.748-0.132c0.25-0.088,0.437-0.19,0.562-0.308
		L176.164,30.093z M174.271,25.671c-0.433,0-0.779,0.114-1.039,0.341c-0.261,0.228-0.416,0.616-0.468,1.166h2.729
		c0-0.557-0.106-0.948-0.319-1.171S174.66,25.671,174.271,25.671z"/>
	<path fill="#444444" d="M180.453,25.803h-1.595c-0.021,0.308-0.044,0.64-0.066,0.996c-0.021,0.355-0.055,0.711-0.099,1.067
		c-0.044,0.356-0.103,0.697-0.176,1.023c-0.073,0.327-0.167,0.614-0.28,0.864c-0.114,0.249-0.253,0.449-0.418,0.599
		c-0.165,0.15-0.361,0.226-0.589,0.226c-0.14,0-0.261-0.007-0.363-0.022s-0.194-0.04-0.274-0.077l0.132-0.737
		c0.088,0.029,0.183,0.044,0.286,0.044c0.146,0,0.278-0.062,0.396-0.187c0.117-0.125,0.22-0.361,0.309-0.709
		c0.088-0.348,0.161-0.831,0.22-1.446c0.059-0.616,0.099-1.419,0.121-2.409h3.277v5.5h-0.88V25.803z"/>
	<path fill="#444444" d="M186.46,27.277l0.032-0.682h-0.032l-0.451,0.704l-2.476,3.234h-0.506v-5.5h0.88v3.355l-0.032,0.649h0.044
		l0.429-0.682l2.475-3.322h0.518v5.5h-0.88V27.277z"/>
	<path fill="#444444" d="M189.605,25.033v1.496c0,0.198,0.011,0.376,0.033,0.533c0.021,0.158,0.065,0.293,0.132,0.407
		s0.161,0.202,0.286,0.264c0.124,0.062,0.289,0.093,0.495,0.093c0.33,0,0.601-0.037,0.813-0.11s0.374-0.154,0.484-0.242v-2.442h0.88
		v5.5h-0.88v-2.31c-0.117,0.073-0.292,0.154-0.522,0.242c-0.231,0.088-0.549,0.132-0.951,0.132c-0.271,0-0.51-0.029-0.716-0.088
		c-0.205-0.059-0.377-0.161-0.517-0.308c-0.14-0.146-0.244-0.341-0.313-0.583c-0.07-0.242-0.104-0.546-0.104-0.913v-1.672H189.605z"
		/>
	<path fill="#444444" d="M195.81,28.058h-0.507v2.475h-0.88v-5.5h0.88v2.486l0.474-0.154l1.76-2.332h0.957l-1.705,2.211
		l-0.462,0.363l0.572,0.44l1.837,2.486h-1.089L195.81,28.058z"/>
	<path fill="#444444" d="M203.113,27.277l0.032-0.682h-0.032l-0.451,0.704l-2.476,3.234h-0.506v-5.5h0.88v3.355l-0.032,0.649h0.044
		l0.429-0.682l2.475-3.322h0.518v5.5h-0.88V27.277z"/>
	<path fill="#444444" d="M207.128,27.717l-1.848-2.684h1.077l1.046,1.518l0.308,0.627l0.319-0.627l1.066-1.518h0.99l-1.859,2.64
		l1.97,2.86h-1.046l-1.165-1.672l-0.33-0.66l-0.342,0.66l-1.188,1.672h-0.979L207.128,27.717z"/>
	<path fill="#444444" d="M155.188,41.279v-0.715h0.77c0.133,0,0.263-0.022,0.391-0.066c0.129-0.044,0.244-0.104,0.347-0.182
		s0.186-0.168,0.248-0.275c0.062-0.106,0.093-0.218,0.093-0.335c0-0.286-0.099-0.488-0.297-0.605s-0.495-0.176-0.891-0.176
		c-0.286,0-0.549,0.043-0.787,0.128s-0.423,0.167-0.555,0.246l-0.253-0.671c0.22-0.125,0.479-0.234,0.775-0.33
		c0.297-0.095,0.65-0.143,1.062-0.143c1.217,0,1.825,0.451,1.825,1.353c0,0.257-0.082,0.508-0.247,0.753
		c-0.165,0.246-0.401,0.42-0.709,0.522v0.044c0.432,0.081,0.734,0.234,0.907,0.462c0.172,0.227,0.258,0.528,0.258,0.902
		c0,0.235-0.047,0.451-0.143,0.649c-0.096,0.198-0.238,0.371-0.429,0.517c-0.191,0.147-0.431,0.262-0.721,0.347
		c-0.29,0.084-0.625,0.126-1.007,0.126c-0.374,0-0.684-0.033-0.929-0.099c-0.246-0.066-0.468-0.146-0.666-0.242l0.253-0.726
		c0.169,0.095,0.372,0.168,0.61,0.22s0.497,0.077,0.775,0.077c0.447,0,0.789-0.077,1.023-0.231c0.234-0.154,0.352-0.389,0.352-0.704
		c0-0.264-0.109-0.471-0.33-0.622c-0.22-0.15-0.583-0.226-1.089-0.226H155.188z"/>
	<path fill="#444444" d="M164.053,40.465l0.066-1.045h-0.055l-0.396,0.847l-1.331,2.156h-0.308l-1.386-2.156l-0.363-0.847h-0.044
		l0.088,1.034v3.278h-0.814v-5.5h0.869l1.54,2.464l0.319,0.638h0.021l0.33-0.66l1.441-2.442h0.88v5.5h-0.858V40.465z"/>
	<path fill="#444444" d="M166.604,36.561c0-0.169,0.057-0.313,0.171-0.435c0.113-0.121,0.259-0.182,0.435-0.182
		s0.326,0.061,0.451,0.182c0.124,0.121,0.187,0.266,0.187,0.435c0,0.168-0.062,0.308-0.187,0.418
		c-0.125,0.11-0.275,0.165-0.451,0.165s-0.321-0.055-0.435-0.165C166.661,36.869,166.604,36.729,166.604,36.561z M166.792,38.232
		h0.88v5.5h-0.88V38.232z"/>
	<path fill="#444444" d="M172.919,41.301h-2.486v2.431h-0.88v-5.5h0.88v2.299h2.486v-2.299h0.88v5.5h-0.88V41.301z"/>
	<path fill="#444444" d="M175.427,43.227c0-0.198,0.057-0.354,0.17-0.468c0.114-0.113,0.266-0.17,0.457-0.17
		c0.198,0,0.355,0.057,0.473,0.17c0.117,0.114,0.176,0.27,0.176,0.468c0,0.19-0.059,0.345-0.176,0.462s-0.274,0.176-0.473,0.176
		c-0.191,0-0.343-0.059-0.457-0.176C175.483,43.571,175.427,43.417,175.427,43.227z M178.221,43.227c0-0.198,0.057-0.354,0.17-0.468
		c0.114-0.113,0.266-0.17,0.457-0.17c0.198,0,0.355,0.057,0.473,0.17c0.117,0.114,0.176,0.27,0.176,0.468
		c0,0.19-0.059,0.345-0.176,0.462s-0.274,0.176-0.473,0.176c-0.191,0-0.343-0.059-0.457-0.176
		C178.277,43.571,178.221,43.417,178.221,43.227z M181.015,43.227c0-0.198,0.057-0.354,0.17-0.468
		c0.114-0.113,0.267-0.17,0.457-0.17c0.198,0,0.355,0.057,0.473,0.17c0.117,0.114,0.176,0.27,0.176,0.468
		c0,0.19-0.059,0.345-0.176,0.462s-0.274,0.176-0.473,0.176c-0.19,0-0.343-0.059-0.457-0.176
		C181.071,43.571,181.015,43.417,181.015,43.227z"/>
</g>
<g>
	<path fill="#444444" d="M239.88,102.027c0-0.198,0.057-0.354,0.17-0.468c0.114-0.113,0.266-0.17,0.457-0.17
		c0.198,0,0.355,0.057,0.473,0.17c0.117,0.114,0.176,0.27,0.176,0.468c0,0.19-0.059,0.345-0.176,0.462s-0.274,0.176-0.473,0.176
		c-0.191,0-0.343-0.059-0.457-0.176C239.937,102.372,239.88,102.217,239.88,102.027z M242.674,102.027
		c0-0.198,0.057-0.354,0.17-0.468c0.114-0.113,0.266-0.17,0.457-0.17c0.198,0,0.355,0.057,0.473,0.17
		c0.117,0.114,0.176,0.27,0.176,0.468c0,0.19-0.059,0.345-0.176,0.462s-0.274,0.176-0.473,0.176c-0.191,0-0.343-0.059-0.457-0.176
		C242.73,102.372,242.674,102.217,242.674,102.027z M245.468,102.027c0-0.198,0.057-0.354,0.17-0.468
		c0.114-0.113,0.267-0.17,0.457-0.17c0.198,0,0.355,0.057,0.473,0.17c0.117,0.114,0.176,0.27,0.176,0.468
		c0,0.19-0.059,0.345-0.176,0.462s-0.274,0.176-0.473,0.176c-0.19,0-0.343-0.059-0.457-0.176
		C245.524,102.372,245.468,102.217,245.468,102.027z"/>
	<path fill="#444444" d="M247.986,99.783c0-0.931,0.207-1.645,0.621-2.14c0.415-0.495,1.011-0.742,1.788-0.742
		c0.41,0,0.768,0.068,1.072,0.203c0.305,0.136,0.556,0.33,0.754,0.583c0.197,0.253,0.344,0.558,0.439,0.913
		c0.096,0.356,0.144,0.75,0.144,1.183c0,0.931-0.208,1.645-0.622,2.14c-0.414,0.495-1.01,0.742-1.787,0.742
		c-0.411,0-0.769-0.068-1.072-0.203c-0.305-0.136-0.556-0.33-0.754-0.583c-0.198-0.253-0.345-0.558-0.44-0.913
		C248.034,100.609,247.986,100.215,247.986,99.783z M248.899,99.783c0,0.279,0.027,0.546,0.082,0.803
		c0.056,0.256,0.142,0.48,0.259,0.671c0.117,0.19,0.271,0.345,0.462,0.462s0.422,0.176,0.693,0.176
		c0.997,0.008,1.496-0.696,1.496-2.112c0-0.286-0.028-0.557-0.083-0.814s-0.141-0.48-0.259-0.671
		c-0.117-0.191-0.271-0.343-0.462-0.457c-0.19-0.114-0.422-0.17-0.692-0.17C249.397,97.664,248.899,98.368,248.899,99.783z"/>
	<path fill="#444444" d="M258.985,103.93h-0.594l-0.165-1.397h-4.136l-0.165,1.397h-0.595v-2.167h0.649
		c0.059-0.081,0.136-0.226,0.23-0.435c0.096-0.209,0.189-0.502,0.281-0.88c0.091-0.377,0.172-0.847,0.241-1.408
		c0.07-0.561,0.112-1.23,0.127-2.007h3.322v4.73h0.803V103.93z M257.303,101.763v-3.96h-1.65c-0.015,0.308-0.04,0.644-0.077,1.006
		c-0.036,0.363-0.086,0.726-0.148,1.089c-0.062,0.363-0.142,0.706-0.236,1.028c-0.096,0.323-0.205,0.602-0.33,0.836H257.303z"/>
	<path fill="#444444" d="M263.44,100.102h-2.486v2.431h-0.88v-5.5h0.88v2.299h2.486v-2.299h0.88v5.5h-0.88V100.102z"/>
	<path fill="#444444" d="M265.926,97.44c0.279-0.169,0.604-0.293,0.974-0.374c0.37-0.081,0.757-0.121,1.16-0.121
		c0.382,0,0.688,0.051,0.919,0.154c0.231,0.103,0.407,0.237,0.528,0.401c0.121,0.165,0.201,0.347,0.241,0.545
		c0.041,0.198,0.061,0.396,0.061,0.594c0,0.44-0.011,0.869-0.032,1.287c-0.022,0.418-0.033,0.814-0.033,1.188
		c0,0.271,0.011,0.528,0.033,0.77c0.021,0.242,0.062,0.466,0.121,0.671h-0.649l-0.231-0.77h-0.055
		c-0.066,0.103-0.148,0.204-0.247,0.303c-0.1,0.099-0.219,0.187-0.357,0.264c-0.14,0.077-0.301,0.142-0.484,0.193
		c-0.184,0.051-0.393,0.077-0.627,0.077c-0.235,0-0.453-0.037-0.654-0.11c-0.202-0.073-0.376-0.178-0.522-0.313
		c-0.147-0.136-0.263-0.299-0.347-0.49c-0.085-0.19-0.127-0.407-0.127-0.649c0-0.322,0.066-0.592,0.198-0.809
		c0.132-0.216,0.317-0.388,0.556-0.517s0.524-0.22,0.857-0.275c0.334-0.055,0.702-0.083,1.106-0.083c0.103,0,0.203,0,0.302,0
		c0.1,0,0.2,0.008,0.303,0.022c0.022-0.22,0.033-0.418,0.033-0.594c0-0.403-0.081-0.686-0.242-0.847
		c-0.161-0.161-0.455-0.242-0.88-0.242c-0.125,0-0.259,0.009-0.401,0.028c-0.144,0.019-0.29,0.045-0.44,0.079
		s-0.293,0.076-0.429,0.125s-0.255,0.104-0.357,0.164L265.926,97.44z M267.488,101.851c0.205,0,0.389-0.027,0.55-0.083
		c0.161-0.055,0.301-0.125,0.418-0.209c0.117-0.084,0.215-0.178,0.291-0.28c0.077-0.103,0.134-0.202,0.171-0.297v-0.913
		c-0.103-0.007-0.207-0.013-0.313-0.017c-0.106-0.003-0.211-0.005-0.313-0.005c-0.228,0-0.449,0.013-0.665,0.039
		c-0.217,0.025-0.407,0.073-0.572,0.143c-0.165,0.07-0.297,0.165-0.396,0.286c-0.099,0.121-0.148,0.273-0.148,0.457
		c0,0.257,0.092,0.467,0.275,0.632C266.967,101.768,267.202,101.851,267.488,101.851z"/>
	<path fill="#444444" d="M274.935,100.08v-0.715h0.77c0.133,0,0.263-0.022,0.391-0.066c0.129-0.044,0.244-0.104,0.347-0.182
		s0.186-0.168,0.248-0.275c0.062-0.106,0.093-0.218,0.093-0.335c0-0.286-0.099-0.488-0.297-0.605s-0.495-0.176-0.891-0.176
		c-0.286,0-0.549,0.043-0.787,0.128s-0.423,0.167-0.555,0.246L274,97.429c0.22-0.125,0.479-0.234,0.775-0.33
		c0.297-0.095,0.65-0.143,1.062-0.143c1.217,0,1.825,0.451,1.825,1.353c0,0.257-0.082,0.508-0.247,0.753
		c-0.165,0.246-0.401,0.42-0.709,0.522v0.044c0.432,0.081,0.734,0.234,0.907,0.462c0.172,0.227,0.258,0.528,0.258,0.902
		c0,0.235-0.047,0.451-0.143,0.649c-0.096,0.198-0.238,0.371-0.429,0.517c-0.191,0.147-0.431,0.262-0.721,0.347
		c-0.29,0.084-0.625,0.126-1.007,0.126c-0.374,0-0.684-0.033-0.929-0.099c-0.246-0.066-0.468-0.146-0.666-0.242l0.253-0.726
		c0.169,0.095,0.372,0.168,0.61,0.22s0.497,0.077,0.775,0.077c0.447,0,0.789-0.077,1.023-0.231c0.234-0.154,0.352-0.389,0.352-0.704
		c0-0.264-0.109-0.471-0.33-0.622c-0.22-0.15-0.583-0.226-1.089-0.226H274.935z"/>
	<path fill="#444444" d="M283.8,99.266l0.066-1.045h-0.055l-0.396,0.847l-1.331,2.156h-0.308l-1.386-2.156l-0.363-0.847h-0.044
		l0.088,1.034v3.278h-0.814v-5.5h0.869l1.54,2.464l0.319,0.638h0.021l0.33-0.66l1.441-2.442h0.88v5.5H283.8V99.266z"/>
	<path fill="#444444" d="M286.352,95.361c0-0.169,0.057-0.313,0.171-0.435c0.113-0.121,0.259-0.182,0.435-0.182
		s0.326,0.061,0.451,0.182c0.124,0.121,0.187,0.266,0.187,0.435c0,0.168-0.062,0.308-0.187,0.418
		c-0.125,0.11-0.275,0.165-0.451,0.165s-0.321-0.055-0.435-0.165C286.408,95.669,286.352,95.529,286.352,95.361z M286.539,97.033
		h0.88v5.5h-0.88V97.033z"/>
	<path fill="#444444" d="M292.666,100.102h-2.486v2.431h-0.88v-5.5h0.88v2.299h2.486v-2.299h0.88v5.5h-0.88V100.102z"/>
	<path fill="#444444" d="M295.151,97.44c0.279-0.169,0.604-0.293,0.974-0.374c0.37-0.081,0.757-0.121,1.16-0.121
		c0.382,0,0.688,0.051,0.919,0.154c0.231,0.103,0.407,0.237,0.528,0.401c0.121,0.165,0.201,0.347,0.241,0.545
		c0.041,0.198,0.061,0.396,0.061,0.594c0,0.44-0.011,0.869-0.032,1.287c-0.022,0.418-0.033,0.814-0.033,1.188
		c0,0.271,0.011,0.528,0.033,0.77c0.021,0.242,0.062,0.466,0.121,0.671h-0.649l-0.231-0.77h-0.055
		c-0.066,0.103-0.148,0.204-0.247,0.303c-0.1,0.099-0.219,0.187-0.357,0.264c-0.14,0.077-0.301,0.142-0.484,0.193
		c-0.184,0.051-0.393,0.077-0.627,0.077c-0.235,0-0.453-0.037-0.654-0.11c-0.202-0.073-0.376-0.178-0.522-0.313
		c-0.147-0.136-0.263-0.299-0.347-0.49c-0.085-0.19-0.127-0.407-0.127-0.649c0-0.322,0.066-0.592,0.198-0.809
		c0.132-0.216,0.317-0.388,0.556-0.517s0.524-0.22,0.857-0.275c0.334-0.055,0.702-0.083,1.106-0.083c0.103,0,0.203,0,0.302,0
		c0.1,0,0.2,0.008,0.303,0.022c0.022-0.22,0.033-0.418,0.033-0.594c0-0.403-0.081-0.686-0.242-0.847
		c-0.161-0.161-0.455-0.242-0.88-0.242c-0.125,0-0.259,0.009-0.401,0.028c-0.144,0.019-0.29,0.045-0.44,0.079
		s-0.293,0.076-0.429,0.125s-0.255,0.104-0.357,0.164L295.151,97.44z M296.714,101.851c0.205,0,0.389-0.027,0.55-0.083
		c0.161-0.055,0.301-0.125,0.418-0.209c0.117-0.084,0.215-0.178,0.291-0.28c0.077-0.103,0.134-0.202,0.171-0.297v-0.913
		c-0.103-0.007-0.207-0.013-0.313-0.017c-0.106-0.003-0.211-0.005-0.313-0.005c-0.228,0-0.449,0.013-0.665,0.039
		c-0.217,0.025-0.407,0.073-0.572,0.143c-0.165,0.07-0.297,0.165-0.396,0.286c-0.099,0.121-0.148,0.273-0.148,0.457
		c0,0.257,0.092,0.467,0.275,0.632C296.192,101.768,296.428,101.851,296.714,101.851z"/>
	<path fill="#444444" d="M252.282,113.279v-0.715h0.77c0.133,0,0.263-0.022,0.391-0.066c0.129-0.044,0.244-0.104,0.347-0.182
		s0.186-0.168,0.248-0.275c0.062-0.106,0.093-0.218,0.093-0.335c0-0.286-0.099-0.488-0.297-0.605s-0.495-0.176-0.891-0.176
		c-0.286,0-0.549,0.043-0.787,0.128s-0.423,0.167-0.555,0.246l-0.253-0.671c0.22-0.125,0.479-0.234,0.775-0.33
		c0.297-0.095,0.65-0.143,1.062-0.143c1.217,0,1.825,0.451,1.825,1.353c0,0.257-0.082,0.508-0.247,0.753
		c-0.165,0.246-0.401,0.42-0.709,0.522v0.044c0.432,0.081,0.734,0.234,0.907,0.462c0.172,0.227,0.258,0.528,0.258,0.902
		c0,0.235-0.047,0.451-0.143,0.649c-0.096,0.198-0.238,0.371-0.429,0.517c-0.191,0.147-0.431,0.262-0.721,0.347
		c-0.29,0.084-0.625,0.126-1.007,0.126c-0.374,0-0.684-0.033-0.929-0.099c-0.246-0.066-0.468-0.146-0.666-0.242l0.253-0.726
		c0.169,0.095,0.372,0.168,0.61,0.22s0.497,0.077,0.775,0.077c0.447,0,0.789-0.077,1.023-0.231c0.234-0.154,0.352-0.389,0.352-0.704
		c0-0.264-0.109-0.471-0.33-0.622c-0.22-0.15-0.583-0.226-1.089-0.226H252.282z"/>
	<path fill="#444444" d="M256.517,110.64c0.279-0.169,0.604-0.293,0.974-0.374c0.37-0.081,0.757-0.121,1.16-0.121
		c0.382,0,0.688,0.051,0.919,0.154c0.231,0.103,0.407,0.237,0.528,0.401c0.121,0.165,0.201,0.347,0.241,0.545
		c0.041,0.198,0.061,0.396,0.061,0.594c0,0.44-0.011,0.869-0.032,1.287c-0.022,0.418-0.033,0.814-0.033,1.188
		c0,0.271,0.011,0.528,0.033,0.77c0.021,0.242,0.062,0.466,0.121,0.671h-0.649l-0.231-0.77h-0.055
		c-0.066,0.103-0.148,0.204-0.247,0.303c-0.1,0.099-0.219,0.187-0.357,0.264c-0.14,0.077-0.301,0.142-0.484,0.193
		c-0.184,0.051-0.393,0.077-0.627,0.077c-0.235,0-0.453-0.037-0.654-0.11c-0.202-0.073-0.376-0.178-0.522-0.313
		c-0.147-0.136-0.263-0.299-0.347-0.49c-0.085-0.19-0.127-0.407-0.127-0.649c0-0.322,0.066-0.592,0.198-0.809
		c0.132-0.216,0.317-0.388,0.556-0.517s0.524-0.22,0.857-0.275c0.334-0.055,0.702-0.083,1.106-0.083c0.103,0,0.203,0,0.302,0
		c0.1,0,0.2,0.008,0.303,0.022c0.022-0.22,0.033-0.418,0.033-0.594c0-0.403-0.081-0.686-0.242-0.847
		c-0.161-0.161-0.455-0.242-0.88-0.242c-0.125,0-0.259,0.009-0.401,0.028c-0.144,0.019-0.29,0.045-0.44,0.079
		s-0.293,0.076-0.429,0.125s-0.255,0.104-0.357,0.164L256.517,110.64z M258.079,115.05c0.205,0,0.389-0.027,0.55-0.083
		c0.161-0.055,0.301-0.125,0.418-0.209c0.117-0.084,0.215-0.178,0.291-0.28c0.077-0.103,0.134-0.202,0.171-0.297v-0.913
		c-0.103-0.007-0.207-0.013-0.313-0.017c-0.106-0.003-0.211-0.005-0.313-0.005c-0.228,0-0.449,0.013-0.665,0.039
		c-0.217,0.025-0.407,0.073-0.572,0.143c-0.165,0.07-0.297,0.165-0.396,0.286c-0.099,0.121-0.148,0.273-0.148,0.457
		c0,0.257,0.092,0.467,0.275,0.632C257.558,114.968,257.793,115.05,258.079,115.05z"/>
	<path fill="#444444" d="M264.997,110.232h0.605l0.165,0.66h0.044c0.169-0.257,0.387-0.453,0.654-0.589
		c0.268-0.135,0.574-0.203,0.919-0.203c0.732,0,1.279,0.216,1.639,0.649s0.539,1.14,0.539,2.123c0,0.462-0.061,0.878-0.182,1.249
		c-0.121,0.37-0.291,0.684-0.512,0.94c-0.22,0.257-0.485,0.455-0.797,0.594c-0.312,0.139-0.658,0.209-1.04,0.209
		c-0.271,0-0.485-0.016-0.644-0.049c-0.157-0.033-0.328-0.09-0.512-0.17v2.288h-0.88V110.232z M267.22,110.871
		c-0.374,0-0.67,0.097-0.886,0.292c-0.217,0.194-0.368,0.489-0.457,0.885v2.728c0.133,0.103,0.282,0.182,0.451,0.236
		c0.169,0.055,0.393,0.083,0.671,0.083c0.507,0,0.908-0.188,1.205-0.566c0.297-0.377,0.445-0.933,0.445-1.667
		c0-0.3-0.025-0.574-0.077-0.819c-0.051-0.246-0.134-0.455-0.247-0.627c-0.114-0.172-0.261-0.306-0.44-0.402
		C267.705,110.918,267.483,110.871,267.22,110.871z"/>
	<path fill="#444444" d="M270.86,110.64c0.279-0.169,0.604-0.293,0.974-0.374c0.37-0.081,0.757-0.121,1.16-0.121
		c0.382,0,0.688,0.051,0.919,0.154c0.231,0.103,0.407,0.237,0.528,0.401c0.121,0.165,0.201,0.347,0.241,0.545
		c0.041,0.198,0.061,0.396,0.061,0.594c0,0.44-0.011,0.869-0.032,1.287c-0.022,0.418-0.033,0.814-0.033,1.188
		c0,0.271,0.011,0.528,0.033,0.77c0.021,0.242,0.062,0.466,0.121,0.671h-0.649l-0.231-0.77h-0.055
		c-0.066,0.103-0.148,0.204-0.247,0.303c-0.1,0.099-0.219,0.187-0.357,0.264c-0.14,0.077-0.301,0.142-0.484,0.193
		c-0.184,0.051-0.393,0.077-0.627,0.077c-0.235,0-0.453-0.037-0.654-0.11c-0.202-0.073-0.376-0.178-0.522-0.313
		c-0.147-0.136-0.263-0.299-0.347-0.49c-0.085-0.19-0.127-0.407-0.127-0.649c0-0.322,0.066-0.592,0.198-0.809
		c0.132-0.216,0.317-0.388,0.556-0.517s0.524-0.22,0.857-0.275c0.334-0.055,0.702-0.083,1.106-0.083c0.103,0,0.203,0,0.302,0
		c0.1,0,0.2,0.008,0.303,0.022c0.022-0.22,0.033-0.418,0.033-0.594c0-0.403-0.081-0.686-0.242-0.847
		c-0.161-0.161-0.455-0.242-0.88-0.242c-0.125,0-0.259,0.009-0.401,0.028c-0.144,0.019-0.29,0.045-0.44,0.079
		s-0.293,0.076-0.429,0.125s-0.255,0.104-0.357,0.164L270.86,110.64z M272.423,115.05c0.205,0,0.389-0.027,0.55-0.083
		c0.161-0.055,0.301-0.125,0.418-0.209c0.117-0.084,0.215-0.178,0.291-0.28c0.077-0.103,0.134-0.202,0.171-0.297v-0.913
		c-0.103-0.007-0.207-0.013-0.313-0.017c-0.106-0.003-0.211-0.005-0.313-0.005c-0.228,0-0.449,0.013-0.665,0.039
		c-0.217,0.025-0.407,0.073-0.572,0.143c-0.165,0.07-0.297,0.165-0.396,0.286c-0.099,0.121-0.148,0.273-0.148,0.457
		c0,0.257,0.092,0.467,0.275,0.632C271.901,114.968,272.137,115.05,272.423,115.05z"/>
	<path fill="#444444" d="M276.933,113.279v-0.715h0.77c0.133,0,0.263-0.022,0.391-0.066c0.129-0.044,0.244-0.104,0.347-0.182
		s0.186-0.168,0.248-0.275c0.062-0.106,0.093-0.218,0.093-0.335c0-0.286-0.099-0.488-0.297-0.605s-0.495-0.176-0.891-0.176
		c-0.286,0-0.549,0.043-0.787,0.128s-0.423,0.167-0.555,0.246l-0.253-0.671c0.22-0.125,0.479-0.234,0.775-0.33
		c0.297-0.095,0.65-0.143,1.062-0.143c1.217,0,1.825,0.451,1.825,1.353c0,0.257-0.082,0.508-0.247,0.753
		c-0.165,0.246-0.401,0.42-0.709,0.522v0.044c0.432,0.081,0.734,0.234,0.907,0.462c0.172,0.227,0.258,0.528,0.258,0.902
		c0,0.235-0.047,0.451-0.143,0.649c-0.096,0.198-0.238,0.371-0.429,0.517c-0.191,0.147-0.431,0.262-0.721,0.347
		c-0.29,0.084-0.625,0.126-1.007,0.126c-0.374,0-0.684-0.033-0.929-0.099c-0.246-0.066-0.468-0.146-0.666-0.242l0.253-0.726
		c0.169,0.095,0.372,0.168,0.61,0.22s0.497,0.077,0.775,0.077c0.447,0,0.789-0.077,1.023-0.231c0.234-0.154,0.352-0.389,0.352-0.704
		c0-0.264-0.109-0.471-0.33-0.622c-0.22-0.15-0.583-0.226-1.089-0.226H276.933z"/>
	<path fill="#444444" d="M280.947,115.227c0-0.198,0.057-0.354,0.171-0.468c0.113-0.113,0.266-0.17,0.456-0.17
		c0.198,0,0.355,0.057,0.473,0.17c0.117,0.114,0.177,0.27,0.177,0.468c0,0.19-0.06,0.345-0.177,0.462s-0.274,0.176-0.473,0.176
		c-0.19,0-0.343-0.059-0.456-0.176C281.004,115.571,280.947,115.417,280.947,115.227z"/>
	<path fill="#444444" d="M284.016,115.227c0-0.198,0.057-0.354,0.171-0.468c0.113-0.113,0.266-0.17,0.456-0.17
		c0.198,0,0.355,0.057,0.473,0.17c0.117,0.114,0.177,0.27,0.177,0.468c0,0.19-0.06,0.345-0.177,0.462s-0.274,0.176-0.473,0.176
		c-0.19,0-0.343-0.059-0.456-0.176C284.072,115.571,284.016,115.417,284.016,115.227z"/>
	<path fill="#444444" d="M287.084,115.227c0-0.198,0.057-0.354,0.171-0.468c0.113-0.113,0.266-0.17,0.456-0.17
		c0.198,0,0.355,0.057,0.473,0.17c0.117,0.114,0.177,0.27,0.177,0.468c0,0.19-0.06,0.345-0.177,0.462s-0.274,0.176-0.473,0.176
		c-0.19,0-0.343-0.059-0.456-0.176C287.141,115.571,287.084,115.417,287.084,115.227z"/>
</g>
<g>
	<path fill="#444444" d="M239.053,201.027c0-0.198,0.057-0.354,0.17-0.468c0.114-0.113,0.266-0.17,0.457-0.17
		c0.198,0,0.355,0.057,0.473,0.17s0.176,0.27,0.176,0.468c0,0.19-0.059,0.345-0.176,0.462s-0.274,0.176-0.473,0.176
		c-0.191,0-0.343-0.059-0.457-0.176C239.109,201.372,239.053,201.217,239.053,201.027z M241.847,201.027
		c0-0.198,0.057-0.354,0.17-0.468c0.114-0.113,0.266-0.17,0.457-0.17c0.198,0,0.355,0.057,0.473,0.17s0.176,0.27,0.176,0.468
		c0,0.19-0.059,0.345-0.176,0.462s-0.274,0.176-0.473,0.176c-0.191,0-0.343-0.059-0.457-0.176
		C241.903,201.372,241.847,201.217,241.847,201.027z M244.641,201.027c0-0.198,0.057-0.354,0.17-0.468
		c0.114-0.113,0.267-0.17,0.457-0.17c0.198,0,0.355,0.057,0.473,0.17s0.176,0.27,0.176,0.468c0,0.19-0.059,0.345-0.176,0.462
		s-0.274,0.176-0.473,0.176c-0.19,0-0.343-0.059-0.457-0.176C244.697,201.372,244.641,201.217,244.641,201.027z"/>
	<path fill="#444444" d="M248.49,199.08v-0.715h0.77c0.133,0,0.263-0.022,0.391-0.065c0.129-0.045,0.244-0.105,0.347-0.182
		c0.103-0.078,0.186-0.169,0.248-0.275c0.062-0.106,0.093-0.219,0.093-0.336c0-0.285-0.099-0.487-0.297-0.604
		s-0.495-0.177-0.891-0.177c-0.286,0-0.549,0.043-0.787,0.129s-0.423,0.168-0.555,0.246l-0.253-0.672
		c0.22-0.124,0.479-0.234,0.775-0.33c0.297-0.095,0.65-0.143,1.062-0.143c1.217,0,1.825,0.451,1.825,1.354
		c0,0.256-0.082,0.508-0.247,0.753c-0.165,0.246-0.401,0.42-0.709,0.522v0.045c0.432,0.08,0.734,0.234,0.907,0.461
		c0.172,0.228,0.258,0.528,0.258,0.902c0,0.234-0.047,0.451-0.143,0.648c-0.096,0.199-0.238,0.371-0.429,0.518
		c-0.191,0.146-0.431,0.262-0.721,0.347c-0.29,0.084-0.625,0.126-1.007,0.126c-0.374,0-0.684-0.033-0.929-0.099
		c-0.246-0.065-0.468-0.146-0.666-0.242l0.253-0.726c0.169,0.096,0.372,0.168,0.61,0.22s0.497,0.077,0.775,0.077
		c0.447,0,0.789-0.077,1.023-0.23c0.234-0.154,0.352-0.389,0.352-0.705c0-0.264-0.109-0.471-0.33-0.621
		c-0.22-0.15-0.583-0.226-1.089-0.226H248.49z"/>
	<path fill="#444444" d="M257.355,198.266l0.066-1.045h-0.055l-0.396,0.847l-1.331,2.155h-0.308l-1.386-2.155l-0.363-0.847h-0.044
		l0.088,1.033v3.278h-0.814v-5.5h0.869l1.54,2.464l0.319,0.639h0.021l0.33-0.66l1.441-2.442h0.88v5.5h-0.858V198.266z"/>
	<path fill="#444444" d="M259.907,194.361c0-0.169,0.057-0.313,0.171-0.435c0.113-0.121,0.259-0.182,0.435-0.182
		s0.326,0.061,0.451,0.182c0.124,0.121,0.187,0.266,0.187,0.435s-0.062,0.308-0.187,0.418c-0.125,0.11-0.275,0.165-0.451,0.165
		s-0.321-0.055-0.435-0.165C259.964,194.668,259.907,194.53,259.907,194.361z M260.095,196.033h0.88v5.5h-0.88V196.033z"/>
	<path fill="#444444" d="M266.222,199.102h-2.486v2.431h-0.88v-5.5h0.88v2.299h2.486v-2.299h0.88v5.5h-0.88V199.102z"/>
	<path fill="#444444" d="M273.063,201.665c-0.396,0-0.735-0.061-1.018-0.182s-0.514-0.293-0.693-0.517s-0.315-0.495-0.407-0.813
		c-0.092-0.32-0.148-0.67-0.17-1.051h-1.101v2.431h-0.88v-5.5h0.88v2.299h1.111c0.059-0.784,0.273-1.386,0.644-1.804
		s0.922-0.627,1.655-0.627c0.403,0,0.746,0.068,1.028,0.203c0.282,0.137,0.514,0.33,0.693,0.583s0.31,0.558,0.391,0.913
		s0.121,0.75,0.121,1.183c0,0.931-0.186,1.645-0.556,2.14C274.393,201.417,273.826,201.665,273.063,201.665z M271.633,198.783
		c0,0.286,0.022,0.558,0.066,0.813c0.044,0.258,0.122,0.482,0.232,0.678c0.11,0.193,0.26,0.346,0.447,0.455
		c0.188,0.111,0.421,0.166,0.701,0.166c0.471,0,0.81-0.171,1.016-0.512c0.206-0.342,0.31-0.875,0.31-1.601
		c0-0.286-0.021-0.558-0.061-0.813c-0.041-0.258-0.112-0.482-0.216-0.678c-0.103-0.193-0.239-0.346-0.408-0.455
		c-0.17-0.111-0.387-0.166-0.651-0.166c-0.509,0-0.875,0.171-1.1,0.512C271.745,197.524,271.633,198.057,271.633,198.783z"/>
	<path fill="#444444" d="M280.973,201.665c-0.396,0-0.735-0.061-1.018-0.182s-0.514-0.293-0.693-0.517s-0.315-0.495-0.407-0.813
		c-0.092-0.32-0.148-0.67-0.17-1.051h-1.101v2.431h-0.88v-5.5h0.88v2.299h1.111c0.059-0.784,0.273-1.386,0.644-1.804
		s0.922-0.627,1.655-0.627c0.403,0,0.746,0.068,1.028,0.203c0.282,0.137,0.514,0.33,0.693,0.583s0.31,0.558,0.391,0.913
		s0.121,0.75,0.121,1.183c0,0.931-0.186,1.645-0.556,2.14C282.302,201.417,281.735,201.665,280.973,201.665z M279.542,198.783
		c0,0.286,0.022,0.558,0.066,0.813c0.044,0.258,0.122,0.482,0.232,0.678c0.11,0.193,0.26,0.346,0.447,0.455
		c0.188,0.111,0.421,0.166,0.701,0.166c0.471,0,0.81-0.171,1.016-0.512c0.206-0.342,0.31-0.875,0.31-1.601
		c0-0.286-0.021-0.558-0.061-0.813c-0.041-0.258-0.112-0.482-0.216-0.678c-0.103-0.193-0.239-0.346-0.408-0.455
		c-0.17-0.111-0.387-0.166-0.651-0.166c-0.509,0-0.875,0.171-1.1,0.512C279.654,197.524,279.542,198.057,279.542,198.783z"/>
	<path fill="#444444" d="M287.936,196.803h-1.716v4.729h-0.88v-4.729h-1.716v-0.771h4.312V196.803z"/>
	<path fill="#444444" d="M289.685,198.133c0.177-0.029,0.345-0.049,0.507-0.061c0.161-0.011,0.314-0.016,0.462-0.016
		c0.381,0,0.704,0.042,0.968,0.126c0.264,0.085,0.479,0.2,0.644,0.347s0.284,0.32,0.357,0.522s0.11,0.416,0.11,0.644
		c0,0.668-0.2,1.151-0.6,1.452c-0.4,0.301-1.021,0.45-1.865,0.45c-0.469,0-0.957-0.021-1.463-0.065v-5.5h0.88V198.133z
		 M289.685,200.762c0.271,0.045,0.532,0.066,0.781,0.066c0.462,0,0.803-0.09,1.023-0.27c0.22-0.18,0.33-0.435,0.33-0.764
		c0-0.294-0.106-0.536-0.319-0.727c-0.213-0.191-0.546-0.286-1.001-0.286c-0.125,0-0.261,0.004-0.407,0.011
		c-0.146,0.008-0.282,0.029-0.407,0.066V200.762z"/>
	<path fill="#444444" d="M243.057,209.244c0.257-0.015,0.526-0.033,0.809-0.056c0.282-0.021,0.633-0.033,1.051-0.033
		c0.726,0,1.246,0.112,1.562,0.336c0.315,0.225,0.474,0.562,0.474,1.018c0,0.257-0.075,0.508-0.226,0.754s-0.398,0.427-0.742,0.545
		v0.043c0.433,0.081,0.736,0.231,0.912,0.451c0.177,0.221,0.265,0.514,0.265,0.881c0,0.571-0.206,0.986-0.616,1.242
		c-0.411,0.257-1.026,0.385-1.848,0.385c-0.309,0-0.595-0.009-0.858-0.027c-0.264-0.018-0.524-0.038-0.781-0.061V209.244z
		 M245.015,211.553c0.132,0,0.261-0.021,0.386-0.066c0.124-0.043,0.236-0.104,0.335-0.181s0.18-0.167,0.242-0.27
		s0.094-0.213,0.094-0.33c0-0.294-0.088-0.497-0.265-0.61c-0.176-0.113-0.483-0.171-0.924-0.171c-0.234,0-0.42,0.004-0.556,0.011
		c-0.136,0.008-0.266,0.016-0.391,0.022v1.595H245.015z M243.937,213.996c0.14,0.015,0.277,0.025,0.413,0.032
		c0.136,0.008,0.295,0.012,0.479,0.012c0.491,0,0.855-0.07,1.095-0.209c0.238-0.139,0.357-0.378,0.357-0.715
		c0-0.264-0.102-0.479-0.303-0.645c-0.202-0.164-0.56-0.246-1.072-0.246h-0.969V213.996z"/>
	<path fill="#444444" d="M248.458,209.639c0.279-0.168,0.604-0.293,0.974-0.373c0.37-0.082,0.757-0.121,1.16-0.121
		c0.382,0,0.688,0.051,0.919,0.153s0.407,0.237,0.528,0.401c0.121,0.165,0.201,0.347,0.241,0.545
		c0.041,0.197,0.061,0.396,0.061,0.594c0,0.439-0.011,0.869-0.032,1.287c-0.022,0.418-0.033,0.814-0.033,1.188
		c0,0.271,0.011,0.528,0.033,0.771c0.021,0.241,0.062,0.466,0.121,0.671h-0.649l-0.231-0.77h-0.055
		c-0.066,0.103-0.148,0.203-0.247,0.303c-0.1,0.098-0.219,0.187-0.357,0.264c-0.14,0.076-0.301,0.141-0.484,0.192
		c-0.184,0.051-0.393,0.077-0.627,0.077c-0.235,0-0.453-0.037-0.654-0.11c-0.202-0.073-0.376-0.178-0.522-0.313
		c-0.147-0.136-0.263-0.299-0.347-0.49c-0.085-0.189-0.127-0.406-0.127-0.648c0-0.322,0.066-0.592,0.198-0.809
		c0.132-0.216,0.317-0.389,0.556-0.517s0.524-0.22,0.857-0.275c0.334-0.055,0.702-0.083,1.106-0.083c0.103,0,0.203,0,0.302,0
		c0.1,0,0.2,0.008,0.303,0.023c0.022-0.221,0.033-0.419,0.033-0.595c0-0.403-0.081-0.686-0.242-0.847
		c-0.161-0.162-0.455-0.242-0.88-0.242c-0.125,0-0.259,0.01-0.401,0.028c-0.144,0.019-0.29,0.045-0.44,0.079
		s-0.293,0.076-0.429,0.125s-0.255,0.104-0.357,0.164L248.458,209.639z M250.021,214.05c0.205,0,0.389-0.027,0.55-0.083
		c0.161-0.055,0.301-0.124,0.418-0.209c0.117-0.084,0.215-0.178,0.291-0.279c0.077-0.104,0.134-0.202,0.171-0.297v-0.914
		c-0.103-0.007-0.207-0.012-0.313-0.016s-0.211-0.006-0.313-0.006c-0.228,0-0.449,0.013-0.665,0.039
		c-0.217,0.025-0.407,0.072-0.572,0.143c-0.165,0.069-0.297,0.164-0.396,0.285c-0.099,0.121-0.148,0.273-0.148,0.457
		c0,0.257,0.092,0.467,0.275,0.633C249.499,213.967,249.734,214.05,250.021,214.05z"/>
	<path fill="#444444" d="M254.002,214.733v-5.5h0.88v4.729h1.882v-4.729h0.88v4.729h1.881v-4.729h0.88v5.5H254.002z"/>
	<path fill="#444444" d="M266.421,212.257h-0.507v2.476h-0.88v-5.5h0.88v2.485l0.474-0.153l1.76-2.332h0.957l-1.705,2.211
		l-0.462,0.363l0.572,0.439l1.837,2.486h-1.089L266.421,212.257z"/>
	<path fill="#444444" d="M269.863,211.983c0-0.932,0.207-1.645,0.621-2.141c0.415-0.494,1.011-0.742,1.788-0.742
		c0.41,0,0.768,0.068,1.072,0.203c0.305,0.137,0.556,0.33,0.754,0.584c0.197,0.253,0.344,0.557,0.439,0.912
		c0.096,0.356,0.144,0.75,0.144,1.184c0,0.931-0.208,1.645-0.622,2.139c-0.414,0.495-1.01,0.742-1.787,0.742
		c-0.411,0-0.769-0.067-1.072-0.203c-0.305-0.135-0.556-0.33-0.754-0.582c-0.198-0.254-0.345-0.559-0.44-0.914
		C269.911,212.809,269.863,212.415,269.863,211.983z M270.776,211.983c0,0.278,0.027,0.546,0.082,0.803
		c0.056,0.256,0.142,0.48,0.259,0.671s0.271,0.345,0.462,0.462s0.422,0.176,0.693,0.176c0.997,0.008,1.496-0.696,1.496-2.111
		c0-0.287-0.028-0.558-0.083-0.814s-0.141-0.48-0.259-0.671c-0.117-0.19-0.271-0.343-0.462-0.456
		c-0.19-0.114-0.422-0.171-0.692-0.171C271.274,209.864,270.776,210.567,270.776,211.983z"/>
	<path fill="#444444" d="M280.863,216.129h-0.594l-0.165-1.396h-4.136l-0.165,1.396h-0.595v-2.167h0.649
		c0.059-0.081,0.136-0.226,0.23-0.435c0.096-0.209,0.189-0.502,0.281-0.88c0.091-0.378,0.172-0.847,0.241-1.408
		c0.07-0.562,0.112-1.229,0.127-2.007h3.322v4.729h0.803V216.129z M279.181,213.962v-3.96h-1.65
		c-0.015,0.309-0.04,0.644-0.077,1.006c-0.036,0.363-0.086,0.727-0.148,1.09s-0.142,0.705-0.236,1.028
		c-0.096,0.323-0.205,0.602-0.33,0.836H279.181z"/>
	<path fill="#444444" d="M281.645,214.227c0-0.199,0.057-0.354,0.171-0.469c0.113-0.113,0.266-0.17,0.456-0.17
		c0.198,0,0.355,0.057,0.473,0.17c0.117,0.114,0.177,0.27,0.177,0.469c0,0.189-0.06,0.344-0.177,0.461s-0.274,0.176-0.473,0.176
		c-0.19,0-0.343-0.059-0.456-0.176C281.701,214.571,281.645,214.417,281.645,214.227z"/>
	<path fill="#444444" d="M284.713,214.227c0-0.199,0.057-0.354,0.171-0.469c0.113-0.113,0.266-0.17,0.456-0.17
		c0.198,0,0.355,0.057,0.473,0.17c0.117,0.114,0.177,0.27,0.177,0.469c0,0.189-0.06,0.344-0.177,0.461s-0.274,0.176-0.473,0.176
		c-0.19,0-0.343-0.059-0.456-0.176C284.77,214.571,284.713,214.417,284.713,214.227z"/>
	<path fill="#444444" d="M287.781,214.227c0-0.199,0.057-0.354,0.171-0.469c0.113-0.113,0.266-0.17,0.456-0.17
		c0.198,0,0.355,0.057,0.473,0.17c0.117,0.114,0.177,0.27,0.177,0.469c0,0.189-0.06,0.344-0.177,0.461s-0.274,0.176-0.473,0.176
		c-0.19,0-0.343-0.059-0.456-0.176C287.838,214.571,287.781,214.417,287.781,214.227z"/>
</g>
<g>
	<path fill="#444444" d="M111.364,239.527c0-0.198,0.057-0.354,0.17-0.468c0.114-0.113,0.266-0.17,0.457-0.17
		c0.198,0,0.355,0.057,0.473,0.17s0.176,0.27,0.176,0.468c0,0.19-0.059,0.345-0.176,0.462s-0.274,0.176-0.473,0.176
		c-0.191,0-0.343-0.059-0.457-0.176C111.421,239.872,111.364,239.717,111.364,239.527z M114.158,239.527
		c0-0.198,0.057-0.354,0.17-0.468c0.114-0.113,0.266-0.17,0.457-0.17c0.198,0,0.355,0.057,0.473,0.17s0.176,0.27,0.176,0.468
		c0,0.19-0.059,0.345-0.176,0.462s-0.274,0.176-0.473,0.176c-0.191,0-0.343-0.059-0.457-0.176
		C114.215,239.872,114.158,239.717,114.158,239.527z M116.952,239.527c0-0.198,0.057-0.354,0.17-0.468
		c0.114-0.113,0.267-0.17,0.457-0.17c0.198,0,0.355,0.057,0.473,0.17s0.176,0.27,0.176,0.468c0,0.19-0.059,0.345-0.176,0.462
		s-0.274,0.176-0.473,0.176c-0.19,0-0.343-0.059-0.457-0.176C117.009,239.872,116.952,239.717,116.952,239.527z"/>
	<path fill="#444444" d="M123.64,237.602h-2.486v2.431h-0.88v-5.5h0.88v2.299h2.486v-2.299h0.88v5.5h-0.88V237.602z"/>
	<path fill="#444444" d="M130.229,239.592c-0.221,0.176-0.497,0.316-0.831,0.418c-0.334,0.104-0.688,0.154-1.062,0.154
		c-0.418,0-0.78-0.068-1.089-0.203c-0.308-0.136-0.561-0.33-0.759-0.583s-0.345-0.556-0.44-0.907
		c-0.095-0.353-0.143-0.748-0.143-1.188c0-0.938,0.209-1.653,0.627-2.146c0.418-0.49,1.016-0.736,1.793-0.736
		c0.249,0,0.499,0.027,0.748,0.082s0.473,0.16,0.671,0.314c0.198,0.153,0.359,0.371,0.484,0.654
		c0.124,0.281,0.187,0.654,0.187,1.116c0,0.241-0.021,0.51-0.065,0.803h-3.531c0,0.323,0.033,0.608,0.099,0.858
		c0.066,0.249,0.169,0.46,0.309,0.633c0.139,0.172,0.32,0.304,0.544,0.396s0.497,0.138,0.819,0.138c0.25,0,0.499-0.045,0.748-0.133
		c0.25-0.088,0.437-0.189,0.562-0.308L130.229,239.592z M128.336,235.17c-0.433,0-0.779,0.114-1.039,0.342
		c-0.261,0.227-0.416,0.615-0.468,1.166h2.729c0-0.558-0.106-0.948-0.319-1.172S128.725,235.17,128.336,235.17z"/>
	<path fill="#444444" d="M139.324,241.43h-0.594l-0.165-1.397h-4.136l-0.165,1.397h-0.595v-2.168h0.649
		c0.059-0.08,0.136-0.225,0.23-0.434c0.096-0.209,0.189-0.502,0.281-0.881c0.091-0.377,0.172-0.847,0.241-1.408
		c0.07-0.561,0.112-1.229,0.127-2.007h3.322v4.729h0.803V241.43z M137.642,239.262v-3.959h-1.65
		c-0.015,0.308-0.04,0.643-0.077,1.006c-0.036,0.363-0.086,0.727-0.148,1.09c-0.062,0.362-0.142,0.705-0.236,1.027
		c-0.096,0.323-0.205,0.602-0.33,0.836H137.642z"/>
	<path fill="#444444" d="M140.105,237.283c0-0.931,0.207-1.645,0.621-2.14c0.415-0.494,1.011-0.742,1.788-0.742
		c0.41,0,0.768,0.068,1.072,0.203c0.305,0.137,0.556,0.33,0.754,0.583c0.197,0.253,0.344,0.558,0.439,0.913s0.144,0.75,0.144,1.183
		c0,0.931-0.208,1.645-0.622,2.14c-0.414,0.494-1.01,0.742-1.787,0.742c-0.411,0-0.769-0.068-1.072-0.203
		c-0.305-0.136-0.556-0.33-0.754-0.583s-0.345-0.558-0.44-0.913C140.153,238.11,140.105,237.715,140.105,237.283z M141.019,237.283
		c0,0.278,0.027,0.546,0.082,0.804c0.056,0.256,0.142,0.479,0.259,0.67c0.117,0.191,0.271,0.346,0.462,0.463
		s0.422,0.176,0.693,0.176c0.997,0.008,1.496-0.697,1.496-2.112c0-0.286-0.028-0.558-0.083-0.813
		c-0.055-0.258-0.141-0.48-0.259-0.672c-0.117-0.19-0.271-0.342-0.462-0.456c-0.19-0.114-0.422-0.171-0.692-0.171
		C141.517,235.164,141.019,235.868,141.019,237.283z"/>
	<path fill="#444444" d="M146.814,235.512c0.242-0.353,0.51-0.6,0.804-0.743c0.293-0.144,0.66-0.214,1.1-0.214
		c0.675,0,1.193,0.22,1.557,0.66c0.363,0.439,0.545,1.088,0.545,1.946c0,0.99-0.211,1.738-0.633,2.244s-1.011,0.759-1.766,0.759
		c-0.807,0-1.412-0.278-1.815-0.836c-0.403-0.557-0.604-1.434-0.604-2.629c0-0.631,0.031-1.17,0.094-1.617
		c0.062-0.447,0.153-0.824,0.274-1.133s0.268-0.554,0.44-0.736c0.172-0.184,0.366-0.328,0.583-0.436
		c0.216-0.105,0.452-0.182,0.709-0.225c0.257-0.045,0.532-0.081,0.825-0.11c0.382-0.036,0.681-0.079,0.896-0.126
		c0.217-0.049,0.391-0.135,0.522-0.26l0.1,0.793c-0.074,0.065-0.154,0.121-0.242,0.164c-0.088,0.045-0.194,0.082-0.319,0.11
		c-0.125,0.03-0.273,0.056-0.445,0.077c-0.173,0.021-0.372,0.041-0.6,0.055c-0.315,0.022-0.592,0.061-0.83,0.115
		c-0.238,0.056-0.444,0.162-0.616,0.32c-0.173,0.157-0.309,0.381-0.407,0.67c-0.099,0.29-0.167,0.674-0.203,1.15H146.814z
		 M146.914,237.293c0,0.279,0.029,0.547,0.088,0.803c0.059,0.258,0.148,0.482,0.27,0.678c0.121,0.193,0.276,0.346,0.468,0.455
		c0.19,0.111,0.414,0.166,0.671,0.166c0.506,0,0.882-0.182,1.127-0.545c0.246-0.363,0.369-0.9,0.369-1.611
		c0-0.279-0.026-0.535-0.077-0.77c-0.052-0.235-0.132-0.438-0.242-0.611c-0.11-0.172-0.249-0.304-0.418-0.396
		s-0.37-0.138-0.605-0.138c-0.571-0.008-0.989,0.16-1.254,0.5C147.046,236.167,146.914,236.656,146.914,237.293z"/>
	<path fill="#444444" d="M152.116,234.94c0.279-0.169,0.604-0.293,0.974-0.374s0.757-0.121,1.16-0.121
		c0.382,0,0.688,0.052,0.919,0.153c0.231,0.104,0.407,0.237,0.528,0.402c0.121,0.164,0.201,0.346,0.241,0.545
		c0.041,0.197,0.061,0.396,0.061,0.594c0,0.439-0.011,0.869-0.032,1.287c-0.022,0.418-0.033,0.813-0.033,1.188
		c0,0.271,0.011,0.527,0.033,0.77c0.021,0.242,0.062,0.467,0.121,0.672h-0.649l-0.231-0.771h-0.055
		c-0.066,0.103-0.148,0.204-0.247,0.303c-0.1,0.099-0.219,0.187-0.357,0.264c-0.14,0.077-0.301,0.142-0.484,0.192
		s-0.393,0.077-0.627,0.077c-0.235,0-0.453-0.036-0.654-0.11c-0.202-0.072-0.376-0.178-0.522-0.312
		c-0.147-0.137-0.263-0.299-0.347-0.49c-0.085-0.19-0.127-0.406-0.127-0.648c0-0.322,0.066-0.592,0.198-0.809
		s0.317-0.389,0.556-0.518c0.238-0.128,0.524-0.22,0.857-0.275c0.334-0.055,0.702-0.082,1.106-0.082c0.103,0,0.203,0,0.302,0
		c0.1,0,0.2,0.008,0.303,0.022c0.022-0.22,0.033-0.419,0.033-0.595c0-0.402-0.081-0.686-0.242-0.847s-0.455-0.241-0.88-0.241
		c-0.125,0-0.259,0.009-0.401,0.027c-0.144,0.02-0.29,0.045-0.44,0.08c-0.15,0.033-0.293,0.075-0.429,0.124
		s-0.255,0.104-0.357,0.164L152.116,234.94z M153.679,239.35c0.205,0,0.389-0.027,0.55-0.082s0.301-0.125,0.418-0.209
		s0.215-0.178,0.291-0.28c0.077-0.103,0.134-0.202,0.171-0.297v-0.913c-0.103-0.008-0.207-0.013-0.313-0.017
		c-0.106-0.003-0.211-0.005-0.313-0.005c-0.228,0-0.449,0.012-0.665,0.038c-0.217,0.025-0.407,0.073-0.572,0.143
		s-0.297,0.165-0.396,0.286c-0.099,0.121-0.148,0.273-0.148,0.457c0,0.256,0.092,0.467,0.275,0.632
		C153.157,239.268,153.393,239.35,153.679,239.35z"/>
	<path fill="#444444" d="M157.66,234.543c0.257-0.014,0.526-0.033,0.809-0.055s0.633-0.033,1.051-0.033
		c0.726,0,1.246,0.111,1.562,0.336c0.315,0.224,0.474,0.562,0.474,1.018c0,0.256-0.075,0.508-0.226,0.753
		c-0.15,0.246-0.398,0.427-0.742,0.545v0.044c0.433,0.08,0.736,0.23,0.912,0.451c0.177,0.22,0.265,0.514,0.265,0.88
		c0,0.571-0.206,0.986-0.616,1.243c-0.411,0.256-1.026,0.385-1.848,0.385c-0.309,0-0.595-0.01-0.858-0.027
		c-0.264-0.019-0.524-0.039-0.781-0.061V234.543z M159.618,236.854c0.132,0,0.261-0.022,0.386-0.066
		c0.124-0.044,0.236-0.104,0.335-0.182c0.099-0.076,0.18-0.166,0.242-0.27c0.062-0.103,0.094-0.213,0.094-0.33
		c0-0.293-0.088-0.496-0.265-0.61c-0.176-0.113-0.483-0.171-0.924-0.171c-0.234,0-0.42,0.004-0.556,0.012s-0.266,0.015-0.391,0.021
		v1.596H159.618z M158.54,239.295c0.14,0.016,0.277,0.025,0.413,0.033s0.295,0.012,0.479,0.012c0.491,0,0.855-0.07,1.095-0.209
		c0.238-0.14,0.357-0.379,0.357-0.716c0-0.264-0.102-0.479-0.303-0.644c-0.202-0.164-0.56-0.247-1.072-0.247h-0.969V239.295z"/>
	<path fill="#444444" d="M166.108,235.303h-1.595c-0.021,0.308-0.044,0.639-0.066,0.995c-0.021,0.355-0.055,0.712-0.099,1.067
		s-0.103,0.696-0.176,1.022c-0.073,0.327-0.167,0.614-0.28,0.864c-0.114,0.248-0.253,0.449-0.418,0.599
		c-0.165,0.15-0.361,0.226-0.589,0.226c-0.14,0-0.261-0.008-0.363-0.021c-0.103-0.016-0.194-0.041-0.274-0.078l0.132-0.736
		c0.088,0.029,0.183,0.044,0.286,0.044c0.146,0,0.278-0.062,0.396-0.187s0.22-0.361,0.309-0.71c0.088-0.349,0.161-0.831,0.22-1.446
		c0.059-0.616,0.099-1.419,0.121-2.409h3.277v5.5h-0.88V235.303z"/>
	<path fill="#444444" d="M171.422,237.756l-0.847,0.131l-1.452,2.146h-1.067l1.32-1.881l0.44-0.407
		c-0.382-0.059-0.706-0.213-0.974-0.462c-0.269-0.249-0.401-0.587-0.401-1.013c0-0.329,0.057-0.611,0.17-0.846
		c0.113-0.235,0.276-0.43,0.489-0.584s0.466-0.266,0.76-0.335c0.293-0.069,0.623-0.104,0.989-0.104c0.271,0,0.524,0.018,0.76,0.055
		c0.234,0.037,0.465,0.077,0.692,0.121v5.456h-0.88V237.756z M171.422,235.281c-0.096-0.036-0.202-0.063-0.319-0.083
		c-0.117-0.018-0.22-0.027-0.308-0.027c-0.47,0-0.827,0.084-1.072,0.254c-0.246,0.168-0.369,0.436-0.369,0.803
		c0,0.33,0.131,0.584,0.391,0.764c0.261,0.18,0.604,0.27,1.028,0.27c0.008,0,0.019,0,0.033,0s0.044,0,0.088,0
		s0.106-0.002,0.188-0.005c0.08-0.004,0.194-0.009,0.341-0.017V235.281z"/>
	<path fill="#444444" d="M178.176,240.165c-0.396,0-0.735-0.061-1.018-0.182s-0.514-0.293-0.693-0.517s-0.315-0.495-0.407-0.813
		c-0.092-0.32-0.148-0.67-0.17-1.051h-1.101v2.431h-0.88v-5.5h0.88v2.299h1.111c0.059-0.784,0.273-1.386,0.644-1.804
		s0.922-0.627,1.655-0.627c0.403,0,0.746,0.068,1.028,0.203c0.282,0.137,0.514,0.33,0.693,0.583s0.31,0.558,0.391,0.913
		s0.121,0.75,0.121,1.183c0,0.931-0.186,1.645-0.556,2.14C179.505,239.917,178.938,240.165,178.176,240.165z M176.745,237.283
		c0,0.286,0.022,0.558,0.066,0.813c0.044,0.258,0.122,0.482,0.232,0.678c0.11,0.193,0.26,0.346,0.447,0.455
		c0.188,0.111,0.421,0.166,0.701,0.166c0.471,0,0.81-0.171,1.016-0.512c0.206-0.342,0.31-0.875,0.31-1.601
		c0-0.286-0.021-0.558-0.061-0.813c-0.041-0.258-0.112-0.482-0.216-0.678c-0.103-0.193-0.239-0.346-0.408-0.455
		c-0.17-0.111-0.387-0.166-0.651-0.166c-0.509,0-0.875,0.171-1.1,0.512C176.857,236.024,176.745,236.557,176.745,237.283z"/>
	<path fill="#444444" d="M182.389,234.533v1.496c0,0.198,0.011,0.376,0.033,0.533c0.021,0.158,0.065,0.294,0.132,0.407
		s0.161,0.201,0.286,0.264c0.124,0.062,0.289,0.094,0.495,0.094c0.33,0,0.601-0.037,0.813-0.109
		c0.213-0.074,0.374-0.154,0.484-0.242v-2.442h0.88v5.5h-0.88v-2.31c-0.117,0.072-0.292,0.154-0.522,0.242
		c-0.231,0.088-0.549,0.131-0.951,0.131c-0.271,0-0.51-0.029-0.716-0.088c-0.205-0.059-0.377-0.16-0.517-0.308
		c-0.14-0.146-0.244-0.341-0.313-0.583c-0.07-0.242-0.104-0.547-0.104-0.913v-1.672H182.389z"/>
	<path fill="#444444" d="M190.639,236.777l0.032-0.683h-0.032l-0.451,0.705l-2.476,3.233h-0.506v-5.5h0.88v3.354l-0.032,0.649h0.044
		l0.429-0.683l2.475-3.321h0.518v5.5h-0.88V236.777z"/>
	<path fill="#444444" d="M128.144,250.801h-2.486v2.432h-0.88v-5.5h0.88v2.299h2.486v-2.299h0.88v5.5h-0.88V250.801z"/>
	<path fill="#444444" d="M130.409,250.483c0-0.932,0.207-1.645,0.621-2.141c0.415-0.494,1.011-0.742,1.788-0.742
		c0.41,0,0.768,0.068,1.072,0.203c0.305,0.137,0.556,0.33,0.754,0.584c0.197,0.253,0.344,0.557,0.439,0.912
		c0.096,0.356,0.144,0.75,0.144,1.184c0,0.931-0.208,1.645-0.622,2.139c-0.414,0.495-1.01,0.742-1.787,0.742
		c-0.411,0-0.769-0.067-1.072-0.203c-0.305-0.135-0.556-0.33-0.754-0.582c-0.198-0.254-0.345-0.559-0.44-0.914
		C130.457,251.309,130.409,250.915,130.409,250.483z M131.322,250.483c0,0.278,0.027,0.546,0.082,0.803
		c0.056,0.256,0.142,0.48,0.259,0.671s0.271,0.345,0.462,0.462s0.422,0.176,0.693,0.176c0.997,0.008,1.496-0.696,1.496-2.111
		c0-0.287-0.028-0.558-0.083-0.814s-0.141-0.48-0.259-0.671c-0.117-0.19-0.271-0.343-0.462-0.456
		c-0.19-0.114-0.422-0.171-0.692-0.171C131.82,248.364,131.322,249.067,131.322,250.483z"/>
	<path fill="#444444" d="M136.612,247.744c0.257-0.015,0.526-0.033,0.809-0.056c0.282-0.021,0.633-0.033,1.051-0.033
		c0.726,0,1.246,0.112,1.562,0.336c0.315,0.225,0.474,0.562,0.474,1.018c0,0.257-0.075,0.508-0.226,0.754s-0.398,0.427-0.742,0.545
		v0.043c0.433,0.081,0.736,0.231,0.912,0.451c0.177,0.221,0.265,0.514,0.265,0.881c0,0.571-0.206,0.986-0.616,1.242
		c-0.411,0.257-1.026,0.385-1.848,0.385c-0.309,0-0.595-0.009-0.858-0.027c-0.264-0.018-0.524-0.038-0.781-0.061V247.744z
		 M138.57,250.053c0.132,0,0.261-0.021,0.386-0.066c0.124-0.043,0.236-0.104,0.335-0.181s0.18-0.167,0.242-0.27
		s0.094-0.213,0.094-0.33c0-0.294-0.088-0.497-0.265-0.61c-0.176-0.113-0.483-0.171-0.924-0.171c-0.234,0-0.42,0.004-0.556,0.011
		c-0.136,0.008-0.266,0.016-0.391,0.022v1.595H138.57z M137.492,252.496c0.14,0.015,0.277,0.025,0.413,0.032
		c0.136,0.008,0.295,0.012,0.479,0.012c0.491,0,0.855-0.07,1.095-0.209c0.238-0.139,0.357-0.378,0.357-0.715
		c0-0.264-0.102-0.479-0.303-0.645c-0.202-0.164-0.56-0.246-1.072-0.246h-0.969V252.496z"/>
	<path fill="#444444" d="M145.534,249.977l0.032-0.683h-0.032l-0.451,0.704l-2.476,3.234h-0.506v-5.5h0.88v3.354l-0.032,0.649h0.044
		l0.429-0.683l2.475-3.321h0.518v5.5h-0.88V249.977z"/>
	<path fill="#444444" d="M149.549,250.417l-1.848-2.684h1.077l1.046,1.518l0.308,0.627l0.319-0.627l1.066-1.518h0.99l-1.859,2.64
		l1.97,2.86h-1.046l-1.165-1.672l-0.33-0.66l-0.342,0.66l-1.188,1.672h-0.979L149.549,250.417z"/>
	<path fill="#444444" d="M158.888,253.276c-0.125,0.045-0.255,0.07-0.391,0.078c-0.136,0.007-0.259,0.01-0.368,0.01
		c-0.668,0-1.182-0.234-1.54-0.703c-0.359-0.469-0.539-1.195-0.539-2.178c0-0.939,0.197-1.646,0.594-2.123
		c0.396-0.477,0.968-0.715,1.716-0.715c0.205,0,0.381,0.014,0.528,0.043v-2.156h0.836v2.168c0.132-0.022,0.249-0.037,0.352-0.045
		c0.103-0.006,0.202-0.01,0.297-0.01c0.727,0,1.272,0.211,1.64,0.632c0.366,0.422,0.55,1.12,0.55,2.096
		c0,0.462-0.05,0.878-0.148,1.249c-0.1,0.369-0.244,0.684-0.435,0.939c-0.19,0.258-0.424,0.455-0.698,0.594
		c-0.275,0.14-0.593,0.209-0.952,0.209c-0.065,0-0.163-0.005-0.291-0.016c-0.129-0.012-0.233-0.031-0.313-0.061v2.145h-0.836
		V253.276z M158.349,252.638c0.088,0,0.176-0.003,0.264-0.011s0.184-0.021,0.286-0.044v-4.169c-0.088-0.015-0.171-0.025-0.247-0.033
		c-0.077-0.008-0.171-0.011-0.281-0.011c-0.454,0-0.809,0.171-1.062,0.511c-0.253,0.342-0.379,0.875-0.379,1.602
		c0,0.308,0.027,0.594,0.082,0.857c0.056,0.264,0.142,0.493,0.259,0.688s0.266,0.345,0.445,0.451S158.106,252.638,158.349,252.638z
		 M160.207,248.371c-0.088,0-0.166,0.001-0.236,0.005c-0.069,0.004-0.155,0.021-0.258,0.05v4.181
		c0.073,0.014,0.155,0.023,0.247,0.027s0.192,0.005,0.303,0.005c0.469,0,0.823-0.194,1.062-0.583s0.357-0.949,0.357-1.683
		c0-0.624-0.108-1.112-0.325-1.469C161.141,248.548,160.758,248.371,160.207,248.371z"/>
	<path fill="#444444" d="M163.892,246.061c0-0.17,0.057-0.314,0.171-0.436c0.113-0.121,0.259-0.182,0.435-0.182
		s0.326,0.061,0.451,0.182c0.124,0.121,0.187,0.266,0.187,0.436c0,0.168-0.062,0.308-0.187,0.418
		c-0.125,0.109-0.275,0.164-0.451,0.164s-0.321-0.055-0.435-0.164C163.948,246.369,163.892,246.229,163.892,246.061z
		 M164.079,247.733h0.88v5.5h-0.88V247.733z"/>
	<path fill="#444444" d="M167.412,247.733v1.496c0,0.197,0.011,0.375,0.033,0.533c0.021,0.158,0.065,0.293,0.132,0.406
		c0.066,0.114,0.161,0.202,0.286,0.265c0.124,0.062,0.289,0.093,0.495,0.093c0.33,0,0.601-0.036,0.813-0.109
		s0.374-0.154,0.484-0.242v-2.441h0.88v5.5h-0.88v-2.311c-0.117,0.073-0.292,0.154-0.522,0.242
		c-0.231,0.088-0.549,0.132-0.951,0.132c-0.271,0-0.51-0.029-0.716-0.088c-0.205-0.059-0.377-0.161-0.517-0.308
		s-0.244-0.342-0.313-0.584c-0.07-0.242-0.104-0.546-0.104-0.912v-1.672H167.412z"/>
	<path fill="#444444" d="M171.922,252.727c0-0.199,0.057-0.354,0.171-0.469c0.113-0.113,0.266-0.17,0.456-0.17
		c0.198,0,0.355,0.057,0.473,0.17c0.117,0.114,0.177,0.27,0.177,0.469c0,0.189-0.06,0.344-0.177,0.461s-0.274,0.176-0.473,0.176
		c-0.19,0-0.343-0.059-0.456-0.176C171.979,253.071,171.922,252.917,171.922,252.727z"/>
	<path fill="#444444" d="M174.99,252.727c0-0.199,0.057-0.354,0.171-0.469c0.113-0.113,0.266-0.17,0.456-0.17
		c0.198,0,0.355,0.057,0.473,0.17c0.117,0.114,0.177,0.27,0.177,0.469c0,0.189-0.06,0.344-0.177,0.461s-0.274,0.176-0.473,0.176
		c-0.19,0-0.343-0.059-0.456-0.176C175.047,253.071,174.99,252.917,174.99,252.727z"/>
	<path fill="#444444" d="M178.059,252.727c0-0.199,0.057-0.354,0.171-0.469c0.113-0.113,0.266-0.17,0.456-0.17
		c0.198,0,0.355,0.057,0.473,0.17c0.117,0.114,0.177,0.27,0.177,0.469c0,0.189-0.06,0.344-0.177,0.461s-0.274,0.176-0.473,0.176
		c-0.19,0-0.343-0.059-0.456-0.176C178.115,253.071,178.059,252.917,178.059,252.727z"/>
</g>
<g>
	<path fill="#444444" d="M17.218,204.027c0-0.198,0.057-0.354,0.17-0.468c0.114-0.113,0.266-0.17,0.457-0.17
		c0.198,0,0.355,0.057,0.473,0.17s0.176,0.27,0.176,0.468c0,0.19-0.059,0.345-0.176,0.462s-0.274,0.176-0.473,0.176
		c-0.191,0-0.343-0.059-0.457-0.176C17.274,204.372,17.218,204.217,17.218,204.027z M20.012,204.027c0-0.198,0.057-0.354,0.17-0.468
		c0.114-0.113,0.266-0.17,0.457-0.17c0.198,0,0.355,0.057,0.473,0.17s0.176,0.27,0.176,0.468c0,0.19-0.059,0.345-0.176,0.462
		s-0.274,0.176-0.473,0.176c-0.191,0-0.343-0.059-0.457-0.176C20.068,204.372,20.012,204.217,20.012,204.027z M22.806,204.027
		c0-0.198,0.057-0.354,0.17-0.468c0.114-0.113,0.267-0.17,0.457-0.17c0.198,0,0.355,0.057,0.473,0.17s0.176,0.27,0.176,0.468
		c0,0.19-0.059,0.345-0.176,0.462s-0.274,0.176-0.473,0.176c-0.19,0-0.343-0.059-0.457-0.176
		C22.862,204.372,22.806,204.217,22.806,204.027z"/>
	<path fill="#444444" d="M29.063,199.803h-1.716v4.729h-0.88v-4.729h-1.716v-0.771h4.312V199.803z"/>
	<path fill="#444444" d="M29.845,199.44c0.279-0.169,0.604-0.293,0.974-0.374s0.757-0.121,1.16-0.121
		c0.382,0,0.688,0.052,0.919,0.153c0.231,0.104,0.407,0.237,0.528,0.402c0.121,0.164,0.201,0.346,0.241,0.545
		c0.041,0.197,0.061,0.396,0.061,0.594c0,0.439-0.011,0.869-0.032,1.287c-0.022,0.418-0.033,0.813-0.033,1.188
		c0,0.271,0.011,0.527,0.033,0.77c0.021,0.242,0.062,0.467,0.121,0.672h-0.649l-0.231-0.771h-0.055
		c-0.066,0.103-0.148,0.204-0.247,0.303c-0.1,0.099-0.219,0.187-0.357,0.264c-0.14,0.077-0.301,0.142-0.484,0.192
		s-0.393,0.077-0.627,0.077c-0.235,0-0.453-0.036-0.654-0.11c-0.202-0.072-0.376-0.178-0.522-0.312
		c-0.147-0.137-0.263-0.299-0.347-0.49c-0.085-0.19-0.127-0.406-0.127-0.648c0-0.322,0.066-0.592,0.198-0.809
		s0.317-0.389,0.556-0.518c0.238-0.128,0.524-0.22,0.857-0.275c0.334-0.055,0.702-0.082,1.106-0.082c0.103,0,0.203,0,0.302,0
		c0.1,0,0.2,0.008,0.303,0.022c0.022-0.22,0.033-0.419,0.033-0.595c0-0.402-0.081-0.686-0.242-0.847s-0.455-0.241-0.88-0.241
		c-0.125,0-0.259,0.009-0.401,0.027c-0.144,0.02-0.29,0.045-0.44,0.08c-0.15,0.033-0.293,0.075-0.429,0.124
		s-0.255,0.104-0.357,0.164L29.845,199.44z M31.407,203.85c0.205,0,0.389-0.027,0.55-0.082s0.301-0.125,0.418-0.209
		s0.215-0.178,0.291-0.28c0.077-0.103,0.134-0.202,0.171-0.297v-0.913c-0.103-0.008-0.207-0.013-0.313-0.017
		c-0.106-0.003-0.211-0.005-0.313-0.005c-0.228,0-0.449,0.012-0.665,0.038c-0.217,0.025-0.407,0.073-0.572,0.143
		s-0.297,0.165-0.396,0.286c-0.099,0.121-0.148,0.273-0.148,0.457c0,0.256,0.092,0.467,0.275,0.632
		C30.886,203.768,31.121,203.85,31.407,203.85z"/>
	<path fill="#444444" d="M41.691,202.102h-2.486v2.431h-0.88v-5.5h0.88v2.299h2.486v-2.299h0.88v5.5h-0.88V202.102z"/>
	<path fill="#444444" d="M48.28,204.092c-0.221,0.176-0.497,0.316-0.831,0.418c-0.334,0.104-0.688,0.154-1.062,0.154
		c-0.418,0-0.78-0.068-1.089-0.203c-0.308-0.136-0.561-0.33-0.759-0.583s-0.345-0.556-0.44-0.907
		c-0.095-0.353-0.143-0.748-0.143-1.188c0-0.938,0.209-1.653,0.627-2.146c0.418-0.49,1.016-0.736,1.793-0.736
		c0.249,0,0.499,0.027,0.748,0.082s0.473,0.16,0.671,0.314c0.198,0.153,0.359,0.371,0.484,0.654
		c0.124,0.281,0.187,0.654,0.187,1.116c0,0.241-0.021,0.51-0.065,0.803H44.87c0,0.323,0.033,0.608,0.099,0.858
		c0.066,0.249,0.169,0.46,0.309,0.633c0.139,0.172,0.32,0.304,0.544,0.396s0.497,0.138,0.819,0.138c0.25,0,0.499-0.045,0.748-0.133
		c0.25-0.088,0.437-0.189,0.562-0.308L48.28,204.092z M46.388,199.67c-0.433,0-0.779,0.114-1.039,0.342
		c-0.261,0.227-0.416,0.615-0.468,1.166h2.729c0-0.558-0.106-0.948-0.319-1.172S46.776,199.67,46.388,199.67z"/>
	<path fill="#444444" d="M55.474,199.803h-1.595c-0.021,0.308-0.044,0.639-0.066,0.995c-0.021,0.355-0.055,0.712-0.099,1.067
		s-0.103,0.696-0.176,1.022c-0.073,0.327-0.167,0.614-0.28,0.864c-0.114,0.248-0.253,0.449-0.418,0.599
		c-0.165,0.15-0.361,0.226-0.589,0.226c-0.14,0-0.261-0.008-0.363-0.021c-0.103-0.016-0.194-0.041-0.274-0.078l0.132-0.736
		c0.088,0.029,0.183,0.044,0.286,0.044c0.146,0,0.278-0.062,0.396-0.187s0.22-0.361,0.309-0.71c0.088-0.349,0.161-0.831,0.22-1.446
		c0.059-0.616,0.099-1.419,0.121-2.409h3.277v5.5h-0.88V199.803z"/>
	<path fill="#444444" d="M57.96,199.44c0.279-0.169,0.604-0.293,0.974-0.374s0.757-0.121,1.16-0.121
		c0.382,0,0.688,0.052,0.919,0.153c0.231,0.104,0.407,0.237,0.528,0.402c0.121,0.164,0.201,0.346,0.241,0.545
		c0.041,0.197,0.061,0.396,0.061,0.594c0,0.439-0.011,0.869-0.032,1.287c-0.022,0.418-0.033,0.813-0.033,1.188
		c0,0.271,0.011,0.527,0.033,0.77c0.021,0.242,0.062,0.467,0.121,0.672h-0.649l-0.231-0.771h-0.055
		c-0.066,0.103-0.148,0.204-0.247,0.303c-0.1,0.099-0.219,0.187-0.357,0.264c-0.14,0.077-0.301,0.142-0.484,0.192
		s-0.393,0.077-0.627,0.077c-0.235,0-0.453-0.036-0.654-0.11c-0.202-0.072-0.376-0.178-0.522-0.312
		c-0.147-0.137-0.263-0.299-0.347-0.49c-0.085-0.19-0.127-0.406-0.127-0.648c0-0.322,0.066-0.592,0.198-0.809
		s0.317-0.389,0.556-0.518c0.238-0.128,0.524-0.22,0.857-0.275c0.334-0.055,0.702-0.082,1.106-0.082c0.103,0,0.203,0,0.302,0
		c0.1,0,0.2,0.008,0.303,0.022c0.022-0.22,0.033-0.419,0.033-0.595c0-0.402-0.081-0.686-0.242-0.847s-0.455-0.241-0.88-0.241
		c-0.125,0-0.259,0.009-0.401,0.027c-0.144,0.02-0.29,0.045-0.44,0.08c-0.15,0.033-0.293,0.075-0.429,0.124
		s-0.255,0.104-0.357,0.164L57.96,199.44z M59.522,203.85c0.205,0,0.389-0.027,0.55-0.082s0.301-0.125,0.418-0.209
		s0.215-0.178,0.291-0.28c0.077-0.103,0.134-0.202,0.171-0.297v-0.913c-0.103-0.008-0.207-0.013-0.313-0.017
		c-0.106-0.003-0.211-0.005-0.313-0.005c-0.228,0-0.449,0.012-0.665,0.038c-0.217,0.025-0.407,0.073-0.572,0.143
		s-0.297,0.165-0.396,0.286c-0.099,0.121-0.148,0.273-0.148,0.457c0,0.256,0.092,0.467,0.275,0.632
		C59.001,203.768,59.236,203.85,59.522,203.85z"/>
	<path fill="#444444" d="M68.047,201.266l0.066-1.045h-0.055l-0.396,0.847l-1.331,2.155h-0.308l-1.386-2.155l-0.363-0.847H64.23
		l0.088,1.033v3.278h-0.814v-5.5h0.869l1.54,2.464l0.319,0.639h0.021l0.33-0.66l1.441-2.442h0.88v5.5h-0.858V201.266z"/>
	<path fill="#444444" d="M70.511,199.44c0.279-0.169,0.604-0.293,0.974-0.374s0.757-0.121,1.16-0.121
		c0.382,0,0.688,0.052,0.919,0.153c0.231,0.104,0.407,0.237,0.528,0.402c0.121,0.164,0.201,0.346,0.241,0.545
		c0.041,0.197,0.061,0.396,0.061,0.594c0,0.439-0.011,0.869-0.032,1.287c-0.022,0.418-0.033,0.813-0.033,1.188
		c0,0.271,0.011,0.527,0.033,0.77c0.021,0.242,0.062,0.467,0.121,0.672h-0.649l-0.231-0.771h-0.055
		c-0.066,0.103-0.148,0.204-0.247,0.303c-0.1,0.099-0.219,0.187-0.357,0.264c-0.14,0.077-0.301,0.142-0.484,0.192
		s-0.393,0.077-0.627,0.077c-0.235,0-0.453-0.036-0.654-0.11c-0.202-0.072-0.376-0.178-0.522-0.312
		c-0.147-0.137-0.263-0.299-0.347-0.49c-0.085-0.19-0.127-0.406-0.127-0.648c0-0.322,0.066-0.592,0.198-0.809
		s0.317-0.389,0.556-0.518c0.238-0.128,0.524-0.22,0.857-0.275c0.334-0.055,0.702-0.082,1.106-0.082c0.103,0,0.203,0,0.302,0
		c0.1,0,0.2,0.008,0.303,0.022c0.022-0.22,0.033-0.419,0.033-0.595c0-0.402-0.081-0.686-0.242-0.847s-0.455-0.241-0.88-0.241
		c-0.125,0-0.259,0.009-0.401,0.027c-0.144,0.02-0.29,0.045-0.44,0.08c-0.15,0.033-0.293,0.075-0.429,0.124
		s-0.255,0.104-0.357,0.164L70.511,199.44z M72.073,203.85c0.205,0,0.389-0.027,0.55-0.082s0.301-0.125,0.418-0.209
		s0.215-0.178,0.291-0.28c0.077-0.103,0.134-0.202,0.171-0.297v-0.913c-0.103-0.008-0.207-0.013-0.313-0.017
		c-0.106-0.003-0.211-0.005-0.313-0.005c-0.228,0-0.449,0.012-0.665,0.038c-0.217,0.025-0.407,0.073-0.572,0.143
		s-0.297,0.165-0.396,0.286c-0.099,0.121-0.148,0.273-0.148,0.457c0,0.256,0.092,0.467,0.275,0.632
		C71.552,203.768,71.787,203.85,72.073,203.85z"/>
	<path fill="#444444" d="M80.323,204.665c-0.396,0-0.735-0.061-1.018-0.182s-0.514-0.293-0.693-0.517s-0.315-0.495-0.407-0.813
		c-0.092-0.32-0.148-0.67-0.17-1.051h-1.101v2.431h-0.88v-5.5h0.88v2.299h1.111c0.059-0.784,0.273-1.386,0.644-1.804
		s0.922-0.627,1.655-0.627c0.403,0,0.746,0.068,1.028,0.203c0.282,0.137,0.514,0.33,0.693,0.583s0.31,0.558,0.391,0.913
		s0.121,0.75,0.121,1.183c0,0.931-0.186,1.645-0.556,2.14C81.652,204.417,81.086,204.665,80.323,204.665z M78.893,201.783
		c0,0.286,0.022,0.558,0.066,0.813c0.044,0.258,0.122,0.482,0.232,0.678c0.11,0.193,0.26,0.346,0.447,0.455
		c0.188,0.111,0.421,0.166,0.701,0.166c0.471,0,0.81-0.171,1.016-0.512c0.206-0.342,0.31-0.875,0.31-1.601
		c0-0.286-0.021-0.558-0.061-0.813c-0.041-0.258-0.112-0.482-0.216-0.678c-0.103-0.193-0.239-0.346-0.408-0.455
		c-0.17-0.111-0.387-0.166-0.651-0.166c-0.509,0-0.875,0.171-1.1,0.512C79.005,200.524,78.893,201.057,78.893,201.783z"/>
	<path fill="#444444" d="M84.536,199.033v1.496c0,0.198,0.011,0.376,0.033,0.533c0.021,0.158,0.065,0.294,0.132,0.407
		s0.161,0.201,0.286,0.264c0.124,0.062,0.289,0.094,0.495,0.094c0.33,0,0.601-0.037,0.813-0.109
		c0.213-0.074,0.374-0.154,0.484-0.242v-2.442h0.88v5.5h-0.88v-2.31c-0.117,0.072-0.292,0.154-0.522,0.242
		c-0.231,0.088-0.549,0.131-0.951,0.131c-0.271,0-0.51-0.029-0.716-0.088c-0.205-0.059-0.377-0.16-0.517-0.308
		c-0.14-0.146-0.244-0.341-0.313-0.583c-0.07-0.242-0.104-0.547-0.104-0.913v-1.672H84.536z"/>
	<path fill="#444444" d="M92.786,201.277l0.032-0.683h-0.032l-0.451,0.705l-2.476,3.233h-0.506v-5.5h0.88v3.354l-0.032,0.649h0.044
		l0.429-0.683l2.475-3.321h0.518v5.5h-0.88V201.277z"/>
	<path fill="#444444" d="M29.581,212.639c0.279-0.168,0.604-0.293,0.974-0.373c0.37-0.082,0.757-0.121,1.16-0.121
		c0.382,0,0.688,0.051,0.919,0.153s0.407,0.237,0.528,0.401c0.121,0.165,0.201,0.347,0.241,0.545
		c0.041,0.197,0.061,0.396,0.061,0.594c0,0.439-0.011,0.869-0.032,1.287c-0.022,0.418-0.033,0.814-0.033,1.188
		c0,0.271,0.011,0.528,0.033,0.771c0.021,0.241,0.062,0.466,0.121,0.671h-0.649l-0.231-0.77h-0.055
		c-0.066,0.103-0.148,0.203-0.247,0.303c-0.1,0.098-0.219,0.187-0.357,0.264c-0.14,0.076-0.301,0.141-0.484,0.192
		c-0.184,0.051-0.393,0.077-0.627,0.077c-0.235,0-0.453-0.037-0.654-0.11c-0.202-0.073-0.376-0.178-0.522-0.313
		c-0.147-0.136-0.263-0.299-0.347-0.49c-0.085-0.189-0.127-0.406-0.127-0.648c0-0.322,0.066-0.592,0.198-0.809
		c0.132-0.216,0.317-0.389,0.556-0.517s0.524-0.22,0.857-0.275c0.334-0.055,0.702-0.083,1.106-0.083c0.103,0,0.203,0,0.302,0
		c0.1,0,0.2,0.008,0.303,0.023c0.022-0.221,0.033-0.419,0.033-0.595c0-0.403-0.081-0.686-0.242-0.847
		c-0.161-0.162-0.455-0.242-0.88-0.242c-0.125,0-0.259,0.01-0.401,0.028c-0.144,0.019-0.29,0.045-0.44,0.079
		s-0.293,0.076-0.429,0.125s-0.255,0.104-0.357,0.164L29.581,212.639z M31.144,217.05c0.205,0,0.389-0.027,0.55-0.083
		c0.161-0.055,0.301-0.124,0.418-0.209c0.117-0.084,0.215-0.178,0.291-0.279c0.077-0.104,0.134-0.202,0.171-0.297v-0.914
		c-0.103-0.007-0.207-0.012-0.313-0.016s-0.211-0.006-0.313-0.006c-0.228,0-0.449,0.013-0.665,0.039
		c-0.217,0.025-0.407,0.072-0.572,0.143c-0.165,0.069-0.297,0.164-0.396,0.285c-0.099,0.121-0.148,0.273-0.148,0.457
		c0,0.257,0.092,0.467,0.275,0.633C30.622,216.967,30.857,217.05,31.144,217.05z"/>
	<path fill="#444444" d="M35.125,212.244c0.257-0.015,0.526-0.033,0.809-0.056c0.282-0.021,0.633-0.033,1.051-0.033
		c0.726,0,1.246,0.112,1.562,0.336c0.315,0.225,0.474,0.562,0.474,1.018c0,0.257-0.075,0.508-0.226,0.754s-0.398,0.427-0.742,0.545
		v0.043c0.433,0.081,0.736,0.231,0.912,0.451c0.177,0.221,0.265,0.514,0.265,0.881c0,0.571-0.206,0.986-0.616,1.242
		c-0.411,0.257-1.026,0.385-1.848,0.385c-0.309,0-0.595-0.009-0.858-0.027c-0.264-0.018-0.524-0.038-0.781-0.061V212.244z
		 M37.083,214.553c0.132,0,0.261-0.021,0.386-0.066c0.124-0.043,0.236-0.104,0.335-0.181s0.18-0.167,0.242-0.27
		s0.094-0.213,0.094-0.33c0-0.294-0.088-0.497-0.265-0.61c-0.176-0.113-0.483-0.171-0.924-0.171c-0.234,0-0.42,0.004-0.556,0.011
		c-0.136,0.008-0.266,0.016-0.391,0.022v1.595H37.083z M36.005,216.996c0.14,0.015,0.277,0.025,0.413,0.032
		c0.136,0.008,0.295,0.012,0.479,0.012c0.491,0,0.855-0.07,1.095-0.209c0.238-0.139,0.357-0.378,0.357-0.715
		c0-0.264-0.102-0.479-0.303-0.645c-0.202-0.164-0.56-0.246-1.072-0.246h-0.969V216.996z"/>
	<path fill="#444444" d="M44.112,213.002h-1.716v4.73h-0.88v-4.73h-1.716v-0.77h4.312V213.002z"/>
	<path fill="#444444" d="M44.498,214.983c0-0.932,0.207-1.645,0.621-2.141c0.415-0.494,1.011-0.742,1.788-0.742
		c0.41,0,0.768,0.068,1.072,0.203c0.305,0.137,0.556,0.33,0.754,0.584c0.197,0.253,0.344,0.557,0.439,0.912
		c0.096,0.356,0.144,0.75,0.144,1.184c0,0.931-0.208,1.645-0.622,2.139c-0.414,0.495-1.01,0.742-1.787,0.742
		c-0.411,0-0.769-0.067-1.072-0.203c-0.305-0.135-0.556-0.33-0.754-0.582c-0.198-0.254-0.345-0.559-0.44-0.914
		C44.546,215.809,44.498,215.415,44.498,214.983z M45.411,214.983c0,0.278,0.027,0.546,0.082,0.803
		c0.056,0.256,0.142,0.48,0.259,0.671s0.271,0.345,0.462,0.462s0.422,0.176,0.693,0.176c0.997,0.008,1.496-0.696,1.496-2.111
		c0-0.287-0.028-0.558-0.083-0.814s-0.141-0.48-0.259-0.671c-0.117-0.19-0.271-0.343-0.462-0.456
		c-0.19-0.114-0.422-0.171-0.692-0.171C45.909,212.864,45.411,213.567,45.411,214.983z"/>
	<path fill="#444444" d="M54.023,213.002h-1.716v4.73h-0.88v-4.73h-1.716v-0.77h4.312V213.002z"/>
	<path fill="#444444" d="M58.732,217.292c-0.221,0.176-0.497,0.315-0.831,0.418s-0.688,0.153-1.062,0.153
		c-0.418,0-0.78-0.067-1.089-0.203c-0.308-0.135-0.561-0.33-0.759-0.582c-0.198-0.254-0.345-0.557-0.44-0.908
		c-0.095-0.352-0.143-0.748-0.143-1.188c0-0.939,0.209-1.654,0.627-2.146s1.016-0.737,1.793-0.737c0.249,0,0.499,0.027,0.748,0.083
		c0.249,0.055,0.473,0.159,0.671,0.313s0.359,0.372,0.484,0.654c0.124,0.282,0.187,0.654,0.187,1.117
		c0,0.241-0.021,0.51-0.065,0.803h-3.531c0,0.322,0.033,0.608,0.099,0.857c0.066,0.25,0.169,0.461,0.309,0.633
		c0.139,0.172,0.32,0.305,0.544,0.396s0.497,0.137,0.819,0.137c0.25,0,0.499-0.044,0.748-0.132c0.25-0.088,0.437-0.19,0.562-0.308
		L58.732,217.292z M56.84,212.871c-0.433,0-0.779,0.114-1.039,0.341c-0.261,0.228-0.416,0.616-0.468,1.166h2.729
		c0-0.557-0.106-0.947-0.319-1.172C57.529,212.983,57.229,212.871,56.84,212.871z"/>
	<path fill="#444444" d="M63.935,217.37c-0.22,0.161-0.48,0.284-0.78,0.368c-0.301,0.085-0.616,0.126-0.946,0.126
		c-0.426,0-0.785-0.067-1.078-0.203c-0.293-0.135-0.533-0.33-0.721-0.582c-0.187-0.254-0.322-0.559-0.407-0.914
		c-0.084-0.355-0.126-0.75-0.126-1.182c0-0.932,0.205-1.645,0.616-2.141c0.41-0.494,1.001-0.742,1.771-0.742
		c0.353,0,0.651,0.027,0.896,0.083c0.246,0.055,0.468,0.134,0.666,0.236l-0.253,0.759c-0.169-0.096-0.356-0.17-0.562-0.225
		c-0.205-0.056-0.425-0.083-0.66-0.083c-1.041,0-1.562,0.704-1.562,2.112c0,0.278,0.027,0.544,0.082,0.797
		c0.056,0.253,0.146,0.477,0.275,0.671c0.128,0.194,0.297,0.351,0.506,0.468s0.468,0.176,0.775,0.176c0.265,0,0.501-0.04,0.71-0.121
		c0.209-0.08,0.379-0.172,0.511-0.275L63.935,217.37z"/>
	<path fill="#444444" d="M68.467,213.002h-1.716v4.73h-0.88v-4.73h-1.716v-0.77h4.312V213.002z"/>
	<path fill="#444444" d="M72.769,214.477l0.032-0.683h-0.032l-0.451,0.704l-2.476,3.234h-0.506v-5.5h0.88v3.354l-0.032,0.649h0.044
		l0.429-0.683l2.475-3.321h0.518v5.5h-0.88V214.477z"/>
	<path fill="#444444" d="M75.034,217.227c0-0.199,0.057-0.354,0.171-0.469c0.113-0.113,0.266-0.17,0.456-0.17
		c0.198,0,0.355,0.057,0.473,0.17c0.117,0.114,0.177,0.27,0.177,0.469c0,0.189-0.06,0.344-0.177,0.461s-0.274,0.176-0.473,0.176
		c-0.19,0-0.343-0.059-0.456-0.176C75.091,217.571,75.034,217.417,75.034,217.227z"/>
	<path fill="#444444" d="M78.103,217.227c0-0.199,0.057-0.354,0.171-0.469c0.113-0.113,0.266-0.17,0.456-0.17
		c0.198,0,0.355,0.057,0.473,0.17c0.117,0.114,0.177,0.27,0.177,0.469c0,0.189-0.06,0.344-0.177,0.461s-0.274,0.176-0.473,0.176
		c-0.19,0-0.343-0.059-0.456-0.176C78.159,217.571,78.103,217.417,78.103,217.227z"/>
	<path fill="#444444" d="M81.171,217.227c0-0.199,0.057-0.354,0.171-0.469c0.113-0.113,0.266-0.17,0.456-0.17
		c0.198,0,0.355,0.057,0.473,0.17c0.117,0.114,0.177,0.27,0.177,0.469c0,0.189-0.06,0.344-0.177,0.461s-0.274,0.176-0.473,0.176
		c-0.19,0-0.343-0.059-0.456-0.176C81.228,217.571,81.171,217.417,81.171,217.227z"/>
</g>
<g>
	<path fill="#444444" d="M16.607,88.027c0-0.198,0.057-0.354,0.17-0.468c0.114-0.113,0.266-0.17,0.457-0.17
		c0.198,0,0.355,0.057,0.473,0.17c0.117,0.114,0.176,0.27,0.176,0.468c0,0.19-0.059,0.345-0.176,0.462s-0.274,0.176-0.473,0.176
		c-0.191,0-0.343-0.059-0.457-0.176C16.664,88.372,16.607,88.217,16.607,88.027z M19.401,88.027c0-0.198,0.057-0.354,0.17-0.468
		c0.114-0.113,0.266-0.17,0.457-0.17c0.198,0,0.355,0.057,0.473,0.17c0.117,0.114,0.176,0.27,0.176,0.468
		c0,0.19-0.059,0.345-0.176,0.462s-0.274,0.176-0.473,0.176c-0.191,0-0.343-0.059-0.457-0.176
		C19.458,88.372,19.401,88.217,19.401,88.027z M22.195,88.027c0-0.198,0.057-0.354,0.17-0.468c0.114-0.113,0.267-0.17,0.457-0.17
		c0.198,0,0.355,0.057,0.473,0.17c0.117,0.114,0.176,0.27,0.176,0.468c0,0.19-0.059,0.345-0.176,0.462s-0.274,0.176-0.473,0.176
		c-0.19,0-0.343-0.059-0.457-0.176C22.252,88.372,22.195,88.217,22.195,88.027z"/>
	<path fill="#444444" d="M25.517,83.044c0.257-0.015,0.526-0.033,0.809-0.055s0.633-0.033,1.051-0.033
		c0.726,0,1.246,0.112,1.562,0.335c0.315,0.224,0.474,0.563,0.474,1.018c0,0.257-0.075,0.508-0.226,0.753
		c-0.15,0.246-0.398,0.427-0.742,0.545v0.044c0.433,0.081,0.736,0.231,0.912,0.451c0.177,0.22,0.265,0.514,0.265,0.88
		c0,0.572-0.206,0.986-0.616,1.243c-0.411,0.257-1.026,0.385-1.848,0.385c-0.309,0-0.595-0.009-0.858-0.028
		c-0.264-0.018-0.524-0.038-0.781-0.061V83.044z M27.475,85.354c0.132,0,0.261-0.022,0.386-0.066
		c0.124-0.044,0.236-0.104,0.335-0.181c0.099-0.077,0.18-0.167,0.242-0.27c0.062-0.103,0.094-0.213,0.094-0.33
		c0-0.293-0.088-0.497-0.265-0.611c-0.176-0.113-0.483-0.17-0.924-0.17c-0.234,0-0.42,0.004-0.556,0.011s-0.266,0.015-0.391,0.022
		v1.595H27.475z M26.396,87.796c0.14,0.015,0.277,0.025,0.413,0.033s0.295,0.011,0.479,0.011c0.491,0,0.855-0.07,1.095-0.209
		c0.238-0.139,0.357-0.378,0.357-0.715c0-0.264-0.102-0.479-0.303-0.644c-0.202-0.165-0.56-0.247-1.072-0.247h-0.969V87.796z"/>
	<path fill="#444444" d="M33.942,83.033h0.605l0.165,0.66h0.044c0.169-0.257,0.387-0.453,0.654-0.589
		c0.268-0.135,0.574-0.203,0.919-0.203c0.732,0,1.279,0.216,1.639,0.649s0.539,1.14,0.539,2.123c0,0.462-0.061,0.878-0.182,1.249
		c-0.121,0.37-0.291,0.684-0.512,0.94c-0.22,0.257-0.485,0.455-0.797,0.594c-0.312,0.139-0.658,0.209-1.04,0.209
		c-0.271,0-0.485-0.016-0.644-0.049c-0.157-0.033-0.328-0.09-0.512-0.17v2.288h-0.88V83.033z M36.165,83.671
		c-0.374,0-0.67,0.097-0.886,0.292c-0.217,0.194-0.368,0.489-0.457,0.885v2.728c0.133,0.103,0.282,0.182,0.451,0.236
		c0.169,0.055,0.393,0.083,0.671,0.083c0.507,0,0.908-0.188,1.205-0.566c0.297-0.377,0.445-0.933,0.445-1.667
		c0-0.3-0.025-0.574-0.077-0.819c-0.051-0.246-0.134-0.455-0.247-0.627c-0.114-0.172-0.261-0.306-0.44-0.402
		C36.65,83.718,36.429,83.671,36.165,83.671z"/>
	<path fill="#444444" d="M43.909,88.093c-0.221,0.176-0.497,0.315-0.831,0.418s-0.688,0.154-1.062,0.154
		c-0.418,0-0.78-0.068-1.089-0.203c-0.308-0.136-0.561-0.33-0.759-0.583c-0.198-0.253-0.345-0.556-0.44-0.908
		c-0.095-0.352-0.143-0.748-0.143-1.188c0-0.938,0.209-1.654,0.627-2.145s1.016-0.737,1.793-0.737c0.249,0,0.499,0.027,0.748,0.083
		c0.249,0.055,0.473,0.159,0.671,0.313c0.198,0.154,0.359,0.372,0.484,0.654c0.124,0.282,0.187,0.655,0.187,1.117
		c0,0.242-0.021,0.51-0.065,0.803h-3.531c0,0.323,0.033,0.609,0.099,0.858c0.066,0.25,0.169,0.46,0.309,0.633
		c0.139,0.172,0.32,0.304,0.544,0.396s0.497,0.137,0.819,0.137c0.25,0,0.499-0.044,0.748-0.132c0.25-0.088,0.437-0.19,0.562-0.308
		L43.909,88.093z M42.017,83.671c-0.433,0-0.779,0.114-1.039,0.341c-0.261,0.228-0.416,0.616-0.468,1.166h2.729
		c0-0.557-0.106-0.948-0.319-1.171S42.405,83.671,42.017,83.671z"/>
	<path fill="#444444" d="M46.01,86.08v-0.715h0.77c0.133,0,0.263-0.022,0.391-0.066c0.129-0.044,0.244-0.104,0.347-0.182
		s0.186-0.168,0.248-0.275c0.062-0.106,0.093-0.218,0.093-0.335c0-0.286-0.099-0.488-0.297-0.605s-0.495-0.176-0.891-0.176
		c-0.286,0-0.549,0.043-0.787,0.128s-0.423,0.167-0.555,0.246l-0.253-0.671c0.22-0.125,0.479-0.234,0.775-0.33
		c0.297-0.095,0.65-0.143,1.062-0.143c1.217,0,1.825,0.451,1.825,1.353c0,0.257-0.082,0.508-0.247,0.753
		c-0.165,0.246-0.401,0.42-0.709,0.522v0.044c0.432,0.081,0.734,0.234,0.907,0.462c0.172,0.227,0.258,0.528,0.258,0.902
		c0,0.235-0.047,0.451-0.143,0.649c-0.096,0.198-0.238,0.371-0.429,0.517c-0.191,0.147-0.431,0.262-0.721,0.347
		c-0.29,0.084-0.625,0.126-1.007,0.126c-0.374,0-0.684-0.033-0.929-0.099c-0.246-0.066-0.468-0.146-0.666-0.242l0.253-0.726
		c0.169,0.095,0.372,0.168,0.61,0.22s0.497,0.077,0.775,0.077c0.447,0,0.789-0.077,1.023-0.231c0.234-0.154,0.352-0.389,0.352-0.704
		c0-0.264-0.109-0.471-0.33-0.622c-0.22-0.15-0.583-0.226-1.089-0.226H46.01z"/>
	<path fill="#444444" d="M51.954,86.597l0.31,1.056h0.055l0.243-1.067l1.071-3.553h0.88l-1.628,4.939
		c-0.125,0.359-0.248,0.708-0.369,1.045s-0.255,0.638-0.401,0.902c-0.146,0.264-0.312,0.475-0.495,0.632s-0.396,0.236-0.638,0.236
		c-0.264,0-0.48-0.037-0.649-0.11l0.154-0.759c0.096,0.037,0.188,0.055,0.275,0.055c0.205,0,0.403-0.108,0.594-0.324
		c0.19-0.217,0.348-0.589,0.473-1.117l-2.211-5.5h1.012L51.954,86.597z"/>
	<path fill="#444444" d="M58.263,83.803h-1.595c-0.021,0.308-0.044,0.64-0.066,0.996c-0.021,0.355-0.055,0.711-0.099,1.067
		c-0.044,0.356-0.103,0.697-0.176,1.023c-0.073,0.327-0.167,0.614-0.28,0.864c-0.114,0.249-0.253,0.449-0.418,0.599
		c-0.165,0.15-0.361,0.226-0.589,0.226c-0.14,0-0.261-0.007-0.363-0.022s-0.194-0.04-0.274-0.077l0.132-0.737
		c0.088,0.029,0.183,0.044,0.286,0.044c0.146,0,0.278-0.062,0.396-0.187c0.117-0.125,0.22-0.361,0.309-0.709
		c0.088-0.348,0.161-0.831,0.22-1.446c0.059-0.616,0.099-1.419,0.121-2.409h3.277v5.5h-0.88V83.803z"/>
	<path fill="#444444" d="M61.717,85.134c0.177-0.029,0.345-0.05,0.507-0.061c0.161-0.011,0.314-0.017,0.462-0.017
		c0.381,0,0.704,0.042,0.968,0.126c0.264,0.084,0.479,0.2,0.644,0.347s0.284,0.321,0.357,0.522s0.11,0.416,0.11,0.644
		c0,0.667-0.2,1.151-0.6,1.452c-0.4,0.301-1.021,0.451-1.865,0.451c-0.469,0-0.957-0.022-1.463-0.066v-5.5h0.88V85.134z
		 M61.717,87.763c0.271,0.044,0.532,0.066,0.781,0.066c0.462,0,0.803-0.09,1.023-0.27c0.22-0.18,0.33-0.435,0.33-0.764
		c0-0.293-0.106-0.536-0.319-0.726c-0.213-0.191-0.546-0.286-1.001-0.286c-0.125,0-0.261,0.004-0.407,0.011
		s-0.282,0.029-0.407,0.066V87.763z"/>
	<path fill="#444444" d="M69.043,83.803h-1.716v4.73h-0.88v-4.73h-1.716v-0.77h4.312V83.803z"/>
	<path fill="#444444" d="M69.824,83.44c0.279-0.169,0.604-0.293,0.974-0.374c0.37-0.081,0.757-0.121,1.16-0.121
		c0.382,0,0.688,0.051,0.919,0.154c0.231,0.103,0.407,0.237,0.528,0.401c0.121,0.165,0.201,0.347,0.241,0.545
		c0.041,0.198,0.061,0.396,0.061,0.594c0,0.44-0.011,0.869-0.032,1.287c-0.022,0.418-0.033,0.814-0.033,1.188
		c0,0.271,0.011,0.528,0.033,0.77c0.021,0.242,0.062,0.466,0.121,0.671h-0.649l-0.231-0.77H72.86
		c-0.066,0.103-0.148,0.204-0.247,0.303c-0.1,0.099-0.219,0.187-0.357,0.264c-0.14,0.077-0.301,0.142-0.484,0.193
		c-0.184,0.051-0.393,0.077-0.627,0.077c-0.235,0-0.453-0.037-0.654-0.11c-0.202-0.073-0.376-0.178-0.522-0.313
		c-0.147-0.136-0.263-0.299-0.347-0.49c-0.085-0.19-0.127-0.407-0.127-0.649c0-0.322,0.066-0.592,0.198-0.809
		c0.132-0.216,0.317-0.388,0.556-0.517s0.524-0.22,0.857-0.275c0.334-0.055,0.702-0.083,1.106-0.083c0.103,0,0.203,0,0.302,0
		c0.1,0,0.2,0.008,0.303,0.022c0.022-0.22,0.033-0.418,0.033-0.594c0-0.403-0.081-0.686-0.242-0.847
		c-0.161-0.161-0.455-0.242-0.88-0.242c-0.125,0-0.259,0.009-0.401,0.028c-0.144,0.019-0.29,0.045-0.44,0.079
		s-0.293,0.076-0.429,0.125s-0.255,0.104-0.357,0.164L69.824,83.44z M71.387,87.851c0.205,0,0.389-0.027,0.55-0.083
		c0.161-0.055,0.301-0.125,0.418-0.209c0.117-0.084,0.215-0.178,0.291-0.28c0.077-0.103,0.134-0.202,0.171-0.297v-0.913
		c-0.103-0.007-0.207-0.013-0.313-0.017c-0.106-0.003-0.211-0.005-0.313-0.005c-0.228,0-0.449,0.013-0.665,0.039
		c-0.217,0.025-0.407,0.073-0.572,0.143c-0.165,0.07-0.297,0.165-0.396,0.286c-0.099,0.121-0.148,0.273-0.148,0.457
		c0,0.257,0.092,0.467,0.275,0.632C70.865,87.768,71.101,87.851,71.387,87.851z"/>
	<path fill="#444444" d="M78.866,83.803H77.15v4.73h-0.88v-4.73h-1.716v-0.77h4.312V83.803z"/>
	<path fill="#444444" d="M79.735,81.361c0-0.169,0.057-0.313,0.171-0.435c0.113-0.121,0.259-0.182,0.435-0.182
		s0.326,0.061,0.451,0.182c0.124,0.121,0.187,0.266,0.187,0.435c0,0.168-0.062,0.308-0.187,0.418
		c-0.125,0.11-0.275,0.165-0.451,0.165s-0.321-0.055-0.435-0.165C79.792,81.669,79.735,81.529,79.735,81.361z M79.923,83.033h0.88
		v5.5h-0.88V83.033z"/>
	<path fill="#444444" d="M82.376,88.06c0-0.176,0.059-0.319,0.176-0.429c0.117-0.11,0.268-0.165,0.451-0.165
		c0.228,0,0.412,0.081,0.556,0.242c0.143,0.162,0.214,0.396,0.214,0.704c0,0.264-0.036,0.495-0.109,0.693
		c-0.073,0.198-0.169,0.369-0.286,0.512s-0.246,0.26-0.385,0.352c-0.14,0.092-0.279,0.16-0.418,0.204l-0.275-0.429
		c0.264-0.103,0.46-0.262,0.589-0.479c0.128-0.216,0.192-0.435,0.192-0.654c-0.066,0.022-0.129,0.033-0.188,0.033
		c-0.146,0-0.27-0.049-0.368-0.148S82.376,88.25,82.376,88.06z"/>
	<path fill="#444444" d="M23.306,96.232h1.045l0.165,0.66h0.044c0.19-0.279,0.416-0.484,0.677-0.616
		c0.26-0.132,0.577-0.198,0.951-0.198c0.689,0,1.206,0.218,1.551,0.654c0.345,0.437,0.518,1.139,0.518,2.106
		c0,0.469-0.055,0.893-0.165,1.271c-0.11,0.378-0.273,0.699-0.489,0.962c-0.217,0.264-0.48,0.466-0.792,0.605
		c-0.312,0.139-0.67,0.209-1.073,0.209c-0.227,0-0.414-0.016-0.561-0.049s-0.294-0.086-0.44-0.16v2.255h-1.43V96.232z
		 M25.759,97.289c-0.279,0-0.497,0.07-0.654,0.209c-0.158,0.139-0.281,0.348-0.369,0.627v2.288c0.103,0.081,0.215,0.145,0.336,0.192
		s0.28,0.071,0.479,0.071c0.41,0,0.719-0.145,0.924-0.435c0.205-0.29,0.308-0.768,0.308-1.435c0-0.484-0.08-0.858-0.241-1.122
		C26.378,97.42,26.118,97.289,25.759,97.289z"/>
	<path fill="#444444" d="M28.981,98.982c0-0.931,0.227-1.648,0.682-2.15s1.093-0.753,1.914-0.753c0.44,0,0.821,0.07,1.144,0.209
		c0.323,0.139,0.591,0.335,0.804,0.588c0.212,0.253,0.372,0.559,0.479,0.918c0.105,0.359,0.159,0.755,0.159,1.188
		c0,0.931-0.226,1.648-0.677,2.15c-0.451,0.502-1.087,0.753-1.908,0.753c-0.44,0-0.821-0.07-1.144-0.209
		c-0.323-0.139-0.593-0.335-0.809-0.588c-0.217-0.253-0.378-0.559-0.484-0.918S28.981,99.415,28.981,98.982z M30.455,98.982
		c0,0.242,0.022,0.466,0.066,0.671c0.044,0.206,0.109,0.385,0.197,0.539c0.089,0.154,0.204,0.273,0.347,0.357
		c0.144,0.084,0.313,0.126,0.512,0.126c0.374,0,0.652-0.135,0.836-0.407s0.275-0.7,0.275-1.287c0-0.506-0.085-0.915-0.253-1.227
		c-0.169-0.312-0.455-0.467-0.858-0.467c-0.352,0-0.627,0.132-0.825,0.396C30.554,97.948,30.455,98.381,30.455,98.982z"/>
	<path fill="#444444" d="M36.087,97.267c0.213-0.323,0.464-0.556,0.754-0.699s0.64-0.214,1.051-0.214
		c0.667,0,1.197,0.204,1.589,0.61c0.393,0.407,0.589,1.04,0.589,1.897c0,0.99-0.224,1.742-0.671,2.255
		c-0.447,0.514-1.078,0.77-1.892,0.77c-0.852,0-1.5-0.282-1.947-0.847c-0.447-0.565-0.671-1.445-0.671-2.64
		c0-0.63,0.036-1.169,0.109-1.617c0.073-0.447,0.178-0.825,0.313-1.133s0.298-0.554,0.484-0.737
		c0.187-0.184,0.396-0.328,0.627-0.435s0.479-0.182,0.742-0.226c0.265-0.044,0.543-0.081,0.836-0.11
		c0.382-0.037,0.708-0.083,0.979-0.138s0.473-0.145,0.604-0.27L39.641,95c-0.147,0.132-0.356,0.223-0.627,0.273
		c-0.271,0.05-0.639,0.095-1.101,0.133c-0.278,0.015-0.524,0.048-0.736,0.099c-0.213,0.051-0.396,0.142-0.551,0.273
		c-0.153,0.131-0.276,0.315-0.368,0.552s-0.159,0.548-0.203,0.935H36.087z M36.362,99.048c0,0.469,0.092,0.858,0.275,1.166
		c0.183,0.308,0.465,0.462,0.847,0.462c0.396,0,0.68-0.139,0.853-0.418c0.172-0.278,0.259-0.682,0.259-1.21
		c0-0.477-0.081-0.843-0.242-1.1c-0.161-0.256-0.429-0.385-0.803-0.385c-0.403,0-0.703,0.132-0.896,0.396
		C36.46,98.224,36.362,98.586,36.362,99.048z"/>
	<path fill="#444444" d="M44.371,99.225l0.055-0.781h-0.033l-0.473,0.803l-1.958,2.486H41.06v-5.5h1.43v2.618l-0.065,0.748h0.044
		l0.451-0.781l1.979-2.585h0.902v5.5h-1.43V99.225z"/>
	<path fill="#444444" d="M51.015,97.498h-1.529v4.235h-1.474v-4.235h-1.573v-1.265h4.576V97.498z"/>
	<path fill="#444444" d="M53.082,98.19c0.177-0.029,0.354-0.049,0.534-0.061c0.18-0.011,0.343-0.017,0.489-0.017
		c0.381,0,0.704,0.042,0.968,0.126c0.264,0.084,0.479,0.204,0.644,0.358c0.165,0.154,0.284,0.335,0.357,0.544s0.11,0.435,0.11,0.676
		c0,0.667-0.198,1.166-0.594,1.496c-0.396,0.33-1.067,0.495-2.014,0.495c-0.418,0-0.779-0.007-1.083-0.022
		c-0.305-0.015-0.585-0.033-0.842-0.055v-5.5h1.43V98.19z M53.082,100.533c0.221,0.044,0.43,0.066,0.627,0.066
		c0.353,0,0.607-0.061,0.765-0.182c0.158-0.121,0.236-0.31,0.236-0.566c0-0.477-0.322-0.715-0.968-0.715
		c-0.242,0-0.462,0.026-0.66,0.077V100.533z"/>
	<path fill="#444444" d="M61.321,99.456h-0.386v2.277h-1.43v-5.5h1.43v2.343l0.342-0.154l1.286-2.189h1.529l-1.331,2.09
		l-0.561,0.418l0.616,0.429l1.484,2.563h-1.639L61.321,99.456z"/>
	<path fill="#444444" d="M64.479,98.982c0-0.931,0.227-1.648,0.682-2.15s1.093-0.753,1.914-0.753c0.44,0,0.821,0.07,1.144,0.209
		c0.323,0.139,0.591,0.335,0.804,0.588c0.212,0.253,0.372,0.559,0.479,0.918c0.105,0.359,0.159,0.755,0.159,1.188
		c0,0.931-0.226,1.648-0.677,2.15c-0.451,0.502-1.087,0.753-1.908,0.753c-0.44,0-0.821-0.07-1.144-0.209
		c-0.323-0.139-0.593-0.335-0.809-0.588c-0.217-0.253-0.378-0.559-0.484-0.918S64.479,99.415,64.479,98.982z M65.952,98.982
		c0,0.242,0.022,0.466,0.066,0.671c0.044,0.206,0.109,0.385,0.197,0.539c0.089,0.154,0.204,0.273,0.347,0.357
		c0.144,0.084,0.313,0.126,0.512,0.126c0.374,0,0.652-0.135,0.836-0.407s0.275-0.7,0.275-1.287c0-0.506-0.085-0.915-0.253-1.227
		c-0.169-0.312-0.455-0.467-0.858-0.467c-0.352,0-0.627,0.132-0.825,0.396C66.051,97.948,65.952,98.381,65.952,98.982z"/>
	<path fill="#444444" d="M76.116,102.986h-1.045l-0.165-1.254h-3.695l-0.165,1.254H70v-2.519h0.649
		c0.059-0.081,0.134-0.218,0.226-0.413c0.092-0.194,0.184-0.46,0.275-0.797c0.091-0.337,0.17-0.755,0.236-1.254
		c0.065-0.499,0.099-1.089,0.099-1.771h3.828v4.235h0.803V102.986z M73.884,100.533v-3.091h-1.155
		c-0.015,0.264-0.04,0.544-0.077,0.841c-0.037,0.297-0.082,0.585-0.138,0.864c-0.055,0.279-0.119,0.539-0.192,0.781
		c-0.073,0.242-0.154,0.444-0.242,0.605H73.884z"/>
	<path fill="#444444" d="M31.814,112.656h-0.386v2.277h-1.43v-5.5h1.43v2.343l0.342-0.154l1.286-2.189h1.529l-1.331,2.09
		l-0.561,0.418l0.616,0.429l1.484,2.563h-1.639L31.814,112.656z"/>
	<path fill="#444444" d="M35.378,109.433h1.045l0.165,0.66h0.044c0.19-0.279,0.416-0.484,0.677-0.616
		c0.26-0.132,0.577-0.198,0.951-0.198c0.689,0,1.206,0.218,1.551,0.654c0.345,0.437,0.518,1.139,0.518,2.106
		c0,0.469-0.055,0.893-0.165,1.271c-0.11,0.378-0.273,0.699-0.489,0.962c-0.217,0.264-0.48,0.466-0.792,0.605
		c-0.312,0.139-0.67,0.209-1.073,0.209c-0.227,0-0.414-0.016-0.561-0.049s-0.294-0.086-0.44-0.16v2.255h-1.43V109.433z
		 M37.831,110.489c-0.279,0-0.497,0.07-0.654,0.209c-0.158,0.139-0.281,0.348-0.369,0.627v2.288
		c0.103,0.081,0.215,0.145,0.336,0.192s0.28,0.071,0.479,0.071c0.41,0,0.719-0.145,0.924-0.435c0.205-0.29,0.308-0.768,0.308-1.435
		c0-0.484-0.08-0.858-0.241-1.122C38.45,110.621,38.19,110.489,37.831,110.489z"/>
	<path fill="#444444" d="M41.284,109.751c0.294-0.132,0.642-0.236,1.045-0.313c0.403-0.077,0.825-0.115,1.266-0.115
		c0.381,0,0.7,0.046,0.957,0.137c0.256,0.092,0.46,0.222,0.61,0.391c0.15,0.169,0.257,0.371,0.318,0.605
		c0.062,0.235,0.094,0.499,0.094,0.792c0,0.323-0.011,0.647-0.033,0.974c-0.021,0.326-0.034,0.647-0.038,0.962
		s0.006,0.622,0.027,0.918c0.022,0.297,0.077,0.578,0.165,0.842h-1.166l-0.23-0.759h-0.056c-0.146,0.228-0.35,0.423-0.61,0.588
		s-0.596,0.248-1.007,0.248c-0.256,0-0.487-0.039-0.692-0.115c-0.205-0.077-0.382-0.187-0.528-0.33s-0.26-0.312-0.341-0.506
		s-0.121-0.413-0.121-0.655c0-0.337,0.075-0.622,0.226-0.853s0.366-0.418,0.649-0.561c0.282-0.143,0.619-0.242,1.012-0.297
		c0.392-0.055,0.83-0.071,1.314-0.049c0.051-0.411,0.021-0.706-0.088-0.886c-0.11-0.18-0.356-0.27-0.737-0.27
		c-0.286,0-0.589,0.029-0.907,0.088c-0.319,0.059-0.581,0.136-0.787,0.231L41.284,109.751z M43.1,113.844
		c0.286,0,0.513-0.064,0.682-0.193c0.169-0.128,0.293-0.266,0.374-0.412v-0.715c-0.228-0.022-0.445-0.025-0.654-0.011
		s-0.395,0.048-0.556,0.099s-0.29,0.125-0.385,0.22c-0.096,0.096-0.144,0.216-0.144,0.363c0,0.205,0.061,0.365,0.182,0.479
		S42.887,113.844,43.1,113.844z"/>
	<path fill="#444444" d="M54.605,116.363h-1.034l-0.165-1.43h-6.633v-5.5h1.43v4.235h1.375v-4.235h1.431v4.235h1.375v-4.235h1.43
		v4.235h0.792V116.363z"/>
	<path fill="#444444" d="M58.698,112.425l0.055-0.781H58.72l-0.473,0.803l-1.958,2.486h-0.902v-5.5h1.43v2.618l-0.065,0.748h0.044
		l0.451-0.781l1.979-2.585h0.902v5.5h-1.43V112.425z"/>
	<path fill="#444444" d="M66.09,112.414l0.088-1.144h-0.055l-0.44,0.946l-1.034,1.705h-0.517l-1.133-1.705l-0.418-0.946h-0.066
		l0.144,1.133v2.53h-1.276v-5.5h1.485l1.265,2.068l0.308,0.693h0.044l0.319-0.715l1.166-2.046h1.496v5.5H66.09V112.414z"/>
	<path fill="#444444" d="M68.62,114.427c0-0.198,0.057-0.354,0.171-0.468c0.113-0.113,0.266-0.17,0.456-0.17
		c0.198,0,0.355,0.057,0.473,0.17c0.117,0.114,0.177,0.27,0.177,0.468c0,0.19-0.06,0.345-0.177,0.462s-0.274,0.176-0.473,0.176
		c-0.19,0-0.343-0.059-0.456-0.176C68.677,114.771,68.62,114.617,68.62,114.427z"/>
</g>
</svg>
