<?xml version="1.0" encoding="utf-8"?>
<!-- Generator: Adobe Illustrator 16.0.0, SVG Export Plug-In . SVG Version: 6.00 Build 0)  -->
<!DOCTYPE svg PUBLIC "-//W3C//DTD SVG 1.1//EN" "http://www.w3.org/Graphics/SVG/1.1/DTD/svg11.dtd">
<svg version="1.1" id="Layer_1" xmlns="http://www.w3.org/2000/svg" xmlns:xlink="http://www.w3.org/1999/xlink" x="0px" y="0px"
	 width="318.5px" height="270.7px" viewBox="0 0 318.5 270.7" enable-background="new 0 0 318.5 270.7" xml:space="preserve">
<polygon fill="#FFFFFF" stroke="#BE1E2D" stroke-linecap="round" stroke-linejoin="round" stroke-miterlimit="10" points="
	75.7,131.9 74.1,128.1 77.3,129.5 78.4,127.3 80.5,129.1 81.6,126.4 84.1,128.8 85.7,125.8 87.7,128.2 89.2,125.2 90.8,127.7 
	92.6,124.9 93.8,127.3 95.7,124.3 95,129.2 "/>
<path fill="#FFFFFF" stroke="#BE1E2D" stroke-linecap="round" stroke-linejoin="round" stroke-miterlimit="10" d="M86.4,151.1
	l-3.4,2.699c0,0,3.7,0.701,6.7,0.301c3.4-0.4,6.2-2.2,6.2-2.2l-3.9-1.7c0,0-1.7,1.1-2.6,1.2S86.4,151.1,86.4,151.1z"/>
<path fill="#FFFFFF" stroke="#BE1E2D" stroke-linecap="round" stroke-linejoin="round" stroke-miterlimit="10" d="M75.9,136.9
	c0,0-2.2-1-3.4-1c-1.3-0.1-2.3,2.3-2.2,3.5c0.1,1.2,0.3,1.8,1.9,2.2c1.6,0.4,5.8,0.9,5.8,0.9l1,1.799c0,0-2.9-0.799-4.8-0.699
	c-1.9,0-5.3-0.301-6.3-3c-1.1-2.6,1-5.5,3.2-6.9c2.2-1.4,4.6,0.7,4.6,0.7L75.9,136.9z"/>
<path fill="#FFFFFF" stroke="#BE1E2D" stroke-linecap="round" stroke-linejoin="round" stroke-miterlimit="10" d="M95.8,133.8
	c0,0,1.5-1.5,2.5-1.9s2.4,1.7,2.7,2.8c0.2,1.1,0.2,1.8-1,2.599c-1.2,0.801-4.4,2.4-4.4,2.4l-0.4,2c0,0,2.1-1.5,3.7-2
	s4.2-1.699,4.3-4.5c0.2-2.8-2.3-5.1-4.4-5.8c-2.1-0.8-3.6,1.9-3.6,1.9L95.8,133.8z"/>
<polygon fill="#FFFFFF" stroke="#BE1E2D" stroke-linecap="round" stroke-linejoin="round" stroke-miterlimit="10" points="
	95.3,171.4 90.3,174.1 92.5,160.299 103.3,166.7 99.5,169.1 103.1,175.299 98.7,177.6 "/>
<polyline fill="#FFFFFF" stroke="#BE1E2D" stroke-linecap="round" stroke-linejoin="round" stroke-miterlimit="10" points="
	117.9,104.4 113.6,116.2 110.5,112.8 105,117.5 102,113.5 107.5,109.1 104,104.6 117.9,104.4 "/>
<polyline fill="#FFFFFF" stroke="#BE1E2D" stroke-linecap="round" stroke-linejoin="round" stroke-miterlimit="10" points="
	222.6,125.4 210,124.7 212.4,120.8 206.4,116.8 209.2,112.8 215.1,116.8 218.3,112.1 222.6,125.4 "/>
<polyline fill="#FFFFFF" stroke="#BE1E2D" stroke-linecap="round" stroke-linejoin="round" stroke-miterlimit="10" points="
	225.5,177.9 222.8,165.6 227.2,166.9 229.4,160 234.1,161.7 231.8,168.4 237.1,170.299 225.5,177.9 "/>
<polyline fill="#FFFFFF" stroke="#BE1E2D" stroke-linecap="round" stroke-linejoin="round" stroke-miterlimit="10" points="
	152.7,206.6 164.3,201.9 163.9,206.4 171,207.299 170.2,212.2 163.2,211.1 162.3,216.799 152.7,206.6 "/>
<path fill="#FFFFFF" stroke="#BE1E2D" stroke-linecap="round" stroke-linejoin="round" stroke-miterlimit="10" d="M167.5,92.4
	c0,0,5.2-1.4,4.5-6.4c-1.1-7.8-16.4-3.7-16.4-3.7l3.2,21.9l5.601-0.8L163,94l9.1,8.3l6-0.7L167.5,92.4z M161.8,90l-0.7-5.1
	c0,0,4.4-0.8,4.801,1.7C166.2,89,161.8,90,161.8,90z"/>
<polygon fill="#FFFFFF" stroke="#BE1E2D" stroke-linecap="round" stroke-linejoin="round" stroke-miterlimit="10" points="
	109.4,186 110,189.799 114.5,189.1 113.9,185.299 "/>
<path fill="none" stroke="#BE1E2D" stroke-linecap="round" stroke-linejoin="round" stroke-miterlimit="10" d="M118,185
	c0,0,0.8-2.301,2.4-2c1.6,0.299,1.5,1.699,2.6,1.398c1.1-0.3,3.3-3.102,4.2-3.3c0.9-0.101,1.5,1.3,2.1,1.198
	c0.6-0.1,2.3-1.299,2.3-1.299"/>
<path fill="none" stroke="#BE1E2D" stroke-linecap="round" stroke-linejoin="round" stroke-miterlimit="10" d="M108.6,185.5
	l3.3,2.199c0,0,2.4-6.699,4.4-7.801"/>
<polygon fill="#FFFFFF" stroke="#BE1E2D" stroke-linecap="round" stroke-linejoin="round" stroke-miterlimit="10" points="
	112,195.1 113,198.6 117.4,197.4 116.3,193.9 "/>
<path fill="none" stroke="#BE1E2D" stroke-linecap="round" stroke-linejoin="round" stroke-miterlimit="10" d="M122.6,195
	c0,0-0.5-2.5,1.1-3.102c1.5-0.602,2.3,2.2,3.4,1.801c1.1-0.4,3.3-3.699,4.2-3.9c0.9-0.199,1.3,1.5,1.9,1.301
	c0.6-0.2,2.2-1.5,2.2-1.5"/>
<path fill="none" stroke="#BE1E2D" stroke-linecap="round" stroke-linejoin="round" stroke-miterlimit="10" d="M111.1,194.7l3.6,1.6
	c0,0,1.7-6.6,3.5-8"/>
<polygon fill="#FFFFFF" stroke="#BE1E2D" stroke-linecap="round" stroke-linejoin="round" stroke-miterlimit="10" points="
	113.9,205 114.9,208.6 119.4,207.299 118.3,203.799 "/>
<path fill="none" stroke="#BE1E2D" stroke-linecap="round" stroke-linejoin="round" stroke-miterlimit="10" d="M113,204.7l3.6,1.6
	c0,0,1.7-6.6,3.5-8"/>
<path fill="none" stroke="#BE1E2D" stroke-linecap="round" stroke-linejoin="round" stroke-miterlimit="10" d="M124.6,203.6
	c0,0,1.8-1.801,2.5-2.5c0.8-0.7,1.6-0.4,1.9,0c0.3,0.3,0.7,1.4,1.8,1.3c1.1-0.2,3.2-2.399,3.8-3.101c0.7-0.699,1.3-1.6,1.6-1.1
	c0.3,0.5,0.8,1.399,0.8,1.399"/>
<path fill="#FFFFFF" stroke="#BE1E2D" stroke-linecap="round" stroke-linejoin="round" stroke-miterlimit="10" d="M75.7,132.2
	l19.7-2.8c0,0,4.4,15.3-7.2,17.2C74.7,148.799,75.7,132.2,75.7,132.2z"/>
<path fill="#FFFFFF" stroke="#BE1E2D" stroke-linecap="round" stroke-linejoin="round" stroke-miterlimit="10" d="M190.9,189.5
	l-0.5,12.898l10.6,0.7c0,0,0.1-10.101,0.7-11.5c0.6-1.302,1.1-2.899,1.1-2.899L190.9,189.5z"/>
<path fill="none" stroke="#BE1E2D" stroke-linecap="round" stroke-linejoin="round" stroke-miterlimit="10" d="M192,191.299
	c0,0,0.6,0.601,1.4,0.101c0.8-0.5,1.8-1.399,2.398-1.2c0.5,0.2,0.301,1.301,0.9,1.301s2.199-1.399,2.8-1.5"/>
<path fill="none" stroke="#BE1E2D" stroke-linecap="round" stroke-linejoin="round" stroke-miterlimit="10" d="M192.5,196.7
	c0,0,1.6-0.699,2.3-0.8s1,0.101,2.101,0.3c1,0.2,2.301-0.1,2.899-0.3"/>
<path fill="none" stroke="#BE1E2D" stroke-linecap="round" stroke-linejoin="round" stroke-miterlimit="10" d="M193.5,201.1
	c0,0,0.2-0.7,1.2-0.801c1.1-0.1,1.899,0,3,0.101c1.1,0.101,1,0.101,1,0.101"/>
<path fill="none" stroke="#BE1E2D" stroke-linecap="round" stroke-linejoin="round" stroke-miterlimit="10" d="M190.8,198
	c0,0,1.5,0,3.9,0.398c2.399,0.398,4.6,0.102,5.2-0.199c0.6-0.301,1.3-0.699,1.3-0.699"/>
<path fill="none" stroke="#BE1E2D" stroke-linecap="round" stroke-linejoin="round" stroke-miterlimit="10" d="M190.9,194.2
	c0,0,2,0.301,4.1,0.2s6.6-1.101,6.6-1.101"/>
<path fill="#FFFFFF" stroke="#BE1E2D" stroke-linecap="round" stroke-linejoin="round" stroke-miterlimit="10" d="M208.8,185.799
	l3.7,14.801c0,0,2.4-0.6,4.1-0.801c1.7-0.199,3.5-1.1,4.2-1.699c0.8-0.6,1-1,1.7-0.801c0.7,0.201,1.9,0,1.9,0
	S220.1,187.1,219.1,185.6s-1.699-1.801-1.699-1.801L208.8,185.799z"/>
<path fill="none" stroke="#BE1E2D" stroke-linecap="round" stroke-linejoin="round" stroke-miterlimit="10" d="M210,190
	c0,0,4.8-2.102,6.6-3c1.801-0.9,2.5-1,2.5-1"/>
<path fill="none" stroke="#BE1E2D" stroke-linecap="round" stroke-linejoin="round" stroke-miterlimit="10" d="M211.3,195.5
	c0,0,5-1.9,6.3-2.5c1.301-0.602,4-1.801,4-1.801"/>
<path fill="none" stroke="#BE1E2D" stroke-linecap="round" stroke-linejoin="round" stroke-miterlimit="10" d="M213.7,196.4
	c0,0,0.7,0,1.399-0.5c0.801-0.5,1.5-1.5,2.301-1.399c0.8,0,1.398,0.399,1.898,0.299c0.5-0.1,0.801-0.1,0.801-0.1"/>
<path fill="none" stroke="#BE1E2D" stroke-linecap="round" stroke-linejoin="round" stroke-miterlimit="10" d="M215.8,197.9
	c0,0,0.3-0.8,1.9-1c1.6-0.2,2.2-0.5,2.2-0.5"/>
<path fill="none" stroke="#BE1E2D" stroke-linecap="round" stroke-linejoin="round" stroke-miterlimit="10" d="M212.1,191.7
	c0,0,1.7-1.8,2.102-2.199c0.398-0.399,0.898-0.801,1.1-0.201c0.2,0.602,0.2,1.102,1,0.802c0.801-0.302,1.7-1.302,1.7-1.302"/>
<path fill="none" stroke="#BE1E2D" stroke-linecap="round" stroke-linejoin="round" stroke-miterlimit="10" d="M212.4,193.799
	c0,0,2.3-2.299,2.898-2.399c0.602-0.101,1,0.2,0.9,0.601c0,0.399,0.398,0.399,1.199-0.301c0.801-0.699,1.399-1.3,1.399-1.3"/>
<path fill="none" stroke="#BE1E2D" stroke-linecap="round" stroke-linejoin="round" stroke-miterlimit="10" d="M211.1,186.9
	c0,0,0.301,0.8,1.4,0.3s1.8-1.4,2.7-1.4c0.899,0,1.5,0.102,1.5,0.102"/>
<path fill="#FFFFFF" stroke="#BE1E2D" stroke-linecap="round" stroke-linejoin="round" stroke-miterlimit="10" d="M207.8,204.5
	l-3.6,13.398L215.8,221c0,0,3.101-7.9,3.601-9.102s1.801-3.5,1.801-3.5s-5.102-2-6.5-2.3C213.1,205.7,207.8,204.5,207.8,204.5z"/>
<path fill="none" stroke="#BE1E2D" stroke-linecap="round" stroke-linejoin="round" stroke-miterlimit="10" d="M206.8,209.299
	c0,0,3.101,1,5.2,1.301c2.1,0.3,3.1,0.1,3.8,0.6s2.7,1.6,2.7,1.6"/>
<path fill="none" stroke="#BE1E2D" stroke-linecap="round" stroke-linejoin="round" stroke-miterlimit="10" d="M205.4,213.2
	c0,0,4.398,2.1,6.199,2.5c1.801,0.301,5.399,1.5,5.399,1.5"/>
<path fill="none" stroke="#BE1E2D" stroke-linecap="round" stroke-linejoin="round" stroke-miterlimit="10" d="M209,207.6
	c0,0,2.3-0.5,3.3-0.301c1,0.201,1.9,1.301,2.4,1.4c0.5,0.098,1.8-0.601,2.6-0.199c0.7,0.398,0.7,0.398,0.7,0.398"/>
<path fill="none" stroke="#BE1E2D" stroke-linecap="round" stroke-linejoin="round" stroke-miterlimit="10" d="M208.4,212.6
	c0,0,0.6-0.801,1.6-0.6c1,0.199,1.9,2.199,2.8,2c0.9-0.102,2.9-0.801,2.9-0.801"/>
<path fill="none" stroke="#BE1E2D" stroke-linecap="round" stroke-linejoin="round" stroke-miterlimit="10" d="M206.9,215.6
	c0,0,2.699,1,4,1.199c1.3,0.201,3.199,0.801,3.199,0.801"/>
<path fill="#FFFFFF" stroke="#BE1E2D" stroke-linecap="round" stroke-linejoin="round" stroke-miterlimit="10" d="M236.7,133
	c1.399-0.6,2-0.4,2.6,0.1c0.601,0.5-0.3,0.4,0.7,0.1c1-0.3,1.2-0.4,1.7,0.1s0.5,1.4,0.5,1.4s0.5-0.2,1.2,0.7
	c0.6,0.899,0.699,1.7,0.398,2.5c-0.3,0.8-0.5,2-1.699,2.899c-1.301,0.9-2.199,0.701-2.199,0.701s-0.7,0.299-1.7,0.6
	c-1,0.3-2,0.5-2.3-0.301C235.6,141,235.4,140,235.4,140s-0.801-0.301-1.301-0.9s-0.101-1.4-0.101-1.4s-0.2-0.3-0.2-1.1
	c0-0.8,0.301-1.1,0.301-1.1s-0.601,0.2,0.101-0.9C234.8,133.6,236.7,133,236.7,133z"/>
<path fill="#FFFFFF" stroke="#BE1E2D" stroke-linecap="round" stroke-linejoin="round" stroke-miterlimit="10" d="M188.7,103.6
	c0,0,0.399-1.3,1.399-1.5c0.899-0.2,1.801-0.1,1.801-0.1s0.398-0.6,0.699,0.2c0.301,0.8-0.399,1.6-0.399,1.6s0.3-0.2,1.1,0.2
	c0.8,0.3,1.5,1.1,1.5,1.1s1,0.1,0.9,1c-0.101,0.9-1.101,2.6-1.9,2.6c-0.799,0-1.1,0-1.1,0s-0.7,1.8-1.7,1.4s-2-1.9-2-1.9
	s-0.3,0.2-1.3-0.4c-1-0.6-1.101-1.7-0.5-2.3c0.6-0.6,1.3-0.8,1.3-0.8s-0.5-0.4-0.2-0.7C188.5,103.9,188.7,103.6,188.7,103.6z"/>
<path fill="#FFFFFF" stroke="#BE1E2D" stroke-linecap="round" stroke-linejoin="round" stroke-miterlimit="10" d="M184.3,86
	c0,0-1.1-0.4,0.4-1.5c1.399-1.1,2.399-0.7,2.399-0.3c0,0.4-0.199,1.1-0.199,1.1s0.398-0.6,1.1-0.4c0.8,0.2,0.9,0.8,0.9,0.8
	s0.3-0.8,0.8,0.4c0.6,1.2,0.6,1.9,0.6,1.9s0.7,0.1,1.101,1.4c0.399,1.3-1,2.1-1,2.1s-1.399,1.4-2,1.2
	c-0.699-0.2-0.601-1.7-0.601-1.7s-1.1,1.2-2.1,0.7s-1.5-1.4-1.5-1.4s0.399,0.5-0.7-0.3s-1.5-1.9-1-2.4c0.4-0.5,1.2-0.1,1.2-0.1
	s-1.101-0.6-0.5-0.9C183.9,86.2,184.3,86,184.3,86z"/>
<path fill="#FFFFFF" stroke="#BE1E2D" stroke-linecap="round" stroke-linejoin="round" stroke-miterlimit="10" d="M179.2,71.7
	c0,0-0.8-1,0.2-1.5s2.199-0.9,2.1-0.4s-0.2,1.3-0.2,1.3s0.2-0.5,1.101,0c0.899,0.4,0.899,0.8,0.899,0.8s0.2-0.7,1,0.1s2.4,2.3,2,3.2
	c-0.3,0.9-0.5,1.4-0.5,1.4s0.7,1.1-0.7,1.3c-1.398,0.2-1.898,0-1.898,0s-1.102,1-2,0.3c-0.9-0.8-0.7-1.6-0.7-1.6s-0.5,0.8-1.399-0.5
	c-0.899-1.3,0.301-1.8,0.301-1.8s-0.602,0.8-1.5-0.4c-0.9-1.2-0.5-1.9,0.199-2C178.8,71.7,179.2,71.7,179.2,71.7z"/>
<path fill="#FFFFFF" stroke="#BE1E2D" stroke-linecap="round" stroke-linejoin="round" stroke-miterlimit="10" d="M86.5,146.7
	c0,0,0.9,0.801,0.5,2.2s-1.2,2.399-1.2,2.399s2.5,0.201,3.9-0.1C91.3,150.9,92,150,92,150s-1.3-1.201-1.5-1.9
	c-0.2-0.7-0.3-2.1-0.3-2.1L86.5,146.7z"/>
<polygon fill="#FFFFFF" stroke="#BE1E2D" stroke-linecap="round" stroke-linejoin="round" stroke-miterlimit="10" points="
	79.4,134.4 78.6,137 80.8,138.299 81.4,136 "/>
<polygon fill="#FFFFFF" stroke="#BE1E2D" stroke-linecap="round" stroke-linejoin="round" stroke-miterlimit="10" points="84,133.6 
	83,136 84.8,138.1 85.9,135.6 "/>
<polygon fill="#FFFFFF" stroke="#BE1E2D" stroke-linecap="round" stroke-linejoin="round" stroke-miterlimit="10" points="
	92.6,132.2 94.2,134.5 92.6,136.299 91.3,134.3 "/>
<polygon fill="#FFFFFF" stroke="#BE1E2D" stroke-linecap="round" stroke-linejoin="round" stroke-miterlimit="10" points="
	88.3,132.9 89.9,134.9 88.9,137.4 87.2,135.3 "/>
<polygon fill="#FFFFFF" stroke="#BE1E2D" stroke-linecap="round" stroke-linejoin="round" stroke-miterlimit="10" points="
	82.4,142.5 81.8,144.4 83.4,145.299 83.8,143.6 "/>
<polygon fill="#FFFFFF" stroke="#BE1E2D" stroke-linecap="round" stroke-linejoin="round" stroke-miterlimit="10" points="
	85.7,141.9 85,143.7 86.3,145.2 87.1,143.4 "/>
<polygon fill="#FFFFFF" stroke="#BE1E2D" stroke-linecap="round" stroke-linejoin="round" stroke-miterlimit="10" points="92,140.9 
	93.1,142.5 92,143.9 91.1,142.4 "/>
<polygon fill="#FFFFFF" stroke="#BE1E2D" stroke-linecap="round" stroke-linejoin="round" stroke-miterlimit="10" points="
	88.9,141.4 90,142.799 89.3,144.7 88,143.2 "/>
<path fill="none" stroke="#BE1E2D" stroke-linecap="round" stroke-linejoin="round" stroke-miterlimit="10" d="M78.8,141.6
	c0,0,0.8-1.5,1.6-1.301c0.8,0.101,2.2,1,2.9,0.701c0.7-0.301,1.1-1.4,1.8-1.4c0.7,0,1.8,0.8,2.6,0.5c0.8-0.301,1.7-1.9,2.3-1.9
	c0.7,0,1.7,1.6,2.5,1s1.8-1.699,1.8-1.699"/>
<path fill="#FFFFFF" stroke="#BE1E2D" stroke-linecap="round" stroke-linejoin="round" stroke-miterlimit="10" d="M165,115.1
	c0,0-0.8-1.5,0.6-1.9c1.4-0.5,1.9-0.4,1.9-0.4s0.2-1.1,1-0.6c0.8,0.6,0.4,1.6,0.4,1.6s1-1.1,1.699-0.3s0.399,1.7,0.399,1.7
	s0.5-0.7,0.8,0.7c0.301,1.4-0.6,1.9-0.6,1.9s0.898,0.2-0.5,1.2c-1.4,1-1.9,0.8-1.9,0.8s-0.699,1-2.1,0.7s-1.2-1.2-1.2-1.2
	s-0.899,1.1-1.601,0.2c-0.699-0.9,0.801-2.4,0.801-2.4s-1.7,0.7-1.4-0.3C163.6,116,165,115.1,165,115.1z"/>
<path fill="#FFFFFF" stroke="#BE1E2D" stroke-linecap="round" stroke-linejoin="round" stroke-miterlimit="10" d="M147.9,103.5
	c0,0,0.1-1.9,1.5-1.4s1.3,1.8,1.3,1.8s-0.1-1,0.4,0.1s-0.1,1.4-0.1,1.4s0.3-0.8,1.2,0.4c0.9,1.2,0.1,2,0.1,2s1.6,0,0.2,1.6
	s-3.1,0.7-3.1,0.7s-0.1,0.8-1.4,0.5c-1.3-0.3-1.1-0.8-1.1-0.8s-0.2,1.2-1.5-0.1c-1.3-1.3,0.3-2.2,0.3-2.2s-1.5,0.8-1.9-0.4
	c-0.4-1.2,2.3-1.9,2.3-1.9s-1.9,0.5-1.2-0.8C145.7,102.9,147.9,103.5,147.9,103.5z"/>
<path fill="#FFFFFF" stroke="#BE1E2D" stroke-linecap="round" stroke-linejoin="round" stroke-miterlimit="10" d="M143.1,91
	c0,0-1.3-1.7,0.3-2.1c1.6-0.5,1.8,0.5,1.8,0.5s0.7-0.9,1.2-0.5s0.4,0.8,0.4,0.8s1-1.4,1.4,0.1c0.4,1.5-0.8,2.6-0.8,2.6
	s0.5-0.7,0.4,0.5c-0.1,1.3-1,1.2-1,1.2s1.4,1.1-0.6,1.8c-2,0.7-2.5-0.1-2.5-0.1s0.1,1.5-1.2,0.1c-1.4-1.4-0.4-1.8-0.4-1.8
	s-1,0.3-0.9-1.5C141.3,90.7,143.1,91,143.1,91z"/>
<path fill="#FFFFFF" stroke="#BE1E2D" stroke-linecap="round" stroke-linejoin="round" stroke-miterlimit="10" d="M135.1,75.4
	c0,0,0.1-2,1.2-1.9c1,0.2,1.3,1.2,1.3,1.2s0.5-0.5,1,0.2C139,75.6,139,76,139,76s0.6-1.1,1.3,0.4c0.7,1.5,0.1,2.1,0.1,2.1
	s0.9-0.1,0.7,1c-0.2,1.1-0.9,1.4-0.9,1.4s1.1,1-0.5,1.5c-1.6,0.5-2.7-0.8-2.7-0.8s0.4,0.9-1.1,0.2c-1.5-0.7-1.4-1.1-1.4-1.1
	s0,1.2-1.4-0.1c-1.4-1.2-0.1-1.6-0.1-1.6s-1,0.4-1.2-1c-0.1-1.4,1-1.4,1-1.4s-1.1-1.7,0.3-1.8C134.4,74.7,135.1,75.4,135.1,75.4z"/>
<path fill="#FFFFFF" stroke="#BE1E2D" stroke-linecap="round" stroke-linejoin="round" stroke-miterlimit="10" d="M154.1,68.6
	c0,0,0.4-1.2,1.5-1c1.2,0.2,1.1,1,1.1,1s0.1-0.6,1.2-0.3c1.2,0.4,0.8,1,0.8,1s2.6-0.1,2.399,1.2c-0.199,1.3-1,1.7-1,1.7
	s0.601,0.3-0.199,0.6c-0.9,0.3-1.4,0-1.4,0s-1.1,0.8-1.8,0.7c-0.6-0.2-0.7-0.6-0.7-0.6s-0.7,1.3-1.6,0.2c-0.8-1.1,0-1.6,0-1.6
	s-1.1,0.4-1.5-1C152.6,68.9,154.1,68.6,154.1,68.6z"/>
<path fill="#FFFFFF" stroke="#BE1E2D" stroke-linecap="round" stroke-linejoin="round" stroke-miterlimit="10" d="M168.4,59.7
	c0,0,0.5-2.3,1.5-1.7s1.1,0.9,1.1,0.9s0.4-1.1,0.8-0.3c0.4,0.8,0.4,0.8,0.4,0.8s1.1-0.3,1.1,1c-0.1,1.4-0.5,1.6-0.5,1.6
	s1.2,0.4,0.3,1.1c-0.898,0.7-0.898,0.7-0.898,0.7S172,65,170.8,65c-1.3,0-1.3-0.6-1.3-0.6s-1.3,1.2-2.1,0.1
	c-0.7-1.1,0.3-1.8,0.3-1.8s-1.101,1.4-1.4-0.1c-0.2-1.6,0.7-1.5,0.7-1.5s-2,0-0.8-1.1S168.4,59.7,168.4,59.7z"/>
<rect x="124.199" y="22.833" fill="none" width="87.551" height="24.518"/>
<g enable-background="new    ">
	<path fill="#444444" d="M130.982,30.214c-0.22,0.169-0.499,0.286-0.836,0.353c-0.337,0.065-0.697,0.099-1.078,0.099
		c-0.462,0-0.895-0.079-1.298-0.236s-0.755-0.397-1.056-0.721c-0.301-0.322-0.539-0.735-0.715-1.237
		c-0.176-0.502-0.264-1.098-0.264-1.787c0-0.719,0.097-1.329,0.292-1.832c0.194-0.502,0.451-0.913,0.77-1.231
		c0.319-0.319,0.676-0.552,1.072-0.699c0.396-0.146,0.799-0.22,1.21-0.22c0.44,0,0.799,0.023,1.078,0.071
		c0.278,0.048,0.517,0.112,0.715,0.192l-0.22,0.814c-0.352-0.176-0.854-0.264-1.507-0.264c-0.301,0-0.598,0.055-0.891,0.165
		c-0.293,0.109-0.555,0.289-0.786,0.538c-0.231,0.25-0.417,0.576-0.556,0.979s-0.209,0.898-0.209,1.485
		c0,0.527,0.066,0.989,0.198,1.386c0.132,0.396,0.313,0.726,0.544,0.99c0.231,0.264,0.502,0.462,0.814,0.594
		c0.312,0.132,0.65,0.198,1.018,0.198c0.33,0,0.618-0.033,0.863-0.1c0.246-0.065,0.453-0.15,0.622-0.253L130.982,30.214z"/>
	<path fill="#444444" d="M135.877,30.093c-0.22,0.177-0.497,0.315-0.83,0.418c-0.334,0.104-0.688,0.154-1.062,0.154
		c-0.418,0-0.781-0.067-1.089-0.203c-0.308-0.136-0.561-0.33-0.759-0.583c-0.198-0.253-0.345-0.556-0.44-0.907
		c-0.096-0.353-0.143-0.748-0.143-1.188c0-0.938,0.209-1.653,0.627-2.145s1.016-0.737,1.793-0.737c0.249,0,0.499,0.027,0.748,0.082
		c0.249,0.056,0.473,0.16,0.671,0.313c0.198,0.154,0.359,0.373,0.484,0.655c0.125,0.282,0.187,0.654,0.187,1.116
		c0,0.242-0.022,0.51-0.066,0.803h-3.531c0,0.323,0.033,0.609,0.099,0.858c0.066,0.249,0.169,0.46,0.308,0.632
		c0.139,0.173,0.321,0.305,0.544,0.396s0.497,0.138,0.82,0.138c0.249,0,0.499-0.044,0.748-0.132
		c0.249-0.089,0.436-0.191,0.561-0.309L135.877,30.093z M133.985,25.671c-0.433,0-0.779,0.114-1.04,0.341
		c-0.261,0.228-0.417,0.616-0.468,1.166h2.728c0-0.557-0.106-0.947-0.319-1.171C134.674,25.784,134.374,25.671,133.985,25.671z"/>
	<path fill="#444444" d="M137.45,25.034h0.605l0.165,0.66h0.044c0.168-0.257,0.387-0.453,0.654-0.589s0.574-0.203,0.918-0.203
		c0.733,0,1.28,0.216,1.639,0.648c0.359,0.434,0.539,1.141,0.539,2.123c0,0.462-0.061,0.879-0.182,1.249s-0.292,0.684-0.511,0.94
		c-0.22,0.257-0.486,0.455-0.798,0.594c-0.312,0.14-0.658,0.209-1.04,0.209c-0.271,0-0.486-0.017-0.644-0.05
		c-0.158-0.032-0.328-0.089-0.511-0.17v2.288h-0.88V25.034z M139.672,25.671c-0.374,0-0.669,0.098-0.885,0.292
		s-0.369,0.489-0.457,0.886v2.728c0.132,0.103,0.282,0.182,0.451,0.236c0.168,0.056,0.392,0.083,0.671,0.083
		c0.506,0,0.907-0.189,1.205-0.566c0.297-0.378,0.445-0.934,0.445-1.667c0-0.301-0.026-0.573-0.077-0.819s-0.134-0.455-0.248-0.627
		s-0.26-0.307-0.44-0.401C140.158,25.719,139.936,25.671,139.672,25.671z"/>
	<path fill="#444444" d="M146.833,27.278l0.033-0.683h-0.033l-0.451,0.704l-2.475,3.234h-0.506v-5.5h0.88v3.355l-0.033,0.648h0.044
		l0.429-0.682l2.475-3.322h0.517v5.5h-0.88V27.278z"/>
	<path fill="#444444" d="M152.146,28.256l-0.847,0.133l-1.452,2.145h-1.067l1.32-1.881l0.44-0.407
		c-0.381-0.059-0.706-0.213-0.974-0.462s-0.401-0.587-0.401-1.012c0-0.33,0.057-0.612,0.17-0.848
		c0.114-0.234,0.277-0.429,0.49-0.583c0.212-0.153,0.465-0.266,0.759-0.335s0.624-0.104,0.99-0.104c0.271,0,0.524,0.019,0.759,0.055
		c0.235,0.037,0.466,0.077,0.693,0.121v5.456h-0.88V28.256z M152.146,25.782c-0.095-0.037-0.202-0.064-0.319-0.083
		c-0.118-0.018-0.22-0.027-0.308-0.027c-0.469,0-0.827,0.085-1.072,0.253c-0.246,0.169-0.369,0.437-0.369,0.804
		c0,0.33,0.13,0.585,0.391,0.765c0.26,0.18,0.603,0.269,1.028,0.269c0.007,0,0.018,0,0.033,0c0.014,0,0.044,0,0.088,0
		s0.106-0.001,0.187-0.005c0.081-0.004,0.194-0.009,0.341-0.017V25.782z"/>
	<path fill="#444444" d="M160.935,28.103h-2.486v2.431h-0.88v-5.5h0.88v2.299h2.486v-2.299h0.88v5.5h-0.88V28.103z"/>
	<path fill="#444444" d="M167.523,30.093c-0.22,0.177-0.496,0.315-0.83,0.418c-0.334,0.104-0.688,0.154-1.062,0.154
		c-0.419,0-0.781-0.067-1.089-0.203c-0.309-0.136-0.562-0.33-0.76-0.583c-0.197-0.253-0.344-0.556-0.439-0.907
		c-0.096-0.353-0.143-0.748-0.143-1.188c0-0.938,0.209-1.653,0.627-2.145s1.016-0.737,1.793-0.737c0.248,0,0.498,0.027,0.748,0.082
		c0.248,0.056,0.473,0.16,0.67,0.313c0.199,0.154,0.359,0.373,0.484,0.655s0.188,0.654,0.188,1.116c0,0.242-0.022,0.51-0.066,0.803
		h-3.531c0,0.323,0.033,0.609,0.1,0.858s0.168,0.46,0.308,0.632c0.14,0.173,0.321,0.305,0.544,0.396
		c0.225,0.092,0.498,0.138,0.82,0.138c0.249,0,0.498-0.044,0.748-0.132c0.249-0.089,0.436-0.191,0.561-0.309L167.523,30.093z
		 M165.632,25.671c-0.433,0-0.779,0.114-1.04,0.341c-0.26,0.228-0.416,0.616-0.467,1.166h2.728c0-0.557-0.106-0.947-0.319-1.171
		S166.02,25.671,165.632,25.671z"/>
	<path fill="#444444" d="M169.603,26.012c0.242-0.352,0.51-0.599,0.803-0.742c0.294-0.143,0.66-0.214,1.101-0.214
		c0.674,0,1.193,0.22,1.557,0.659c0.362,0.44,0.544,1.09,0.544,1.947c0,0.99-0.211,1.738-0.632,2.244
		c-0.422,0.506-1.011,0.759-1.766,0.759c-0.807,0-1.412-0.278-1.815-0.836c-0.403-0.557-0.604-1.434-0.604-2.629
		c0-0.631,0.031-1.17,0.093-1.617c0.062-0.447,0.154-0.825,0.275-1.133c0.12-0.308,0.268-0.554,0.44-0.737
		c0.172-0.183,0.365-0.328,0.582-0.435c0.217-0.105,0.453-0.181,0.71-0.226c0.257-0.044,0.531-0.08,0.825-0.109
		c0.381-0.037,0.68-0.079,0.896-0.127c0.216-0.047,0.391-0.134,0.521-0.258l0.1,0.792c-0.073,0.065-0.154,0.121-0.242,0.165
		s-0.194,0.08-0.318,0.109c-0.125,0.029-0.273,0.056-0.445,0.077c-0.173,0.022-0.373,0.04-0.6,0.055
		c-0.316,0.022-0.593,0.061-0.831,0.116c-0.238,0.055-0.444,0.161-0.616,0.318c-0.172,0.158-0.308,0.382-0.406,0.671
		c-0.1,0.29-0.168,0.673-0.204,1.149H169.603z M169.701,27.794c0,0.279,0.029,0.547,0.088,0.804c0.059,0.256,0.148,0.481,0.27,0.676
		s0.277,0.347,0.468,0.457c0.19,0.109,0.415,0.165,0.671,0.165c0.506,0,0.882-0.182,1.128-0.545c0.245-0.363,0.368-0.9,0.368-1.611
		c0-0.278-0.025-0.535-0.076-0.771c-0.053-0.234-0.133-0.438-0.242-0.61c-0.11-0.172-0.25-0.304-0.418-0.396
		c-0.17-0.092-0.371-0.138-0.605-0.138c-0.572-0.007-0.99,0.159-1.254,0.501C169.834,26.667,169.701,27.157,169.701,27.794z"/>
	<path fill="#444444" d="M174.685,27.784c0-0.932,0.207-1.645,0.622-2.14c0.414-0.495,1.01-0.742,1.787-0.742
		c0.41,0,0.768,0.067,1.072,0.203s0.556,0.33,0.754,0.583c0.197,0.253,0.344,0.558,0.439,0.913s0.143,0.75,0.143,1.183
		c0,0.932-0.207,1.645-0.621,2.14s-1.01,0.742-1.787,0.742c-0.411,0-0.769-0.067-1.072-0.203c-0.305-0.136-0.557-0.33-0.754-0.583
		c-0.198-0.253-0.345-0.558-0.439-0.913C174.732,28.611,174.685,28.216,174.685,27.784z M175.598,27.784
		c0,0.278,0.027,0.547,0.082,0.803c0.055,0.257,0.142,0.48,0.259,0.671c0.117,0.191,0.271,0.345,0.462,0.462
		c0.191,0.118,0.422,0.177,0.693,0.177c0.997,0.007,1.496-0.697,1.496-2.112c0-0.286-0.027-0.558-0.083-0.814
		c-0.055-0.256-0.142-0.479-0.259-0.671c-0.117-0.19-0.271-0.343-0.461-0.456c-0.191-0.113-0.422-0.171-0.693-0.171
		C176.096,25.665,175.598,26.369,175.598,27.784z"/>
	<path fill="#444444" d="M183.781,25.803h-1.595c-0.022,0.309-0.044,0.641-0.065,0.996c-0.022,0.355-0.056,0.711-0.1,1.066
		c-0.044,0.356-0.103,0.697-0.176,1.023c-0.074,0.326-0.167,0.614-0.281,0.863c-0.113,0.25-0.252,0.449-0.418,0.6
		c-0.164,0.15-0.361,0.226-0.588,0.226c-0.139,0-0.26-0.008-0.363-0.021c-0.103-0.016-0.194-0.041-0.275-0.077l0.133-0.737
		c0.088,0.029,0.184,0.044,0.285,0.044c0.147,0,0.279-0.062,0.396-0.187c0.117-0.125,0.221-0.361,0.309-0.71s0.16-0.83,0.22-1.446
		c0.059-0.616,0.099-1.419,0.121-2.409h3.278v5.5h-0.881V25.803z"/>
	<path fill="#444444" d="M187.235,27.134c0.176-0.028,0.345-0.049,0.506-0.061c0.161-0.011,0.315-0.016,0.462-0.016
		c0.381,0,0.704,0.042,0.969,0.126c0.264,0.085,0.479,0.2,0.643,0.347c0.166,0.146,0.285,0.321,0.357,0.522
		c0.074,0.202,0.11,0.416,0.11,0.644c0,0.667-0.2,1.151-0.6,1.452s-1.021,0.451-1.864,0.451c-0.469,0-0.957-0.022-1.463-0.066v-5.5
		h0.88V27.134z M187.235,29.764c0.271,0.044,0.532,0.065,0.78,0.065c0.463,0,0.804-0.09,1.023-0.27
		c0.221-0.18,0.33-0.435,0.33-0.765c0-0.293-0.106-0.535-0.318-0.726c-0.213-0.19-0.547-0.286-1.002-0.286
		c-0.125,0-0.26,0.004-0.406,0.011c-0.146,0.008-0.283,0.029-0.407,0.066V29.764z"/>
	<path fill="#444444" d="M191.459,30.534v-5.5h0.881v4.73h1.881v-4.73h0.879v4.73h1.882v-4.73h0.88v5.5H191.459z"/>
	<path fill="#444444" d="M202.987,27.278l0.033-0.683h-0.033l-0.45,0.704l-2.476,3.234h-0.506v-5.5h0.88v3.355l-0.033,0.648h0.044
		l0.429-0.682l2.476-3.322h0.517v5.5h-0.88V27.278z"/>
	<path fill="#444444" d="M207.002,27.717l-1.848-2.684h1.078l1.045,1.518l0.309,0.627l0.318-0.627l1.066-1.518h0.99l-1.858,2.64
		l1.969,2.86h-1.045l-1.166-1.672l-0.33-0.66l-0.341,0.66l-1.188,1.672h-0.979L207.002,27.717z"/>
</g>
<g enable-background="new    ">
	<path fill="#444444" d="M138.776,40.477l0.033-0.683h-0.033l-0.451,0.704l-2.475,3.234h-0.506v-5.5h0.88v3.355l-0.033,0.648h0.044
		l0.429-0.682l2.475-3.322h0.517v5.5h-0.88V40.477z"/>
	<path fill="#444444" d="M141.878,41.28v-0.715h0.77c0.132,0,0.262-0.022,0.391-0.066c0.128-0.044,0.244-0.104,0.346-0.181
		c0.103-0.077,0.185-0.169,0.248-0.275s0.094-0.218,0.094-0.336c0-0.285-0.099-0.487-0.297-0.604
		c-0.198-0.117-0.495-0.176-0.891-0.176c-0.286,0-0.548,0.042-0.787,0.128s-0.423,0.167-0.556,0.246l-0.253-0.671
		c0.22-0.125,0.479-0.235,0.775-0.33c0.297-0.096,0.651-0.144,1.062-0.144c1.217,0,1.826,0.451,1.826,1.354
		c0,0.257-0.083,0.508-0.248,0.753c-0.165,0.246-0.401,0.42-0.709,0.522v0.044c0.433,0.081,0.735,0.235,0.908,0.462
		c0.172,0.228,0.258,0.528,0.258,0.902c0,0.234-0.048,0.451-0.143,0.649c-0.095,0.197-0.238,0.37-0.429,0.517
		c-0.191,0.146-0.431,0.263-0.721,0.347c-0.29,0.084-0.625,0.126-1.006,0.126c-0.374,0-0.684-0.032-0.93-0.099
		s-0.467-0.146-0.666-0.242l0.253-0.726c0.169,0.095,0.372,0.169,0.611,0.22c0.238,0.052,0.497,0.077,0.775,0.077
		c0.447,0,0.788-0.077,1.023-0.231c0.234-0.153,0.352-0.389,0.352-0.704c0-0.264-0.11-0.471-0.33-0.621
		c-0.22-0.15-0.583-0.226-1.089-0.226H141.878z"/>
	<path fill="#444444" d="M150.744,40.466l0.066-1.045h-0.055l-0.396,0.847l-1.331,2.156h-0.308l-1.386-2.156l-0.363-0.847h-0.044
		l0.088,1.033v3.278h-0.814v-5.5h0.869l1.54,2.464l0.319,0.638h0.022l0.33-0.659l1.441-2.442h0.88v5.5h-0.858V40.466z"/>
	<path fill="#444444" d="M157.311,43.292c-0.22,0.177-0.497,0.315-0.83,0.418c-0.334,0.104-0.688,0.154-1.062,0.154
		c-0.418,0-0.781-0.067-1.089-0.203c-0.308-0.136-0.561-0.33-0.759-0.583c-0.198-0.253-0.345-0.556-0.44-0.907
		c-0.096-0.353-0.143-0.748-0.143-1.188c0-0.938,0.209-1.653,0.627-2.145s1.016-0.737,1.793-0.737c0.249,0,0.499,0.027,0.748,0.082
		c0.249,0.056,0.473,0.16,0.671,0.313c0.198,0.154,0.359,0.373,0.484,0.655c0.125,0.282,0.187,0.654,0.187,1.116
		c0,0.242-0.022,0.51-0.066,0.803h-3.531c0,0.323,0.033,0.609,0.099,0.858c0.066,0.249,0.169,0.46,0.308,0.632
		c0.139,0.173,0.321,0.305,0.544,0.396s0.497,0.138,0.82,0.138c0.249,0,0.499-0.044,0.748-0.132
		c0.249-0.089,0.436-0.191,0.561-0.309L157.311,43.292z M155.419,38.871c-0.433,0-0.779,0.114-1.04,0.341
		c-0.261,0.228-0.417,0.616-0.468,1.166h2.728c0-0.557-0.106-0.947-0.319-1.171C156.108,38.983,155.807,38.871,155.419,38.871z"/>
	<path fill="#444444" d="M162.25,41.302h-2.486v2.431h-0.88v-5.5h0.88v2.299h2.486v-2.299h0.879v5.5h-0.879V41.302z"/>
	<path fill="#444444" d="M168.838,43.292c-0.219,0.177-0.496,0.315-0.83,0.418c-0.334,0.104-0.688,0.154-1.061,0.154
		c-0.419,0-0.781-0.067-1.09-0.203c-0.308-0.136-0.561-0.33-0.759-0.583s-0.345-0.556-0.44-0.907
		c-0.096-0.353-0.143-0.748-0.143-1.188c0-0.938,0.209-1.653,0.627-2.145s1.016-0.737,1.793-0.737c0.249,0,0.498,0.027,0.748,0.082
		c0.249,0.056,0.473,0.16,0.671,0.313c0.198,0.154,0.359,0.373,0.483,0.655c0.125,0.282,0.188,0.654,0.188,1.116
		c0,0.242-0.021,0.51-0.066,0.803h-3.53c0,0.323,0.032,0.609,0.099,0.858s0.169,0.46,0.309,0.632
		c0.139,0.173,0.32,0.305,0.544,0.396s0.497,0.138,0.819,0.138c0.25,0,0.499-0.044,0.748-0.132c0.25-0.089,0.437-0.191,0.562-0.309
		L168.838,43.292z M166.947,38.871c-0.434,0-0.779,0.114-1.04,0.341c-0.261,0.228-0.417,0.616-0.468,1.166h2.729
		c0-0.557-0.107-0.947-0.319-1.171C167.636,38.983,167.335,38.871,166.947,38.871z"/>
	<path fill="#444444" d="M173.777,41.302h-2.486v2.431h-0.879v-5.5h0.879v2.299h2.486v-2.299h0.88v5.5h-0.88V41.302z"/>
	<path fill="#444444" d="M180.366,43.292c-0.22,0.177-0.497,0.315-0.83,0.418c-0.334,0.104-0.688,0.154-1.062,0.154
		c-0.418,0-0.781-0.067-1.09-0.203c-0.307-0.136-0.561-0.33-0.758-0.583c-0.199-0.253-0.346-0.556-0.44-0.907
		c-0.096-0.353-0.144-0.748-0.144-1.188c0-0.938,0.209-1.653,0.627-2.145s1.016-0.737,1.793-0.737c0.25,0,0.499,0.027,0.748,0.082
		c0.25,0.056,0.474,0.16,0.672,0.313c0.197,0.154,0.359,0.373,0.483,0.655c0.125,0.282,0.187,0.654,0.187,1.116
		c0,0.242-0.021,0.51-0.065,0.803h-3.53c0,0.323,0.032,0.609,0.098,0.858c0.066,0.249,0.17,0.46,0.309,0.632
		c0.139,0.173,0.32,0.305,0.545,0.396c0.223,0.092,0.496,0.138,0.819,0.138c0.249,0,0.499-0.044,0.748-0.132
		c0.249-0.089,0.437-0.191,0.562-0.309L180.366,43.292z M178.475,38.871c-0.434,0-0.779,0.114-1.039,0.341
		c-0.262,0.228-0.417,0.616-0.469,1.166h2.729c0-0.557-0.106-0.947-0.318-1.171C179.164,38.983,178.863,38.871,178.475,38.871z"/>
	<path fill="#444444" d="M185.371,40.477l0.033-0.683h-0.033l-0.451,0.704l-2.475,3.234h-0.506v-5.5h0.88v3.355l-0.033,0.648h0.044
		l0.43-0.682l2.475-3.322h0.518v5.5h-0.881V40.477z"/>
	<path fill="#444444" d="M191.377,40.477l0.033-0.683h-0.033l-0.451,0.704l-2.475,3.234h-0.506v-5.5h0.88v3.355l-0.033,0.648h0.044
		l0.43-0.682l2.475-3.322h0.518v5.5h-0.881V40.477z M189.21,36.011c0.073,0.337,0.2,0.571,0.38,0.704
		c0.18,0.132,0.387,0.197,0.621,0.197s0.443-0.069,0.627-0.209c0.184-0.139,0.309-0.366,0.374-0.682l0.66,0.209
		c-0.065,0.426-0.255,0.752-0.566,0.979c-0.312,0.228-0.685,0.342-1.116,0.342c-0.198,0-0.395-0.026-0.589-0.077
		c-0.194-0.052-0.368-0.129-0.522-0.231s-0.286-0.234-0.396-0.396c-0.109-0.161-0.184-0.353-0.22-0.572L189.21,36.011z"/>
	<path fill="#444444" d="M193.885,43.227c0-0.198,0.058-0.354,0.172-0.468c0.113-0.113,0.266-0.17,0.456-0.17
		c0.198,0,0.355,0.057,0.473,0.17c0.117,0.114,0.177,0.27,0.177,0.468c0,0.19-0.06,0.345-0.177,0.462s-0.274,0.176-0.473,0.176
		c-0.19,0-0.343-0.059-0.456-0.176C193.942,43.572,193.885,43.417,193.885,43.227z M196.68,43.227c0-0.198,0.057-0.354,0.17-0.468
		c0.113-0.113,0.266-0.17,0.457-0.17c0.197,0,0.355,0.057,0.473,0.17c0.117,0.114,0.176,0.27,0.176,0.468
		c0,0.19-0.059,0.345-0.176,0.462s-0.275,0.176-0.473,0.176c-0.191,0-0.344-0.059-0.457-0.176S196.68,43.417,196.68,43.227z
		 M199.474,43.227c0-0.198,0.057-0.354,0.171-0.468c0.113-0.113,0.266-0.17,0.456-0.17c0.198,0,0.355,0.057,0.474,0.17
		c0.117,0.114,0.176,0.27,0.176,0.468c0,0.19-0.059,0.345-0.176,0.462c-0.118,0.117-0.275,0.176-0.474,0.176
		c-0.19,0-0.343-0.059-0.456-0.176C199.53,43.572,199.474,43.417,199.474,43.227z"/>
</g>
<rect x="225.699" y="94.833" fill="none" width="87.551" height="24.518"/>
<g enable-background="new    ">
	<path fill="#444444" d="M254.24,102.028c0-0.198,0.057-0.354,0.17-0.468c0.113-0.113,0.266-0.17,0.457-0.17
		c0.197,0,0.355,0.057,0.473,0.17c0.117,0.114,0.176,0.27,0.176,0.468c0,0.19-0.059,0.345-0.176,0.462s-0.275,0.176-0.473,0.176
		c-0.191,0-0.344-0.059-0.457-0.176S254.24,102.218,254.24,102.028z M257.034,102.028c0-0.198,0.057-0.354,0.171-0.468
		c0.113-0.113,0.266-0.17,0.456-0.17c0.198,0,0.355,0.057,0.473,0.17c0.117,0.114,0.177,0.27,0.177,0.468
		c0,0.19-0.06,0.345-0.177,0.462s-0.274,0.176-0.473,0.176c-0.19,0-0.343-0.059-0.456-0.176
		C257.091,102.373,257.034,102.218,257.034,102.028z M259.828,102.028c0-0.198,0.057-0.354,0.17-0.468
		c0.114-0.113,0.266-0.17,0.457-0.17c0.197,0,0.355,0.057,0.473,0.17c0.117,0.114,0.176,0.27,0.176,0.468
		c0,0.19-0.059,0.345-0.176,0.462s-0.275,0.176-0.473,0.176c-0.191,0-0.343-0.059-0.457-0.176
		C259.885,102.373,259.828,102.218,259.828,102.028z"/>
	<path fill="#444444" d="M262.347,99.784c0-0.932,0.207-1.645,0.622-2.14c0.414-0.495,1.01-0.742,1.787-0.742
		c0.41,0,0.768,0.067,1.072,0.203s0.556,0.33,0.754,0.583c0.197,0.253,0.344,0.558,0.439,0.913s0.143,0.75,0.143,1.183
		c0,0.932-0.207,1.645-0.621,2.14s-1.01,0.742-1.787,0.742c-0.411,0-0.769-0.067-1.072-0.203c-0.305-0.136-0.557-0.33-0.754-0.583
		c-0.198-0.253-0.345-0.558-0.439-0.913C262.395,100.611,262.347,100.216,262.347,99.784z M263.26,99.784
		c0,0.278,0.027,0.547,0.082,0.803c0.055,0.257,0.142,0.48,0.259,0.671c0.117,0.191,0.271,0.345,0.462,0.462
		c0.191,0.118,0.422,0.177,0.693,0.177c0.997,0.007,1.496-0.697,1.496-2.112c0-0.286-0.027-0.558-0.083-0.814
		c-0.055-0.256-0.142-0.479-0.259-0.671c-0.117-0.19-0.271-0.343-0.461-0.456c-0.191-0.113-0.422-0.171-0.693-0.171
		C263.758,97.665,263.26,98.369,263.26,99.784z"/>
	<path fill="#444444" d="M273.347,103.931h-0.594l-0.165-1.397h-4.137l-0.164,1.397h-0.594v-2.167h0.648
		c0.059-0.081,0.136-0.226,0.23-0.435c0.096-0.209,0.189-0.503,0.281-0.881c0.092-0.377,0.172-0.847,0.242-1.407
		c0.069-0.562,0.111-1.23,0.126-2.008h3.321v4.73h0.804V103.931z M271.664,101.764v-3.961h-1.65
		c-0.015,0.309-0.041,0.644-0.077,1.007s-0.086,0.727-0.148,1.089c-0.062,0.363-0.142,0.706-0.236,1.028
		c-0.095,0.323-0.206,0.602-0.33,0.837H271.664z"/>
	<path fill="#444444" d="M277.802,100.103h-2.485v2.431h-0.881v-5.5h0.881v2.299h2.485v-2.299h0.88v5.5h-0.88V100.103z"/>
	<path fill="#444444" d="M280.068,99.784c0-0.932,0.207-1.645,0.621-2.14s1.01-0.742,1.787-0.742c0.41,0,0.769,0.067,1.072,0.203
		c0.305,0.136,0.557,0.33,0.754,0.583c0.198,0.253,0.345,0.558,0.439,0.913c0.096,0.355,0.144,0.75,0.144,1.183
		c0,0.932-0.207,1.645-0.622,2.14c-0.414,0.495-1.01,0.742-1.787,0.742c-0.41,0-0.768-0.067-1.072-0.203s-0.556-0.33-0.754-0.583
		c-0.197-0.253-0.344-0.558-0.439-0.913S280.068,100.216,280.068,99.784z M280.98,99.784c0,0.278,0.027,0.547,0.083,0.803
		c0.055,0.257,0.142,0.48,0.259,0.671c0.117,0.191,0.271,0.345,0.461,0.462c0.191,0.118,0.422,0.177,0.693,0.177
		c0.998,0.007,1.496-0.697,1.496-2.112c0-0.286-0.027-0.558-0.082-0.814c-0.055-0.256-0.142-0.479-0.259-0.671
		c-0.117-0.19-0.271-0.343-0.462-0.456c-0.191-0.113-0.422-0.171-0.693-0.171C281.479,97.665,280.98,98.369,280.98,99.784z"/>
</g>
<g enable-background="new    ">
	<path fill="#444444" d="M240.83,112.477l0.033-0.683h-0.033l-0.45,0.704l-2.476,3.234h-0.506v-5.5h0.881v3.355l-0.033,0.648h0.043
		l0.43-0.682l2.475-3.322h0.518v5.5h-0.881V112.477z"/>
	<path fill="#444444" d="M243.933,113.28v-0.715h0.771c0.131,0,0.262-0.022,0.391-0.066c0.127-0.044,0.243-0.104,0.346-0.181
		c0.103-0.077,0.186-0.169,0.248-0.275s0.094-0.218,0.094-0.336c0-0.285-0.1-0.487-0.298-0.604s-0.495-0.176-0.891-0.176
		c-0.286,0-0.548,0.042-0.786,0.128s-0.424,0.167-0.557,0.246l-0.252-0.671c0.22-0.125,0.479-0.235,0.775-0.33
		c0.297-0.096,0.65-0.144,1.061-0.144c1.218,0,1.826,0.451,1.826,1.354c0,0.257-0.082,0.508-0.247,0.753
		c-0.165,0.246-0.401,0.42-0.71,0.522v0.044c0.434,0.081,0.736,0.235,0.908,0.462c0.172,0.228,0.258,0.528,0.258,0.902
		c0,0.234-0.047,0.451-0.143,0.649c-0.096,0.197-0.238,0.37-0.429,0.517s-0.431,0.263-0.721,0.347s-0.626,0.126-1.007,0.126
		c-0.373,0-0.684-0.032-0.93-0.099c-0.245-0.066-0.467-0.146-0.665-0.242l0.253-0.726c0.169,0.095,0.372,0.169,0.611,0.22
		c0.237,0.052,0.496,0.077,0.775,0.077c0.447,0,0.787-0.077,1.022-0.231c0.234-0.153,0.353-0.389,0.353-0.704
		c0-0.264-0.111-0.471-0.33-0.621c-0.221-0.15-0.584-0.226-1.09-0.226H243.933z"/>
	<path fill="#444444" d="M252.799,112.466l0.066-1.045h-0.056l-0.396,0.847l-1.332,2.156h-0.307l-1.387-2.156l-0.363-0.847h-0.043
		l0.088,1.033v3.278h-0.814v-5.5h0.869l1.539,2.464l0.32,0.638h0.021l0.33-0.659l1.441-2.442h0.879v5.5h-0.857V112.466z"/>
	<path fill="#444444" d="M259.365,115.292c-0.22,0.177-0.496,0.315-0.83,0.418c-0.334,0.104-0.688,0.154-1.062,0.154
		c-0.419,0-0.781-0.067-1.089-0.203c-0.309-0.136-0.562-0.33-0.76-0.583c-0.197-0.253-0.344-0.556-0.439-0.907
		c-0.096-0.353-0.143-0.748-0.143-1.188c0-0.938,0.209-1.653,0.627-2.145s1.016-0.737,1.793-0.737c0.248,0,0.498,0.027,0.748,0.082
		c0.248,0.056,0.473,0.16,0.67,0.313c0.199,0.154,0.359,0.373,0.484,0.655s0.188,0.654,0.188,1.116c0,0.242-0.022,0.51-0.066,0.803
		h-3.531c0,0.323,0.033,0.609,0.1,0.858s0.168,0.46,0.308,0.632c0.14,0.173,0.321,0.305,0.544,0.396
		c0.225,0.092,0.498,0.138,0.82,0.138c0.249,0,0.498-0.044,0.748-0.132c0.249-0.089,0.436-0.191,0.561-0.309L259.365,115.292z
		 M257.474,110.871c-0.433,0-0.779,0.114-1.04,0.341c-0.26,0.228-0.416,0.616-0.467,1.166h2.728c0-0.557-0.106-0.947-0.319-1.171
		S257.861,110.871,257.474,110.871z"/>
	<path fill="#444444" d="M264.305,113.302h-2.486v2.431h-0.88v-5.5h0.88v2.299h2.486v-2.299h0.879v5.5h-0.879V113.302z"/>
	<path fill="#444444" d="M270.893,115.292c-0.219,0.177-0.496,0.315-0.83,0.418c-0.334,0.104-0.688,0.154-1.061,0.154
		c-0.419,0-0.781-0.067-1.09-0.203c-0.308-0.136-0.561-0.33-0.759-0.583s-0.345-0.556-0.44-0.907
		c-0.096-0.353-0.143-0.748-0.143-1.188c0-0.938,0.209-1.653,0.627-2.145s1.016-0.737,1.793-0.737c0.249,0,0.498,0.027,0.748,0.082
		c0.249,0.056,0.473,0.16,0.671,0.313c0.198,0.154,0.359,0.373,0.483,0.655c0.125,0.282,0.188,0.654,0.188,1.116
		c0,0.242-0.021,0.51-0.066,0.803h-3.53c0,0.323,0.032,0.609,0.099,0.858s0.169,0.46,0.309,0.632
		c0.139,0.173,0.32,0.305,0.544,0.396s0.497,0.138,0.819,0.138c0.25,0,0.499-0.044,0.748-0.132c0.25-0.089,0.437-0.191,0.562-0.309
		L270.893,115.292z M269.002,110.871c-0.434,0-0.779,0.114-1.04,0.341c-0.261,0.228-0.417,0.616-0.468,1.166h2.729
		c0-0.557-0.107-0.947-0.319-1.171C269.69,110.983,269.39,110.871,269.002,110.871z"/>
	<path fill="#444444" d="M275.832,113.302h-2.486v2.431h-0.879v-5.5h0.879v2.299h2.486v-2.299h0.88v5.5h-0.88V113.302z"/>
	<path fill="#444444" d="M281.838,112.477l0.033-0.683h-0.033l-0.451,0.704l-2.475,3.234h-0.506v-5.5h0.88v3.355l-0.033,0.648h0.044
		l0.43-0.682l2.475-3.322h0.518v5.5h-0.881V112.477z"/>
	<path fill="#444444" d="M288.427,115.292c-0.22,0.177-0.497,0.315-0.83,0.418c-0.334,0.104-0.688,0.154-1.062,0.154
		c-0.418,0-0.781-0.067-1.09-0.203c-0.307-0.136-0.561-0.33-0.758-0.583c-0.199-0.253-0.346-0.556-0.44-0.907
		c-0.096-0.353-0.144-0.748-0.144-1.188c0-0.938,0.209-1.653,0.627-2.145s1.016-0.737,1.793-0.737c0.25,0,0.499,0.027,0.748,0.082
		c0.25,0.056,0.474,0.16,0.672,0.313c0.197,0.154,0.359,0.373,0.483,0.655c0.125,0.282,0.187,0.654,0.187,1.116
		c0,0.242-0.021,0.51-0.065,0.803h-3.53c0,0.323,0.032,0.609,0.098,0.858c0.066,0.249,0.17,0.46,0.309,0.632
		c0.139,0.173,0.32,0.305,0.545,0.396c0.223,0.092,0.496,0.138,0.819,0.138c0.249,0,0.499-0.044,0.748-0.132
		c0.249-0.089,0.437-0.191,0.562-0.309L288.427,115.292z M286.535,110.871c-0.434,0-0.779,0.114-1.039,0.341
		c-0.262,0.228-0.417,0.616-0.469,1.166h2.729c0-0.557-0.106-0.947-0.318-1.171C287.225,110.983,286.924,110.871,286.535,110.871z"
		/>
	<path fill="#444444" d="M293.465,113.28v-0.715h0.77c0.133,0,0.263-0.022,0.391-0.066c0.129-0.044,0.244-0.104,0.347-0.181
		c0.103-0.077,0.185-0.169,0.247-0.275s0.094-0.218,0.094-0.336c0-0.285-0.099-0.487-0.297-0.604
		c-0.197-0.117-0.494-0.176-0.891-0.176c-0.286,0-0.549,0.042-0.787,0.128s-0.423,0.167-0.555,0.246l-0.254-0.671
		c0.221-0.125,0.479-0.235,0.775-0.33c0.298-0.096,0.651-0.144,1.062-0.144c1.217,0,1.826,0.451,1.826,1.354
		c0,0.257-0.083,0.508-0.248,0.753c-0.165,0.246-0.401,0.42-0.709,0.522v0.044c0.432,0.081,0.734,0.235,0.907,0.462
		c0.172,0.228,0.259,0.528,0.259,0.902c0,0.234-0.049,0.451-0.144,0.649c-0.095,0.197-0.238,0.37-0.429,0.517
		c-0.191,0.146-0.432,0.263-0.721,0.347c-0.29,0.084-0.625,0.126-1.006,0.126c-0.375,0-0.685-0.032-0.93-0.099
		c-0.246-0.066-0.468-0.146-0.666-0.242l0.253-0.726c0.169,0.095,0.372,0.169,0.61,0.22c0.238,0.052,0.497,0.077,0.775,0.077
		c0.447,0,0.789-0.077,1.023-0.231c0.234-0.153,0.352-0.389,0.352-0.704c0-0.264-0.109-0.471-0.33-0.621
		c-0.22-0.15-0.582-0.226-1.088-0.226H293.465z"/>
	<path fill="#444444" d="M297.699,110.64c0.279-0.169,0.604-0.293,0.975-0.374c0.369-0.081,0.757-0.121,1.16-0.121
		c0.381,0,0.688,0.052,0.918,0.154c0.231,0.103,0.407,0.236,0.528,0.401s0.202,0.347,0.242,0.544
		c0.04,0.198,0.061,0.396,0.061,0.595c0,0.439-0.011,0.868-0.033,1.286s-0.032,0.814-0.032,1.188c0,0.271,0.01,0.528,0.032,0.77
		c0.022,0.242,0.062,0.466,0.121,0.672h-0.649l-0.23-0.771h-0.055c-0.066,0.103-0.148,0.203-0.248,0.303
		c-0.099,0.099-0.219,0.187-0.357,0.264s-0.301,0.142-0.484,0.192c-0.184,0.052-0.393,0.077-0.627,0.077s-0.453-0.037-0.654-0.11
		s-0.375-0.178-0.522-0.313c-0.146-0.135-0.263-0.298-0.347-0.489c-0.084-0.19-0.126-0.407-0.126-0.648
		c0-0.323,0.065-0.593,0.198-0.809c0.131-0.217,0.316-0.389,0.555-0.518c0.238-0.128,0.524-0.22,0.858-0.274
		c0.333-0.056,0.702-0.083,1.105-0.083c0.103,0,0.204,0,0.303,0s0.2,0.008,0.302,0.022c0.022-0.221,0.033-0.418,0.033-0.594
		c0-0.403-0.08-0.687-0.242-0.848c-0.161-0.161-0.454-0.242-0.879-0.242c-0.125,0-0.26,0.01-0.402,0.028
		c-0.143,0.02-0.289,0.046-0.439,0.08c-0.15,0.033-0.293,0.075-0.43,0.124c-0.135,0.049-0.254,0.104-0.357,0.164L297.699,110.64z
		 M299.262,115.051c0.205,0,0.389-0.028,0.551-0.083c0.16-0.055,0.3-0.124,0.418-0.209c0.117-0.084,0.214-0.178,0.291-0.28
		s0.134-0.202,0.17-0.297v-0.913c-0.102-0.008-0.207-0.013-0.312-0.017c-0.107-0.004-0.211-0.006-0.314-0.006
		c-0.227,0-0.449,0.014-0.665,0.039s-0.407,0.073-0.571,0.143c-0.166,0.07-0.298,0.165-0.396,0.286
		c-0.1,0.121-0.148,0.273-0.148,0.457c0,0.256,0.092,0.467,0.275,0.632C298.741,114.968,298.977,115.051,299.262,115.051z"/>
</g>
<rect x="221.699" y="193.833" fill="none" width="87.551" height="24.519"/>
<g enable-background="new    ">
	<path fill="#444444" d="M238.59,201.028c0-0.198,0.058-0.354,0.172-0.468c0.113-0.113,0.266-0.17,0.456-0.17
		c0.198,0,0.355,0.057,0.473,0.17c0.117,0.114,0.177,0.27,0.177,0.468c0,0.19-0.06,0.345-0.177,0.462s-0.274,0.176-0.473,0.176
		c-0.19,0-0.343-0.059-0.456-0.176C238.647,201.373,238.59,201.218,238.59,201.028z M241.385,201.028
		c0-0.198,0.057-0.354,0.17-0.468c0.113-0.113,0.266-0.17,0.457-0.17c0.197,0,0.355,0.057,0.473,0.17
		c0.117,0.114,0.176,0.27,0.176,0.468c0,0.19-0.059,0.345-0.176,0.462s-0.275,0.176-0.473,0.176c-0.191,0-0.344-0.059-0.457-0.176
		S241.385,201.218,241.385,201.028z M244.179,201.028c0-0.198,0.057-0.354,0.171-0.468c0.113-0.113,0.266-0.17,0.456-0.17
		c0.198,0,0.355,0.057,0.474,0.17c0.117,0.114,0.176,0.27,0.176,0.468c0,0.19-0.059,0.345-0.176,0.462
		c-0.118,0.117-0.275,0.176-0.474,0.176c-0.19,0-0.343-0.059-0.456-0.176C244.235,201.373,244.179,201.218,244.179,201.028z"/>
	<path fill="#444444" d="M250.932,198.278l0.033-0.683h-0.033l-0.45,0.704l-2.476,3.234H247.5v-5.5h0.881v3.355l-0.033,0.648h0.043
		l0.43-0.682l2.475-3.322h0.518v5.5h-0.881V198.278z"/>
	<path fill="#444444" d="M254.034,199.081v-0.715h0.771c0.131,0,0.262-0.022,0.391-0.066c0.127-0.044,0.243-0.104,0.346-0.181
		c0.103-0.077,0.186-0.169,0.248-0.275s0.094-0.218,0.094-0.336c0-0.285-0.1-0.487-0.298-0.604s-0.495-0.176-0.891-0.176
		c-0.286,0-0.548,0.042-0.786,0.128s-0.424,0.167-0.557,0.246l-0.252-0.671c0.22-0.125,0.479-0.235,0.775-0.33
		c0.297-0.096,0.65-0.144,1.061-0.144c1.218,0,1.826,0.451,1.826,1.354c0,0.257-0.082,0.508-0.247,0.753
		c-0.165,0.246-0.401,0.42-0.71,0.522v0.044c0.434,0.081,0.736,0.235,0.908,0.462c0.172,0.228,0.258,0.528,0.258,0.902
		c0,0.234-0.047,0.451-0.143,0.649c-0.096,0.197-0.238,0.37-0.429,0.517s-0.431,0.263-0.721,0.347s-0.626,0.126-1.007,0.126
		c-0.373,0-0.684-0.032-0.93-0.099c-0.245-0.066-0.467-0.146-0.665-0.242l0.253-0.726c0.169,0.095,0.372,0.169,0.611,0.22
		c0.237,0.052,0.496,0.077,0.775,0.077c0.447,0,0.787-0.077,1.022-0.231c0.234-0.153,0.353-0.389,0.353-0.704
		c0-0.264-0.111-0.471-0.33-0.621c-0.221-0.15-0.584-0.226-1.09-0.226H254.034z"/>
	<path fill="#444444" d="M262.9,198.267l0.066-1.045h-0.056l-0.396,0.847l-1.332,2.156h-0.307l-1.387-2.156l-0.363-0.847h-0.043
		l0.088,1.033v3.278h-0.814v-5.5h0.869l1.539,2.464l0.32,0.638h0.021l0.33-0.659l1.441-2.442h0.879v5.5H262.9V198.267z"/>
	<path fill="#444444" d="M269.467,201.093c-0.22,0.177-0.496,0.315-0.83,0.418c-0.334,0.104-0.688,0.154-1.062,0.154
		c-0.419,0-0.781-0.067-1.089-0.203c-0.309-0.136-0.562-0.33-0.76-0.583c-0.197-0.253-0.344-0.556-0.439-0.907
		c-0.096-0.353-0.143-0.748-0.143-1.188c0-0.938,0.209-1.653,0.627-2.145s1.016-0.737,1.793-0.737c0.248,0,0.498,0.027,0.748,0.082
		c0.248,0.056,0.473,0.16,0.67,0.313c0.199,0.154,0.359,0.373,0.484,0.655s0.188,0.654,0.188,1.116c0,0.242-0.022,0.51-0.066,0.803
		h-3.531c0,0.323,0.033,0.609,0.1,0.858s0.168,0.46,0.308,0.632c0.14,0.173,0.321,0.305,0.544,0.396
		c0.225,0.092,0.498,0.138,0.82,0.138c0.249,0,0.498-0.044,0.748-0.132c0.249-0.089,0.436-0.191,0.561-0.309L269.467,201.093z
		 M267.575,196.671c-0.433,0-0.779,0.114-1.04,0.341c-0.26,0.228-0.416,0.616-0.467,1.166h2.728c0-0.557-0.106-0.947-0.319-1.171
		S267.963,196.671,267.575,196.671z"/>
	<path fill="#444444" d="M274.406,199.103h-2.486v2.431h-0.88v-5.5h0.88v2.299h2.486v-2.299h0.879v5.5h-0.879V199.103z"/>
	<path fill="#444444" d="M279.719,199.256l-0.848,0.133l-1.451,2.145h-1.066l1.319-1.881l0.44-0.407
		c-0.382-0.059-0.707-0.213-0.975-0.462s-0.4-0.587-0.4-1.012c0-0.33,0.057-0.612,0.17-0.848c0.113-0.234,0.277-0.429,0.49-0.583
		c0.212-0.153,0.465-0.266,0.758-0.335c0.294-0.069,0.624-0.104,0.99-0.104c0.271,0,0.524,0.019,0.76,0.055
		c0.234,0.037,0.465,0.077,0.692,0.121v5.456h-0.88V199.256z M279.719,196.782c-0.096-0.037-0.201-0.064-0.318-0.083
		c-0.118-0.018-0.221-0.027-0.309-0.027c-0.469,0-0.826,0.085-1.072,0.253c-0.246,0.169-0.369,0.437-0.369,0.804
		c0,0.33,0.131,0.585,0.391,0.765c0.261,0.18,0.604,0.269,1.029,0.269c0.007,0,0.018,0,0.033,0c0.014,0,0.043,0,0.088,0
		c0.043,0,0.105-0.001,0.187-0.005s0.194-0.009,0.341-0.017V196.782z"/>
	<path fill="#444444" d="M286.473,201.666c-0.396,0-0.734-0.061-1.018-0.182c-0.282-0.121-0.514-0.293-0.693-0.517
		s-0.314-0.495-0.406-0.814c-0.092-0.318-0.148-0.669-0.17-1.05h-1.101v2.431h-0.88v-5.5h0.88v2.299h1.11
		c0.059-0.784,0.273-1.386,0.645-1.804c0.369-0.418,0.922-0.627,1.655-0.627c0.403,0,0.746,0.067,1.028,0.203
		s0.514,0.33,0.693,0.583s0.31,0.558,0.391,0.913c0.08,0.355,0.121,0.75,0.121,1.183c0,0.932-0.186,1.645-0.557,2.14
		C287.803,201.418,287.235,201.666,286.473,201.666z M285.043,198.784c0,0.286,0.021,0.558,0.066,0.814
		c0.044,0.256,0.121,0.481,0.232,0.676c0.109,0.194,0.259,0.347,0.447,0.457c0.188,0.109,0.421,0.165,0.701,0.165
		c0.471,0,0.809-0.171,1.016-0.512c0.206-0.341,0.309-0.875,0.309-1.601c0-0.286-0.02-0.558-0.061-0.814
		c-0.041-0.256-0.112-0.481-0.215-0.676c-0.104-0.194-0.24-0.347-0.408-0.457c-0.17-0.109-0.387-0.165-0.652-0.165
		c-0.508,0-0.874,0.171-1.099,0.512S285.043,198.058,285.043,198.784z"/>
	<path fill="#444444" d="M293.436,196.803h-1.716v4.73h-0.88v-4.73h-1.716v-0.77h4.312V196.803z"/>
</g>
<g enable-background="new    ">
	<path fill="#444444" d="M243.25,209.244c0.256-0.015,0.525-0.033,0.809-0.055c0.281-0.022,0.633-0.033,1.051-0.033
		c0.726,0,1.246,0.112,1.562,0.336s0.474,0.562,0.474,1.018c0,0.257-0.076,0.508-0.227,0.753c-0.15,0.246-0.397,0.428-0.742,0.545
		v0.044c0.433,0.081,0.736,0.23,0.913,0.451c0.176,0.22,0.265,0.513,0.265,0.88c0,0.572-0.206,0.986-0.617,1.243
		c-0.41,0.257-1.026,0.385-1.848,0.385c-0.308,0-0.594-0.01-0.857-0.027c-0.265-0.019-0.525-0.039-0.781-0.061V209.244z
		 M245.208,211.554c0.132,0,0.261-0.022,0.385-0.066s0.236-0.104,0.335-0.182c0.1-0.077,0.18-0.166,0.242-0.27
		c0.062-0.103,0.094-0.212,0.094-0.33c0-0.293-0.088-0.496-0.264-0.61c-0.176-0.113-0.484-0.17-0.924-0.17
		c-0.235,0-0.42,0.004-0.556,0.011s-0.267,0.015-0.391,0.021v1.596H245.208z M244.13,213.996c0.14,0.015,0.276,0.026,0.413,0.033
		c0.135,0.008,0.295,0.011,0.479,0.011c0.49,0,0.855-0.069,1.094-0.209c0.238-0.139,0.357-0.377,0.357-0.715
		c0-0.264-0.101-0.479-0.303-0.644c-0.201-0.165-0.559-0.247-1.072-0.247h-0.968V213.996z"/>
	<path fill="#444444" d="M248.65,209.64c0.279-0.169,0.604-0.293,0.974-0.374s0.757-0.121,1.161-0.121
		c0.381,0,0.688,0.052,0.918,0.154s0.406,0.236,0.527,0.401s0.202,0.347,0.242,0.544c0.041,0.198,0.061,0.396,0.061,0.595
		c0,0.439-0.011,0.868-0.033,1.286c-0.021,0.418-0.032,0.814-0.032,1.188c0,0.271,0.011,0.528,0.032,0.77
		c0.022,0.242,0.062,0.466,0.121,0.672h-0.648l-0.23-0.771h-0.056c-0.065,0.103-0.148,0.203-0.247,0.303
		c-0.1,0.099-0.219,0.187-0.357,0.264c-0.14,0.077-0.301,0.142-0.484,0.192c-0.184,0.052-0.393,0.077-0.627,0.077
		s-0.453-0.037-0.654-0.11c-0.202-0.073-0.376-0.178-0.523-0.313c-0.146-0.135-0.262-0.298-0.346-0.489
		c-0.084-0.19-0.127-0.407-0.127-0.648c0-0.323,0.066-0.593,0.198-0.809c0.132-0.217,0.317-0.389,0.556-0.518
		c0.238-0.128,0.523-0.22,0.857-0.274c0.334-0.056,0.703-0.083,1.105-0.083c0.104,0,0.204,0,0.303,0c0.1,0,0.2,0.008,0.303,0.022
		c0.021-0.221,0.033-0.418,0.033-0.594c0-0.403-0.081-0.687-0.242-0.848c-0.162-0.161-0.455-0.242-0.88-0.242
		c-0.125,0-0.259,0.01-0.401,0.028c-0.143,0.02-0.29,0.046-0.44,0.08c-0.15,0.033-0.293,0.075-0.429,0.124s-0.255,0.104-0.357,0.164
		L248.65,209.64z M250.213,214.051c0.205,0,0.389-0.028,0.55-0.083s0.3-0.124,0.418-0.209c0.117-0.084,0.214-0.178,0.292-0.28
		c0.076-0.103,0.133-0.202,0.17-0.297v-0.913c-0.103-0.008-0.207-0.013-0.313-0.017s-0.211-0.006-0.313-0.006
		c-0.228,0-0.449,0.014-0.666,0.039c-0.216,0.025-0.406,0.073-0.571,0.143c-0.165,0.07-0.298,0.165-0.396,0.286
		c-0.1,0.121-0.149,0.273-0.149,0.457c0,0.256,0.092,0.467,0.275,0.632C249.691,213.968,249.927,214.051,250.213,214.051z"/>
	<path fill="#444444" d="M254.195,214.733v-5.5h0.879v4.73h1.881v-4.73h0.881v4.73h1.881v-4.73h0.88v5.5H254.195z"/>
	<path fill="#444444" d="M266.613,212.258h-0.506v2.475h-0.88v-5.5h0.88v2.486l0.473-0.154l1.76-2.332h0.957l-1.705,2.211
		l-0.461,0.363l0.571,0.439l1.837,2.486h-1.089L266.613,212.258z"/>
	<path fill="#444444" d="M270.057,211.983c0-0.932,0.207-1.645,0.621-2.14s1.01-0.742,1.788-0.742c0.41,0,0.769,0.067,1.072,0.203
		s0.556,0.33,0.753,0.583c0.199,0.253,0.346,0.558,0.44,0.913s0.144,0.75,0.144,1.183c0,0.932-0.207,1.645-0.622,2.14
		c-0.414,0.495-1.011,0.742-1.787,0.742c-0.411,0-0.769-0.067-1.073-0.203c-0.304-0.136-0.555-0.33-0.753-0.583
		s-0.345-0.558-0.44-0.913S270.057,212.416,270.057,211.983z M270.97,211.983c0,0.278,0.027,0.547,0.083,0.803
		c0.055,0.257,0.141,0.48,0.258,0.671c0.117,0.191,0.271,0.345,0.462,0.462c0.19,0.118,0.422,0.177,0.693,0.177
		c0.997,0.007,1.495-0.697,1.495-2.112c0-0.286-0.027-0.558-0.082-0.814c-0.055-0.256-0.141-0.479-0.258-0.671
		c-0.117-0.19-0.271-0.343-0.463-0.456c-0.19-0.113-0.422-0.171-0.692-0.171C271.469,209.864,270.97,210.568,270.97,211.983z"/>
	<path fill="#444444" d="M281.057,216.13h-0.594l-0.165-1.397h-4.136l-0.166,1.397h-0.594v-2.167h0.649
		c0.059-0.081,0.136-0.226,0.231-0.435c0.095-0.209,0.188-0.503,0.279-0.881c0.092-0.377,0.173-0.847,0.242-1.407
		c0.07-0.562,0.112-1.23,0.127-2.008h3.322v4.73h0.803V216.13z M279.373,213.963v-3.961h-1.649c-0.015,0.309-0.04,0.644-0.077,1.007
		s-0.086,0.727-0.148,1.089c-0.062,0.363-0.141,0.706-0.236,1.028c-0.096,0.323-0.205,0.602-0.33,0.837H279.373z"/>
	<path fill="#444444" d="M281.838,214.227c0-0.198,0.057-0.354,0.17-0.468c0.113-0.113,0.266-0.17,0.457-0.17
		c0.197,0,0.355,0.057,0.473,0.17c0.117,0.114,0.176,0.27,0.176,0.468c0,0.19-0.059,0.345-0.176,0.462s-0.275,0.176-0.473,0.176
		c-0.191,0-0.344-0.059-0.457-0.176S281.838,214.417,281.838,214.227z"/>
	<path fill="#444444" d="M284.906,214.227c0-0.198,0.057-0.354,0.17-0.468c0.114-0.113,0.266-0.17,0.457-0.17
		c0.197,0,0.355,0.057,0.473,0.17c0.117,0.114,0.176,0.27,0.176,0.468c0,0.19-0.059,0.345-0.176,0.462s-0.275,0.176-0.473,0.176
		c-0.191,0-0.343-0.059-0.457-0.176C284.963,214.572,284.906,214.417,284.906,214.227z"/>
	<path fill="#444444" d="M287.975,214.227c0-0.198,0.057-0.354,0.171-0.468c0.114-0.113,0.266-0.17,0.456-0.17
		c0.198,0,0.355,0.057,0.474,0.17c0.117,0.114,0.176,0.27,0.176,0.468c0,0.19-0.059,0.345-0.176,0.462
		c-0.118,0.117-0.275,0.176-0.474,0.176c-0.19,0-0.342-0.059-0.456-0.176S287.975,214.417,287.975,214.227z"/>
</g>
<rect x="107.699" y="232.333" fill="none" width="87.551" height="24.519"/>
<g enable-background="new    ">
	<path fill="#444444" d="M118.513,239.528c0-0.198,0.057-0.354,0.171-0.468c0.113-0.113,0.266-0.17,0.457-0.17
		c0.198,0,0.355,0.057,0.473,0.17c0.117,0.114,0.176,0.27,0.176,0.468c0,0.19-0.059,0.345-0.176,0.462s-0.275,0.176-0.473,0.176
		c-0.191,0-0.343-0.059-0.457-0.176C118.57,239.873,118.513,239.718,118.513,239.528z M121.308,239.528
		c0-0.198,0.057-0.354,0.17-0.468c0.113-0.113,0.266-0.17,0.457-0.17c0.198,0,0.355,0.057,0.473,0.17
		c0.117,0.114,0.176,0.27,0.176,0.468c0,0.19-0.059,0.345-0.176,0.462s-0.275,0.176-0.473,0.176c-0.191,0-0.343-0.059-0.457-0.176
		C121.364,239.873,121.308,239.718,121.308,239.528z M124.102,239.528c0-0.198,0.057-0.354,0.17-0.468
		c0.114-0.113,0.266-0.17,0.457-0.17c0.198,0,0.355,0.057,0.473,0.17c0.117,0.114,0.176,0.27,0.176,0.468
		c0,0.19-0.059,0.345-0.176,0.462c-0.118,0.117-0.275,0.176-0.473,0.176c-0.191,0-0.343-0.059-0.457-0.176
		S124.102,239.718,124.102,239.528z"/>
	<path fill="#444444" d="M130.789,237.603h-2.486v2.431h-0.88v-5.5h0.88v2.299h2.486v-2.299h0.88v5.5h-0.88V237.603z"/>
	<path fill="#444444" d="M137.378,239.593c-0.22,0.177-0.497,0.315-0.83,0.418c-0.334,0.104-0.688,0.154-1.062,0.154
		c-0.418,0-0.781-0.067-1.089-0.203c-0.308-0.136-0.561-0.33-0.759-0.583c-0.198-0.253-0.345-0.556-0.44-0.907
		c-0.096-0.353-0.143-0.748-0.143-1.188c0-0.938,0.209-1.653,0.627-2.145s1.016-0.737,1.793-0.737c0.249,0,0.499,0.027,0.748,0.082
		c0.249,0.056,0.473,0.16,0.671,0.313c0.198,0.154,0.359,0.373,0.484,0.655c0.125,0.282,0.187,0.654,0.187,1.116
		c0,0.242-0.022,0.51-0.066,0.803h-3.531c0,0.323,0.033,0.609,0.099,0.858c0.066,0.249,0.169,0.46,0.308,0.632
		c0.139,0.173,0.321,0.305,0.544,0.396s0.497,0.138,0.82,0.138c0.249,0,0.499-0.044,0.748-0.132
		c0.249-0.089,0.436-0.191,0.561-0.309L137.378,239.593z M135.486,235.171c-0.433,0-0.779,0.114-1.04,0.341
		c-0.261,0.228-0.417,0.616-0.468,1.166h2.728c0-0.557-0.106-0.947-0.319-1.171C136.175,235.284,135.875,235.171,135.486,235.171z"
		/>
	<path fill="#444444" d="M146.475,241.431h-0.594l-0.165-1.397h-4.136l-0.165,1.397h-0.594v-2.167h0.649
		c0.059-0.081,0.136-0.226,0.231-0.435s0.188-0.503,0.28-0.881c0.092-0.377,0.172-0.847,0.242-1.407
		c0.07-0.562,0.112-1.23,0.126-2.008h3.322v4.73h0.803V241.431z M144.792,239.264v-3.961h-1.65
		c-0.015,0.309-0.041,0.644-0.077,1.007s-0.086,0.727-0.148,1.089c-0.062,0.363-0.141,0.706-0.236,1.028
		c-0.095,0.323-0.206,0.602-0.33,0.837H144.792z"/>
	<path fill="#444444" d="M147.256,237.284c0-0.932,0.207-1.645,0.622-2.14c0.414-0.495,1.01-0.742,1.788-0.742
		c0.41,0,0.768,0.067,1.072,0.203s0.556,0.33,0.753,0.583c0.198,0.253,0.345,0.558,0.44,0.913s0.143,0.75,0.143,1.183
		c0,0.932-0.207,1.645-0.622,2.14c-0.414,0.495-1.01,0.742-1.787,0.742c-0.411,0-0.769-0.067-1.073-0.203s-0.556-0.33-0.753-0.583
		c-0.198-0.253-0.345-0.558-0.44-0.913C147.303,238.111,147.256,237.716,147.256,237.284z M148.169,237.284
		c0,0.278,0.027,0.547,0.083,0.803c0.055,0.257,0.141,0.48,0.258,0.671c0.117,0.191,0.271,0.345,0.462,0.462
		c0.191,0.118,0.422,0.177,0.693,0.177c0.997,0.007,1.496-0.697,1.496-2.112c0-0.286-0.027-0.558-0.083-0.814
		c-0.055-0.256-0.141-0.479-0.258-0.671c-0.117-0.19-0.271-0.343-0.462-0.456c-0.191-0.113-0.422-0.171-0.693-0.171
		C148.667,235.165,148.169,235.869,148.169,237.284z"/>
	<path fill="#444444" d="M153.966,235.512c0.242-0.352,0.51-0.599,0.803-0.742c0.293-0.143,0.66-0.214,1.1-0.214
		c0.675,0,1.194,0.22,1.557,0.659c0.363,0.44,0.544,1.09,0.544,1.947c0,0.99-0.211,1.738-0.632,2.244
		c-0.422,0.506-1.01,0.759-1.766,0.759c-0.807,0-1.412-0.278-1.815-0.836c-0.403-0.557-0.605-1.434-0.605-2.629
		c0-0.631,0.031-1.17,0.093-1.617c0.062-0.447,0.154-0.825,0.275-1.133c0.121-0.308,0.268-0.554,0.44-0.737
		c0.172-0.183,0.366-0.328,0.583-0.435c0.216-0.105,0.453-0.181,0.709-0.226c0.256-0.044,0.531-0.08,0.825-0.109
		c0.381-0.037,0.68-0.079,0.896-0.127c0.216-0.047,0.391-0.134,0.522-0.258l0.099,0.792c-0.073,0.065-0.154,0.121-0.242,0.165
		c-0.088,0.044-0.195,0.08-0.319,0.109s-0.273,0.056-0.445,0.077c-0.172,0.022-0.373,0.04-0.6,0.055
		c-0.315,0.022-0.592,0.061-0.831,0.116c-0.238,0.055-0.444,0.161-0.616,0.318c-0.172,0.158-0.308,0.382-0.407,0.671
		c-0.099,0.29-0.167,0.673-0.204,1.149H153.966z M154.065,237.294c0,0.279,0.029,0.547,0.088,0.804
		c0.059,0.256,0.148,0.481,0.27,0.676s0.277,0.347,0.467,0.457c0.191,0.109,0.415,0.165,0.671,0.165
		c0.506,0,0.881-0.182,1.127-0.545c0.246-0.363,0.368-0.9,0.368-1.611c0-0.278-0.025-0.535-0.077-0.771
		c-0.052-0.234-0.132-0.438-0.242-0.61c-0.11-0.172-0.25-0.304-0.418-0.396c-0.169-0.092-0.371-0.138-0.605-0.138
		c-0.572-0.007-0.99,0.159-1.254,0.501C154.197,236.167,154.065,236.657,154.065,237.294z"/>
	<path fill="#444444" d="M159.268,234.941c0.279-0.169,0.604-0.293,0.974-0.374s0.757-0.121,1.161-0.121
		c0.381,0,0.688,0.052,0.918,0.154s0.406,0.236,0.527,0.401s0.202,0.347,0.242,0.544c0.041,0.198,0.061,0.396,0.061,0.595
		c0,0.439-0.011,0.868-0.033,1.286c-0.021,0.418-0.032,0.814-0.032,1.188c0,0.271,0.011,0.528,0.032,0.77
		c0.022,0.242,0.062,0.466,0.121,0.672h-0.648l-0.23-0.771h-0.056c-0.065,0.103-0.148,0.203-0.247,0.303
		c-0.1,0.099-0.219,0.187-0.357,0.264c-0.14,0.077-0.301,0.142-0.484,0.192c-0.184,0.052-0.393,0.077-0.627,0.077
		s-0.453-0.037-0.654-0.11c-0.202-0.073-0.376-0.178-0.523-0.313c-0.146-0.135-0.262-0.298-0.346-0.489
		c-0.084-0.19-0.126-0.407-0.126-0.648c0-0.323,0.066-0.593,0.198-0.809c0.132-0.217,0.317-0.389,0.556-0.518
		c0.238-0.128,0.523-0.22,0.857-0.274c0.334-0.056,0.703-0.083,1.105-0.083c0.104,0,0.204,0,0.303,0c0.1,0,0.2,0.008,0.303,0.022
		c0.021-0.221,0.033-0.418,0.033-0.594c0-0.403-0.081-0.687-0.242-0.848c-0.162-0.161-0.455-0.242-0.88-0.242
		c-0.125,0-0.259,0.01-0.401,0.028c-0.143,0.02-0.29,0.046-0.44,0.08c-0.15,0.033-0.293,0.075-0.429,0.124s-0.255,0.104-0.357,0.164
		L159.268,234.941z M160.83,239.352c0.205,0,0.389-0.028,0.55-0.083s0.3-0.124,0.418-0.209c0.117-0.084,0.214-0.178,0.292-0.28
		c0.076-0.103,0.133-0.202,0.17-0.297v-0.913c-0.103-0.008-0.207-0.013-0.313-0.017s-0.211-0.006-0.313-0.006
		c-0.228,0-0.449,0.014-0.666,0.039c-0.216,0.025-0.406,0.073-0.571,0.143c-0.165,0.07-0.298,0.165-0.396,0.286
		c-0.1,0.121-0.149,0.273-0.149,0.457c0,0.256,0.092,0.467,0.275,0.632C160.309,239.269,160.544,239.352,160.83,239.352z"/>
	<path fill="#444444" d="M164.812,234.544c0.256-0.015,0.525-0.033,0.808-0.055c0.282-0.022,0.633-0.033,1.051-0.033
		c0.726,0,1.247,0.112,1.562,0.336c0.315,0.224,0.474,0.562,0.474,1.018c0,0.257-0.075,0.508-0.226,0.753
		c-0.15,0.246-0.398,0.428-0.742,0.545v0.044c0.432,0.081,0.736,0.23,0.912,0.451c0.176,0.22,0.265,0.513,0.265,0.88
		c0,0.572-0.206,0.986-0.616,1.243s-1.027,0.385-1.848,0.385c-0.309,0-0.594-0.01-0.858-0.027c-0.265-0.019-0.524-0.039-0.78-0.061
		V234.544z M166.77,236.855c0.133,0,0.261-0.022,0.385-0.066c0.125-0.044,0.236-0.104,0.336-0.182s0.18-0.166,0.242-0.27
		c0.062-0.103,0.094-0.212,0.094-0.33c0-0.293-0.088-0.496-0.264-0.61c-0.177-0.113-0.484-0.17-0.925-0.17
		c-0.235,0-0.42,0.004-0.556,0.011c-0.135,0.007-0.266,0.015-0.391,0.021v1.596H166.77z M165.691,239.296
		c0.14,0.015,0.277,0.026,0.413,0.033c0.136,0.008,0.295,0.011,0.479,0.011c0.491,0,0.856-0.069,1.095-0.209
		c0.238-0.139,0.357-0.377,0.357-0.715c0-0.264-0.102-0.479-0.303-0.644s-0.56-0.247-1.072-0.247h-0.969V239.296z"/>
	<path fill="#444444" d="M173.26,235.303h-1.596c-0.021,0.309-0.043,0.641-0.065,0.996s-0.056,0.711-0.099,1.066
		c-0.045,0.356-0.104,0.697-0.176,1.023c-0.074,0.326-0.168,0.614-0.281,0.863c-0.113,0.25-0.253,0.449-0.418,0.6
		s-0.361,0.226-0.588,0.226c-0.14,0-0.261-0.008-0.363-0.021c-0.104-0.016-0.195-0.041-0.275-0.077l0.133-0.737
		c0.088,0.029,0.183,0.044,0.285,0.044c0.146,0,0.279-0.062,0.396-0.187c0.117-0.125,0.22-0.361,0.308-0.71s0.161-0.83,0.22-1.446
		s0.1-1.419,0.121-2.409h3.278v5.5h-0.88V235.303z"/>
	<path fill="#444444" d="M178.572,237.756l-0.847,0.133l-1.452,2.145h-1.066l1.32-1.881l0.439-0.407
		c-0.381-0.059-0.706-0.213-0.974-0.462s-0.401-0.587-0.401-1.012c0-0.33,0.057-0.612,0.17-0.848
		c0.114-0.234,0.277-0.429,0.49-0.583c0.213-0.153,0.465-0.266,0.759-0.335s0.624-0.104,0.99-0.104c0.271,0,0.524,0.019,0.759,0.055
		c0.234,0.037,0.466,0.077,0.693,0.121v5.456h-0.881V237.756z M178.572,235.282c-0.095-0.037-0.201-0.064-0.318-0.083
		c-0.117-0.018-0.221-0.027-0.309-0.027c-0.469,0-0.826,0.085-1.072,0.253c-0.246,0.169-0.368,0.437-0.368,0.804
		c0,0.33,0.13,0.585,0.391,0.765s0.603,0.269,1.028,0.269c0.008,0,0.018,0,0.033,0c0.014,0,0.044,0,0.088,0s0.105-0.001,0.188-0.005
		c0.08-0.004,0.193-0.009,0.34-0.017V235.282z"/>
	<path fill="#444444" d="M183.797,237.756l-0.847,0.133l-1.452,2.145h-1.066l1.32-1.881l0.439-0.407
		c-0.381-0.059-0.706-0.213-0.974-0.462s-0.401-0.587-0.401-1.012c0-0.33,0.057-0.612,0.17-0.848
		c0.114-0.234,0.277-0.429,0.49-0.583c0.213-0.153,0.465-0.266,0.759-0.335s0.624-0.104,0.99-0.104c0.271,0,0.524,0.019,0.759,0.055
		c0.234,0.037,0.466,0.077,0.693,0.121v5.456h-0.881V237.756z M183.797,235.282c-0.095-0.037-0.201-0.064-0.318-0.083
		c-0.117-0.018-0.221-0.027-0.309-0.027c-0.469,0-0.826,0.085-1.072,0.253c-0.246,0.169-0.368,0.437-0.368,0.804
		c0,0.33,0.13,0.585,0.391,0.765s0.603,0.269,1.028,0.269c0.008,0,0.018,0,0.033,0c0.014,0,0.044,0,0.088,0s0.105-0.001,0.188-0.005
		c0.08-0.004,0.193-0.009,0.34-0.017V235.282z"/>
</g>
<g enable-background="new    ">
	<path fill="#444444" d="M126.126,250.802h-2.486v2.431h-0.88v-5.5h0.88v2.299h2.486v-2.299h0.88v5.5h-0.88V250.802z"/>
	<path fill="#444444" d="M128.393,250.483c0-0.932,0.207-1.645,0.622-2.14c0.414-0.495,1.01-0.742,1.788-0.742
		c0.41,0,0.768,0.067,1.072,0.203s0.556,0.33,0.753,0.583c0.198,0.253,0.345,0.558,0.44,0.913s0.143,0.75,0.143,1.183
		c0,0.932-0.207,1.645-0.622,2.14c-0.414,0.495-1.01,0.742-1.787,0.742c-0.411,0-0.769-0.067-1.073-0.203s-0.556-0.33-0.753-0.583
		c-0.198-0.253-0.345-0.558-0.44-0.913C128.44,251.31,128.393,250.916,128.393,250.483z M129.306,250.483
		c0,0.278,0.027,0.547,0.083,0.803c0.055,0.257,0.141,0.48,0.258,0.671c0.117,0.191,0.271,0.345,0.462,0.462
		c0.191,0.118,0.422,0.177,0.693,0.177c0.997,0.007,1.496-0.697,1.496-2.112c0-0.286-0.027-0.558-0.083-0.814
		c-0.055-0.256-0.141-0.479-0.258-0.671c-0.117-0.19-0.271-0.343-0.462-0.456c-0.191-0.113-0.422-0.171-0.693-0.171
		C129.804,248.364,129.306,249.068,129.306,250.483z"/>
	<path fill="#444444" d="M134.597,247.744c0.256-0.015,0.526-0.033,0.808-0.055c0.282-0.022,0.633-0.033,1.051-0.033
		c0.726,0,1.247,0.112,1.562,0.336c0.315,0.224,0.473,0.562,0.473,1.018c0,0.257-0.076,0.508-0.226,0.753
		c-0.15,0.246-0.398,0.428-0.743,0.545v0.044c0.433,0.081,0.737,0.23,0.913,0.451c0.176,0.22,0.264,0.513,0.264,0.88
		c0,0.572-0.206,0.986-0.616,1.243s-1.027,0.385-1.848,0.385c-0.308,0-0.594-0.01-0.858-0.027c-0.264-0.019-0.524-0.039-0.781-0.061
		V247.744z M136.555,250.054c0.132,0,0.26-0.022,0.385-0.066s0.236-0.104,0.335-0.182s0.18-0.166,0.242-0.27
		c0.062-0.103,0.093-0.212,0.093-0.33c0-0.293-0.088-0.496-0.264-0.61c-0.176-0.113-0.484-0.17-0.924-0.17
		c-0.235,0-0.42,0.004-0.555,0.011c-0.136,0.007-0.266,0.015-0.391,0.021v1.596H136.555z M135.477,252.496
		c0.139,0.015,0.277,0.026,0.413,0.033c0.135,0.008,0.295,0.011,0.479,0.011c0.491,0,0.856-0.069,1.094-0.209
		c0.238-0.139,0.357-0.377,0.357-0.715c0-0.264-0.101-0.479-0.302-0.644s-0.56-0.247-1.073-0.247h-0.968V252.496z"/>
	<path fill="#444444" d="M140.965,249.833c0.176-0.028,0.345-0.049,0.506-0.061c0.161-0.011,0.315-0.016,0.462-0.016
		c0.374,0,0.688,0.042,0.941,0.126c0.253,0.085,0.456,0.2,0.61,0.347c0.154,0.146,0.262,0.321,0.324,0.522
		c0.062,0.202,0.094,0.416,0.094,0.644c0,0.667-0.186,1.151-0.556,1.452s-0.97,0.451-1.798,0.451c-0.469,0-0.957-0.022-1.463-0.066
		v-5.5h0.88V249.833z M140.965,252.463c0.271,0.044,0.532,0.065,0.781,0.065c0.462,0,0.785-0.09,0.968-0.27
		c0.183-0.18,0.275-0.435,0.275-0.765c0-0.293-0.09-0.535-0.27-0.726s-0.493-0.286-0.94-0.286c-0.125,0-0.26,0.004-0.407,0.011
		c-0.146,0.008-0.282,0.029-0.407,0.066V252.463z M144.771,247.733h0.88v5.5h-0.88V247.733z"/>
	<path fill="#444444" d="M148.786,250.417l-1.848-2.684h1.078l1.045,1.518l0.308,0.627l0.319-0.627l1.067-1.518h0.99l-1.859,2.64
		l1.969,2.86h-1.045l-1.166-1.672l-0.33-0.66l-0.341,0.66l-1.188,1.672h-0.979L148.786,250.417z"/>
	<path fill="#444444" d="M158.125,253.277c-0.125,0.044-0.255,0.069-0.39,0.077c-0.136,0.007-0.259,0.011-0.369,0.011
		c-0.667,0-1.181-0.234-1.54-0.704c-0.359-0.469-0.539-1.195-0.539-2.178c0-0.938,0.198-1.646,0.594-2.123s0.968-0.715,1.716-0.715
		c0.205,0,0.381,0.015,0.528,0.044v-2.156h0.836v2.167c0.132-0.021,0.249-0.036,0.352-0.044c0.103-0.007,0.202-0.011,0.297-0.011
		c0.726,0,1.272,0.211,1.639,0.633c0.366,0.421,0.55,1.12,0.55,2.095c0,0.462-0.049,0.879-0.148,1.249
		c-0.099,0.37-0.244,0.684-0.434,0.94c-0.191,0.257-0.424,0.455-0.699,0.594c-0.275,0.14-0.592,0.209-0.951,0.209
		c-0.066,0-0.164-0.005-0.292-0.017c-0.128-0.011-0.233-0.031-0.313-0.061v2.146h-0.836V253.277z M157.586,252.639
		c0.088,0,0.176-0.004,0.264-0.012c0.088-0.007,0.183-0.021,0.286-0.044v-4.169c-0.088-0.015-0.17-0.025-0.248-0.032
		c-0.077-0.008-0.17-0.012-0.28-0.012c-0.455,0-0.809,0.171-1.062,0.512s-0.38,0.875-0.38,1.601c0,0.308,0.028,0.594,0.083,0.858
		c0.055,0.264,0.141,0.493,0.259,0.688c0.117,0.194,0.266,0.345,0.445,0.45C157.133,252.585,157.344,252.639,157.586,252.639z
		 M159.445,248.371c-0.088,0-0.167,0.002-0.237,0.006c-0.069,0.004-0.156,0.021-0.258,0.05v4.18
		c0.073,0.015,0.156,0.023,0.248,0.027s0.192,0.006,0.302,0.006c0.469,0,0.823-0.194,1.062-0.583s0.358-0.95,0.358-1.684
		c0-0.623-0.109-1.112-0.325-1.468C160.379,248.548,159.995,248.371,159.445,248.371z"/>
	<path fill="#444444" d="M166.562,249.977l0.033-0.683h-0.033l-0.451,0.704l-2.475,3.234h-0.506v-5.5h0.879v3.355l-0.033,0.648
		h0.045l0.429-0.682l2.476-3.322h0.517v5.5h-0.88V249.977z"/>
	<path fill="#444444" d="M169.708,247.733v1.496c0,0.198,0.011,0.376,0.033,0.533c0.022,0.158,0.065,0.294,0.132,0.407
		s0.161,0.202,0.286,0.264c0.124,0.062,0.29,0.094,0.495,0.094c0.33,0,0.602-0.036,0.814-0.11c0.212-0.073,0.373-0.153,0.483-0.241
		v-2.442h0.88v5.5h-0.88v-2.31c-0.118,0.073-0.292,0.153-0.522,0.241s-0.549,0.133-0.951,0.133c-0.271,0-0.51-0.029-0.715-0.089
		c-0.206-0.059-0.379-0.161-0.518-0.308c-0.14-0.146-0.244-0.341-0.313-0.583s-0.104-0.546-0.104-0.913v-1.672H169.708z"/>
	<path fill="#444444" d="M174.219,252.727c0-0.198,0.057-0.354,0.17-0.468c0.113-0.113,0.266-0.17,0.457-0.17
		c0.197,0,0.355,0.057,0.473,0.17c0.117,0.114,0.176,0.27,0.176,0.468c0,0.19-0.059,0.345-0.176,0.462s-0.275,0.176-0.473,0.176
		c-0.191,0-0.344-0.059-0.457-0.176S174.219,252.917,174.219,252.727z"/>
	<path fill="#444444" d="M177.287,252.727c0-0.198,0.057-0.354,0.17-0.468c0.113-0.113,0.266-0.17,0.457-0.17
		c0.197,0,0.355,0.057,0.473,0.17c0.117,0.114,0.176,0.27,0.176,0.468c0,0.19-0.059,0.345-0.176,0.462s-0.275,0.176-0.473,0.176
		c-0.191,0-0.344-0.059-0.457-0.176S177.287,252.917,177.287,252.727z"/>
	<path fill="#444444" d="M180.355,252.727c0-0.198,0.057-0.354,0.17-0.468c0.114-0.113,0.266-0.17,0.457-0.17
		c0.197,0,0.355,0.057,0.473,0.17c0.117,0.114,0.176,0.27,0.176,0.468c0,0.19-0.059,0.345-0.176,0.462s-0.275,0.176-0.473,0.176
		c-0.191,0-0.343-0.059-0.457-0.176C180.412,253.072,180.355,252.917,180.355,252.727z"/>
</g>
<rect x="11.699" y="196.833" fill="none" width="87.551" height="24.519"/>
<g enable-background="new    ">
	<path fill="#444444" d="M25.775,204.028c0-0.198,0.057-0.354,0.171-0.468c0.113-0.113,0.266-0.17,0.457-0.17
		c0.198,0,0.355,0.057,0.473,0.17c0.117,0.114,0.176,0.27,0.176,0.468c0,0.19-0.059,0.345-0.176,0.462s-0.275,0.176-0.473,0.176
		c-0.191,0-0.343-0.059-0.457-0.176C25.832,204.373,25.775,204.218,25.775,204.028z M28.569,204.028c0-0.198,0.057-0.354,0.17-0.468
		c0.113-0.113,0.266-0.17,0.457-0.17c0.198,0,0.355,0.057,0.473,0.17c0.117,0.114,0.176,0.27,0.176,0.468
		c0,0.19-0.059,0.345-0.176,0.462s-0.275,0.176-0.473,0.176c-0.191,0-0.343-0.059-0.457-0.176
		C28.626,204.373,28.569,204.218,28.569,204.028z M31.363,204.028c0-0.198,0.057-0.354,0.17-0.468
		c0.114-0.113,0.266-0.17,0.457-0.17c0.198,0,0.355,0.057,0.473,0.17c0.117,0.114,0.176,0.27,0.176,0.468
		c0,0.19-0.059,0.345-0.176,0.462c-0.118,0.117-0.275,0.176-0.473,0.176c-0.191,0-0.343-0.059-0.457-0.176
		S31.363,204.218,31.363,204.028z"/>
	<path fill="#444444" d="M38.117,201.278l0.033-0.683h-0.033l-0.451,0.704l-2.475,3.234h-0.506v-5.5h0.88v3.355l-0.033,0.648h0.044
		l0.429-0.682l2.475-3.322h0.517v5.5h-0.88V201.278z"/>
	<path fill="#444444" d="M46.994,202.103h-2.486v2.431h-0.88v-5.5h0.88v2.299h2.486v-2.299h0.88v5.5h-0.88V202.103z"/>
	<path fill="#444444" d="M53.583,204.093c-0.22,0.177-0.497,0.315-0.83,0.418c-0.334,0.104-0.688,0.154-1.062,0.154
		c-0.418,0-0.781-0.067-1.089-0.203c-0.308-0.136-0.561-0.33-0.759-0.583c-0.198-0.253-0.345-0.556-0.44-0.907
		c-0.096-0.353-0.143-0.748-0.143-1.188c0-0.938,0.209-1.653,0.627-2.145s1.016-0.737,1.793-0.737c0.249,0,0.499,0.027,0.748,0.082
		c0.249,0.056,0.473,0.16,0.671,0.313c0.198,0.154,0.359,0.373,0.484,0.655c0.125,0.282,0.187,0.654,0.187,1.116
		c0,0.242-0.022,0.51-0.066,0.803h-3.531c0,0.323,0.033,0.609,0.099,0.858c0.066,0.249,0.169,0.46,0.308,0.632
		c0.139,0.173,0.321,0.305,0.544,0.396s0.497,0.138,0.82,0.138c0.249,0,0.499-0.044,0.748-0.132
		c0.249-0.089,0.436-0.191,0.561-0.309L53.583,204.093z M51.691,199.671c-0.433,0-0.779,0.114-1.04,0.341
		c-0.261,0.228-0.417,0.616-0.468,1.166h2.728c0-0.557-0.106-0.947-0.319-1.171C52.38,199.784,52.079,199.671,51.691,199.671z"/>
	<path fill="#444444" d="M60.777,199.803h-1.595c-0.022,0.309-0.044,0.641-0.066,0.996s-0.055,0.711-0.099,1.066
		c-0.044,0.356-0.103,0.697-0.176,1.023c-0.074,0.326-0.167,0.614-0.281,0.863c-0.114,0.25-0.253,0.449-0.418,0.6
		s-0.361,0.226-0.588,0.226c-0.139,0-0.26-0.008-0.363-0.021c-0.103-0.016-0.195-0.041-0.275-0.077l0.132-0.737
		c0.088,0.029,0.183,0.044,0.286,0.044c0.147,0,0.279-0.062,0.396-0.187c0.117-0.125,0.22-0.361,0.308-0.71s0.161-0.83,0.22-1.446
		c0.059-0.616,0.099-1.419,0.121-2.409h3.278v5.5h-0.88V199.803z"/>
	<path fill="#444444" d="M63.043,201.784c0-0.932,0.207-1.645,0.622-2.14c0.414-0.495,1.01-0.742,1.788-0.742
		c0.41,0,0.768,0.067,1.072,0.203s0.556,0.33,0.753,0.583c0.198,0.253,0.345,0.558,0.44,0.913s0.143,0.75,0.143,1.183
		c0,0.932-0.207,1.645-0.622,2.14c-0.414,0.495-1.01,0.742-1.787,0.742c-0.411,0-0.769-0.067-1.073-0.203s-0.556-0.33-0.753-0.583
		c-0.198-0.253-0.345-0.558-0.44-0.913C63.09,202.611,63.043,202.216,63.043,201.784z M63.956,201.784
		c0,0.278,0.027,0.547,0.083,0.803c0.055,0.257,0.141,0.48,0.258,0.671c0.117,0.191,0.271,0.345,0.462,0.462
		c0.191,0.118,0.422,0.177,0.693,0.177c0.997,0.007,1.496-0.697,1.496-2.112c0-0.286-0.027-0.558-0.083-0.814
		c-0.055-0.256-0.141-0.479-0.258-0.671c-0.117-0.19-0.271-0.343-0.462-0.456c-0.191-0.113-0.422-0.171-0.693-0.171
		C64.455,199.665,63.956,200.369,63.956,201.784z"/>
	<path fill="#444444" d="M73.79,201.267l0.066-1.045H73.8l-0.396,0.847l-1.331,2.156h-0.308l-1.386-2.156l-0.363-0.847h-0.044
		l0.088,1.033v3.278h-0.814v-5.5h0.869l1.54,2.464l0.319,0.638h0.022l0.33-0.659l1.441-2.442h0.88v5.5H73.79V201.267z"/>
	<path fill="#444444" d="M76.253,199.441c0.279-0.169,0.604-0.293,0.974-0.374s0.757-0.121,1.161-0.121
		c0.381,0,0.688,0.052,0.918,0.154s0.407,0.236,0.528,0.401s0.202,0.347,0.242,0.544c0.04,0.198,0.061,0.396,0.061,0.595
		c0,0.439-0.011,0.868-0.033,1.286s-0.033,0.814-0.033,1.188c0,0.271,0.011,0.528,0.033,0.77c0.022,0.242,0.062,0.466,0.121,0.672
		h-0.649l-0.231-0.771H79.29c-0.066,0.103-0.148,0.203-0.248,0.303c-0.099,0.099-0.218,0.187-0.357,0.264s-0.301,0.142-0.484,0.192
		c-0.184,0.052-0.393,0.077-0.627,0.077c-0.235,0-0.453-0.037-0.655-0.11s-0.375-0.178-0.522-0.313
		c-0.146-0.135-0.262-0.298-0.346-0.489c-0.084-0.19-0.126-0.407-0.126-0.648c0-0.323,0.066-0.593,0.198-0.809
		c0.132-0.217,0.317-0.389,0.556-0.518c0.238-0.128,0.524-0.22,0.858-0.274c0.333-0.056,0.702-0.083,1.105-0.083
		c0.103,0,0.204,0,0.303,0c0.099,0,0.2,0.008,0.302,0.022c0.022-0.221,0.033-0.418,0.033-0.594c0-0.403-0.081-0.687-0.242-0.848
		c-0.162-0.161-0.455-0.242-0.88-0.242c-0.125,0-0.259,0.01-0.401,0.028c-0.143,0.02-0.29,0.046-0.44,0.08
		c-0.15,0.033-0.293,0.075-0.429,0.124s-0.255,0.104-0.357,0.164L76.253,199.441z M77.815,203.852c0.206,0,0.389-0.028,0.55-0.083
		c0.161-0.055,0.3-0.124,0.418-0.209c0.117-0.084,0.214-0.178,0.292-0.28s0.134-0.202,0.17-0.297v-0.913
		c-0.103-0.008-0.207-0.013-0.313-0.017s-0.211-0.006-0.313-0.006c-0.228,0-0.449,0.014-0.666,0.039s-0.407,0.073-0.572,0.143
		c-0.165,0.07-0.297,0.165-0.396,0.286c-0.099,0.121-0.149,0.273-0.149,0.457c0,0.256,0.092,0.467,0.275,0.632
		C77.295,203.769,77.53,203.852,77.815,203.852z"/>
	<path fill="#444444" d="M84.536,202.256l-0.847,0.133l-1.452,2.145H81.17l1.32-1.881l0.44-0.407
		c-0.381-0.059-0.706-0.213-0.974-0.462s-0.401-0.587-0.401-1.012c0-0.33,0.057-0.612,0.17-0.848
		c0.114-0.234,0.277-0.429,0.49-0.583c0.212-0.153,0.465-0.266,0.759-0.335s0.624-0.104,0.99-0.104c0.271,0,0.524,0.019,0.759,0.055
		c0.235,0.037,0.466,0.077,0.693,0.121v5.456h-0.88V202.256z M84.536,199.782c-0.095-0.037-0.202-0.064-0.319-0.083
		c-0.118-0.018-0.22-0.027-0.308-0.027c-0.469,0-0.827,0.085-1.072,0.253c-0.246,0.169-0.369,0.437-0.369,0.804
		c0,0.33,0.13,0.585,0.391,0.765c0.26,0.18,0.603,0.269,1.028,0.269c0.007,0,0.018,0,0.033,0c0.014,0,0.044,0,0.088,0
		s0.106-0.001,0.187-0.005c0.081-0.004,0.194-0.009,0.341-0.017V199.782z"/>
</g>
<g enable-background="new    ">
	<path fill="#444444" d="M28.827,212.64c0.279-0.169,0.604-0.293,0.974-0.374s0.757-0.121,1.161-0.121
		c0.381,0,0.688,0.052,0.918,0.154s0.407,0.236,0.528,0.401s0.202,0.347,0.242,0.544c0.04,0.198,0.061,0.396,0.061,0.595
		c0,0.439-0.011,0.868-0.033,1.286s-0.033,0.814-0.033,1.188c0,0.271,0.011,0.528,0.033,0.77c0.022,0.242,0.062,0.466,0.121,0.672
		h-0.649l-0.231-0.771h-0.055c-0.066,0.103-0.148,0.203-0.248,0.303c-0.099,0.099-0.218,0.187-0.357,0.264s-0.301,0.142-0.484,0.192
		c-0.184,0.052-0.393,0.077-0.627,0.077c-0.235,0-0.453-0.037-0.655-0.11s-0.375-0.178-0.522-0.313
		c-0.146-0.135-0.262-0.298-0.346-0.489c-0.084-0.19-0.126-0.407-0.126-0.648c0-0.323,0.066-0.593,0.198-0.809
		c0.132-0.217,0.317-0.389,0.556-0.518c0.238-0.128,0.524-0.22,0.858-0.274c0.333-0.056,0.702-0.083,1.105-0.083
		c0.103,0,0.204,0,0.303,0c0.099,0,0.2,0.008,0.302,0.022c0.022-0.221,0.033-0.418,0.033-0.594c0-0.403-0.081-0.687-0.242-0.848
		c-0.162-0.161-0.455-0.242-0.88-0.242c-0.125,0-0.259,0.01-0.401,0.028c-0.143,0.02-0.29,0.046-0.44,0.08
		c-0.15,0.033-0.293,0.075-0.429,0.124s-0.255,0.104-0.357,0.164L28.827,212.64z M30.389,217.051c0.206,0,0.389-0.028,0.55-0.083
		c0.161-0.055,0.3-0.124,0.418-0.209c0.117-0.084,0.214-0.178,0.292-0.28s0.134-0.202,0.17-0.297v-0.913
		c-0.103-0.008-0.207-0.013-0.313-0.017s-0.211-0.006-0.313-0.006c-0.228,0-0.449,0.014-0.666,0.039s-0.407,0.073-0.572,0.143
		c-0.165,0.07-0.297,0.165-0.396,0.286c-0.099,0.121-0.149,0.273-0.149,0.457c0,0.256,0.092,0.467,0.275,0.632
		C29.868,216.968,30.103,217.051,30.389,217.051z"/>
	<path fill="#444444" d="M34.371,212.244c0.256-0.015,0.526-0.033,0.808-0.055c0.282-0.022,0.633-0.033,1.051-0.033
		c0.726,0,1.247,0.112,1.562,0.336c0.315,0.224,0.473,0.562,0.473,1.018c0,0.257-0.076,0.508-0.226,0.753
		c-0.15,0.246-0.398,0.428-0.743,0.545v0.044c0.433,0.081,0.737,0.23,0.913,0.451c0.176,0.22,0.264,0.513,0.264,0.88
		c0,0.572-0.206,0.986-0.616,1.243s-1.027,0.385-1.848,0.385c-0.308,0-0.594-0.01-0.858-0.027c-0.264-0.019-0.524-0.039-0.781-0.061
		V212.244z M36.329,214.554c0.132,0,0.26-0.022,0.385-0.066s0.236-0.104,0.335-0.182s0.18-0.166,0.242-0.27
		c0.062-0.103,0.093-0.212,0.093-0.33c0-0.293-0.088-0.496-0.264-0.61c-0.176-0.113-0.484-0.17-0.924-0.17
		c-0.235,0-0.42,0.004-0.555,0.011c-0.136,0.007-0.266,0.015-0.391,0.021v1.596H36.329z M35.251,216.996
		c0.139,0.015,0.277,0.026,0.413,0.033c0.135,0.008,0.295,0.011,0.479,0.011c0.491,0,0.856-0.069,1.094-0.209
		c0.238-0.139,0.357-0.377,0.357-0.715c0-0.264-0.101-0.479-0.302-0.644s-0.56-0.247-1.073-0.247h-0.968V216.996z"/>
	<path fill="#444444" d="M43.358,213.002h-1.716v4.73h-0.88v-4.73h-1.716v-0.77h4.312V213.002z"/>
	<path fill="#444444" d="M43.743,214.983c0-0.932,0.207-1.645,0.622-2.14c0.414-0.495,1.01-0.742,1.788-0.742
		c0.41,0,0.768,0.067,1.072,0.203s0.556,0.33,0.753,0.583c0.198,0.253,0.345,0.558,0.44,0.913s0.143,0.75,0.143,1.183
		c0,0.932-0.207,1.645-0.622,2.14c-0.414,0.495-1.01,0.742-1.787,0.742c-0.411,0-0.769-0.067-1.073-0.203s-0.556-0.33-0.753-0.583
		c-0.198-0.253-0.345-0.558-0.44-0.913C43.79,215.81,43.743,215.416,43.743,214.983z M44.656,214.983
		c0,0.278,0.027,0.547,0.083,0.803c0.055,0.257,0.141,0.48,0.258,0.671c0.117,0.191,0.271,0.345,0.462,0.462
		c0.191,0.118,0.422,0.177,0.693,0.177c0.997,0.007,1.496-0.697,1.496-2.112c0-0.286-0.027-0.558-0.083-0.814
		c-0.055-0.256-0.141-0.479-0.258-0.671c-0.117-0.19-0.271-0.343-0.462-0.456c-0.191-0.113-0.422-0.171-0.693-0.171
		C45.154,212.864,44.656,213.568,44.656,214.983z"/>
	<path fill="#444444" d="M53.269,213.002h-1.716v4.73h-0.88v-4.73h-1.716v-0.77h4.312V213.002z"/>
	<path fill="#444444" d="M57.977,217.292c-0.22,0.177-0.497,0.315-0.83,0.418c-0.334,0.104-0.688,0.154-1.062,0.154
		c-0.418,0-0.781-0.067-1.089-0.203c-0.308-0.136-0.561-0.33-0.759-0.583c-0.198-0.253-0.345-0.556-0.44-0.907
		c-0.096-0.353-0.143-0.748-0.143-1.188c0-0.938,0.209-1.653,0.627-2.145s1.016-0.737,1.793-0.737c0.249,0,0.499,0.027,0.748,0.082
		c0.249,0.056,0.473,0.16,0.671,0.313c0.198,0.154,0.359,0.373,0.484,0.655c0.125,0.282,0.187,0.654,0.187,1.116
		c0,0.242-0.022,0.51-0.066,0.803h-3.531c0,0.323,0.033,0.609,0.099,0.858c0.066,0.249,0.169,0.46,0.308,0.632
		c0.139,0.173,0.321,0.305,0.544,0.396s0.497,0.138,0.82,0.138c0.249,0,0.499-0.044,0.748-0.132
		c0.249-0.089,0.436-0.191,0.561-0.309L57.977,217.292z M56.085,212.871c-0.433,0-0.779,0.114-1.04,0.341
		c-0.261,0.228-0.417,0.616-0.468,1.166h2.728c0-0.557-0.106-0.947-0.319-1.171C56.774,212.983,56.473,212.871,56.085,212.871z"/>
	<path fill="#444444" d="M63.18,217.37c-0.22,0.162-0.48,0.284-0.781,0.369c-0.301,0.084-0.616,0.126-0.946,0.126
		c-0.425,0-0.785-0.067-1.078-0.203s-0.534-0.33-0.721-0.583c-0.187-0.253-0.323-0.558-0.407-0.913
		c-0.084-0.355-0.126-0.75-0.126-1.183c0-0.932,0.205-1.645,0.616-2.14s1.001-0.742,1.771-0.742c0.352,0,0.651,0.027,0.896,0.082
		c0.246,0.056,0.468,0.134,0.666,0.236l-0.253,0.76c-0.168-0.096-0.355-0.171-0.561-0.226c-0.205-0.056-0.425-0.083-0.66-0.083
		c-1.042,0-1.562,0.704-1.562,2.112c0,0.278,0.027,0.545,0.083,0.798c0.055,0.253,0.146,0.477,0.275,0.671
		c0.128,0.194,0.297,0.35,0.506,0.467c0.209,0.118,0.468,0.177,0.775,0.177c0.264,0,0.5-0.04,0.709-0.121s0.38-0.173,0.512-0.275
		L63.18,217.37z"/>
	<path fill="#444444" d="M67.712,213.002h-1.716v4.73h-0.88v-4.73H63.4v-0.77h4.312V213.002z"/>
	<path fill="#444444" d="M69.46,214.333c0.176-0.028,0.345-0.049,0.506-0.061c0.161-0.011,0.315-0.016,0.462-0.016
		c0.374,0,0.688,0.042,0.941,0.126c0.253,0.085,0.456,0.2,0.61,0.347c0.154,0.146,0.262,0.321,0.324,0.522
		c0.062,0.202,0.094,0.416,0.094,0.644c0,0.667-0.186,1.151-0.556,1.452s-0.97,0.451-1.798,0.451c-0.469,0-0.957-0.022-1.463-0.066
		v-5.5h0.88V214.333z M69.46,216.963c0.271,0.044,0.532,0.065,0.781,0.065c0.462,0,0.785-0.09,0.968-0.27
		c0.183-0.18,0.275-0.435,0.275-0.765c0-0.293-0.09-0.535-0.27-0.726s-0.493-0.286-0.94-0.286c-0.125,0-0.26,0.004-0.407,0.011
		c-0.146,0.008-0.282,0.029-0.407,0.066V216.963z M73.267,212.233h0.88v5.5h-0.88V212.233z"/>
	<path fill="#444444" d="M75.533,217.227c0-0.198,0.057-0.354,0.17-0.468c0.114-0.113,0.266-0.17,0.457-0.17
		c0.198,0,0.355,0.057,0.473,0.17c0.117,0.114,0.176,0.27,0.176,0.468c0,0.19-0.059,0.345-0.176,0.462
		c-0.118,0.117-0.275,0.176-0.473,0.176c-0.191,0-0.343-0.059-0.457-0.176S75.533,217.417,75.533,217.227z"/>
	<path fill="#444444" d="M78.601,217.227c0-0.198,0.057-0.354,0.17-0.468c0.114-0.113,0.266-0.17,0.457-0.17
		c0.198,0,0.355,0.057,0.473,0.17c0.117,0.114,0.176,0.27,0.176,0.468c0,0.19-0.059,0.345-0.176,0.462
		c-0.118,0.117-0.275,0.176-0.473,0.176c-0.191,0-0.343-0.059-0.457-0.176S78.601,217.417,78.601,217.227z"/>
	<path fill="#444444" d="M81.67,217.227c0-0.198,0.057-0.354,0.17-0.468c0.114-0.113,0.266-0.17,0.457-0.17
		c0.198,0,0.355,0.057,0.473,0.17c0.117,0.114,0.176,0.27,0.176,0.468c0,0.19-0.059,0.345-0.176,0.462
		c-0.118,0.117-0.275,0.176-0.473,0.176c-0.191,0-0.343-0.059-0.457-0.176S81.67,217.417,81.67,217.227z"/>
</g>
<rect x="6.699" y="85.833" fill="none" width="87.551" height="24.518"/>
<g enable-background="new    ">
	<path fill="#444444" d="M9.555,93.028c0-0.198,0.057-0.354,0.171-0.468c0.113-0.113,0.266-0.17,0.457-0.17
		c0.198,0,0.355,0.057,0.473,0.17c0.117,0.114,0.176,0.27,0.176,0.468c0,0.19-0.059,0.345-0.176,0.462s-0.275,0.176-0.473,0.176
		c-0.191,0-0.343-0.059-0.457-0.176C9.612,93.373,9.555,93.218,9.555,93.028z M12.35,93.028c0-0.198,0.057-0.354,0.17-0.468
		c0.113-0.113,0.266-0.17,0.457-0.17c0.198,0,0.355,0.057,0.473,0.17c0.117,0.114,0.176,0.27,0.176,0.468
		c0,0.19-0.059,0.345-0.176,0.462s-0.275,0.176-0.473,0.176c-0.191,0-0.343-0.059-0.457-0.176
		C12.406,93.373,12.35,93.218,12.35,93.028z M15.144,93.028c0-0.198,0.057-0.354,0.17-0.468c0.114-0.113,0.266-0.17,0.457-0.17
		c0.198,0,0.355,0.057,0.473,0.17c0.117,0.114,0.176,0.27,0.176,0.468c0,0.19-0.059,0.345-0.176,0.462
		c-0.118,0.117-0.275,0.176-0.473,0.176c-0.191,0-0.343-0.059-0.457-0.176S15.144,93.218,15.144,93.028z"/>
	<path fill="#444444" d="M18.465,88.044c0.256-0.015,0.526-0.033,0.808-0.055c0.282-0.022,0.633-0.033,1.051-0.033
		c0.726,0,1.247,0.112,1.562,0.336c0.315,0.224,0.473,0.562,0.473,1.018c0,0.257-0.076,0.508-0.226,0.753
		c-0.15,0.246-0.398,0.428-0.743,0.545v0.044c0.433,0.081,0.737,0.23,0.913,0.451c0.176,0.22,0.264,0.513,0.264,0.88
		c0,0.572-0.206,0.986-0.616,1.243s-1.027,0.385-1.848,0.385c-0.308,0-0.594-0.01-0.858-0.027c-0.264-0.019-0.524-0.039-0.781-0.061
		V88.044z M20.423,90.355c0.132,0,0.26-0.022,0.385-0.066s0.236-0.104,0.335-0.182s0.18-0.166,0.242-0.27
		c0.062-0.103,0.093-0.212,0.093-0.33c0-0.293-0.088-0.496-0.264-0.61c-0.176-0.113-0.484-0.17-0.924-0.17
		c-0.235,0-0.42,0.004-0.555,0.011c-0.136,0.007-0.266,0.015-0.391,0.021v1.596H20.423z M19.345,92.796
		c0.139,0.015,0.277,0.026,0.413,0.033c0.135,0.008,0.295,0.011,0.479,0.011c0.491,0,0.856-0.069,1.094-0.209
		c0.238-0.139,0.357-0.377,0.357-0.715c0-0.264-0.101-0.479-0.302-0.644s-0.56-0.247-1.073-0.247h-0.968V92.796z"/>
	<path fill="#444444" d="M30.323,90.278l0.033-0.683h-0.033l-0.451,0.704l-2.475,3.234h-0.506v-5.5h0.88v3.355l-0.033,0.648h0.044
		l0.429-0.682l2.475-3.322h0.517v5.5h-0.88V90.278z"/>
	<path fill="#444444" d="M36.395,88.803h-1.716v4.73h-0.88v-4.73h-1.716v-0.77h4.312V88.803z"/>
	<path fill="#444444" d="M36.78,90.784c0-0.932,0.207-1.645,0.622-2.14c0.414-0.495,1.01-0.742,1.788-0.742
		c0.41,0,0.768,0.067,1.072,0.203s0.556,0.33,0.753,0.583c0.198,0.253,0.345,0.558,0.44,0.913s0.143,0.75,0.143,1.183
		c0,0.932-0.207,1.645-0.622,2.14c-0.414,0.495-1.01,0.742-1.787,0.742c-0.411,0-0.769-0.067-1.073-0.203s-0.556-0.33-0.753-0.583
		c-0.198-0.253-0.345-0.558-0.44-0.913C36.828,91.611,36.78,91.216,36.78,90.784z M37.693,90.784c0,0.278,0.027,0.547,0.083,0.803
		c0.055,0.257,0.141,0.48,0.258,0.671c0.117,0.191,0.271,0.345,0.462,0.462c0.191,0.118,0.422,0.177,0.693,0.177
		c0.997,0.007,1.496-0.697,1.496-2.112c0-0.286-0.027-0.558-0.083-0.814c-0.055-0.256-0.141-0.479-0.258-0.671
		c-0.117-0.19-0.271-0.343-0.462-0.456c-0.191-0.113-0.422-0.171-0.693-0.171C38.192,88.665,37.693,89.369,37.693,90.784z"/>
	<path fill="#444444" d="M46.196,88.803h-2.332v4.73h-0.88v-5.5h3.212V88.803z"/>
	<path fill="#444444" d="M50.882,93.093c-0.22,0.177-0.497,0.315-0.83,0.418c-0.334,0.104-0.688,0.154-1.062,0.154
		c-0.418,0-0.781-0.067-1.089-0.203c-0.308-0.136-0.561-0.33-0.759-0.583c-0.198-0.253-0.345-0.556-0.44-0.907
		c-0.096-0.353-0.143-0.748-0.143-1.188c0-0.938,0.209-1.653,0.627-2.145s1.016-0.737,1.793-0.737c0.249,0,0.499,0.027,0.748,0.082
		c0.249,0.056,0.473,0.16,0.671,0.313c0.198,0.154,0.359,0.373,0.484,0.655c0.125,0.282,0.187,0.654,0.187,1.116
		c0,0.242-0.022,0.51-0.066,0.803h-3.531c0,0.323,0.033,0.609,0.099,0.858c0.066,0.249,0.169,0.46,0.308,0.632
		c0.139,0.173,0.321,0.305,0.544,0.396s0.497,0.138,0.82,0.138c0.249,0,0.499-0.044,0.748-0.132
		c0.249-0.089,0.436-0.191,0.561-0.309L50.882,93.093z M48.99,88.671c-0.433,0-0.779,0.114-1.04,0.341
		c-0.261,0.228-0.417,0.616-0.468,1.166h2.728c0-0.557-0.106-0.947-0.319-1.171C49.679,88.784,49.378,88.671,48.99,88.671z"/>
	<path fill="#444444" d="M52.147,93.061c0-0.177,0.059-0.319,0.176-0.43c0.117-0.109,0.268-0.165,0.451-0.165
		c0.227,0,0.413,0.081,0.556,0.242c0.143,0.161,0.214,0.396,0.214,0.704c0,0.264-0.037,0.495-0.11,0.693
		c-0.074,0.197-0.169,0.368-0.286,0.512c-0.117,0.143-0.246,0.26-0.385,0.352c-0.139,0.092-0.279,0.159-0.418,0.203l-0.275-0.429
		c0.264-0.103,0.46-0.263,0.588-0.479c0.128-0.217,0.193-0.435,0.193-0.654c-0.066,0.021-0.128,0.033-0.187,0.033
		c-0.147,0-0.27-0.05-0.369-0.148C52.196,93.396,52.147,93.251,52.147,93.061z"/>
</g>
<g enable-background="new    ">
	<path fill="#444444" d="M62.64,94.788h-1.045l-0.165-1.254h-3.696l-0.165,1.254h-1.045v-2.519h0.649
		c0.059-0.081,0.134-0.219,0.226-0.413s0.183-0.46,0.275-0.797c0.092-0.338,0.17-0.756,0.236-1.254
		c0.066-0.499,0.099-1.09,0.099-1.771h3.828v4.235h0.803V94.788z M60.406,92.334v-3.091h-1.155
		c-0.015,0.264-0.041,0.545-0.077,0.842s-0.083,0.585-0.137,0.863c-0.055,0.278-0.12,0.539-0.193,0.781s-0.154,0.443-0.242,0.604
		H60.406z"/>
	<path fill="#444444" d="M67.82,93.061c-0.22,0.176-0.519,0.324-0.896,0.445c-0.377,0.121-0.779,0.182-1.205,0.182
		c-0.887,0-1.536-0.259-1.947-0.775c-0.411-0.518-0.616-1.227-0.616-2.129c0-0.968,0.231-1.694,0.693-2.178
		c0.462-0.484,1.111-0.727,1.947-0.727c0.279,0,0.55,0.037,0.814,0.11c0.264,0.073,0.499,0.194,0.704,0.363
		c0.205,0.168,0.37,0.396,0.495,0.682c0.125,0.286,0.187,0.642,0.187,1.067c0,0.153-0.009,0.318-0.028,0.495
		c-0.018,0.176-0.046,0.359-0.083,0.55h-3.3c0.022,0.462,0.141,0.811,0.357,1.045s0.566,0.352,1.051,0.352
		c0.3,0,0.57-0.046,0.808-0.138c0.238-0.091,0.42-0.185,0.545-0.28L67.82,93.061z M65.774,89.024c-0.374,0-0.651,0.111-0.831,0.335
		s-0.288,0.522-0.324,0.896h2.046c0.029-0.396-0.031-0.7-0.182-0.913C66.333,89.13,66.097,89.024,65.774,89.024z"/>
	<path fill="#444444" d="M71.879,89.298H70.79c-0.044,0.521-0.095,1.038-0.154,1.552c-0.059,0.513-0.152,0.973-0.28,1.38
		c-0.128,0.407-0.303,0.737-0.522,0.99c-0.22,0.253-0.506,0.38-0.858,0.38c-0.425,0-0.726-0.055-0.902-0.163l0.176-1.168
		c0.118,0.044,0.228,0.065,0.33,0.065c0.147,0,0.275-0.062,0.385-0.188s0.204-0.351,0.28-0.675c0.077-0.324,0.139-0.765,0.187-1.321
		s0.083-1.262,0.104-2.117h3.773v5.5h-1.43V89.298z"/>
	<path fill="#444444" d="M74.52,88.353c0.293-0.133,0.642-0.237,1.045-0.313c0.403-0.077,0.825-0.116,1.265-0.116
		c0.381,0,0.7,0.046,0.957,0.138s0.46,0.222,0.611,0.391c0.15,0.169,0.256,0.37,0.319,0.605c0.062,0.234,0.093,0.498,0.093,0.792
		c0,0.322-0.011,0.646-0.033,0.973c-0.022,0.327-0.035,0.647-0.039,0.963c-0.004,0.315,0.005,0.621,0.027,0.919
		c0.022,0.297,0.077,0.577,0.165,0.841h-1.166l-0.231-0.759h-0.055c-0.147,0.228-0.351,0.424-0.611,0.589s-0.596,0.247-1.006,0.247
		c-0.257,0-0.488-0.038-0.693-0.115c-0.206-0.077-0.381-0.188-0.528-0.33c-0.146-0.144-0.26-0.312-0.341-0.506
		s-0.121-0.413-0.121-0.654c0-0.338,0.075-0.622,0.226-0.853c0.15-0.231,0.367-0.418,0.649-0.562
		c0.282-0.143,0.62-0.242,1.012-0.297c0.392-0.055,0.831-0.071,1.314-0.05c0.051-0.41,0.022-0.705-0.088-0.885
		c-0.11-0.18-0.356-0.27-0.737-0.27c-0.286,0-0.588,0.029-0.907,0.088c-0.319,0.059-0.582,0.136-0.787,0.23L74.52,88.353z
		 M76.334,92.445c0.286,0,0.513-0.064,0.682-0.192c0.169-0.129,0.293-0.266,0.374-0.413v-0.715
		c-0.227-0.021-0.445-0.025-0.654-0.011s-0.395,0.048-0.556,0.099c-0.161,0.052-0.29,0.125-0.385,0.221
		c-0.096,0.095-0.143,0.216-0.143,0.362c0,0.206,0.061,0.365,0.182,0.479C75.955,92.388,76.122,92.445,76.334,92.445z"/>
	<path fill="#444444" d="M84.661,93.688c-0.411,0-0.761-0.056-1.05-0.165c-0.29-0.11-0.528-0.268-0.715-0.474
		c-0.187-0.205-0.33-0.454-0.429-0.748c-0.099-0.293-0.163-0.623-0.192-0.989h-0.836v2.222h-1.43v-5.5h1.43v2.068h0.847
		c0.073-0.712,0.299-1.26,0.677-1.645c0.377-0.386,0.952-0.578,1.721-0.578c0.418,0,0.777,0.07,1.078,0.209
		c0.301,0.14,0.55,0.336,0.748,0.589c0.198,0.253,0.343,0.56,0.435,0.918c0.092,0.36,0.138,0.756,0.138,1.188
		c0,0.932-0.198,1.648-0.594,2.15C86.091,93.437,85.482,93.688,84.661,93.688z M83.638,90.784c0,0.535,0.075,0.951,0.226,1.248
		c0.15,0.298,0.416,0.446,0.797,0.446c0.337,0,0.58-0.125,0.726-0.374c0.147-0.25,0.22-0.689,0.22-1.32
		c0-0.564-0.07-0.988-0.209-1.271c-0.14-0.282-0.396-0.424-0.77-0.424c-0.337,0-0.587,0.129-0.748,0.386
		C83.719,89.732,83.638,90.167,83.638,90.784z"/>
	<path fill="#444444" d="M91.954,89.298h-1.529v4.235h-1.474v-4.235h-1.573v-1.265h4.576V89.298z"/>
</g>
<g enable-background="new    ">
	<path fill="#444444" d="M26.225,104.456H25.84v2.277h-1.43v-5.5h1.43v2.343l0.341-0.153l1.287-2.189h1.529l-1.331,2.09
		l-0.561,0.418l0.616,0.429l1.485,2.563h-1.639L26.225,104.456z"/>
	<path fill="#444444" d="M29.382,103.983c0-0.932,0.228-1.648,0.682-2.15s1.093-0.754,1.914-0.754c0.44,0,0.821,0.07,1.144,0.209
		c0.323,0.14,0.59,0.336,0.803,0.589c0.213,0.253,0.373,0.56,0.479,0.918c0.106,0.36,0.16,0.756,0.16,1.188
		c0,0.932-0.226,1.648-0.676,2.15c-0.451,0.503-1.087,0.754-1.909,0.754c-0.44,0-0.821-0.07-1.144-0.209
		c-0.323-0.14-0.592-0.336-0.809-0.589s-0.377-0.559-0.484-0.918S29.382,104.416,29.382,103.983z M30.856,103.983
		c0,0.242,0.022,0.466,0.066,0.671s0.11,0.385,0.198,0.539s0.204,0.273,0.346,0.357c0.143,0.085,0.314,0.127,0.512,0.127
		c0.374,0,0.653-0.136,0.836-0.407s0.275-0.7,0.275-1.287c0-0.506-0.084-0.915-0.253-1.227c-0.168-0.312-0.455-0.468-0.858-0.468
		c-0.352,0-0.627,0.133-0.825,0.396C30.956,102.949,30.856,103.381,30.856,103.983z"/>
	<path fill="#444444" d="M41.021,107.987h-1.045l-0.165-1.254h-3.696l-0.165,1.254h-1.045v-2.519h0.649
		c0.059-0.081,0.134-0.219,0.226-0.413s0.183-0.46,0.275-0.797c0.092-0.338,0.17-0.756,0.236-1.254
		c0.066-0.499,0.099-1.09,0.099-1.771h3.828v4.235h0.803V107.987z M38.787,105.534v-3.091h-1.155
		c-0.015,0.264-0.041,0.545-0.077,0.842s-0.083,0.585-0.137,0.863c-0.055,0.278-0.12,0.539-0.193,0.781s-0.154,0.443-0.242,0.604
		H38.787z"/>
	<path fill="#444444" d="M47.279,102.498H46.19c-0.044,0.521-0.095,1.038-0.154,1.552c-0.059,0.513-0.152,0.973-0.28,1.38
		c-0.128,0.407-0.303,0.737-0.522,0.99c-0.22,0.253-0.506,0.38-0.858,0.38c-0.425,0-0.726-0.055-0.902-0.163l0.176-1.168
		c0.118,0.044,0.228,0.065,0.33,0.065c0.147,0,0.275-0.062,0.385-0.188s0.204-0.351,0.28-0.675c0.077-0.324,0.139-0.765,0.187-1.321
		s0.083-1.262,0.104-2.117h3.773v5.5h-1.43V102.498z"/>
	<path fill="#444444" d="M51.954,104.324l0.198,0.858h0.066l0.143-0.869l0.836-3.08h1.474l-1.672,4.961
		c-0.139,0.411-0.273,0.786-0.401,1.128c-0.128,0.341-0.27,0.636-0.423,0.885c-0.154,0.25-0.325,0.442-0.512,0.578
		s-0.409,0.203-0.666,0.203c-0.381,0-0.686-0.062-0.913-0.187l0.264-1.145c0.11,0.044,0.22,0.066,0.33,0.066
		c0.168,0,0.332-0.071,0.489-0.215c0.158-0.143,0.277-0.401,0.358-0.775l-2.299-5.5h1.716L51.954,104.324z"/>
	<path fill="#444444" d="M56.376,101.233v1.249c0,0.226,0.009,0.421,0.027,0.586c0.019,0.164,0.055,0.299,0.11,0.405
		c0.055,0.105,0.132,0.184,0.231,0.235c0.099,0.051,0.229,0.076,0.39,0.076c0.213,0,0.398-0.025,0.556-0.076
		c0.158-0.052,0.288-0.113,0.391-0.187v-2.289h1.43v5.5h-1.43v-2.156c-0.11,0.081-0.279,0.171-0.506,0.27
		c-0.228,0.1-0.532,0.148-0.913,0.148c-0.271,0-0.514-0.029-0.726-0.088c-0.213-0.059-0.393-0.161-0.539-0.308
		c-0.147-0.146-0.258-0.341-0.335-0.583s-0.116-0.547-0.116-0.913v-1.87H56.376z"/>
	<path fill="#444444" d="M60.765,106.733v-5.5h1.43v4.235h1.375v-4.235H65v4.235h1.375v-4.235h1.43v5.5H60.765z"/>
	<path fill="#444444" d="M73.459,106.26c-0.22,0.176-0.519,0.324-0.896,0.445c-0.377,0.121-0.779,0.182-1.205,0.182
		c-0.887,0-1.536-0.259-1.947-0.775c-0.411-0.518-0.616-1.227-0.616-2.129c0-0.968,0.231-1.694,0.693-2.178
		c0.462-0.484,1.111-0.727,1.947-0.727c0.279,0,0.55,0.037,0.814,0.11c0.264,0.073,0.499,0.194,0.704,0.363
		c0.205,0.168,0.37,0.396,0.495,0.682c0.125,0.286,0.187,0.642,0.187,1.067c0,0.153-0.009,0.318-0.028,0.495
		c-0.018,0.176-0.046,0.359-0.083,0.55h-3.3c0.022,0.462,0.141,0.811,0.357,1.045s0.566,0.352,1.051,0.352
		c0.3,0,0.57-0.046,0.808-0.138c0.238-0.091,0.42-0.185,0.545-0.28L73.459,106.26z M71.413,102.223
		c-0.374,0-0.651,0.111-0.831,0.335s-0.288,0.522-0.324,0.896h2.046c0.029-0.396-0.031-0.7-0.182-0.913
		C71.972,102.33,71.736,102.223,71.413,102.223z"/>
	<path fill="#444444" d="M74.482,106.007c0-0.257,0.081-0.461,0.242-0.611c0.161-0.149,0.374-0.225,0.638-0.225
		c0.279,0,0.499,0.075,0.66,0.225c0.161,0.15,0.242,0.354,0.242,0.611s-0.081,0.462-0.242,0.615
		c-0.161,0.154-0.381,0.231-0.66,0.231c-0.264,0-0.477-0.077-0.638-0.231C74.562,106.469,74.482,106.264,74.482,106.007z"/>
</g>
</svg>
