<?xml version="1.0" encoding="utf-8"?>
<!-- Generator: Adobe Illustrator 16.0.0, SVG Export Plug-In . SVG Version: 6.00 Build 0)  -->
<!DOCTYPE svg PUBLIC "-//W3C//DTD SVG 1.1//EN" "http://www.w3.org/Graphics/SVG/1.1/DTD/svg11.dtd">
<svg version="1.1" id="Layer_1" xmlns="http://www.w3.org/2000/svg" xmlns:xlink="http://www.w3.org/1999/xlink" x="0px" y="0px"
	 width="120px" height="120px" viewBox="0 0 120 120" enable-background="new 0 0 120 120" xml:space="preserve">
<path fill="#FFFFFF" stroke="#BE1E2D" stroke-linecap="round" stroke-linejoin="round" stroke-miterlimit="10" d="M38.3,74.1H9.7
	v29.1c0,0,1.3,1.3,2.6,1.2s4.5-1.4,6.1-1.1s4.9,1.5,6.1,1.5s4.8-1.5,6.1-1.2s4.3,1.6,5.8,1.6s1.8-0.1,1.8-0.1L38.3,74.1z"/>
<path fill="#FFFFFF" stroke="#BE1E2D" stroke-linecap="round" stroke-linejoin="round" stroke-miterlimit="10" d="M69.9,56.7H38
	v48.2c0,0,2.1-0.9,3.3-1s1.8,0,2.2-0.2c0.5-0.2,0.9,0.2,2,0.2s5.4-2.2,7.2-1.8s3.8,1.2,5.6,1.6s4.2,0.7,4.6,0s3.2-2.1,4-1.8
	s3.3,1.8,3.3,1.8L69.9,56.7z"/>
<path fill="#FFFFFF" stroke="#BE1E2D" stroke-linecap="round" stroke-linejoin="round" stroke-miterlimit="10" d="M70.2,103.1
	l-0.5-56.6h35.9V104l-0.3,0.6c0,0-0.2,0.2-2-0.7s-1.8-1.3-2.6-1.3s-3.2,0.9-5.2,0.6s-3.9-1.9-4.7-1.9s-2.9,1.3-4.8,1.7
	s-3.9,0.3-5-0.4s-1.4-1.4-2.1-1.4s-3.3,1.8-5,2.6s-1.9,0.9-2.8,0.2S70.2,103.1,70.2,103.1z"/>
<path fill="#FFFFFF" stroke="#BE1E2D" stroke-linecap="round" stroke-linejoin="round" stroke-miterlimit="10" d="M87.7,29.6
	c0,0,4.7-1,4.5-7.9c-0.2-8.5-14-6.9-14-6.9l0.1,0.5v25.1h4.4v-9l6.6,9.1h6.6L87.7,29.6z M82.7,25.9l-0.2-3.8v-3c0,0,4.9-0.6,4.9,3
	S82.7,25.9,82.7,25.9z"/>
<path fill="none" stroke="#BE1E2D" stroke-linecap="round" stroke-linejoin="round" stroke-miterlimit="10" d="M5.1,104.4
	c0,0-1.6-1.6,1.1-1.6s4.8,1.6,6.1,1.6s4.4-1.1,6.1-1.1s5,1.5,6.1,1.5s5.1-1.4,7.2-0.9s4.1,1.4,5.4,1.4s2.1-1.5,4.6-1.4
	s1.4-0.5,3.2-0.1s6.8-2.4,9-1.6s5.2,1.8,7.4,1.8c2.1,0,4-2.8,6.4-1.9s2.4,2.2,4.1,2.2s4.1-2.1,6-3s0.9,0,2,0.8s2.9,1.8,6.5,0.8
	s3.5-2.1,4.8-1.1s2,1.9,4.6,1.9s4.5-1.4,6-0.5s2.5,1.5,3.8,1.5s-0.1-0.9,2.2-0.6s2.2,0.6,4,0.2s3.6-1,3.6-1"/>
<path fill="#FFFFFF" fill-opacity="0.25" stroke="#BE1E2D" stroke-linecap="round" stroke-linejoin="round" stroke-miterlimit="10" d="
	M84.3,90.9l-1.6,2.4c0,0-0.1,3.2,6.1,2.9c3.1-0.1,6.6-2.8,6.6-6.5c0,0,0.8-4.3-2.7-6c-1.4-0.7-2.8-0.9-2.8-0.9s5.3-3.8,2.2-7.8
	s-6.1-3.6-7.9-2.8s-2.9,3.2-2.9,3.2l1.7,3.1c0,0,2.5-2.9,4-2.4s2.6,2.9,1.6,3.9s-3.2,2.3-3.2,2.3l0.4,3.2c0,0,4.4,1.8,4.4,3.2
	s-1.1,3.4-2.4,3.8C85.9,93,84.3,90.9,84.3,90.9z"/>
<path fill="#FFFFFF" stroke="#BE1E2D" stroke-linecap="round" stroke-linejoin="round" stroke-miterlimit="10" d="M47.6,84.3h4.1
	c0,0,1.8-6.4,4.2-3.4c1.6,2-8.3,15.1-8.3,15.1h15.1l-0.8-3.7h-8c0,0,7.5-8.3,6.1-13.5c-0.9-3.5-4.3-3.5-6.6-2.8
	C48.3,77.7,47.6,84.3,47.6,84.3z"/>
<polyline fill="#FFFFFF" stroke="#BE1E2D" stroke-linecap="round" stroke-linejoin="round" stroke-miterlimit="10" points="
	17.5,86.1 19.4,88.1 23.9,83.2 23.9,94.8 18.6,94.8 18.6,98.8 29.9,98.8 29.9,94.6 27.4,94.6 27.4,79.4 24.4,79.4 17.3,86 "/>
</svg>
