<?xml version="1.0" encoding="utf-8"?>
<!-- Generator: Adobe Illustrator 16.0.0, SVG Export Plug-In . SVG Version: 6.00 Build 0)  -->
<!DOCTYPE svg PUBLIC "-//W3C//DTD SVG 1.1//EN" "http://www.w3.org/Graphics/SVG/1.1/DTD/svg11.dtd">
<svg version="1.1" id="Layer_1" xmlns="http://www.w3.org/2000/svg" xmlns:xlink="http://www.w3.org/1999/xlink" x="0px" y="0px"
	 width="126.9px" height="120px" viewBox="0 0 126.9 120" enable-background="new 0 0 126.9 120" xml:space="preserve">
<polygon fill="#FFFFFF" stroke="#BE1E2D" stroke-linecap="round" stroke-linejoin="round" stroke-miterlimit="10" points="
	25.5,69.8 48.5,34.9 55.5,39.5 54,39.5 54.5,40.3 53.1,40.5 54.1,42 52.7,42.4 53.3,43.5 52,43.8 52.6,45.2 51.2,45.2 52.1,46.6 
	50.6,46.8 51.1,48.5 49.7,48.5 50.4,50.2 49,50.2 49.4,51.3 48.3,51.7 48.5,52.8 47.6,52.7 48,53.9 46.7,54.2 47.2,55.2 46.1,55.4 
	46.7,56.3 45.6,56.5 46.1,57.7 44.7,57.7 45.2,58.7 43.6,58.8 44.7,60.2 43.2,60.5 43.6,61.5 42.6,61.5 43.2,62.9 42,62.9 
	42.6,64.7 41.3,64.7 42,65.5 40.5,65.7 37,72.6 36.8,74.5 35.3,74.5 35.9,75.3 33.6,74.5 32.6,76 "/>
<path fill="#FFFFFF" stroke="#BE1E2D" stroke-linecap="round" stroke-linejoin="round" stroke-miterlimit="10" d="M18.3,46.6
	l2.2,5.8L43.6,44c0,0-4.4-3.3-8.8-2.8C32.1,41.6,18.3,46.6,18.3,46.6z"/>
<path fill="#FFFFFF" stroke="#BE1E2D" stroke-linecap="round" stroke-linejoin="round" stroke-miterlimit="10" d="M113.5,64.6
	c0,0,7.4-1.6,7-12.9c-0.4-13.9-21.9-11.3-21.9-11.3l0.2,0.8v41.1h6.8V67.7L116,82.6h10.4L113.5,64.6z M105.7,58.5l-0.4-6.1v-4.9
	c0,0,7.6-1,7.6,4.9S105.7,58.5,105.7,58.5z"/>
<rect x="67.5" y="59.2" fill="#FFFFFF" stroke="#BE1E2D" stroke-linecap="round" stroke-linejoin="round" stroke-miterlimit="10" width="14" height="4.7"/>
<rect x="67.5" y="69.8" fill="#FFFFFF" stroke="#BE1E2D" stroke-linecap="round" stroke-linejoin="round" stroke-miterlimit="10" width="14" height="4.7"/>
<polygon fill="#FFFFFF" stroke="#BE1E2D" stroke-linecap="round" stroke-linejoin="round" stroke-miterlimit="10" points="
	14.5,62.3 9.8,62.3 9.8,57.7 5.2,57.7 5.2,62.3 0.5,62.3 0.5,67 5.2,67 5.2,71.7 9.8,71.7 9.8,67 14.5,67 "/>
<path fill="#FFFFFF" stroke="#BE1E2D" stroke-linecap="round" stroke-linejoin="round" stroke-miterlimit="10" d="M29.6,50.9
	l11.2,33c0,0,1.6,1.7,4.2,0.8c1.5-0.5,1-2.7,1-2.7L35.1,48.5L29.6,50.9z"/>
<path fill="#FFFFFF" stroke="#BE1E2D" stroke-linecap="round" stroke-linejoin="round" stroke-miterlimit="10" d="M22.6,47.7
	l1.9,6.5l21.1-9.3c0,0-4.1-3.2-7-2.8S22.6,47.7,22.6,47.7z"/>
<polygon fill="#FFFFFF" stroke="#BE1E2D" stroke-linecap="round" stroke-linejoin="round" stroke-miterlimit="10" points="
	18.3,46.6 22.6,47.7 24.2,53.9 20,52.5 "/>
<path fill="#FFFFFF" stroke="#BE1E2D" stroke-linecap="round" stroke-linejoin="round" stroke-miterlimit="10" d="M32.6,76L26,70.3
	c0,0-1.7-0.9-2.5,0c-0.8,0.9-2.5,3.2-3.2,4.8c-0.8,1.6-0.6,6.2-0.6,6.2s1.8,1.7,3.8,2.5c2,0.8,3,1.5,4,1.2s5.5-5.7,5.5-6.2
	S32.6,76,32.6,76z M29,80.8c-1.2,1.4-2,2.2-2,2.2l-4.3-3.2L22,76l2.2-2.6l6.2,4.1C30.4,77.5,30.2,79.4,29,80.8z"/>
</svg>
