<?xml version="1.0" encoding="utf-8"?>
<!-- Generator: Adobe Illustrator 16.0.0, SVG Export Plug-In . SVG Version: 6.00 Build 0)  -->
<!DOCTYPE svg PUBLIC "-//W3C//DTD SVG 1.1//EN" "http://www.w3.org/Graphics/SVG/1.1/DTD/svg11.dtd">
<svg version="1.1" id="Layer_1" xmlns="http://www.w3.org/2000/svg" xmlns:xlink="http://www.w3.org/1999/xlink" x="0px" y="0px"
	 width="138.4px" height="120px" viewBox="0 0 138.4 120" enable-background="new 0 0 138.4 120" xml:space="preserve">
<polygon fill="#FFFFFF" stroke="#BE1E2D" stroke-linecap="round" stroke-linejoin="round" stroke-miterlimit="10" points="
	29.8,71.2 21.9,77.3 22.9,78.5 30.6,72.4 "/>
<path fill="none" stroke="#BE1E2D" stroke-linecap="round" stroke-linejoin="round" stroke-miterlimit="10" d="M56.1,46.6
	c0,0,4.9-3.9,5.9-5.3s1.8-2.4,1.8-2.4"/>
<path fill="none" stroke="#BE1E2D" stroke-linecap="round" stroke-linejoin="round" stroke-miterlimit="10" d="M59,59.6
	c0,0,2-1,4.1-2.6s2.1-1.7,2.1-1.7"/>
<path fill="none" stroke="#BE1E2D" stroke-linecap="round" stroke-linejoin="round" stroke-miterlimit="10" d="M57.5,71.2
	c0,0,3.4,0.4,5.2,1.4s5.4,4,5.4,4"/>
<ellipse fill="#FFFFFF" stroke="#BE1E2D" stroke-linecap="round" stroke-linejoin="round" stroke-miterlimit="10" cx="42" cy="60.3" rx="16.2" ry="19.4"/>
<path fill="#FFFFFF" stroke="#BE1E2D" stroke-linecap="round" stroke-linejoin="round" stroke-miterlimit="10" d="M34,43.4
	c0,0-2.1-10,7-10s10,8.8,10,8.8L34,43.4z"/>
<path fill="#FFFFFF" stroke="#BE1E2D" stroke-linecap="round" stroke-linejoin="round" stroke-miterlimit="10" d="M42.5,40
	c0,0,10.4-1.4,13.4,5.1s4.6,17,3.2,22.1s-4.8,9.4-6.4,10.6S47,79.7,47,79.7l-3.3-18.8c0,0-0.5-11.1-0.6-13.2S42.5,40,42.5,40z"/>
<path fill="#FFFFFF" stroke="#BE1E2D" stroke-linecap="round" stroke-linejoin="round" stroke-miterlimit="10" d="M125,63.5
	c0,0,7.3-1.6,7-12.9c-0.4-13.9-21.9-11.3-21.9-11.3l0.2,0.8v41.1h6.8V66.5l10.4,14.9h10.4L125,63.5z M117.2,57.3l-0.4-6.1v-4.9
	c0,0,7.6-1,7.6,4.9C124.4,57.1,117.2,57.3,117.2,57.3z"/>
<rect x="83.5" y="52.6" fill="#FFFFFF" stroke="#BE1E2D" stroke-linecap="round" stroke-linejoin="round" stroke-miterlimit="10" width="14" height="4.7"/>
<rect x="83.5" y="63.3" fill="#FFFFFF" stroke="#BE1E2D" stroke-linecap="round" stroke-linejoin="round" stroke-miterlimit="10" width="14" height="4.7"/>
<rect x="0.5" y="54.9" fill="#FFFFFF" stroke="#BE1E2D" stroke-linecap="round" stroke-linejoin="round" stroke-miterlimit="10" width="14" height="4.7"/>
<path fill="#FFFFFF" stroke="#BE1E2D" stroke-linecap="round" stroke-linejoin="round" stroke-miterlimit="10" d="M42.5,40
	c0,0,1.4,15.2,0.9,19.6c-0.5,4.4-2.8,21.2-2.8,21.2s-11.5-3.7-14.5-12.8c-3-9.2,1.6-20.4,6.6-24.4C37.8,39.5,37.7,41.2,42.5,40z"/>
<path fill="#FFFFFF" stroke="#BE1E2D" stroke-linecap="round" stroke-linejoin="round" stroke-miterlimit="10" d="M29.3,54.4
	c1.1-1.4,2.3,0,3,0.5s1.4,1.8,0.7,2.3s-2.3-0.3-3-0.8S28.7,55.3,29.3,54.4z"/>
<path fill="#FFFFFF" stroke="#BE1E2D" stroke-linecap="round" stroke-linejoin="round" stroke-miterlimit="10" d="M37.6,55.6
	c-1,1-0.8,2.1-0.3,2.5s1.4,0.4,2.2,0s0.8-2.3-0.2-2.5S37.6,55.6,37.6,55.6z"/>
<path fill="#FFFFFF" stroke="#BE1E2D" stroke-linecap="round" stroke-linejoin="round" stroke-miterlimit="10" d="M32.1,62.9
	c-1,0.1-1.9,1.2-1.8,1.9s0.9,2.1,1.5,2.4s1.6-1,1.5-1.6s0.2-2-0.3-2.3S32.1,62.9,32.1,62.9z"/>
<path fill="#FFFFFF" stroke="#BE1E2D" stroke-linecap="round" stroke-linejoin="round" stroke-miterlimit="10" d="M37.5,68.6
	c-1.9-0.3-2.6,1.5-2.4,2.6s1.3,1.6,2.4,1.4s1.8-1.1,1.8-2.2S38.1,68.7,37.5,68.6z"/>
<path fill="#FFFFFF" stroke="#BE1E2D" stroke-linecap="round" stroke-linejoin="round" stroke-miterlimit="10" d="M35.1,45.9
	c-2.2,0.2-2.2,1.4-1.7,2.1s1.1,0.9,1.7,0.8s1.8-0.9,1.8-1.4C36.9,46.4,35.1,45.9,35.1,45.9z"/>
<path fill="#FFFFFF" stroke="#BE1E2D" stroke-linecap="round" stroke-linejoin="round" stroke-miterlimit="10" d="M47.7,44.5
	c-1.2,0.7-1.1,1.7-0.5,2.3s1.4,0.3,2.2,0s1-1.7,0.3-2.3S48.1,44.2,47.7,44.5z"/>
<path fill="#FFFFFF" stroke="#BE1E2D" stroke-linecap="round" stroke-linejoin="round" stroke-miterlimit="10" d="M53.3,48.3
	c0.9,0.8,0.3,1.2-0.2,1.5s-1.4,0-1.3-0.8c0.2-1.3,1.4-0.8,1.4-0.8"/>
<path fill="#FFFFFF" stroke="#BE1E2D" stroke-linecap="round" stroke-linejoin="round" stroke-miterlimit="10" d="M54.1,60
	c1.8-0.3,2,0.9,2,1.6c-0.1,0.7-1.1,1.2-2,1.2s-1.5-0.5-1.5-1.4S53.6,60.1,54.1,60z"/>
<path fill="#FFFFFF" stroke="#BE1E2D" stroke-linecap="round" stroke-linejoin="round" stroke-miterlimit="10" d="M49.2,64.8
	c1.6-0.2,1.9,0.9,1.9,1.8s-1.2,1.1-1.9,1.1s-1.7-0.5-1.7-1.5S48.7,64.9,49.2,64.8z"/>
<path fill="#FFFFFF" stroke="#BE1E2D" stroke-linecap="round" stroke-linejoin="round" stroke-miterlimit="10" d="M51.4,71.3
	c0.8-0.5,2,0.7,2.1,1.2s0.5,1.3,0,1.7s-1.6,0.1-2.1-1C51,72.5,50.6,71.8,51.4,71.3z"/>
<path fill="#FFFFFF" stroke="#BE1E2D" stroke-linecap="round" stroke-linejoin="round" stroke-miterlimit="10" d="M49.4,57
	l18.8-14.1c0,0-0.3,1,0.4,1s1.4-0.4,1.4-0.4l-20.1,15c0,0-1,0.1-1.1-0.6C48.7,57,49.4,57,49.4,57z"/>
<ellipse fill="#FFFFFF" stroke="#BE1E2D" stroke-linecap="round" stroke-linejoin="round" stroke-miterlimit="10" cx="69" cy="43.4" rx="0.9" ry="0.8"/>
<ellipse fill="#BE1E2D" stroke="#BE1E2D" stroke-miterlimit="10" cx="45.2" cy="36" rx="1.5" ry="1.1"/>
<ellipse fill="#BE1E2D" stroke="#BE1E2D" stroke-miterlimit="10" cx="36.9" cy="36.6" rx="1.5" ry="1.1"/>
<path fill="none" stroke="#BE1E2D" stroke-linecap="round" stroke-linejoin="round" stroke-miterlimit="10" d="M28.8,48.2
	c0,0-2.8-1.8-4.6-3.5s-1.9-2.1-1.9-2.1"/>
<path fill="none" stroke="#BE1E2D" stroke-linecap="round" stroke-linejoin="round" stroke-miterlimit="10" d="M25.2,59.8
	c0,0-1.4-0.5-2.9-0.2S20.5,60,20.5,60"/>
<path fill="none" stroke="#BE1E2D" stroke-linecap="round" stroke-linejoin="round" stroke-miterlimit="10" d="M26.1,67.9
	c0,0-4.9,1.8-7.3,2.6c-2.4,0.8-2.8,1.7-2.8,1.7"/>
<polygon fill="#FFFFFF" stroke="#BE1E2D" stroke-linecap="round" stroke-linejoin="round" stroke-miterlimit="10" points="
	20.2,74.8 25.1,80.1 12.9,86.6 "/>
<path fill="none" stroke="#BE1E2D" stroke-linecap="round" stroke-linejoin="round" stroke-miterlimit="10" d="M68.4,42.8
	c0,0,0.9-2.6,0.9-4.4c0-1.7,0-2.3,0-2.3"/>
<path fill="none" stroke="#BE1E2D" stroke-linecap="round" stroke-linejoin="round" stroke-miterlimit="10" d="M66.6,44
	c0,0,0.3-1.2,0.7-3.2s0-2.9,0-2.9"/>
<polyline fill="none" stroke="#BE1E2D" stroke-linecap="round" stroke-linejoin="round" stroke-miterlimit="10" points="68.4,44.6 
	75.8,43.3 70.7,48.2 "/>
<line fill="none" stroke="#BE1E2D" stroke-linecap="round" stroke-linejoin="round" stroke-miterlimit="10" x1="65.9" y1="47.2" x2="72.5" y2="46.6"/>
<line fill="none" stroke="#BE1E2D" stroke-linecap="round" stroke-linejoin="round" stroke-miterlimit="10" x1="67.1" y1="45.7" x2="73.8" y2="45.3"/>
<path fill="none" stroke="#BE1E2D" stroke-linecap="round" stroke-linejoin="round" stroke-miterlimit="10" d="M64.4,45.7
	c0,0,1.1-3.5,1.2-4.5s0-2,0-2"/>
<path fill="none" stroke="#BE1E2D" stroke-linecap="round" stroke-linejoin="round" stroke-miterlimit="10" d="M63.6,48.2
	c0,0,2.2,0,4,0s3.2,0,3.2,0"/>
<path fill="none" stroke="#BE1E2D" stroke-linecap="round" stroke-linejoin="round" stroke-miterlimit="10" d="M63.1,46.6
	c0,0,0.1-1.4,0-4S63,40,63,40"/>
<path fill="none" stroke="#BE1E2D" stroke-linecap="round" stroke-linejoin="round" stroke-miterlimit="10" d="M61.4,47.9
	c0,0,0.3-1.7,0-3.6s-0.3-2-0.3-2"/>
<line fill="none" stroke="#BE1E2D" stroke-linecap="round" stroke-linejoin="round" stroke-miterlimit="10" x1="61.1" y1="42.8" x2="69.6" y2="36"/>
<polygon fill="none" stroke="#BE1E2D" stroke-linecap="round" stroke-linejoin="round" stroke-miterlimit="10" points="62.3,49.7 
	69.2,50.3 70.5,48.7 63.8,48.2 "/>
</svg>
