<?xml version="1.0" encoding="utf-8"?>
<!-- Generator: Adobe Illustrator 16.0.0, SVG Export Plug-In . SVG Version: 6.00 Build 0)  -->
<!DOCTYPE svg PUBLIC "-//W3C//DTD SVG 1.1//EN" "http://www.w3.org/Graphics/SVG/1.1/DTD/svg11.dtd">
<svg version="1.1" id="Layer_1" xmlns="http://www.w3.org/2000/svg" xmlns:xlink="http://www.w3.org/1999/xlink" x="0px" y="0px"
	 width="118.7px" height="120px" viewBox="0 0 118.7 120" enable-background="new 0 0 118.7 120" xml:space="preserve">
<path fill="#FFFFFF" stroke="#BE1E2D" stroke-linecap="round" stroke-linejoin="round" stroke-miterlimit="10" d="M0.8,31.8
	c0,0,4.2-1.2,7.5-1.8s5.2-0.5,7.7-0.7s8-1.8,10.8-1.8s4.3-0.5,6,0s6.2-0.9,8.8-0.2s3.5,0.7,4,4.6s-0.8,3.5,0,6.7s1.5,5,1.5,7.7
	s1.5,6.3,1.7,8.7s1,3.8,1,6.8c0,3-0.5,12.5-0.8,13.8c-0.3,1.3-3.2,1.7-5.7,1.8c-2.5,0.2-3.8-0.3-6.8,0s-4.8-0.9-8.5,0
	s-7.8,1-10.8,1.6c-3,0.7-9.8-0.7-12.7-1.2s-3.3-2.8-3.7-9.7s0.2-14,0-17.3s0.4-4.8-0.1-8S0.8,31.8,0.8,31.8z"/>
<path fill="none" stroke="#BE1E2D" stroke-linecap="round" stroke-linejoin="round" stroke-miterlimit="10" d="M0.8,43.3
	c0,0,4.1-2.1,6.4-2.1s3.9,0.2,7.8,0s9.7-0.6,11.2-0.6s3.9-0.7,6.6-0.7s4.3-0.3,6.4,0s1.2,0,3.7,0.3s2.8-0.1,2.8-0.1"/>
<path fill="none" stroke="#BE1E2D" stroke-linecap="round" stroke-linejoin="round" stroke-miterlimit="10" d="M0.8,58.4
	c0,0,2.6,0.7,4.8,0s4.2-0.5,6-0.5s10.1-0.3,12.8-0.8s5.6,0.2,8.4,0s3.9-0.6,5-0.2s5.3,0.9,6.7,0.7s4.7-1,4.7-1"/>
<path fill="none" stroke="#BE1E2D" stroke-linecap="round" stroke-linejoin="round" stroke-miterlimit="10" d="M12.1,32.2
	c0,0-0.3-1.4-1.9-0.7s-1.5,3.2-1.5,3.2s1.2,1.8,2.5,1.7s1.3-0.6,1.3-0.6"/>
<line fill="none" stroke="#BE1E2D" stroke-linecap="round" stroke-linejoin="round" stroke-miterlimit="10" x1="15.2" y1="30.9" x2="16.1" y2="37.3"/>
<path fill="none" stroke="#BE1E2D" stroke-linecap="round" stroke-linejoin="round" stroke-miterlimit="10" d="M21.7,32.4
	c0,0-1.6-0.8-2.5,0S17.3,35,18,35.6s1.7,0,1.7,0l0.9-1.7c0,0-0.3,1.7,0.7,2s2,0.6,2,0.6"/>
<path fill="none" stroke="#BE1E2D" stroke-linecap="round" stroke-linejoin="round" stroke-miterlimit="10" d="M27.5,32.5
	c0,0-1.1-2.4-2.3-0.8s-0.9,2.4,0,2.4s1.9-0.5,1.8,0.6s-2.3,1.8-2.3,1.8"/>
<path fill="none" stroke="#BE1E2D" stroke-linecap="round" stroke-linejoin="round" stroke-miterlimit="10" d="M33.3,30.3
	c0,0-3.3,0.9-2.7,1.8s3.4,1,2.7,2.2s-4,2.2-4,2.2"/>
<line fill="none" stroke="#BE1E2D" stroke-linecap="round" stroke-linejoin="round" stroke-miterlimit="10" x1="4.4" y1="45.9" x2="8.7" y2="45.9"/>
<line fill="none" stroke="#BE1E2D" stroke-linecap="round" stroke-linejoin="round" stroke-miterlimit="10" x1="7.5" y1="51.5" x2="7.5" y2="55"/>
<line fill="none" stroke="#BE1E2D" stroke-linecap="round" stroke-linejoin="round" stroke-miterlimit="10" x1="5.7" y1="53.1" x2="9.6" y2="53.1"/>
<path fill="none" stroke="#BE1E2D" stroke-linecap="round" stroke-linejoin="round" stroke-miterlimit="10" d="M14.9,42.7
	c0,0-1.8-0.6-2.3,0.3s-0.4,2.2,0.2,3.7s0.9,1.7,0.9,1.7"/>
<path fill="none" stroke="#BE1E2D" stroke-linecap="round" stroke-linejoin="round" stroke-miterlimit="10" d="M10.8,46.7
	c0,0,1.3-0.7,2.3-0.9s1.3,0,1.3,0"/>
<path fill="none" stroke="#BE1E2D" stroke-linecap="round" stroke-linejoin="round" stroke-miterlimit="10" d="M16.5,45.5
	c0,0,0.2,1.5,0.5,1.9"/>
<path fill="none" stroke="#BE1E2D" stroke-linecap="round" stroke-linejoin="round" stroke-miterlimit="10" d="M17,44.4
	c0,0-0.1-0.9-0.5-0.7S17,44.4,17,44.4z"/>
<path fill="none" stroke="#BE1E2D" stroke-linecap="round" stroke-linejoin="round" stroke-miterlimit="10" d="M20.3,46.7l2.8-2.7
	c0,0-1.7-1.1-2.6,0.2s-1.1,3,0.6,3.2s2-0.7,2-0.7"/>
<line fill="none" stroke="#BE1E2D" stroke-linecap="round" stroke-linejoin="round" stroke-miterlimit="10" x1="25" y1="41.9" x2="25.2" y2="47"/>
<path fill="none" stroke="#BE1E2D" stroke-linecap="round" stroke-linejoin="round" stroke-miterlimit="10" d="M30.5,47.8
	c0,0-1.4-4-1.4-5.3s1-2.5,1.2-1S29.1,47,28.1,47s-1.2-2.6-0.3-3c0.6-0.2,2.2,1,2.2,1"/>
<path fill="none" stroke="#BE1E2D" stroke-linecap="round" stroke-linejoin="round" stroke-miterlimit="10" d="M15.7,50.8
	c0,0-1.8-0.6-2.3,0.3c-0.5,0.9-0.4,2.1,0.2,3.4s0.9,1.6,0.9,1.6"/>
<path fill="none" stroke="#BE1E2D" stroke-linecap="round" stroke-linejoin="round" stroke-miterlimit="10" d="M11.6,54.5
	c0,0,1.3-0.7,2.3-0.8s1.3,0,1.3,0"/>
<path fill="none" stroke="#BE1E2D" stroke-linecap="round" stroke-linejoin="round" stroke-miterlimit="10" d="M17.3,53.4
	c0,0,0.2,1.4,0.5,1.7"/>
<path fill="none" stroke="#BE1E2D" stroke-linecap="round" stroke-linejoin="round" stroke-miterlimit="10" d="M21.1,54.5l2.8-2.5
	c0,0-1.7-1-2.6,0.2c-0.8,1.2-1.1,2.7,0.6,3c1.8,0.2,2-0.6,2-0.6"/>
<line fill="none" stroke="#BE1E2D" stroke-linecap="round" stroke-linejoin="round" stroke-miterlimit="10" x1="25.8" y1="50" x2="26" y2="54.8"/>
<path fill="none" stroke="#BE1E2D" stroke-linecap="round" stroke-linejoin="round" stroke-miterlimit="10" d="M31.3,55.5
	c0,0-1.4-3.7-1.4-4.9c0-1.2,1-2.3,1.2-0.9c0.1,1.4-1.2,5-2.2,5s-1.2-2.4-0.3-2.8c0.6-0.2,2.2,1,2.2,1"/>
<line fill="none" stroke="#BE1E2D" stroke-linecap="round" stroke-linejoin="round" stroke-miterlimit="10" x1="6.4" y1="63.7" x2="10.3" y2="61.9"/>
<path fill="none" stroke="#BE1E2D" stroke-linecap="round" stroke-linejoin="round" stroke-miterlimit="10" d="M13.1,61.7v1.6
	c0,0,0.4-2.9,1.3-2.5s1.3,1.2,1.3,1.2s1-1.6,1.7-1.2c0.6,0.4,0.5,2.3,1.5,2.1s2.6-2.7,2.6-2.7s-2-0.3-1.9,1c0,1.3,0.4,2.3,1.4,2.1
	s1.3-0.4,1.3-0.4"/>
<path fill="none" stroke="#BE1E2D" stroke-linecap="round" stroke-linejoin="round" stroke-miterlimit="10" d="M25,58.3
	c0,0-0.3,2,0.2,3.6s0.5,1.6,0.5,1.6"/>
<path fill="none" stroke="#BE1E2D" stroke-linecap="round" stroke-linejoin="round" stroke-miterlimit="10" d="M23.1,60.7
	c0,0,1,0.1,2.2,0s1.1-0.1,1.1-0.1"/>
<path fill="none" stroke="#BE1E2D" stroke-linecap="round" stroke-linejoin="round" stroke-miterlimit="10" d="M27.2,58.3l1.2,5
	c0,0-1-2.6,0.4-2.6s1.1,0.4,1.1,1.3s-0.1,1.4,0.6,1.3"/>
<path fill="none" stroke="#BE1E2D" stroke-linecap="round" stroke-linejoin="round" stroke-miterlimit="10" d="M33.3,60.9
	c-1.1,0.2-1.1,1.3-0.6,1.9s1.5-0.1,1.6-0.9S33.3,60.9,33.3,60.9z"/>
<path fill="none" stroke="#BE1E2D" stroke-linecap="round" stroke-linejoin="round" stroke-miterlimit="10" d="M39.5,64.2
	c0,0-1.9-1.9-2-3.6c-0.1-1.7-0.2-2.7,0.4-2.3s0.6,4.2-0.4,5c-1,0.7-2.3-1.8-1.3-2.3s1.5,0.5,1.5,0.5"/>
<path fill="none" stroke="#BE1E2D" stroke-linecap="round" stroke-linejoin="round" stroke-miterlimit="10" d="M13.2,70.1l0.1,1.8
	c0,0,0.3-3.3,1.3-2.9c1,0.4,1.3,1.3,1.3,1.3s1-1.9,1.6-1.5c0.7,0.4,0.6,2.6,1.6,2.3c1-0.3,2.5-3.2,2.5-3.2s-2-0.2-1.9,1.2
	c0.1,1.5,0.6,2.6,1.5,2.4c1-0.3,1.3-0.6,1.3-0.6"/>
<path fill="none" stroke="#BE1E2D" stroke-linecap="round" stroke-linejoin="round" stroke-miterlimit="10" d="M25.2,65.8
	c0,0-0.2,2.3,0.4,4.1c0.6,1.8,0.6,1.8,0.6,1.8"/>
<path fill="none" stroke="#BE1E2D" stroke-linecap="round" stroke-linejoin="round" stroke-miterlimit="10" d="M23.4,68.4
	c0,0,1.1,0.1,2.2,0c1.2-0.1,1.2-0.1,1.2-0.1"/>
<path fill="none" stroke="#BE1E2D" stroke-linecap="round" stroke-linejoin="round" stroke-miterlimit="10" d="M27.5,65.7l1.5,5.6
	c0,0-1.1-2.9,0.3-3c1.5-0.1,1.1,0.4,1.1,1.5c0,1.1,0,1.6,0.7,1.5"/>
<path fill="none" stroke="#BE1E2D" stroke-linecap="round" stroke-linejoin="round" stroke-miterlimit="10" d="M33.9,68.4
	c-1.1,0.3-1,1.5-0.6,2.2c0.5,0.6,1.5-0.2,1.6-1.1C34.9,68.7,33.9,68.4,33.9,68.4z"/>
<path fill="none" stroke="#BE1E2D" stroke-linecap="round" stroke-linejoin="round" stroke-miterlimit="10" d="M40.3,71.9
	c0,0-2.1-2.1-2.2-4c-0.1-1.9-0.3-3.1,0.3-2.7s0.8,4.8-0.2,5.7c-1,0.9-2.4-1.9-1.5-2.6c0.9-0.7,1.6,0.5,1.6,0.5"/>
<path fill="none" stroke="#BE1E2D" stroke-linecap="round" stroke-linejoin="round" stroke-miterlimit="10" d="M7.5,70.8
	c0,0,0.4,2.6,0.5,3.2"/>
<line fill="none" stroke="#BE1E2D" stroke-linecap="round" stroke-linejoin="round" stroke-miterlimit="10" x1="6.4" y1="72.7" x2="9.6" y2="72.4"/>
<ellipse transform="matrix(0.9967 -8.134822e-02 8.134822e-02 0.9967 -4.4227 2.5723)" fill="#FFFFFF" stroke="#BE1E2D" stroke-linecap="round" stroke-linejoin="round" stroke-miterlimit="10" cx="29.4" cy="55.6" rx="15.8" ry="15.1"/>
<ellipse transform="matrix(0.9967 -8.134822e-02 8.134822e-02 0.9967 -4.6242 2.6036)" fill="#FFFFFF" stroke="#BE1E2D" stroke-linecap="round" stroke-linejoin="round" stroke-miterlimit="10" cx="29.6" cy="58.1" rx="15.8" ry="15.1"/>
<path fill="#FFFFFF" stroke="#BE1E2D" stroke-linecap="round" stroke-linejoin="round" stroke-miterlimit="10" d="M30.6,69.6
	c-8.1,0.7-15.2-4.6-16.7-12.1c0,0.6,0,1.2,0,1.8c0.7,8.3,8.3,14.5,17,13.8c8.7-0.7,15.2-8,14.5-16.4c0-0.6-0.1-1.2-0.3-1.7
	C44.8,62.6,38.7,69,30.6,69.6z"/>
<path fill="#FFFFFF" stroke="#BE1E2D" stroke-linecap="round" stroke-linejoin="round" stroke-miterlimit="10" d="M31.4,71.8l1,2.2
	c0,0,0.7-2.1,2.3-2.3s3.2,0.9,3.2,0.9l-0.8-2.7c0,0-1.6-1.2-3.4-0.3S31.4,71.8,31.4,71.8z"/>
<path fill="#FFFFFF" stroke="#BE1E2D" stroke-linecap="round" stroke-linejoin="round" stroke-miterlimit="10" d="M32,73.1l9,17.8
	c0,0,0.6-1.8,2-1.9c1.4-0.2,2.2,0.3,2.2,0.3l-7.6-17.7c0,0-1.6-1.1-3-0.6C33.4,71.6,32,73.1,32,73.1z"/>
<ellipse transform="matrix(0.8774 -0.4798 0.4798 0.8774 -38.2681 31.9906)" fill="#FFFFFF" stroke="#BE1E2D" stroke-linecap="round" stroke-linejoin="round" stroke-miterlimit="10" cx="43.4" cy="90.9" rx="2.4" ry="2"/>
<path fill="#FFFFFF" stroke="#BE1E2D" stroke-linecap="round" stroke-linejoin="round" stroke-miterlimit="10" d="M25.9,50.3
	c-2.3-1.1-3.3,0.3-3.2,2.1s0.8,2.1,1.6,2.3c1.6,0.3,2.8-1,2.8-2.3S26.5,50.6,25.9,50.3z"/>
<path fill="#FFFFFF" stroke="#BE1E2D" stroke-linecap="round" stroke-linejoin="round" stroke-miterlimit="10" d="M26.6,48.2
	c-1.7-0.2-1.9,1.7-1.7,1.8s0.6,0.2,0.8,0.3s0.9,0.6,0.9,0.6s0.6-0.1,0.7-0.9S27.1,48.2,26.6,48.2z"/>
<line fill="none" stroke="#BE1E2D" stroke-linecap="round" stroke-linejoin="round" stroke-miterlimit="10" x1="27.3" y1="52.4" x2="29.7" y2="50"/>
<line fill="none" stroke="#BE1E2D" stroke-linecap="round" stroke-linejoin="round" stroke-miterlimit="10" x1="27.3" y1="53.2" x2="29.7" y2="54.4"/>
<line fill="none" stroke="#BE1E2D" stroke-linecap="round" stroke-linejoin="round" stroke-miterlimit="10" x1="26.1" y1="54.4" x2="27.9" y2="57.1"/>
<path fill="none" stroke="#BE1E2D" stroke-linecap="round" stroke-linejoin="round" stroke-miterlimit="10" d="M23.4,50.3
	c0,0-0.1-1.4-1.2-1.8"/>
<path fill="none" stroke="#BE1E2D" stroke-linecap="round" stroke-linejoin="round" stroke-miterlimit="10" d="M22.7,51.7
	c0,0-1.4-1.1-1.7-1.1"/>
<path fill="none" stroke="#BE1E2D" stroke-linecap="round" stroke-linejoin="round" stroke-miterlimit="10" d="M22.7,52.9
	c0,0-0.9-0.2-2,0.9S19.6,55,19.6,55"/>
<path fill="#FFFFFF" stroke="#BE1E2D" stroke-linecap="round" stroke-linejoin="round" stroke-miterlimit="10" d="M40.9,58.5
	c0.8-1-0.4-2.4-2.2-2.8s-2.8,0.8-2.9,1.3s0.9,2.3,1.8,2.3S40,59.8,40.9,58.5z"/>
<path fill="#FFFFFF" stroke="#BE1E2D" stroke-linecap="round" stroke-linejoin="round" stroke-miterlimit="10" d="M41.2,57.8
	c0,0,1.1,0.1,1.2,0.6s0.2,1.2-0.6,1.3s-1.2-0.8-1.2-0.8L41.2,57.8z"/>
<line fill="none" stroke="#BE1E2D" stroke-linecap="round" stroke-linejoin="round" stroke-miterlimit="10" x1="39.9" y1="56.2" x2="42.4" y2="55.3"/>
<path fill="none" stroke="#BE1E2D" stroke-linecap="round" stroke-linejoin="round" stroke-miterlimit="10" d="M38.4,55.3
	c0,0,0.6-1.9,0.8-2.1"/>
<line fill="none" stroke="#BE1E2D" stroke-linecap="round" stroke-linejoin="round" stroke-miterlimit="10" x1="37" y1="55.7" x2="36.2" y2="53.8"/>
<line fill="none" stroke="#BE1E2D" stroke-linecap="round" stroke-linejoin="round" stroke-miterlimit="10" x1="35.7" y1="57.5" x2="33.7" y2="58.2"/>
<path fill="none" stroke="#BE1E2D" stroke-linecap="round" stroke-linejoin="round" stroke-miterlimit="10" d="M36.5,58.8
	c0,0-0.8,0-1.3,1"/>
<path fill="none" stroke="#BE1E2D" stroke-linecap="round" stroke-linejoin="round" stroke-miterlimit="10" d="M38,59.3
	c0,0,0.1,1.1,0,1.8"/>
<path fill="#FFFFFF" stroke="#BE1E2D" stroke-linecap="round" stroke-linejoin="round" stroke-miterlimit="10" d="M25.7,62.8
	c2.4,0.5,2,2.2,1.6,3.6s-1.2,2.5-1.2,2.5s-2.1-0.5-3.3-1.2s-0.5-2.2-0.1-3.2C23.8,61.8,25.7,62.8,25.7,62.8z"/>
<path fill="none" stroke="#BE1E2D" stroke-linecap="round" stroke-linejoin="round" stroke-miterlimit="10" d="M27.6,65
	c0,0,1-1.4,2.1-1.4"/>
<path fill="none" stroke="#BE1E2D" stroke-linecap="round" stroke-linejoin="round" stroke-miterlimit="10" d="M27.3,66.4
	c0,0,1.2-0.1,1.7,0.4s0.6,1.1,0.6,1.1"/>
<line fill="none" stroke="#BE1E2D" stroke-linecap="round" stroke-linejoin="round" stroke-miterlimit="10" x1="23.4" y1="63.1" x2="21.9" y2="61.7"/>
<path fill="none" stroke="#BE1E2D" stroke-linecap="round" stroke-linejoin="round" stroke-miterlimit="10" d="M22.6,64.6
	c0,0-0.1-0.9-1.6-0.7s-1,0.4-1,0.4"/>
<path fill="#FFFFFF" stroke="#BE1E2D" stroke-linecap="round" stroke-linejoin="round" stroke-miterlimit="10" d="M105.3,57.6
	c0,0,7.4-1.6,7-12.9c-0.4-13.9-21.9-11.3-21.9-11.3l0.2,0.8v41.1h6.8V60.7l10.4,14.9h10.4L105.3,57.6z M97.5,51.5l-0.4-6.1v-4.9
	c0,0,7.6-1,7.6,4.9C104.7,51.3,97.5,51.5,97.5,51.5z"/>
<rect x="63.8" y="46.7" fill="#FFFFFF" stroke="#BE1E2D" stroke-linecap="round" stroke-linejoin="round" stroke-miterlimit="10" width="14" height="4.7"/>
<rect x="63.8" y="57.4" fill="#FFFFFF" stroke="#BE1E2D" stroke-linecap="round" stroke-linejoin="round" stroke-miterlimit="10" width="14" height="4.7"/>
</svg>
